<?xml version="1.0" encoding="utf-8"?>
<!-- Generator: Adobe Illustrator 27.2.0, SVG Export Plug-In . SVG Version: 6.00 Build 0)  -->
<svg version="1.1" id="Camada_1" xmlns="http://www.w3.org/2000/svg" xmlns:xlink="http://www.w3.org/1999/xlink" x="0px" y="0px"
	 viewBox="0 0 720 720" style="enable-background:new 0 0 720 720;" xml:space="preserve">
<style type="text/css">
	.st0{fill:#9E1F63;}
	.st1{fill-rule:evenodd;clip-rule:evenodd;fill:#364c88;}
</style>
<path class="st0" d="M302.71,256.41h126.82c11.86,0,22.9-4.67,31.09-13.13c8.18-8.46,12.48-19.65,12.07-31.51
	c-0.03-0.85-0.37-8.65-3.37-20.95l-0.05,0.01c-7.39-30.56-24.72-40.27-46.61-51.17c4.27-8.51,6.74-18.08,6.74-28.23
	c0-34.88-28.37-63.26-63.26-63.26c-34.87,0-63.25,28.38-63.25,63.26c0,10.15,2.45,19.71,6.73,28.22
	c-22.82,11.37-40.71,21.34-47.54,55.06c-2.29,11.26-2.58,15.94-2.61,17.1c-0.36,11.85,3.97,23.02,12.17,31.48
	C279.81,251.75,290.86,256.41,302.71,256.41L302.71,256.41z M366.12,73.22c21.06,0,38.21,17.14,38.21,38.21
	c0,21.06-17.15,38.2-38.21,38.2s-38.2-17.14-38.2-38.2C327.92,90.35,345.05,73.22,366.12,73.22z M286.61,199.7
	c4.66-22.98,14.04-27.63,36.71-38.88l2.07-1.06c11.01,9.3,25.21,14.94,40.73,14.94s29.71-5.63,40.73-14.94l2.07,1.05
	c22.68,11.25,32.06,15.91,36.72,38.89h0.03c1.75,8.03,1.99,12.93,1.99,12.93c0.17,5.01-1.62,9.71-5.04,13.25
	c-3.43,3.53-8.07,5.49-13.07,5.49H302.71c-5.02,0-9.68-1.96-13.12-5.5c-3.44-3.56-5.26-8.27-5.11-13.12
	C284.48,212.71,284.7,209.09,286.61,199.7L286.61,199.7z"/>
<path class="st0" d="M262.88,541.34c7.39,30.56,24.72,40.27,46.61,51.17c-4.27,8.5-6.74,18.07-6.74,28.22
	c0,34.88,28.37,63.26,63.26,63.26c34.87,0,63.25-28.39,63.25-63.26c0-10.15-2.45-19.71-6.73-28.22
	c22.81-11.38,40.71-21.34,47.54-55.05c2.29-11.26,2.58-15.94,2.61-17.11c0.36-11.84-3.97-23.02-12.17-31.48
	c-8.2-8.45-19.24-13.11-31.09-13.11H302.6c-11.86,0-22.9,4.66-31.09,13.13c-8.18,8.46-12.48,19.65-12.07,31.51
	c0.03,0.84,0.37,8.65,3.37,20.95L262.88,541.34z M366.02,658.94c-21.06,0-38.21-17.15-38.21-38.2c0-21.06,17.15-38.2,38.21-38.2
	s38.2,17.14,38.2,38.2S387.09,658.94,366.02,658.94z M289.54,506.3c3.42-3.53,8.06-5.49,13.06-5.49h126.83
	c5.02,0,9.68,1.96,13.12,5.51c3.44,3.54,5.26,8.26,5.11,13.1c0,0.04-0.22,3.66-2.13,13.06c-4.66,22.96-14.04,27.63-36.69,38.88
	l-2.09,1.07c-11.02-9.3-25.21-14.94-40.73-14.94c-15.51,0-29.72,5.63-40.73,14.94l-2.07-1.06c-22.67-11.26-32.03-15.9-36.7-38.88
	l-0.03,0.01c-1.75-8.04-1.99-12.93-1.99-12.95C284.32,514.54,286.11,509.83,289.54,506.3L289.54,506.3z"/>
<path class="st0" d="M243.26,267.89c-8.46-8.18-19.65-12.48-31.51-12.07c-0.85,0.03-8.66,0.37-20.95,3.36l0.01,0.06
	c-30.56,7.4-40.27,24.74-51.17,46.62c-8.52-4.27-18.08-6.74-28.23-6.74c-34.88,0-63.26,28.38-63.26,63.26
	c0,34.87,28.38,63.25,63.26,63.25c10.15,0,19.71-2.45,28.23-6.73c11.36,22.81,21.33,40.71,55.05,47.54
	c11.26,2.29,15.94,2.58,17.11,2.61c11.85,0.36,23.02-3.96,31.48-12.16c8.44-8.2,13.11-19.24,13.11-31.1V298.98
	C256.39,287.11,251.72,276.07,243.26,267.89L243.26,267.89z M73.21,362.38c0-21.06,17.14-38.2,38.21-38.2
	c21.06,0,38.2,17.14,38.2,38.2s-17.14,38.2-38.2,38.2C90.34,400.58,73.21,383.45,73.21,362.38z M225.85,438.91
	c-3.56,3.45-8.27,5.26-13.12,5.11c-0.04,0-3.66-0.22-13.06-2.13c-22.95-4.65-27.62-14.04-38.87-36.71l-1.07-2.08
	c9.3-11.01,14.94-25.21,14.94-40.73c0-15.51-5.63-29.71-14.94-40.73l1.05-2.07c11.24-22.67,15.9-32.06,38.88-36.72v-0.03
	c8.03-1.75,12.93-1.99,12.94-1.99c5.02-0.17,9.72,1.62,13.25,5.04c3.54,3.42,5.49,8.06,5.49,13.07v126.83
	C231.35,430.81,229.39,435.47,225.85,438.91L225.85,438.91z"/>
<path class="st0" d="M541.36,465.66l-0.01-0.05c30.55-7.39,40.27-24.72,51.16-46.61c8.51,4.27,18.08,6.74,28.23,6.74
	c34.88,0,63.26-28.38,63.26-63.26c0-34.87-28.38-63.25-63.26-63.25c-10.15,0-19.71,2.46-28.23,6.74
	c-11.36-22.81-21.33-40.7-55.05-47.53c-11.26-2.3-15.94-2.58-17.11-2.61c-11.85-0.36-23.02,3.96-31.48,12.17
	c-8.44,8.2-13.11,19.25-13.11,31.1v126.83c0,11.86,4.67,22.9,13.13,31.08c8.46,8.19,19.65,12.48,31.49,12.07
	C521.24,469,529.06,468.66,541.36,465.66L541.36,465.66z M658.95,362.47c0,21.07-17.14,38.22-38.21,38.22
	c-21.06,0-38.2-17.15-38.2-38.22c0-21.05,17.14-38.19,38.2-38.19C641.81,324.28,658.95,341.4,658.95,362.47L658.95,362.47z
	 M506.3,438.96c-3.54-3.42-5.49-8.07-5.49-13.06V299.06c0-5.03,1.96-9.68,5.5-13.12c3.56-3.44,8.27-5.25,13.12-5.09
	c0.03,0,3.65,0.21,13.06,2.12c22.96,4.66,27.63,14.04,38.87,36.71l1.06,2.07c-9.3,11-14.94,25.21-14.94,40.72
	c0,15.52,5.63,29.72,14.94,40.73l-1.05,2.07c-11.25,22.68-15.91,32.06-38.88,36.72V442c-8.03,1.76-12.92,2-12.95,2
	C514.53,444.16,509.84,442.37,506.3,438.96L506.3,438.96z"/>
<g id="g10" transform="matrix(2.8249584,0,0,-2.8249584,-606.01855,163.1583)">
	<g id="g12">
		<g>
			<g id="g14">
				<path id="path22" class="st1" d="M354-84.57c0,0-10.56-0.81-19.22,0c0-10.83,1.35-16.24,1.62-17.32h19.22
					C354.81-96.48,354.27-87.28,354-84.57 M321.25-62.37c1.35,0,12.45-1.08,13.53-1.08l17.87-18.41h23.01v19.22h-54.41V-62.37z
					 M336.13-61.29h19.22v18.95h-19.22V-61.29z M336.13-66.7L336.13-66.7l-2.7,2.7c-3.52,0-14.35,1.08-17.59,1.62V-81.6
					c17.32-1.62,26.53-2.17,36.54-1.62l0,0L336.13-66.7L336.13-66.7z M354-82.94h2.44v-14.89c-0.27,1.62-1.08,10.83-1.08,13.53
					C354.81-84.03,354-82.94,354-82.94"/>
			</g>
		</g>
	</g>
</g>
</svg>
