<?xml version="1.0" encoding="utf-8"?>
<!-- Generator: Adobe Illustrator 27.2.0, SVG Export Plug-In . SVG Version: 6.00 Build 0)  -->
<svg version="1.1" id="Camada_1" xmlns="http://www.w3.org/2000/svg" xmlns:xlink="http://www.w3.org/1999/xlink" x="0px" y="0px"
	 viewBox="0 0 720 420" style="enable-background:new 0 0 720 420;" xml:space="preserve">
<style type="text/css">
	.st0{fill:#211C19;}
	.st1{font-family:'PatrickHand-Regular';}
	.st2{font-size:29.9063px;}
	.st3{opacity:0.5;fill:#484443;}
	.st4{fill:#211B1A;}
	.st5{fill:#FA6701;}
	.st6{font-family:'RobotoCondensed-Regular';}
	.st7{font-size:19.6099px;}
	.st8{fill:#FFFFFF;}
	.st9{font-family:'RobotoCondensed-Bold';}
	.st10{font-size:38.7153px;}
</style>
<text transform="matrix(1 0 0 1 36 57.7866)" class="st0 st1 st2">COMPOSIÇÃO DOS CONSELHOS E CONFERÊNCIAS DE SAÚDE</text>
<path class="st3" d="M192,109c-75.11,0-136,60.89-136,136c0,75.11,60.89,136,136,136V109z"/>
<path class="st4" d="M331.98,243.17C330.99,168.9,270.5,109,196,109v134.17H331.98z"/>
<path class="st5" d="M331.98,247C330.99,321.26,270.5,381.17,196,381.17V247H331.98z"/>
<g>
	<text transform="matrix(1 0 0 1 405.5312 163.4229)"><tspan x="0" y="0" class="st6 st7">Representantes da sociedade civil</tspan><tspan x="0" y="34.72" class="st6 st7">Profissionais de saúde</tspan><tspan x="0" y="69.45" class="st6 st7">Gestores e prestadores de serviço</tspan></text>
	<rect x="375" y="148.21" class="st3" width="19.68" height="19.68"/>
	<rect x="375" y="182.94" class="st4" width="19.68" height="19.68"/>
	<rect x="375" y="216.5" class="st5" width="19.68" height="19.68"/>
</g>
<g>
	<text transform="matrix(1 0 0 1 98.105 255.0166)" class="st8 st9 st10">50%</text>
</g>
<g>
	<text transform="matrix(1 0 0 1 229.5397 202.8126)" class="st8 st9 st10">25%</text>
</g>
<g>
	<text transform="matrix(1 0 0 1 229.5397 312.8126)" class="st8 st9 st10">25%</text>
</g>
</svg>
