<svg width="10" height="9" viewBox="0 0 10 9" fill="none" xmlns="http://www.w3.org/2000/svg">
<g clip-path="url(#clip0_240_78)">
<path d="M7.12166 4.63149H7.90382L7.88935 4.38412C7.7959 2.71981 6.51196 1.41574 4.96657 1.41574C4.03533 1.41574 3.1586 1.90687 2.61009 2.71021C2.3809 2.42081 1.90582 1.81921 1.74561 1.61508C2.55557 0.589593 3.71824 0 4.96657 0C7.25629 0 9.11654 1.93569 9.2011 4.40694L9.20889 4.63149H9.99994L8.61031 6.64643L7.12055 4.63149H7.12166Z" fill="#CCCCCC"/>
<path d="M2.87828 4.36854H2.09613L2.10948 4.6159C2.20405 6.28021 3.48687 7.58428 5.03227 7.58428C5.96351 7.58428 6.83912 7.09316 7.38874 6.28982C7.61682 6.57921 8.09301 7.18081 8.25323 7.38495C7.44326 8.41043 6.28171 9.00003 5.03227 9.00003C2.74143 9.00003 0.882288 7.06434 0.79773 4.59429L0.789942 4.36974H0L1.38963 2.3548L2.87828 4.36974V4.36854Z" fill="#CCCCCC"/>
</g>
<defs>
<clipPath id="clip0_240_78">
<rect width="10" height="9" fill="white"/>
</clipPath>
</defs>
</svg>
