<?xml version="1.0" encoding="utf-8"?>
<!-- Generator: Adobe Illustrator 27.2.0, SVG Export Plug-In . SVG Version: 6.00 Build 0)  -->
<svg version="1.1" id="Camada_1" xmlns="http://www.w3.org/2000/svg" xmlns:xlink="http://www.w3.org/1999/xlink" x="0px" y="0px"
	 viewBox="0 0 720 986" style="enable-background:new 0 0 720 986;" xml:space="preserve">
<style type="text/css">
	.st0{enable-background:new    ;}
	.st1{fill:#211B1A;}
	.st2{fill:#FA6701;}
	.st3{fill:#484442;}
	.st4{opacity:0.5;}
	.st5{opacity:0.5;fill:#484443;enable-background:new    ;}
	.st6{opacity:0.5;fill:#FFFFFF;enable-background:new    ;}
	.st7{fill:#FFFFFF;}
	.st8{fill:#201C19;}
</style>
<g>
	<g>
		<g>
			<g class="st0">
				<path class="st1" d="M215.24,907.14l6.57,20.55l6.57-20.55h4.08v25.19h-3.17v-9.81l0.29-9.83l-6.59,19.63h-2.42l-6.56-19.57
					l0.29,9.76v9.81h-3.17v-25.19H215.24z"/>
				<path class="st1" d="M247.04,930.69c-1.02,1.33-2.5,1.99-4.45,1.99c-1.7,0-2.98-0.58-3.84-1.76c-0.86-1.17-1.3-2.87-1.31-5.11
					v-12.2h3.04v11.97c0,2.92,0.88,4.38,2.63,4.38c1.86,0,3.14-0.83,3.84-2.49v-13.86h3.06v18.72h-2.91L247.04,930.69z"/>
				<path class="st1" d="M257.92,932.33h-3.06v-26.57h3.06V932.33z"/>
				<path class="st1" d="M265.79,915.53c1.16-1.51,2.65-2.27,4.46-2.27c3.31,0,4.99,2.21,5.03,6.63v12.44h-3.04v-12.3
					c0-1.46-0.25-2.51-0.74-3.12c-0.49-0.62-1.23-0.93-2.21-0.93c-0.76,0-1.44,0.25-2.05,0.76s-1.09,1.17-1.46,1.99v13.6h-3.06
					v-26.57h3.06V915.53z"/>
				<path class="st1" d="M286.54,932.68c-2.33,0-4.12-0.69-5.36-2.08s-1.88-3.43-1.9-6.12v-2.27c0-2.79,0.61-4.98,1.82-6.57
					s2.92-2.38,5.09-2.38c2.19,0,3.83,0.7,4.91,2.09c1.08,1.4,1.64,3.57,1.66,6.52v2.01h-10.45v0.43c0,2.01,0.38,3.47,1.13,4.38
					s1.84,1.37,3.26,1.37c0.9,0,1.69-0.17,2.38-0.51c0.69-0.34,1.33-0.88,1.93-1.62l1.59,1.94
					C291.28,931.74,289.26,932.68,286.54,932.68z M286.19,915.9c-1.27,0-2.21,0.44-2.82,1.31c-0.61,0.87-0.96,2.22-1.04,4.06h7.37
					v-0.42c-0.08-1.78-0.4-3.04-0.96-3.81S287.33,915.9,286.19,915.9z"/>
				<path class="st1" d="M304.16,916.48c-0.43-0.08-0.89-0.12-1.38-0.12c-1.57,0-2.66,0.86-3.29,2.58v13.39h-3.06v-18.72h2.98
					l0.05,1.9c0.82-1.5,1.98-2.25,3.48-2.25c0.48,0,0.89,0.08,1.21,0.24L304.16,916.48z"/>
				<path class="st1" d="M313.58,932.68c-2.33,0-4.12-0.69-5.36-2.08s-1.88-3.43-1.9-6.12v-2.27c0-2.79,0.61-4.98,1.82-6.57
					s2.92-2.38,5.09-2.38c2.19,0,3.83,0.7,4.91,2.09c1.08,1.4,1.64,3.57,1.66,6.52v2.01h-10.45v0.43c0,2.01,0.38,3.47,1.13,4.38
					s1.84,1.37,3.26,1.37c0.9,0,1.69-0.17,2.38-0.51c0.69-0.34,1.33-0.88,1.93-1.62l1.59,1.94
					C318.32,931.74,316.3,932.68,313.58,932.68z M313.23,915.9c-1.27,0-2.21,0.44-2.82,1.31c-0.61,0.87-0.96,2.22-1.04,4.06h7.37
					v-0.42c-0.08-1.78-0.4-3.04-0.96-3.81S314.37,915.9,313.23,915.9z"/>
				<path class="st1" d="M332.57,927.54c0-0.66-0.25-1.22-0.74-1.7s-1.45-1.03-2.87-1.66c-1.65-0.68-2.81-1.26-3.49-1.75
					s-1.18-1.04-1.51-1.65c-0.33-0.62-0.5-1.35-0.5-2.21c0-1.52,0.56-2.79,1.67-3.8c1.11-1.01,2.53-1.51,4.26-1.51
					c1.82,0,3.29,0.53,4.39,1.59c1.11,1.06,1.66,2.42,1.66,4.08h-3.04c0-0.84-0.28-1.56-0.85-2.15c-0.56-0.59-1.29-0.89-2.16-0.89
					c-0.9,0-1.61,0.23-2.12,0.7c-0.51,0.47-0.77,1.09-0.77,1.87c0,0.62,0.19,1.12,0.56,1.5c0.38,0.38,1.28,0.88,2.71,1.5
					c2.27,0.89,3.82,1.76,4.64,2.61c0.82,0.85,1.23,1.93,1.23,3.23c0,1.63-0.56,2.93-1.68,3.91c-1.12,0.98-2.62,1.46-4.5,1.46
					c-1.95,0-3.53-0.56-4.74-1.68c-1.21-1.12-1.82-2.54-1.82-4.26h3.08c0.03,1.04,0.35,1.85,0.95,2.44c0.6,0.59,1.44,0.88,2.53,0.88
					c1.02,0,1.79-0.23,2.32-0.68C332.3,928.93,332.57,928.31,332.57,927.54z"/>
			</g>
			<g class="st0">
				<path class="st1" d="M448.84,932.79h-3.18v-11.64h-10.14v11.64h-3.17v-25.19h3.17v10.83h10.14v-10.83h3.18V932.79z"/>
				<path class="st1" d="M453.25,922.57c0-2.72,0.66-4.88,1.98-6.46s3.06-2.38,5.23-2.38c2.17,0,3.91,0.77,5.23,2.32
					c1.32,1.55,2,3.65,2.03,6.31v1.97c0,2.71-0.66,4.86-1.97,6.44c-1.32,1.58-3.07,2.37-5.26,2.37c-2.17,0-3.91-0.77-5.22-2.3
					c-1.31-1.53-1.99-3.61-2.03-6.23V922.57z M456.31,924.33c0,1.93,0.38,3.44,1.13,4.54c0.75,1.1,1.77,1.65,3.05,1.65
					c2.7,0,4.09-1.95,4.17-5.85v-2.11c0-1.91-0.38-3.43-1.14-4.54c-0.76-1.11-1.78-1.67-3.06-1.67c-1.26,0-2.26,0.56-3.02,1.67
					c-0.76,1.11-1.13,2.62-1.13,4.52V924.33z"/>
				<path class="st1" d="M474.57,914.08l0.07,1.73c1.14-1.38,2.65-2.08,4.52-2.08c2.09,0,3.55,0.91,4.38,2.72
					c1.18-1.81,2.81-2.72,4.91-2.72c3.45,0,5.21,2.15,5.29,6.45v12.61h-3.04v-12.32c0-1.36-0.24-2.37-0.73-3.04s-1.3-1-2.46-1
					c-0.92,0-1.67,0.36-2.25,1.07c-0.58,0.71-0.91,1.63-1,2.73v12.54h-3.08v-12.46c-0.04-2.59-1.09-3.89-3.17-3.89
					c-1.55,0-2.64,0.77-3.27,2.32v14.03h-3.04v-18.72H474.57z"/>
				<path class="st1" d="M505.03,933.14c-2.33,0-4.12-0.69-5.36-2.08c-1.25-1.39-1.88-3.43-1.9-6.12v-2.27
					c0-2.79,0.61-4.98,1.83-6.57s2.92-2.38,5.09-2.38c2.19,0,3.83,0.7,4.91,2.09s1.64,3.57,1.66,6.52v2.01h-10.45v0.43
					c0,2.01,0.38,3.47,1.13,4.38c0.76,0.91,1.84,1.37,3.26,1.37c0.9,0,1.69-0.17,2.38-0.51s1.33-0.88,1.93-1.62l1.59,1.94
					C509.78,932.21,507.75,933.14,505.03,933.14z M504.68,916.36c-1.27,0-2.21,0.44-2.82,1.31c-0.61,0.87-0.96,2.22-1.04,4.06h7.37
					v-0.42c-0.08-1.78-0.4-3.04-0.96-3.81S505.83,916.36,504.68,916.36z"/>
				<path class="st1" d="M517.82,914.08l0.09,2.02c1.19-1.58,2.7-2.37,4.55-2.37c3.31,0,4.99,2.21,5.03,6.63v12.44h-3.04v-12.3
					c0-1.46-0.25-2.51-0.74-3.12c-0.49-0.62-1.23-0.93-2.21-0.93c-0.76,0-1.44,0.25-2.05,0.76s-1.09,1.17-1.46,1.99v13.6h-3.06
					v-18.72H517.82z"/>
				<path class="st1" d="M541.17,928c0-0.66-0.25-1.22-0.74-1.7s-1.45-1.03-2.87-1.66c-1.65-0.68-2.81-1.26-3.49-1.75
					s-1.18-1.04-1.51-1.65c-0.33-0.62-0.5-1.35-0.5-2.21c0-1.52,0.56-2.79,1.67-3.8c1.11-1.01,2.54-1.51,4.26-1.51
					c1.82,0,3.29,0.53,4.39,1.59c1.11,1.06,1.66,2.42,1.66,4.08H541c0-0.84-0.28-1.56-0.85-2.15c-0.56-0.59-1.29-0.89-2.16-0.89
					c-0.9,0-1.61,0.23-2.12,0.7c-0.51,0.47-0.77,1.09-0.77,1.87c0,0.62,0.19,1.12,0.56,1.5c0.38,0.38,1.28,0.88,2.71,1.5
					c2.27,0.89,3.82,1.76,4.64,2.61c0.82,0.85,1.23,1.93,1.23,3.23c0,1.63-0.56,2.93-1.68,3.91c-1.12,0.98-2.62,1.46-4.5,1.46
					c-1.95,0-3.53-0.56-4.74-1.68c-1.21-1.12-1.82-2.54-1.82-4.26h3.08c0.04,1.04,0.35,1.85,0.95,2.44c0.6,0.59,1.44,0.88,2.53,0.88
					c1.01,0,1.79-0.23,2.32-0.68C540.9,929.39,541.17,928.77,541.17,928z"/>
			</g>
			<rect x="159.28" y="903.01" class="st2" width="35.55" height="35.55"/>
			<rect x="380.28" y="903.01" class="st3" width="35.55" height="35.55"/>
		</g>
	</g>
	<g>
		<g class="st4">
			<rect x="57.39" y="661.5" class="st5" width="587.09" height="0.5"/>
			<rect x="57.39" y="569.46" class="st5" width="587.09" height="0.5"/>
			<rect x="57.39" y="478.72" class="st5" width="587.09" height="0.5"/>
			<rect x="57.39" y="385.39" class="st5" width="587.09" height="0.5"/>
			<rect x="57.39" y="478.72" class="st5" width="587.09" height="0.5"/>
			<rect x="57.39" y="385.39" class="st5" width="587.09" height="0.5"/>
			<rect x="57.39" y="569.46" class="st5" width="587.09" height="0.5"/>
			<rect x="57.39" y="660.2" class="st5" width="587.09" height="0.5"/>
			<rect x="57.39" y="293.35" class="st5" width="587.09" height="0.5"/>
		</g>
		<rect x="81.37" y="360.36" class="st6" width="101.11" height="392.77"/>
		<rect x="196.09" y="430.59" class="st7" width="101.11" height="322.54"/>
		<rect x="519.12" y="541.19" class="st7" width="101.11" height="211.94"/>
		<rect x="196.09" y="430.59" class="st3" width="101.11" height="322.54"/>
		<rect x="519.12" y="541.19" class="st3" width="101.11" height="211.94"/>
		<rect x="404.4" y="363.16" class="st2" width="101.11" height="389.97"/>
		<rect x="59.76" y="752.63" width="584.72" height="1"/>
		<g>
			<g class="st0">
				<path class="st8" d="M221.9,400.48L221.51,416c0,0.72-0.24,1.26-0.71,1.63c-0.48,0.36-1.01,0.54-1.6,0.54
					c-0.92,0-1.38-1.23-1.38-3.69c0-5.09,0.15-9.79,0.44-14.09l-5.02,0.3c-0.39,0.03-0.76-0.16-1.08-0.57
					c-0.33-0.41-0.49-0.83-0.49-1.26c0-1.15,0.69-1.72,2.07-1.72l4.83-0.05l0.49-5.96c-1.12-0.39-3.97-0.95-8.57-1.67
					c-1.77-0.3-2.82-0.48-3.15-0.54c-0.85-0.16-1.28-0.8-1.28-1.92c0-0.39,0.16-0.77,0.49-1.13c0.33-0.36,0.8-0.54,1.4-0.54
					c0.61,0,3.07,0.35,7.39,1.06c4.32,0.71,6.71,1.27,7.17,1.7c0.2,0.17,0.3,0.77,0.3,1.82c0,0.49-0.12,1.82-0.35,3.99
					c-0.2,1.51-0.31,2.55-0.34,3.1l2.46-0.15c0.23,0,0.6,0,1.11,0c0.51,0,0.94,0.12,1.31,0.34s0.54,0.67,0.54,1.3
					c0,0.64-0.23,1.12-0.69,1.43c-0.46,0.31-1.35,0.49-2.66,0.52L221.9,400.48z"/>
				<path class="st8" d="M231.11,402.55c0-4.4,0.79-8.28,2.36-11.62c0.79-1.71,1.85-3.05,3.2-4.04c1.35-0.99,2.89-1.48,4.63-1.48
					c2.56,0,4.65,1.67,6.28,5c1.63,3.33,2.44,7.29,2.44,11.87s-0.76,8.37-2.27,11.38c-1.51,3-3.65,4.51-6.4,4.51
					C234.53,418.16,231.11,412.96,231.11,402.55z M240.87,413.63c1.18,0,2.17-0.62,2.98-1.85c0.8-1.23,1.35-2.61,1.65-4.14
					c0.3-1.53,0.44-3.51,0.44-5.96c0-2.45-0.33-5.05-0.99-7.81c-0.33-1.51-0.83-2.72-1.5-3.62c-0.67-0.9-1.49-1.35-2.44-1.35
					c-1.28,0-2.38,0.77-3.3,2.31c-1.64,2.79-2.46,6.5-2.46,11.13c0,3.02,0.57,5.66,1.7,7.91
					C238.08,412.51,239.39,413.63,240.87,413.63z"/>
				<path class="st8" d="M257.22,412.99c0.89,0,1.48,0.46,1.77,1.38c0,2.17-0.34,4.12-1.03,5.86c-0.23,0.62-0.57,1.15-1.01,1.58
					s-0.91,0.64-1.4,0.64c-1.08,0-1.63-0.58-1.63-1.72c0-0.36,0.05-0.71,0.15-1.03c1.02-1.15,1.53-2.87,1.53-5.17
					C255.79,413.5,256.33,412.99,257.22,412.99z"/>
				<path class="st8" d="M276.04,418.21l-7.24-0.1c-0.33,0-0.66,0-0.99,0c-3.25,0-4.88-0.62-4.88-1.87c0-0.89,0.16-1.72,0.49-2.51
					c0.33-0.79,0.64-1.38,0.94-1.77c0.3-0.39,0.89-1.05,1.77-1.97c0.89-0.92,1.53-1.61,1.92-2.07s1.58-1.63,3.57-3.5
					c1.99-1.87,3.48-3.56,4.48-5.07c1-1.51,1.5-3.1,1.5-4.78c0-2.59-1.03-4.27-3.1-5.02c-0.59-0.2-1.2-0.29-1.82-0.29
					c-1.41,0-2.82,0.61-4.24,1.82c-0.56,0.53-1.15,0.79-1.77,0.79c-0.2,0-0.38-0.02-0.54-0.05c-0.82-0.2-1.23-0.77-1.23-1.72
					c0-1.28,0.9-2.35,2.71-3.2c1.94-0.92,4.05-1.38,6.33-1.38c2.28,0,4.15,0.83,5.62,2.49c1.46,1.66,2.19,3.72,2.19,6.18
					c0,3.51-1.08,6.54-3.25,9.06c-1.02,1.18-2.05,2.28-3.1,3.3c-3.32,3.15-5.53,5.55-6.65,7.19c1.48,0.1,3.31,0.15,5.49,0.15
					c2.18,0,4.88-0.13,8.1-0.39c0.49,0.1,0.89,0.32,1.21,0.67c0.31,0.34,0.47,0.73,0.47,1.16c0,1.12-0.59,1.89-1.77,2.32
					C281.06,418.02,278.99,418.21,276.04,418.21z"/>
				<path class="st8" d="M287.96,389.94c1.54-2.46,3.89-3.69,7.04-3.69c1.71,0,3.14,0.49,4.29,1.48c1.15,0.99,1.72,2.47,1.72,4.46
					c0,1.99-0.86,3.95-2.59,5.89s-3.64,2.91-5.74,2.91c-1.54,0-2.92-0.61-4.11-1.82c-1.2-1.21-1.8-2.74-1.8-4.58
					C286.77,392.73,287.17,391.19,287.96,389.94z M311.21,388.61c0,0.56-0.9,2.13-2.71,4.73c-1.08,1.35-3.78,5.44-8.08,12.27
					c-2.76,4.3-4.88,7.68-6.35,10.15c-0.85,1.35-1.7,2.02-2.54,2.02s-1.45-0.3-1.85-0.89c-0.16-0.26-0.25-0.56-0.25-0.89
					c0-0.33,0.14-0.77,0.42-1.33c0.28-0.56,1.27-1.86,2.98-3.92c1.71-2.05,3.67-4.93,5.89-8.62c2.22-3.69,3.87-6.4,4.95-8.1
					c1.08-1.71,1.82-2.97,2.22-3.79c0.62-1.45,1.43-2.59,2.41-3.45c0.62-0.43,1.18-0.64,1.67-0.64s0.82,0.12,0.99,0.34
					c0.16,0.23,0.25,0.62,0.25,1.18V388.61z M297.32,392.75c0-2.4-0.74-3.6-2.22-3.6c-1.48,0-2.64,0.48-3.47,1.45
					s-1.26,2.11-1.26,3.42s0.17,2.17,0.52,2.56c0.35,0.39,1.03,0.59,2.07,0.59c1.03,0,2.02-0.43,2.96-1.28
					C296.85,395.04,297.32,393.99,297.32,392.75z M300.62,411.64c0-2.02,0.82-3.82,2.46-5.39c1.64-1.58,3.4-2.36,5.27-2.36
					c1.87,0,3.37,0.67,4.51,2c1.13,1.33,1.7,2.99,1.7,4.97c0,1.99-0.74,3.64-2.22,4.95c-1.48,1.31-3.23,1.97-5.25,1.97
					c-2.02,0-3.6-0.52-4.75-1.55C301.19,415.18,300.62,413.66,300.62,411.64z M304.26,411.17c0,2.13,1.02,3.2,3.05,3.2
					c0.89,0,1.77-0.41,2.66-1.23c0.89-0.82,1.33-1.64,1.33-2.46c0-1.44-0.38-2.46-1.13-3.05c-0.36-0.26-0.79-0.39-1.28-0.39
					c-1.18,0-2.25,0.37-3.2,1.11C304.74,409.08,304.26,410.02,304.26,411.17z"/>
			</g>
		</g>
		<g>
			<g class="st0">
				<path class="st8" d="M93.59,310.15c2.4,0,4.4,0.58,6.01,1.72c1.61,1.15,2.41,2.78,2.41,4.88c0,2.99-1.61,5.57-4.83,7.73
					c1.87,2,3.2,3.73,3.99,5.17c0.85,1.58,1.28,3.45,1.28,5.62c0,2.17-0.81,3.96-2.41,5.37c-1.74,1.51-3.92,2.27-6.55,2.27
					c-2.63,0-4.68-0.66-6.16-1.97c-1.54-1.38-2.31-3.27-2.31-5.66c0-3.91,1.89-7.36,5.66-10.34c-1.41-0.75-2.63-1.92-3.65-3.5
					c-1.05-1.61-1.58-3.31-1.58-5.1c0-1.79,0.72-3.24,2.17-4.36C89.2,310.76,91.19,310.15,93.59,310.15z M88.66,334.68
					c0,0.17,0,0.31,0,0.44c0.03,1.28,0.58,2.27,1.65,2.96c1.07,0.69,2.39,1.03,3.97,1.03c1.48,0,2.54-0.41,3.2-1.23
					c0.66-0.82,0.98-1.82,0.96-3c-0.02-1.18-0.41-2.36-1.18-3.55c-0.77-1.18-2-2.63-3.67-4.33c-1.67,1.15-2.91,2.4-3.72,3.74
					C89.06,332.09,88.66,333.4,88.66,334.68z M88.96,317c0,0.66,0.2,1.28,0.59,1.87s0.79,1.03,1.18,1.33s0.94,0.67,1.63,1.13
					s1.15,0.77,1.38,0.94c1.05-0.79,1.76-1.32,2.12-1.6c0.36-0.28,0.78-0.67,1.26-1.18c0.48-0.51,0.77-0.95,0.89-1.33
					c0.11-0.38,0.16-0.94,0.15-1.7c-0.02-0.75-0.48-1.42-1.38-1.99c-0.9-0.57-1.85-0.86-2.83-0.86c-0.1,0-0.2,0-0.3,0
					C90.52,313.86,88.96,315,88.96,317z"/>
				<path class="st8" d="M110.09,321.68c1.35-0.49,2.64-0.74,3.89-0.74c1.25,0,2.45,0.2,3.62,0.59c1.17,0.39,2.23,1,3.2,1.82
					c0.97,0.82,1.75,1.95,2.34,3.37c0.59,1.43,0.89,3.08,0.89,4.95c0,3.15-0.92,5.81-2.76,7.98c-1.84,2.17-3.97,3.25-6.38,3.25
					c-2.41,0-4.53-0.55-6.35-1.65c-1.82-1.1-2.73-2.31-2.73-3.62c0-0.62,0.07-1.09,0.22-1.4c0.15-0.31,0.42-0.57,0.81-0.76
					c0.39-0.2,0.75-0.29,1.06-0.29c0.31,0,0.74,0.19,1.28,0.57c0.54,0.38,1.31,0.91,2.29,1.6c0.99,0.69,2.12,1.03,3.4,1.03
					s2.41-0.65,3.4-1.95c0.99-1.3,1.48-2.72,1.48-4.26c0-4.43-1.99-6.65-5.96-6.65c-0.85,0-1.85,0.08-2.98,0.25
					c-1.13,0.16-1.87,0.26-2.22,0.29c-0.34,0.03-0.81-0.08-1.4-0.34c-0.69-0.66-1.03-2.75-1.03-6.28c0-3.53,0.08-5.81,0.25-6.85
					c0.16-1.03,0.44-1.63,0.84-1.8c0.69-0.3,2.75-0.44,6.18-0.44c3.43,0,6.18,0.33,8.25,0.99c0.66,0.39,0.98,0.96,0.98,1.7
					c0,0.74-0.21,1.34-0.62,1.8c-0.41,0.46-0.85,0.64-1.31,0.54c-2.73-0.59-5.47-0.89-8.23-0.89c-0.85,0-1.71,0.03-2.56,0.1
					C109.94,315.87,109.99,318.23,110.09,321.68z"/>
				<path class="st8" d="M130.53,337.79c0.89,0,1.48,0.46,1.77,1.38c0,2.17-0.34,4.12-1.03,5.86c-0.23,0.62-0.57,1.15-1.01,1.58
					s-0.91,0.64-1.4,0.64c-1.08,0-1.63-0.58-1.63-1.72c0-0.36,0.05-0.71,0.15-1.03c1.02-1.15,1.53-2.87,1.53-5.17
					C129.1,338.3,129.64,337.79,130.53,337.79z"/>
				<path class="st8" d="M151.61,317.25l-0.05,4.93c0,1.12,0,4.22,0,9.31l0.1,9.36c0,0.59-0.25,1.08-0.76,1.45
					c-0.51,0.38-0.99,0.57-1.43,0.57s-0.8-0.21-1.06-0.62c-0.26-0.41-0.41-0.88-0.44-1.4c-0.23-4.83-0.35-9.82-0.35-14.97
					c-0.85,1.12-2.58,1.67-5.17,1.67c-1.77,0-3.23-0.92-4.38-2.76c-1.15-1.84-1.72-3.83-1.72-5.96c0-2.82,0.88-4.98,2.64-6.48
					c1.76-1.49,3.98-2.24,6.67-2.24c2.69,0,4.55,1.03,5.57,3.1C151.48,313.77,151.61,315.11,151.61,317.25z M147.72,318.43
					l0.05-2.41c0-0.79-0.07-1.3-0.2-1.55c-0.13-0.25-0.3-0.44-0.49-0.57c-0.23-0.23-0.5-0.34-0.81-0.34c-0.31,0-0.72,0.06-1.23,0.17
					c-0.51,0.12-1.17,0.34-1.97,0.69c-0.81,0.34-1.51,0.92-2.12,1.72c-0.61,0.8-0.91,1.85-0.91,3.13c0,1.28,0.33,2.33,0.98,3.15
					c0.66,0.82,1.35,1.23,2.07,1.23c0.2,0,0.41-0.03,0.64-0.1c1.97-0.53,3.3-1.05,3.99-1.58V318.43z"/>
				<path class="st8" d="M156.29,314.73c1.54-2.46,3.89-3.69,7.04-3.69c1.71,0,3.14,0.49,4.29,1.48c1.15,0.99,1.72,2.47,1.72,4.46
					c0,1.99-0.86,3.95-2.59,5.89s-3.64,2.91-5.74,2.91c-1.54,0-2.92-0.61-4.11-1.82c-1.2-1.21-1.8-2.74-1.8-4.58
					C155.11,317.53,155.5,315.98,156.29,314.73z M179.54,313.4c0,0.56-0.9,2.13-2.71,4.73c-1.08,1.35-3.78,5.44-8.08,12.27
					c-2.76,4.3-4.88,7.68-6.35,10.15c-0.85,1.35-1.7,2.02-2.54,2.02s-1.45-0.3-1.85-0.89c-0.16-0.26-0.25-0.56-0.25-0.89
					c0-0.33,0.14-0.77,0.42-1.33c0.28-0.56,1.27-1.86,2.98-3.92c1.71-2.05,3.67-4.93,5.89-8.62c2.22-3.69,3.87-6.4,4.95-8.1
					c1.08-1.71,1.82-2.97,2.22-3.79c0.62-1.45,1.43-2.59,2.41-3.45c0.62-0.43,1.18-0.64,1.67-0.64s0.82,0.12,0.99,0.34
					c0.16,0.23,0.25,0.62,0.25,1.18V313.4z M165.65,317.54c0-2.4-0.74-3.6-2.22-3.6c-1.48,0-2.64,0.48-3.47,1.45
					s-1.26,2.11-1.26,3.42s0.17,2.17,0.52,2.56c0.35,0.39,1.03,0.59,2.07,0.59c1.03,0,2.02-0.43,2.96-1.28
					C165.18,319.84,165.65,318.79,165.65,317.54z M168.95,336.43c0-2.02,0.82-3.82,2.46-5.39c1.64-1.58,3.4-2.36,5.27-2.36
					c1.87,0,3.37,0.67,4.51,2c1.13,1.33,1.7,2.99,1.7,4.97c0,1.99-0.74,3.64-2.22,4.95c-1.48,1.31-3.23,1.97-5.25,1.97
					c-2.02,0-3.6-0.52-4.75-1.55C169.52,339.98,168.95,338.45,168.95,336.43z M172.6,335.96c0,2.13,1.02,3.2,3.05,3.2
					c0.89,0,1.77-0.41,2.66-1.23c0.89-0.82,1.33-1.64,1.33-2.46c0-1.44-0.38-2.46-1.13-3.05c-0.36-0.26-0.79-0.39-1.28-0.39
					c-1.18,0-2.25,0.37-3.2,1.11C173.07,333.87,172.6,334.81,172.6,335.96z"/>
			</g>
		</g>
		<g>
			<g class="st0">
				<path class="st8" d="M535.06,517.39c-1.18,0.2-2.86,0.29-5.02,0.29s-3.65-0.36-4.43-1.08c-0.79-0.72-1.18-2.29-1.18-4.71
					c0-2.41,0.18-5.06,0.54-7.96c0.36-2.89,0.76-5.02,1.21-6.38c0.44-1.36,1.32-2.04,2.63-2.04c0.89,0,1.4,0.38,1.53,1.13
					c0,0.2,0,0.51,0,0.94s-0.1,1.03-0.3,1.82c-0.79,5.78-1.18,9.9-1.18,12.36c0,0.59,0.02,1.08,0.05,1.48
					c0.59,0.13,1.39,0.2,2.39,0.2c1,0,2.27-0.1,3.82-0.29c0.07-0.69,0.1-1.62,0.1-2.78c0-1.17,0.02-2.14,0.05-2.93
					c0.03-0.79,0.15-1.35,0.34-1.67c0.2-0.33,0.76-0.49,1.7-0.49s1.53,0.17,1.77,0.49c0.25,0.33,0.37,0.78,0.37,1.35
					s-0.05,1.77-0.15,3.6s-0.15,6.95-0.15,15.39c0,1.48-0.72,2.22-2.17,2.22c-0.07,0-0.13,0-0.2,0c-1.22,0-1.82-1-1.82-3v-2.71
					L535.06,517.39z"/>
				<path class="st8" d="M554.23,498.92c-0.49,0.66-1.62,2.74-3.37,6.26c-1.76,3.51-2.72,5.62-2.88,6.31
					c1.38-0.36,2.78-0.54,4.21-0.54c1.43,0,2.77,0.39,4.01,1.18c2.04,1.35,3.05,3.51,3.05,6.5c0,6.54-3.19,9.82-9.56,9.85
					c-0.03,0-0.08,0-0.15,0c-2.33,0-4.01-0.81-5.03-2.44c-1.02-1.63-1.58-3.78-1.67-6.48c0-6.24,2.35-13.12,7.04-20.64
					c0.79-1.31,1.48-2.17,2.07-2.56c0.59-0.39,1.06-0.59,1.4-0.59c0.35,0,0.7,0.13,1.06,0.39c0.36,0.26,0.54,0.62,0.54,1.08
					C554.96,497.7,554.72,498.26,554.23,498.92z M555.56,518.94c0-1.33-0.37-2.36-1.11-3.08c-0.74-0.72-1.73-1.08-2.98-1.08
					s-2.17,0.1-2.76,0.3c-0.46,0.2-0.82,0.45-1.08,0.76c-0.26,0.31-0.5,0.8-0.71,1.45c-0.21,0.66-0.32,1.55-0.32,2.68
					s0.32,2.12,0.96,2.96c0.64,0.84,1.42,1.26,2.34,1.26c1.84,0,3.24-0.54,4.21-1.62C555.07,521.48,555.56,520.27,555.56,518.94z"/>
				<path class="st8" d="M566.34,523.15c0.89,0,1.48,0.46,1.77,1.38c0,2.17-0.34,4.12-1.03,5.86c-0.23,0.62-0.57,1.15-1.01,1.58
					s-0.91,0.64-1.4,0.64c-1.08,0-1.62-0.58-1.62-1.72c0-0.36,0.05-0.71,0.15-1.03c1.02-1.15,1.53-2.87,1.53-5.17
					C564.91,523.66,565.46,523.15,566.34,523.15z"/>
				<path class="st8" d="M581.51,495.52c2.4,0,4.4,0.58,6.01,1.72c1.61,1.15,2.41,2.78,2.41,4.88c0,2.99-1.61,5.57-4.83,7.73
					c1.87,2,3.2,3.73,3.99,5.17c0.85,1.58,1.28,3.45,1.28,5.62c0,2.17-0.8,3.96-2.41,5.37c-1.74,1.51-3.92,2.27-6.55,2.27
					c-2.63,0-4.68-0.66-6.16-1.97c-1.54-1.38-2.31-3.27-2.31-5.66c0-3.91,1.89-7.36,5.66-10.34c-1.41-0.75-2.63-1.92-3.64-3.5
					c-1.05-1.61-1.58-3.31-1.58-5.1c0-1.79,0.72-3.24,2.17-4.36C577.13,496.13,579.12,495.52,581.51,495.52z M576.59,520.05
					c0,0.17,0,0.31,0,0.44c0.03,1.28,0.58,2.27,1.65,2.96c1.07,0.69,2.39,1.03,3.96,1.03c1.48,0,2.54-0.41,3.2-1.23
					c0.66-0.82,0.98-1.82,0.96-3c-0.02-1.18-0.41-2.36-1.18-3.55c-0.77-1.18-1.99-2.63-3.67-4.33c-1.67,1.15-2.91,2.4-3.72,3.74
					C576.99,517.46,576.59,518.77,576.59,520.05z M576.88,502.37c0,0.66,0.2,1.28,0.59,1.87c0.39,0.59,0.79,1.03,1.18,1.33
					s0.94,0.67,1.63,1.13s1.15,0.77,1.38,0.94c1.05-0.79,1.76-1.32,2.12-1.6c0.36-0.28,0.78-0.67,1.26-1.18
					c0.48-0.51,0.77-0.95,0.89-1.33c0.11-0.38,0.16-0.94,0.15-1.7c-0.02-0.75-0.48-1.42-1.38-1.99c-0.9-0.57-1.85-0.86-2.83-0.86
					c-0.1,0-0.2,0-0.3,0C578.44,499.23,576.88,500.36,576.88,502.37z"/>
				<path class="st8" d="M595.36,500.1c1.54-2.46,3.89-3.69,7.04-3.69c1.71,0,3.13,0.49,4.29,1.48c1.15,0.99,1.72,2.47,1.72,4.46
					c0,1.99-0.86,3.95-2.59,5.89s-3.64,2.91-5.74,2.91c-1.54,0-2.92-0.61-4.11-1.82c-1.2-1.21-1.8-2.74-1.8-4.58
					C594.17,502.89,594.57,501.35,595.36,500.1z M618.61,498.77c0,0.56-0.9,2.13-2.71,4.73c-1.08,1.35-3.78,5.44-8.08,12.27
					c-2.76,4.3-4.88,7.68-6.35,10.15c-0.85,1.35-1.7,2.02-2.54,2.02c-0.84,0-1.45-0.3-1.85-0.89c-0.16-0.26-0.25-0.56-0.25-0.89
					c0-0.33,0.14-0.77,0.42-1.33c0.28-0.56,1.27-1.86,2.98-3.92c1.71-2.05,3.67-4.93,5.89-8.62s3.87-6.4,4.95-8.1
					c1.08-1.71,1.82-2.97,2.22-3.79c0.62-1.45,1.43-2.59,2.41-3.45c0.62-0.43,1.18-0.64,1.68-0.64c0.49,0,0.82,0.12,0.98,0.34
					c0.16,0.23,0.25,0.62,0.25,1.18V498.77z M604.71,502.91c0-2.4-0.74-3.6-2.22-3.6c-1.48,0-2.63,0.48-3.47,1.45
					c-0.84,0.97-1.26,2.11-1.26,3.42s0.17,2.17,0.52,2.56c0.34,0.39,1.03,0.59,2.07,0.59c1.04,0,2.02-0.43,2.96-1.28
					C604.25,505.21,604.71,504.16,604.71,502.91z M608.02,521.8c0-2.02,0.82-3.82,2.46-5.39c1.64-1.58,3.4-2.36,5.27-2.36
					s3.37,0.67,4.51,2c1.13,1.33,1.7,2.99,1.7,4.97c0,1.99-0.74,3.64-2.22,4.95c-1.48,1.31-3.23,1.97-5.25,1.97
					c-2.02,0-3.6-0.52-4.75-1.55S608.02,523.82,608.02,521.8z M611.66,521.33c0,2.13,1.02,3.2,3.05,3.2c0.89,0,1.77-0.41,2.66-1.23
					c0.89-0.82,1.33-1.64,1.33-2.46c0-1.44-0.38-2.46-1.13-3.05c-0.36-0.26-0.79-0.39-1.28-0.39c-1.18,0-2.25,0.37-3.2,1.11
					C612.14,519.24,611.66,520.18,611.66,521.33z"/>
			</g>
		</g>
		<g>
			<g class="st0">
				<path class="st8" d="M417.54,321.18c2.4,0,4.4,0.58,6.01,1.72c1.61,1.15,2.41,2.78,2.41,4.88c0,2.99-1.61,5.57-4.83,7.73
					c1.87,2,3.2,3.73,3.99,5.17c0.85,1.58,1.28,3.45,1.28,5.62c0,2.17-0.8,3.96-2.41,5.37c-1.74,1.51-3.92,2.27-6.55,2.27
					c-2.63,0-4.68-0.66-6.16-1.97c-1.54-1.38-2.31-3.27-2.31-5.66c0-3.91,1.89-7.36,5.66-10.34c-1.41-0.75-2.63-1.92-3.64-3.5
					c-1.05-1.61-1.58-3.31-1.58-5.1c0-1.79,0.72-3.24,2.17-4.36C413.15,321.79,415.14,321.18,417.54,321.18z M412.61,345.71
					c0,0.17,0,0.31,0,0.44c0.03,1.28,0.58,2.27,1.65,2.96c1.07,0.69,2.39,1.03,3.96,1.03c1.48,0,2.54-0.41,3.2-1.23
					c0.66-0.82,0.98-1.82,0.96-3c-0.02-1.18-0.41-2.36-1.18-3.55c-0.77-1.18-1.99-2.63-3.67-4.33c-1.67,1.15-2.91,2.4-3.72,3.74
					C413.01,343.12,412.61,344.43,412.61,345.71z M412.91,328.03c0,0.66,0.2,1.28,0.59,1.87c0.39,0.59,0.79,1.03,1.18,1.33
					s0.94,0.67,1.63,1.13s1.15,0.77,1.38,0.94c1.05-0.79,1.76-1.32,2.12-1.6c0.36-0.28,0.78-0.67,1.26-1.18
					c0.48-0.51,0.77-0.95,0.89-1.33c0.11-0.38,0.16-0.94,0.15-1.7c-0.02-0.75-0.48-1.42-1.38-1.99c-0.9-0.57-1.85-0.86-2.83-0.86
					c-0.1,0-0.2,0-0.3,0C414.47,324.89,412.91,326.02,412.91,328.03z"/>
				<path class="st8" d="M440.49,343.05c-1.18,0.2-2.86,0.29-5.03,0.29c-2.17,0-3.64-0.36-4.43-1.08s-1.18-2.29-1.18-4.71
					c0-2.41,0.18-5.06,0.54-7.96c0.36-2.89,0.76-5.02,1.21-6.38c0.44-1.36,1.32-2.04,2.64-2.04c0.89,0,1.39,0.38,1.53,1.13
					c0,0.2,0,0.51,0,0.94s-0.1,1.03-0.3,1.82c-0.79,5.78-1.18,9.9-1.18,12.36c0,0.59,0.02,1.08,0.05,1.48
					c0.59,0.13,1.39,0.2,2.39,0.2c1,0,2.27-0.1,3.82-0.29c0.07-0.69,0.1-1.62,0.1-2.78c0-1.17,0.02-2.14,0.05-2.93
					c0.03-0.79,0.15-1.35,0.34-1.67s0.76-0.49,1.7-0.49c0.94,0,1.53,0.17,1.77,0.49s0.37,0.78,0.37,1.35s-0.05,1.77-0.15,3.6
					c-0.1,1.82-0.15,6.95-0.15,15.39c0,1.48-0.72,2.22-2.17,2.22c-0.07,0-0.13,0-0.2,0c-1.22,0-1.82-1-1.82-3v-2.71L440.49,343.05z"
					/>
				<path class="st8" d="M452.12,348.81c0.89,0,1.48,0.46,1.77,1.38c0,2.17-0.35,4.12-1.04,5.86c-0.23,0.62-0.57,1.15-1.01,1.58
					s-0.91,0.64-1.4,0.64c-1.08,0-1.63-0.58-1.63-1.72c0-0.36,0.05-0.71,0.15-1.03c1.02-1.15,1.53-2.87,1.53-5.17
					C450.69,349.32,451.23,348.81,452.12,348.81z"/>
				<path class="st8" d="M473.2,336.3l-0.39,15.52c0,0.72-0.24,1.26-0.71,1.63c-0.48,0.36-1.01,0.54-1.6,0.54
					c-0.92,0-1.38-1.23-1.38-3.69c0-5.09,0.15-9.79,0.44-14.09l-5.03,0.3c-0.39,0.03-0.76-0.16-1.08-0.57
					c-0.33-0.41-0.49-0.83-0.49-1.26c0-1.15,0.69-1.72,2.07-1.72l4.83-0.05l0.49-5.96c-1.12-0.39-3.97-0.95-8.57-1.67
					c-1.77-0.3-2.83-0.48-3.15-0.54c-0.86-0.16-1.28-0.8-1.28-1.92c0-0.39,0.16-0.77,0.49-1.13c0.33-0.36,0.8-0.54,1.4-0.54
					s3.07,0.35,7.39,1.06c4.32,0.71,6.71,1.27,7.17,1.7c0.2,0.17,0.3,0.77,0.3,1.82c0,0.49-0.12,1.82-0.35,3.99
					c-0.2,1.51-0.31,2.55-0.34,3.1l2.46-0.15c0.23,0,0.6,0,1.11,0c0.51,0,0.94,0.12,1.31,0.34s0.54,0.67,0.54,1.3
					c0,0.64-0.23,1.12-0.69,1.43c-0.46,0.31-1.35,0.49-2.66,0.52L473.2,336.3z"/>
				<path class="st8" d="M484.18,325.76c1.54-2.46,3.89-3.69,7.04-3.69c1.71,0,3.14,0.49,4.29,1.48c1.15,0.99,1.72,2.47,1.72,4.46
					c0,1.99-0.86,3.95-2.59,5.89c-1.72,1.94-3.64,2.91-5.74,2.91c-1.54,0-2.91-0.61-4.11-1.82c-1.2-1.21-1.8-2.74-1.8-4.58
					C483,328.55,483.4,327.01,484.18,325.76z M507.43,324.43c0,0.56-0.9,2.13-2.71,4.73c-1.08,1.35-3.78,5.44-8.08,12.27
					c-2.76,4.3-4.88,7.68-6.36,10.15c-0.85,1.35-1.7,2.02-2.54,2.02s-1.45-0.3-1.85-0.89c-0.17-0.26-0.25-0.56-0.25-0.89
					c0-0.33,0.14-0.77,0.42-1.33c0.28-0.56,1.27-1.86,2.98-3.92c1.71-2.05,3.67-4.93,5.89-8.62c2.22-3.69,3.87-6.4,4.95-8.1
					c1.08-1.71,1.82-2.97,2.22-3.79c0.62-1.45,1.43-2.59,2.41-3.45c0.62-0.43,1.18-0.64,1.67-0.64s0.82,0.12,0.99,0.34
					c0.16,0.23,0.25,0.62,0.25,1.18V324.43z M493.54,328.57c0-2.4-0.74-3.6-2.22-3.6c-1.48,0-2.63,0.48-3.47,1.45
					s-1.26,2.11-1.26,3.42s0.17,2.17,0.52,2.56c0.34,0.39,1.03,0.59,2.07,0.59c1.03,0,2.02-0.43,2.96-1.28
					C493.07,330.87,493.54,329.82,493.54,328.57z M496.84,347.46c0-2.02,0.82-3.82,2.46-5.39c1.64-1.58,3.4-2.36,5.27-2.36
					c1.87,0,3.38,0.67,4.51,2c1.13,1.33,1.7,2.99,1.7,4.97c0,1.99-0.74,3.64-2.22,4.95c-1.48,1.31-3.23,1.97-5.25,1.97
					s-3.6-0.52-4.75-1.55C497.42,351.01,496.84,349.48,496.84,347.46z M500.49,346.99c0,2.13,1.02,3.2,3.05,3.2
					c0.89,0,1.77-0.41,2.66-1.23c0.89-0.82,1.33-1.64,1.33-2.46c0-1.44-0.38-2.46-1.13-3.05c-0.36-0.26-0.79-0.39-1.28-0.39
					c-1.18,0-2.25,0.37-3.2,1.11C500.96,344.9,500.49,345.84,500.49,346.99z"/>
			</g>
		</g>
		<g>
			<g class="st0">
				<path class="st8" d="M83.03,796.66c-0.31-0.2-0.47-0.49-0.47-0.87s0.12-0.72,0.37-1.03c-0.09-2.22-0.13-4.56-0.13-7.03
					c0.13-0.53,0.34-0.92,0.62-1.17s0.68-0.4,1.22-0.47c2.93,0.13,6.11,0.2,9.53,0.2c0.84,0.18,1.27,0.54,1.27,1.1
					c0,0.93-0.91,1.48-2.73,1.63c-0.49,0.02-1.02,0.03-1.6,0.03h-2.17c-0.42,0-1.59-0.09-3.5-0.27c0,2.78,0.04,4.69,0.13,5.73
					c1.18,0.02,3.44,0.03,6.8,0.03c0.8,0.16,1.2,0.52,1.2,1.08s-0.32,1.01-0.97,1.32c-0.07,0.04-0.19,0.09-0.37,0.13l-5.76-0.1
					c-0.36,0-0.64,0.02-0.87,0.07l0.13,5.73c0,1.29-0.03,2.21-0.1,2.77l7.73-0.1c0.71,0.11,1.07,0.41,1.07,0.9
					c0,0.33-0.15,0.67-0.45,1s-0.65,0.54-1.05,0.63l-8.53,0.13c-0.51,0-0.87-0.09-1.07-0.28c-0.2-0.19-0.3-0.5-0.3-0.95
					c0.09-0.62,0.13-1.62,0.13-3v-2.33L83.03,796.66z"/>
				<path class="st8" d="M100.95,793.17l2.73,4.8c0.75-0.82,1.47-1.73,2.13-2.73l1.4-2.07c0.27-0.38,0.59-0.57,0.98-0.57
					c0.39,0,0.7,0.12,0.95,0.35c0.24,0.23,0.37,0.51,0.37,0.83s-0.47,1.19-1.4,2.6c-0.93,1.41-1.93,2.78-3,4.11
					c0.2,0.31,0.64,1.03,1.33,2.17c0.69,1.13,1.44,2.21,2.27,3.23c0.16,0.25,0.23,0.54,0.23,0.88c0,0.34-0.13,0.66-0.4,0.95
					c-0.27,0.29-0.57,0.43-0.9,0.43c-0.56,0-1.28-0.62-2.17-1.85c-0.89-1.23-1.68-2.58-2.37-4.05c-0.67,0.91-1.32,1.87-1.95,2.87
					c-0.63,1-1.12,1.73-1.47,2.18c-0.34,0.46-0.72,0.68-1.13,0.68c-0.41,0-0.73-0.12-0.97-0.37c-0.23-0.24-0.35-0.54-0.35-0.9
					c0-0.87,1.55-3.05,4.66-6.56c-0.38-0.73-1.07-1.88-2.07-3.43s-1.5-2.51-1.5-2.87c0-0.35,0.15-0.67,0.45-0.93s0.68-0.4,1.13-0.4
					C100.39,792.53,100.73,792.74,100.95,793.17z"/>
				<path class="st8" d="M112.83,796.26c0.79-1.22,1.79-2.14,3.02-2.75c1.22-0.61,2.41-0.92,3.56-0.92c1.15,0,2.08,0.14,2.78,0.42
					c0.7,0.28,1.05,0.64,1.05,1.1s-0.13,0.91-0.38,1.37c-0.26,0.46-0.59,0.68-1.02,0.68c-0.16,0-0.58-0.13-1.28-0.38
					c-0.7-0.25-1.15-0.38-1.35-0.38c-1.29,0-2.39,0.47-3.3,1.42c-0.91,0.94-1.37,2.19-1.37,3.75s0.25,2.71,0.75,3.48
					c0.5,0.77,1.36,1.15,2.58,1.15c0.49,0,1.33-0.28,2.52-0.85c1.19-0.57,1.93-0.85,2.22-0.85c0.29,0,0.52,0.09,0.7,0.27
					c0.18,0.18,0.27,0.4,0.27,0.67c0,0.53-0.34,1.09-1.02,1.68c-0.68,0.59-1.52,1.08-2.52,1.47s-1.9,0.58-2.7,0.58
					c-1.78,0-3.17-0.7-4.18-2.1s-1.52-3.31-1.52-5.73C111.65,798.84,112.04,797.49,112.83,796.26z"/>
				<path class="st8" d="M129.84,792.7c1.18,0,2.3,0.34,3.37,1.03c1.07,0.69,1.6,1.54,1.6,2.55s-0.43,1.99-1.3,2.93
					s-2.02,1.52-3.46,1.72c-0.62,0.09-1.56,0.13-2.8,0.13c0.24,1.89,0.72,3.13,1.43,3.73c0.22,0.25,0.52,0.37,0.9,0.37
					c1.38,0,2.53-0.44,3.46-1.32c0.93-0.88,1.6-1.32,2-1.32c0.18,0,0.44,0.17,0.8,0.5c0.35,0.33,0.53,0.64,0.53,0.93
					c0,0.58-0.7,1.41-2.1,2.5c-0.62,0.51-1.37,0.94-2.25,1.28c-0.88,0.34-1.69,0.52-2.45,0.52c-1.93,0-3.35-1.24-4.26-3.73
					c-0.58-1.53-0.87-3.22-0.87-5.06s0.43-3.43,1.3-4.76S127.97,792.7,129.84,792.7z M130,795c-0.84,0-1.57,0.48-2.17,1.43
					c-0.22,0.33-0.43,1.09-0.63,2.27c3.11,0,4.66-0.77,4.66-2.3C131.87,795.46,131.25,795,130,795z"/>
				<path class="st8" d="M140.27,793.67c0.93-0.78,2.02-1.17,3.25-1.17c1.23,0,2.42,0.22,3.55,0.67s1.7,1.03,1.7,1.77
					c0,0.38-0.14,0.68-0.43,0.9c-0.29,0.22-0.54,0.33-0.75,0.33c-0.21,0-0.38,0-0.5-0.02c-0.12-0.01-0.57-0.22-1.33-0.62
					s-1.47-0.6-2.12-0.6c-0.64,0-1.19,0.16-1.65,0.48c-0.46,0.32-0.68,0.79-0.68,1.42s0.26,1.11,0.78,1.47s1.44,0.66,2.75,0.92
					c1.31,0.26,2.32,0.62,3.02,1.08c0.7,0.47,1.05,1.33,1.05,2.6c0,1.84-0.48,3.15-1.45,3.91c-0.97,0.77-2.14,1.15-3.52,1.15
					c-1.38,0-2.55-0.19-3.51-0.57c-0.97-0.38-1.45-0.94-1.45-1.7c0-0.87,0.43-1.3,1.3-1.3c0.22,0,0.71,0.16,1.47,0.47
					c0.75,0.31,1.5,0.47,2.25,0.47c0.74,0,1.31-0.24,1.7-0.72s0.58-1.03,0.58-1.65s-0.26-1.07-0.77-1.35
					c-0.51-0.28-1.29-0.5-2.33-0.68c-1.04-0.18-1.81-0.37-2.3-0.57c-1.33-0.53-2-1.72-2-3.57
					C138.87,795.49,139.33,794.44,140.27,793.67z"/>
				<path class="st8" d="M153.09,793.67c0.93-0.78,2.02-1.17,3.25-1.17c1.23,0,2.42,0.22,3.55,0.67s1.7,1.03,1.7,1.77
					c0,0.38-0.14,0.68-0.43,0.9c-0.29,0.22-0.54,0.33-0.75,0.33c-0.21,0-0.38,0-0.5-0.02c-0.12-0.01-0.57-0.22-1.33-0.62
					s-1.47-0.6-2.12-0.6c-0.64,0-1.19,0.16-1.65,0.48c-0.46,0.32-0.68,0.79-0.68,1.42s0.26,1.11,0.78,1.47s1.44,0.66,2.75,0.92
					c1.31,0.26,2.32,0.62,3.02,1.08c0.7,0.47,1.05,1.33,1.05,2.6c0,1.84-0.48,3.15-1.45,3.91c-0.97,0.77-2.14,1.15-3.52,1.15
					c-1.38,0-2.55-0.19-3.51-0.57c-0.97-0.38-1.45-0.94-1.45-1.7c0-0.87,0.43-1.3,1.3-1.3c0.22,0,0.71,0.16,1.47,0.47
					c0.75,0.31,1.5,0.47,2.25,0.47c0.74,0,1.31-0.24,1.7-0.72s0.58-1.03,0.58-1.65s-0.26-1.07-0.77-1.35
					c-0.51-0.28-1.29-0.5-2.33-0.68c-1.04-0.18-1.81-0.37-2.3-0.57c-1.33-0.53-2-1.72-2-3.57
					C151.69,795.49,152.16,794.44,153.09,793.67z"/>
				<path class="st8" d="M169.85,792.6c1.6,0,2.92,0.77,3.95,2.3c1.03,1.53,1.55,3.37,1.55,5.51s-0.53,3.97-1.58,5.48
					c-1.06,1.51-2.45,2.27-4.2,2.27s-3.15-0.77-4.21-2.32c-1.07-1.54-1.6-3.26-1.6-5.15c0-2.42,0.49-4.35,1.47-5.8
					C166.26,793.37,167.81,792.6,169.85,792.6z M169.45,795.33c-0.93,0-1.7,0.49-2.3,1.47c-0.6,0.98-0.9,2.01-0.9,3.1
					c0,1.69,0.33,2.98,1,3.87s1.42,1.33,2.27,1.33c1.51,0,2.48-0.65,2.9-1.96c0.18-0.62,0.27-1.4,0.27-2.33
					C172.68,797.15,171.6,795.33,169.45,795.33z"/>
				<path class="st8" d="M193,792.53l-0.03-6.43c0-1.2,0.38-1.8,1.15-1.8c0.77,0,1.19,0.33,1.28,1c0.04,0.29,0.1,2.03,0.17,5.23
					c0.07,3.2,0.17,6.2,0.32,9c0.14,2.8,0.22,5.41,0.22,7.83c0,0.67-0.5,1-1.5,1c-0.67,0-1-0.47-1-1.4
					c-0.96,0.75-2.09,1.13-3.4,1.13c-1.67,0-3.02-0.62-4.05-1.87c-1.03-1.24-1.55-2.78-1.55-4.6c0-1.82,0.37-3.53,1.12-5.11
					c0.74-1.59,1.9-2.73,3.48-3.41c0.98-0.42,1.92-0.63,2.83-0.63C192.37,792.47,192.69,792.49,193,792.53z M193.19,797.08
					c-0.17-0.48-0.36-0.84-0.58-1.1c-0.22-0.26-0.46-0.41-0.72-0.47c-0.26-0.06-0.56-0.08-0.92-0.08c-0.36,0-0.79,0.13-1.3,0.4
					c-0.51,0.27-0.94,0.7-1.3,1.3c-0.71,1.2-1.07,2.46-1.07,3.78s0.26,2.4,0.78,3.23c0.52,0.83,1.27,1.25,2.23,1.25
					c0.97,0,1.73-0.48,2.28-1.43c0.55-0.95,0.83-2.18,0.83-3.66C193.44,798.63,193.35,797.56,193.19,797.08z"/>
				<path class="st8" d="M202.83,792.7c1.18,0,2.3,0.34,3.37,1.03c1.07,0.69,1.6,1.54,1.6,2.55s-0.43,1.99-1.3,2.93
					s-2.02,1.52-3.46,1.72c-0.62,0.09-1.56,0.13-2.8,0.13c0.24,1.89,0.72,3.13,1.43,3.73c0.22,0.25,0.52,0.37,0.9,0.37
					c1.38,0,2.53-0.44,3.46-1.32c0.93-0.88,1.6-1.32,2-1.32c0.18,0,0.44,0.17,0.8,0.5c0.35,0.33,0.53,0.64,0.53,0.93
					c0,0.58-0.7,1.41-2.1,2.5c-0.62,0.51-1.37,0.94-2.25,1.28c-0.88,0.34-1.69,0.52-2.45,0.52c-1.93,0-3.35-1.24-4.26-3.73
					c-0.58-1.53-0.87-3.22-0.87-5.06s0.43-3.43,1.3-4.76S200.97,792.7,202.83,792.7z M203,795c-0.84,0-1.57,0.48-2.17,1.43
					c-0.22,0.33-0.43,1.09-0.63,2.27c3.11,0,4.66-0.77,4.66-2.3C204.87,795.46,204.24,795,203,795z"/>
				<path class="st8" d="M224.22,808.09c-0.76,0-1.46-0.25-2.1-0.77l-0.43-0.37v10c-0.13,0.44-0.37,0.82-0.7,1.12
					s-0.69,0.45-1.07,0.45c-0.58,0-0.87-0.39-0.87-1.17v-23.22c0.13-0.58,0.29-0.99,0.48-1.23c0.19-0.24,0.49-0.37,0.9-0.37
					c0.41,0,0.68,0.09,0.8,0.28c0.12,0.19,0.27,0.71,0.45,1.55c0.09-0.44,0.44-0.85,1.07-1.23c0.62-0.38,1.45-0.57,2.5-0.57
					c2.27,0,3.88,0.82,4.83,2.46c0.95,1.64,1.43,3.58,1.43,5.81c0,2.23-0.65,4-1.95,5.3C228.27,807.44,226.49,808.09,224.22,808.09z
					 M221.69,798.1v6.2c0.13,0.07,0.29,0.18,0.47,0.33c0.64,0.58,1.34,0.87,2.1,0.87c3.06,0,4.6-1.58,4.6-4.73
					c0-2.69-0.69-4.39-2.07-5.1c-0.58-0.31-1.29-0.47-2.13-0.47c-0.82,0.11-1.52,0.47-2.1,1.08
					C221.98,796.89,221.69,797.5,221.69,798.1z"/>
				<path class="st8" d="M238.02,792.7c1.18,0,2.3,0.34,3.37,1.03c1.07,0.69,1.6,1.54,1.6,2.55s-0.43,1.99-1.3,2.93
					s-2.02,1.52-3.46,1.72c-0.62,0.09-1.56,0.13-2.8,0.13c0.24,1.89,0.72,3.13,1.43,3.73c0.22,0.25,0.52,0.37,0.9,0.37
					c1.38,0,2.53-0.44,3.46-1.32c0.93-0.88,1.6-1.32,2-1.32c0.18,0,0.44,0.17,0.8,0.5c0.35,0.33,0.53,0.64,0.53,0.93
					c0,0.58-0.7,1.41-2.1,2.5c-0.62,0.51-1.37,0.94-2.25,1.28c-0.88,0.34-1.69,0.52-2.45,0.52c-1.93,0-3.35-1.24-4.26-3.73
					c-0.58-1.53-0.87-3.22-0.87-5.06s0.43-3.43,1.3-4.76S236.15,792.7,238.02,792.7z M238.18,795c-0.84,0-1.57,0.48-2.17,1.43
					c-0.22,0.33-0.43,1.09-0.63,2.27c3.11,0,4.66-0.77,4.66-2.3C240.05,795.46,239.43,795,238.18,795z"/>
				<path class="st8" d="M248.44,793.67c0.93-0.78,2.02-1.17,3.25-1.17c1.23,0,2.42,0.22,3.55,0.67s1.7,1.03,1.7,1.77
					c0,0.38-0.14,0.68-0.43,0.9c-0.29,0.22-0.54,0.33-0.75,0.33c-0.21,0-0.38,0-0.5-0.02c-0.12-0.01-0.57-0.22-1.33-0.62
					s-1.47-0.6-2.12-0.6c-0.64,0-1.19,0.16-1.65,0.48c-0.46,0.32-0.68,0.79-0.68,1.42s0.26,1.11,0.78,1.47s1.44,0.66,2.75,0.92
					c1.31,0.26,2.32,0.62,3.02,1.08c0.7,0.47,1.05,1.33,1.05,2.6c0,1.84-0.48,3.15-1.45,3.91c-0.97,0.77-2.14,1.15-3.52,1.15
					c-1.38,0-2.55-0.19-3.51-0.57c-0.97-0.38-1.45-0.94-1.45-1.7c0-0.87,0.43-1.3,1.3-1.3c0.22,0,0.71,0.16,1.47,0.47
					c0.75,0.31,1.5,0.47,2.25,0.47c0.74,0,1.31-0.24,1.7-0.72s0.58-1.03,0.58-1.65s-0.26-1.07-0.77-1.35
					c-0.51-0.28-1.29-0.5-2.33-0.68c-1.04-0.18-1.81-0.37-2.3-0.57c-1.33-0.53-2-1.72-2-3.57
					C247.04,795.49,247.51,794.44,248.44,793.67z"/>
				<path class="st8" d="M265.2,792.6c1.6,0,2.92,0.77,3.95,2.3c1.03,1.53,1.55,3.37,1.55,5.51s-0.53,3.97-1.58,5.48
					c-1.06,1.51-2.45,2.27-4.2,2.27s-3.15-0.77-4.21-2.32c-1.07-1.54-1.6-3.26-1.6-5.15c0-2.42,0.49-4.35,1.47-5.8
					C261.61,793.37,263.16,792.6,265.2,792.6z M264.8,795.33c-0.93,0-1.7,0.49-2.3,1.47c-0.6,0.98-0.9,2.01-0.9,3.1
					c0,1.69,0.33,2.98,1,3.87s1.42,1.33,2.27,1.33c1.51,0,2.48-0.65,2.9-1.96c0.18-0.62,0.27-1.4,0.27-2.33
					C268.03,797.15,266.96,795.33,264.8,795.33z"/>
				<path class="st8" d="M285.19,792.7c1.18,0,2.3,0.34,3.37,1.03c1.07,0.69,1.6,1.54,1.6,2.55s-0.43,1.99-1.3,2.93
					s-2.02,1.52-3.46,1.72c-0.62,0.09-1.56,0.13-2.8,0.13c0.24,1.89,0.72,3.13,1.43,3.73c0.22,0.25,0.52,0.37,0.9,0.37
					c1.38,0,2.53-0.44,3.46-1.32c0.93-0.88,1.6-1.32,2-1.32c0.18,0,0.44,0.17,0.8,0.5c0.35,0.33,0.53,0.64,0.53,0.93
					c0,0.58-0.7,1.41-2.1,2.5c-0.62,0.51-1.37,0.94-2.25,1.28c-0.88,0.34-1.69,0.52-2.45,0.52c-1.93,0-3.35-1.24-4.26-3.73
					c-0.58-1.53-0.87-3.22-0.87-5.06s0.43-3.43,1.3-4.76S283.33,792.7,285.19,792.7z M285.36,795c-0.84,0-1.57,0.48-2.17,1.43
					c-0.22,0.33-0.43,1.09-0.63,2.27c3.11,0,4.66-0.77,4.66-2.3C287.22,795.46,286.6,795,285.36,795z"/>
			</g>
			<g class="st0">
				<path class="st8" d="M74.22,826.05c1.44,0,2.67,0.24,3.68,0.73c1.01,0.49,1.52,1.11,1.52,1.87c0,0.33-0.08,0.62-0.25,0.87
					c-0.17,0.25-0.41,0.37-0.73,0.37c-0.32,0-1.02-0.25-2.08-0.75c-1.07-0.5-2.04-0.75-2.92-0.75s-1.78,0.28-2.72,0.83
					c-0.93,0.56-1.4,1.23-1.4,2.03c0,1.09,0.57,1.89,1.7,2.4c0.84,0.38,2.05,0.72,3.63,1.02c1.58,0.3,2.87,0.91,3.86,1.83
					c1,0.92,1.5,2.32,1.5,4.18c0,2.84-0.85,4.94-2.56,6.3c-0.96,0.76-2.3,1.13-4.05,1.13s-3.48-0.48-5.21-1.43
					c-1.13-0.6-1.7-1.2-1.7-1.8c0-0.22,0.09-0.47,0.28-0.73c0.19-0.27,0.45-0.49,0.78-0.67c0.33-0.18,0.64-0.21,0.92-0.08
					c0.28,0.12,0.73,0.34,1.35,0.65c0.62,0.31,1.08,0.52,1.37,0.63c0.93,0.36,1.81,0.53,2.63,0.53c0.82,0,1.62-0.41,2.38-1.22
					c0.77-0.81,1.15-1.8,1.15-2.98c0-1.55-0.78-2.64-2.33-3.26c-0.76-0.31-1.61-0.54-2.57-0.7c-1.98-0.35-3.47-0.95-4.46-1.78
					s-1.5-2.09-1.5-3.78c0-1.69,0.72-3.02,2.17-3.98C70.1,826.53,71.95,826.05,74.22,826.05z"/>
				<path class="st8" d="M84.28,825.98c0.13-0.38,0.42-0.57,0.85-0.57s0.78,0.13,1.03,0.4c0.25,0.27,0.38,0.48,0.38,0.65
					c0,0.17-0.02,0.31-0.07,0.42c-0.36,1-0.95,1.94-1.78,2.83s-1.47,1.33-1.92,1.33c-0.44,0-0.78-0.11-1-0.33
					c-0.22-0.22-0.33-0.48-0.33-0.78c0-0.3,0.18-0.59,0.53-0.88C83.16,828.09,83.92,827.07,84.28,825.98z M85.51,844.51l0.03,2.33
					c0,0.42-0.17,0.77-0.5,1.05c-0.33,0.28-0.69,0.42-1.07,0.42c-0.56,0-0.84-0.28-0.87-0.83c-0.29-7.08-0.43-11.01-0.43-11.76
					s0.03-1.68,0.1-2.77c0.04-0.4,0.3-0.6,0.77-0.6c1.18,0,1.84,0.48,2,1.43c0.07,0.49,0.1,0.88,0.1,1.17l-0.13,2.1V844.51z"/>
				<path class="st8" d="M90.64,847.07l-0.37-13.53c0-0.42,0.14-0.77,0.43-1.03c0.29-0.27,0.58-0.4,0.87-0.4
					c0.71,0,1.12,0.3,1.23,0.9c0.09,0.6,0.13,1.22,0.13,1.87c1.2-1.58,2.7-2.37,4.5-2.37c2.75,0,4.13,3.14,4.13,9.43
					c0,0.58,0,1.45,0,2.62s-0.07,2.02-0.2,2.55c-0.16,0.67-0.63,1-1.43,1c-0.53,0-0.8-0.36-0.8-1.07l0.03-1.87
					c0-2.58-0.08-4.34-0.25-5.28c-0.17-0.94-0.33-1.69-0.48-2.25c-0.38-1.2-0.99-1.8-1.83-1.8c-1.11,0-1.89,0.4-2.33,1.2
					c-0.49,0.87-0.78,1.89-0.87,3.07c-0.16,2.07-0.23,4.25-0.23,6.56c0,0.44-0.17,0.8-0.5,1.07s-0.73,0.4-1.2,0.4
					C90.92,848.14,90.64,847.78,90.64,847.07z"/>
				<path class="st8" d="M112.4,832.51l-0.03-6.43c0-1.2,0.38-1.8,1.15-1.8c0.77,0,1.19,0.33,1.28,1c0.04,0.29,0.1,2.03,0.17,5.23
					c0.07,3.2,0.17,6.2,0.32,9c0.14,2.8,0.22,5.41,0.22,7.83c0,0.67-0.5,1-1.5,1c-0.67,0-1-0.47-1-1.4
					c-0.96,0.75-2.09,1.13-3.4,1.13c-1.67,0-3.02-0.62-4.05-1.87c-1.03-1.24-1.55-2.78-1.55-4.6c0-1.82,0.37-3.53,1.12-5.11
					c0.74-1.59,1.9-2.73,3.48-3.41c0.98-0.42,1.92-0.63,2.83-0.63C111.77,832.45,112.09,832.47,112.4,832.51z M112.58,837.06
					c-0.17-0.48-0.36-0.84-0.58-1.1c-0.22-0.26-0.46-0.41-0.72-0.47c-0.26-0.06-0.56-0.08-0.92-0.08c-0.36,0-0.79,0.13-1.3,0.4
					c-0.51,0.27-0.94,0.7-1.3,1.3c-0.71,1.2-1.07,2.46-1.07,3.78s0.26,2.4,0.78,3.23c0.52,0.83,1.27,1.25,2.23,1.25
					c0.97,0,1.73-0.48,2.28-1.43c0.55-0.95,0.83-2.18,0.83-3.66C112.83,838.61,112.75,837.54,112.58,837.06z"/>
				<path class="st8" d="M121.73,843.24l0.03,3.43c0,0.4-0.18,0.77-0.55,1.1c-0.37,0.33-0.73,0.5-1.08,0.5
					c-0.51,0-0.83-0.4-0.97-1.2c-0.02-0.18-0.11-1.8-0.27-4.88c-0.16-3.08-0.46-5.49-0.9-7.25c-0.2-0.84-0.3-1.34-0.3-1.5
					c0-0.73,0.44-1.1,1.33-1.1c0.38,0,0.68,0.14,0.9,0.43c0.22,0.29,0.36,0.58,0.42,0.88c0.06,0.3,0.11,0.71,0.15,1.22
					s0.08,0.83,0.1,0.97c0.47-1.11,1.17-1.94,2.1-2.5c0.93-0.55,1.95-0.83,3.06-0.83c1.82,0,2.73,0.47,2.73,1.4
					c0,0.47-0.16,0.84-0.48,1.12c-0.32,0.28-0.69,0.42-1.12,0.42c-1.89,0-3.22,0.6-4,1.8C122.12,838.44,121.73,840.44,121.73,843.24
					z"/>
				<path class="st8" d="M136.15,832.58c1.6,0,2.92,0.77,3.95,2.3c1.03,1.53,1.55,3.37,1.55,5.51s-0.53,3.97-1.58,5.48
					c-1.06,1.51-2.45,2.27-4.2,2.27s-3.15-0.77-4.21-2.32c-1.07-1.54-1.6-3.26-1.6-5.15c0-2.42,0.49-4.35,1.47-5.8
					C132.57,833.35,134.11,832.58,136.15,832.58z M135.75,835.31c-0.93,0-1.7,0.49-2.3,1.47c-0.6,0.98-0.9,2.01-0.9,3.1
					c0,1.69,0.33,2.98,1,3.87s1.42,1.33,2.27,1.33c1.51,0,2.48-0.65,2.9-1.96c0.18-0.62,0.27-1.4,0.27-2.33
					C138.99,837.13,137.91,835.31,135.75,835.31z"/>
				<path class="st8" d="M145.58,848.14c-0.58,0-0.92-0.32-1.03-0.97c0-4.49-0.27-8.48-0.8-11.99c0-0.44,0.16-0.84,0.48-1.2
					c0.32-0.36,0.69-0.53,1.1-0.53s0.72,0.23,0.92,0.7c0.82-1.09,1.92-1.63,3.3-1.63c1.75,0,3.11,0.84,4.06,2.53
					c1.11-1.6,2.58-2.4,4.41-2.4s3.2,0.73,4.11,2.2c0.6,0.91,1.02,2.11,1.27,3.6c0.24,1.49,0.37,3.6,0.37,6.33
					c0,1.07-0.11,1.89-0.33,2.48c-0.22,0.59-0.69,0.88-1.4,0.88c-0.58,0-0.87-0.37-0.87-1.1l0.1-4.16c0-5-1.3-7.5-3.9-7.5
					c-0.82,0-1.4,0.29-1.73,0.87c-0.38,0.69-0.6,1.41-0.67,2.17c-0.09,1.33-0.13,2.54-0.13,3.63v4.83c0,0.36-0.18,0.66-0.53,0.9
					c-0.36,0.24-0.72,0.37-1.1,0.37c-0.49,0-0.8-0.32-0.93-0.97l0.1-6.9c0-2.44-0.41-3.96-1.23-4.56c-0.4-0.29-1.01-0.43-1.82-0.43
					c-0.81,0-1.41,0.3-1.8,0.9c-0.39,0.6-0.58,1.57-0.58,2.9l0.2,6.2C147.15,847.18,146.63,848.14,145.58,848.14z"/>
				<path class="st8" d="M171.14,832.68c1.18,0,2.3,0.34,3.37,1.03c1.07,0.69,1.6,1.54,1.6,2.55s-0.43,1.99-1.3,2.93
					s-2.02,1.52-3.46,1.72c-0.62,0.09-1.56,0.13-2.8,0.13c0.24,1.89,0.72,3.13,1.43,3.73c0.22,0.25,0.52,0.37,0.9,0.37
					c1.38,0,2.53-0.44,3.46-1.32c0.93-0.88,1.6-1.32,2-1.32c0.18,0,0.44,0.17,0.8,0.5c0.35,0.33,0.53,0.64,0.53,0.93
					c0,0.58-0.7,1.41-2.1,2.5c-0.62,0.51-1.37,0.94-2.25,1.28c-0.88,0.34-1.69,0.52-2.45,0.52c-1.93,0-3.35-1.24-4.26-3.73
					c-0.58-1.53-0.87-3.22-0.87-5.06s0.43-3.43,1.3-4.76S169.27,832.68,171.14,832.68z M171.3,834.98c-0.84,0-1.57,0.48-2.17,1.43
					c-0.22,0.33-0.43,1.09-0.63,2.27c3.11,0,4.66-0.77,4.66-2.3C173.17,835.45,172.55,834.98,171.3,834.98z"/>
				<path class="st8" d="M189.16,848.14c-0.58,0-0.92-0.32-1.03-0.97c0-4.49-0.27-8.48-0.8-11.99c0-0.44,0.16-0.84,0.48-1.2
					c0.32-0.36,0.69-0.53,1.1-0.53s0.72,0.23,0.92,0.7c0.82-1.09,1.92-1.63,3.3-1.63c1.75,0,3.11,0.84,4.06,2.53
					c1.11-1.6,2.58-2.4,4.41-2.4s3.2,0.73,4.11,2.2c0.6,0.91,1.02,2.11,1.27,3.6c0.24,1.49,0.37,3.6,0.37,6.33
					c0,1.07-0.11,1.89-0.33,2.48c-0.22,0.59-0.69,0.88-1.4,0.88c-0.58,0-0.87-0.37-0.87-1.1l0.1-4.16c0-5-1.3-7.5-3.9-7.5
					c-0.82,0-1.4,0.29-1.73,0.87c-0.38,0.69-0.6,1.41-0.67,2.17c-0.09,1.33-0.13,2.54-0.13,3.63v4.83c0,0.36-0.18,0.66-0.53,0.9
					c-0.36,0.24-0.72,0.37-1.1,0.37c-0.49,0-0.8-0.32-0.93-0.97l0.1-6.9c0-2.44-0.41-3.96-1.23-4.56c-0.4-0.29-1.01-0.43-1.82-0.43
					c-0.81,0-1.41,0.3-1.8,0.9c-0.39,0.6-0.58,1.57-0.58,2.9l0.2,6.2C190.73,847.18,190.2,848.14,189.16,848.14z"/>
				<path class="st8" d="M214.71,832.68c1.18,0,2.3,0.34,3.37,1.03c1.07,0.69,1.6,1.54,1.6,2.55s-0.43,1.99-1.3,2.93
					s-2.02,1.52-3.46,1.72c-0.62,0.09-1.56,0.13-2.8,0.13c0.24,1.89,0.72,3.13,1.43,3.73c0.22,0.25,0.52,0.37,0.9,0.37
					c1.38,0,2.53-0.44,3.46-1.32c0.93-0.88,1.6-1.32,2-1.32c0.18,0,0.44,0.17,0.8,0.5c0.35,0.33,0.53,0.64,0.53,0.93
					c0,0.58-0.7,1.41-2.1,2.5c-0.62,0.51-1.37,0.94-2.25,1.28c-0.88,0.34-1.69,0.52-2.45,0.52c-1.93,0-3.35-1.24-4.26-3.73
					c-0.58-1.53-0.87-3.22-0.87-5.06s0.43-3.43,1.3-4.76S212.85,832.68,214.71,832.68z M214.88,834.98c-0.84,0-1.57,0.48-2.17,1.43
					c-0.22,0.33-0.43,1.09-0.63,2.27c3.11,0,4.66-0.77,4.66-2.3C216.75,835.45,216.12,834.98,214.88,834.98z"/>
				<path class="st8" d="M224.01,832.55l1.67,0.03c0.38,0,0.59-0.01,0.63-0.03v-6.83c0.02-0.38,0.21-0.7,0.57-0.97
					c0.35-0.27,0.69-0.4,1-0.4c0.31,0,0.56,0.1,0.75,0.3c0.19,0.2,0.27,0.51,0.25,0.93c-0.02,0.42-0.03,2.73-0.03,6.93l3.9-0.13
					c0.67,0,1,0.39,1,1.17c0,0.58-0.17,1.01-0.52,1.3c-0.34,0.29-0.71,0.44-1.1,0.47c-0.39,0.02-0.77,0.03-1.15,0.03l-2.03-0.03
					c0,0.91,0.09,2.71,0.28,5.4c0.19,2.69,0.34,4.43,0.45,5.21c0.11,0.79,0.13,1.3,0.07,1.53c-0.07,0.23-0.19,0.39-0.37,0.48
					c-0.29,0.13-0.68,0.2-1.17,0.2c-0.49,0-0.78-0.27-0.87-0.8c-0.44-2.91-0.74-6.91-0.9-11.99c-0.2,0.02-0.97,0.03-2.3,0.03
					c-1.33,0-2-0.39-2-1.17C222.14,833.1,222.76,832.55,224.01,832.55z"/>
				<path class="st8" d="M243.93,832.55c0.98,0,1.47,0.83,1.47,2.5c0,0.18,0,0.37,0,0.57l-0.07,2.33c-0.02,0.73-0.03,1.46-0.03,2.17
					l0.5,7.53c0,0.56-0.57,0.83-1.7,0.83c-0.07,0-0.23,0-0.48,0c-0.26,0-0.43-0.1-0.53-0.3c-0.1-0.2-0.11-0.44-0.03-0.73
					c0.08-0.29,0.05-0.61-0.08-0.97c-1.02,1.09-2.38,1.63-4.06,1.63c-3.13,0-4.7-2.42-4.7-7.26c0-2.69,0.5-4.72,1.52-6.1
					c1.01-1.38,2.46-2.07,4.35-2.07c0.89,0,1.78,0.16,2.67,0.47C243.02,832.75,243.42,832.55,243.93,832.55z M240.47,835.58
					c-1.27,0-2.21,0.37-2.83,1.1c-0.62,0.73-0.93,2.08-0.93,4.03c0,3.29,0.89,4.93,2.67,4.93c0.47,0,0.98-0.21,1.55-0.63
					s0.96-0.9,1.18-1.43c0.42-1.2,0.63-2.51,0.63-3.93c0-1.42-0.17-2.45-0.52-3.1C241.87,835.9,241.29,835.58,240.47,835.58z"/>
				<path class="st8" d="M247.76,825.58c0-0.89,0.56-1.33,1.67-1.33c0.51,0,0.81,0.31,0.9,0.93v5c0,0.93,0.01,1.87,0.03,2.8
					c0.44-0.13,1.01-0.2,1.7-0.2c2.15,0,3.82,0.72,5,2.17c1.18,1.44,1.77,3.25,1.77,5.43s-0.69,4.01-2.08,5.51
					c-1.39,1.5-3.17,2.25-5.35,2.25c-2.18,0-3.27-0.62-3.27-1.85c0-1.23-0.06-4.37-0.18-9.4
					C247.82,831.86,247.76,828.09,247.76,825.58z M254.49,836.31c-0.8-0.62-1.64-0.93-2.53-0.93c-0.49,0-0.99,0.09-1.5,0.27
					c0.13,1.82,0.2,5.05,0.2,9.7c0.38,0.13,0.77,0.2,1.17,0.2c0.87,0,1.73-0.32,2.6-0.97c1.29-0.89,1.93-2.25,1.93-4.08
					C256.36,838.66,255.74,837.27,254.49,836.31z"/>
				<path class="st8" d="M267.32,832.58c1.6,0,2.92,0.77,3.95,2.3c1.03,1.53,1.55,3.37,1.55,5.51s-0.53,3.97-1.58,5.48
					c-1.06,1.51-2.45,2.27-4.2,2.27s-3.15-0.77-4.21-2.32c-1.07-1.54-1.6-3.26-1.6-5.15c0-2.42,0.49-4.35,1.47-5.8
					C263.73,833.35,265.28,832.58,267.32,832.58z M266.92,835.31c-0.93,0-1.7,0.49-2.3,1.47c-0.6,0.98-0.9,2.01-0.9,3.1
					c0,1.69,0.33,2.98,1,3.87s1.42,1.33,2.27,1.33c1.51,0,2.48-0.65,2.9-1.96c0.18-0.62,0.27-1.4,0.27-2.33
					C270.15,837.13,269.07,835.31,266.92,835.31z M267.12,826.02c0.13-0.38,0.42-0.57,0.85-0.57s0.78,0.13,1.03,0.4
					c0.25,0.27,0.38,0.48,0.38,0.65c0,0.17-0.02,0.3-0.07,0.42c-0.36,1-0.95,1.94-1.78,2.83c-0.83,0.89-1.47,1.33-1.92,1.33
					s-0.78-0.11-1-0.33c-0.22-0.22-0.33-0.48-0.33-0.78s0.18-0.58,0.53-0.85C266,828.14,266.76,827.1,267.12,826.02z"/>
				<path class="st8" d="M274.77,826.53c0.06-0.83,0.19-1.38,0.4-1.63c0.21-0.25,0.55-0.38,1.02-0.38c0.95,0,1.43,0.39,1.43,1.17
					c0,0.6-0.05,2.17-0.15,4.7s-0.15,4.8-0.15,6.8s0.08,3.61,0.23,4.83c0.27,2.13,0.64,3.2,1.13,3.2c0.49,0,0.85-0.34,1.1-1.03
					c0.11-0.27,0.29-0.5,0.53-0.72c0.24-0.21,0.56-0.32,0.93-0.32c0.78,0,1.17,0.66,1.17,1.97c0,0.71-0.38,1.42-1.15,2.12
					c-0.77,0.7-1.53,1.05-2.28,1.05c-0.76,0-1.36-0.13-1.82-0.38c-0.46-0.25-0.82-0.64-1.1-1.15c-0.28-0.51-0.5-1-0.67-1.48
					s-0.28-1.06-0.35-1.75c-0.13-1.11-0.23-2.89-0.28-5.35c-0.06-2.45-0.08-4.8-0.08-7.03C274.68,828.9,274.71,827.37,274.77,826.53
					z"/>
				<path class="st8" d="M285.91,827.05c0.4,0,0.78,0.19,1.13,0.57c0.35,0.38,0.53,0.77,0.53,1.18s-0.19,0.83-0.58,1.25
					c-0.39,0.42-0.79,0.63-1.22,0.63s-0.81-0.18-1.15-0.53c-0.34-0.35-0.52-0.81-0.52-1.37c0-1.07,0.58-1.64,1.73-1.73
					C285.87,827.05,285.89,827.05,285.91,827.05z M287.31,844.51l0.03,2.33c0,0.42-0.17,0.77-0.5,1.05
					c-0.33,0.28-0.69,0.42-1.07,0.42c-0.56,0-0.84-0.28-0.87-0.83c-0.29-7.08-0.43-11.01-0.43-11.76s0.03-1.68,0.1-2.77
					c0.04-0.4,0.3-0.6,0.77-0.6c1.18,0,1.84,0.48,2,1.43c0.07,0.49,0.1,0.88,0.1,1.17l-0.13,2.1V844.51z"/>
				<path class="st8" d="M291.89,836.25c0.79-1.22,1.79-2.14,3.02-2.75c1.22-0.61,2.41-0.92,3.56-0.92c1.15,0,2.08,0.14,2.78,0.42
					c0.7,0.28,1.05,0.64,1.05,1.1s-0.13,0.91-0.38,1.37c-0.26,0.46-0.59,0.68-1.02,0.68c-0.16,0-0.58-0.13-1.28-0.38
					c-0.7-0.25-1.15-0.38-1.35-0.38c-1.29,0-2.39,0.47-3.3,1.42c-0.91,0.94-1.37,2.19-1.37,3.75s0.25,2.71,0.75,3.48
					c0.5,0.77,1.36,1.15,2.58,1.15c0.49,0,1.33-0.28,2.52-0.85c1.19-0.57,1.93-0.85,2.22-0.85c0.29,0,0.52,0.09,0.7,0.27
					c0.18,0.18,0.27,0.4,0.27,0.67c0,0.53-0.34,1.09-1.02,1.68c-0.68,0.59-1.52,1.08-2.52,1.47s-1.9,0.58-2.7,0.58
					c-1.78,0-3.17-0.7-4.18-2.1s-1.52-3.31-1.52-5.73C290.71,838.82,291.1,837.47,291.89,836.25z"/>
				<path class="st8" d="M313.4,832.55c0.98,0,1.47,0.83,1.47,2.5c0,0.18,0,0.37,0,0.57l-0.07,2.33c-0.02,0.73-0.03,1.46-0.03,2.17
					l0.5,7.53c0,0.56-0.57,0.83-1.7,0.83c-0.07,0-0.23,0-0.48,0c-0.26,0-0.43-0.1-0.53-0.3c-0.1-0.2-0.11-0.44-0.03-0.73
					c0.08-0.29,0.05-0.61-0.08-0.97c-1.02,1.09-2.38,1.63-4.06,1.63c-3.13,0-4.7-2.42-4.7-7.26c0-2.69,0.5-4.72,1.52-6.1
					c1.01-1.38,2.46-2.07,4.35-2.07c0.89,0,1.78,0.16,2.67,0.47C312.48,832.75,312.88,832.55,313.4,832.55z M309.93,835.58
					c-1.27,0-2.21,0.37-2.83,1.1c-0.62,0.73-0.93,2.08-0.93,4.03c0,3.29,0.89,4.93,2.67,4.93c0.47,0,0.98-0.21,1.55-0.63
					s0.96-0.9,1.18-1.43c0.42-1.2,0.63-2.51,0.63-3.93c0-1.42-0.17-2.45-0.52-3.1C311.34,835.9,310.75,835.58,309.93,835.58z"/>
			</g>
		</g>
		<g>
			<g class="st0">
				<path class="st8" d="M392.54,807.06c-0.33-0.24-0.5-0.52-0.5-0.82s0.12-0.55,0.37-0.75c-0.42-3.18-0.63-6.82-0.63-10.93
					c0-1.24,0.06-3.67,0.17-7.26c0.11-0.33,0.34-0.62,0.68-0.87c0.34-0.24,0.67-0.37,0.98-0.37c0.31,0,0.5,0.01,0.57,0.03
					c3.18,0.89,5.94,2.6,8.29,5.15c2.35,2.54,3.59,5.59,3.7,9.15c0,3.91-1.62,6.36-4.87,7.36c-0.93,0.29-1.92,0.43-2.95,0.43
					c-1.03,0-1.94-0.08-2.72-0.23c0.09,0.18,0.13,0.42,0.13,0.72s-0.18,0.59-0.55,0.87c-0.37,0.28-0.8,0.42-1.3,0.42
					s-0.82-0.3-0.95-0.9L392.54,807.06z M394.54,794.3c0,3.89,0.22,7.57,0.67,11.06c0.53,0.16,1.43,0.23,2.7,0.23
					c1.27,0,2.48-0.21,3.65-0.63s1.78-1.04,1.85-1.87c0.07-0.62,0.1-1.1,0.1-1.43c0-2.89-0.77-5.44-2.32-7.66s-3.7-3.91-6.48-5.06
					C394.6,791.56,394.54,793.34,394.54,794.3z"/>
				<path class="st8" d="M409.87,787.07c0.4,0,0.78,0.19,1.13,0.57c0.36,0.38,0.53,0.77,0.53,1.18s-0.2,0.83-0.58,1.25
					c-0.39,0.42-0.79,0.63-1.22,0.63s-0.81-0.18-1.15-0.53c-0.34-0.35-0.52-0.81-0.52-1.37c0-1.07,0.58-1.64,1.73-1.73
					C409.82,787.07,409.85,787.07,409.87,787.07z M411.27,804.53l0.03,2.33c0,0.42-0.17,0.77-0.5,1.05
					c-0.33,0.28-0.69,0.42-1.07,0.42c-0.56,0-0.84-0.28-0.87-0.83c-0.29-7.08-0.43-11.01-0.43-11.76s0.03-1.68,0.1-2.77
					c0.04-0.4,0.3-0.6,0.77-0.6c1.18,0,1.84,0.48,2,1.43c0.07,0.49,0.1,0.88,0.1,1.17l-0.13,2.1V804.53z"/>
				<path class="st8" d="M424.43,792.57c0.98,0,1.47,0.83,1.47,2.5c0,0.18,0,0.37,0,0.57l-0.07,2.33c-0.02,0.73-0.03,1.46-0.03,2.17
					l0.5,7.53c0,0.56-0.57,0.83-1.7,0.83c-0.07,0-0.23,0-0.48,0c-0.26,0-0.43-0.1-0.53-0.3c-0.1-0.2-0.11-0.44-0.03-0.73
					c0.08-0.29,0.05-0.61-0.08-0.97c-1.02,1.09-2.38,1.63-4.06,1.63c-3.13,0-4.7-2.42-4.7-7.26c0-2.69,0.5-4.72,1.52-6.1
					c1.01-1.38,2.46-2.07,4.35-2.07c0.89,0,1.78,0.16,2.66,0.47C423.52,792.77,423.92,792.57,424.43,792.57z M420.96,795.6
					c-1.27,0-2.21,0.37-2.83,1.1c-0.62,0.73-0.93,2.08-0.93,4.03c0,3.29,0.89,4.93,2.67,4.93c0.47,0,0.98-0.21,1.55-0.63
					s0.96-0.9,1.18-1.43c0.42-1.2,0.63-2.51,0.63-3.93c0-1.42-0.17-2.45-0.52-3.1C422.37,795.92,421.79,795.6,420.96,795.6z"/>
				<path class="st8" d="M428.26,785.6c0-0.89,0.55-1.33,1.67-1.33c0.51,0,0.81,0.31,0.9,0.93v5c0,0.93,0.01,1.87,0.03,2.8
					c0.44-0.13,1.01-0.2,1.7-0.2c2.15,0,3.82,0.72,5,2.17c1.18,1.44,1.77,3.25,1.77,5.43s-0.69,4.01-2.08,5.51
					c-1.39,1.5-3.17,2.25-5.35,2.25s-3.26-0.62-3.26-1.85c0-1.23-0.06-4.37-0.18-9.4C428.32,791.88,428.26,788.11,428.26,785.6z
					 M434.99,796.33c-0.8-0.62-1.64-0.93-2.53-0.93c-0.49,0-0.99,0.09-1.5,0.27c0.13,1.82,0.2,5.05,0.2,9.7
					c0.38,0.13,0.77,0.2,1.17,0.2c0.87,0,1.73-0.32,2.6-0.97c1.29-0.89,1.93-2.25,1.93-4.08
					C436.86,798.68,436.23,797.29,434.99,796.33z"/>
				<path class="st8" d="M446.72,792.7c1.18,0,2.3,0.34,3.37,1.03s1.6,1.54,1.6,2.55s-0.43,1.99-1.3,2.93s-2.02,1.52-3.46,1.72
					c-0.62,0.09-1.56,0.13-2.8,0.13c0.24,1.89,0.72,3.13,1.43,3.73c0.22,0.25,0.52,0.37,0.9,0.37c1.38,0,2.53-0.44,3.46-1.32
					c0.93-0.88,1.6-1.32,2-1.32c0.18,0,0.44,0.17,0.8,0.5c0.35,0.33,0.53,0.64,0.53,0.93c0,0.58-0.7,1.41-2.1,2.5
					c-0.62,0.51-1.37,0.94-2.25,1.28c-0.88,0.34-1.69,0.52-2.45,0.52c-1.93,0-3.36-1.24-4.27-3.73c-0.58-1.53-0.87-3.22-0.87-5.06
					s0.43-3.43,1.3-4.76S444.85,792.7,446.72,792.7z M446.88,795c-0.84,0-1.57,0.48-2.17,1.43c-0.22,0.33-0.43,1.09-0.63,2.27
					c3.11,0,4.67-0.77,4.67-2.3C448.75,795.46,448.13,795,446.88,795z"/>
				<path class="st8" d="M456.01,792.57l1.67,0.03c0.38,0,0.59-0.01,0.63-0.03v-6.83c0.02-0.38,0.21-0.7,0.57-0.97s0.69-0.4,1-0.4
					c0.31,0,0.56,0.1,0.75,0.3c0.19,0.2,0.27,0.51,0.25,0.93c-0.02,0.42-0.03,2.73-0.03,6.93l3.9-0.13c0.67,0,1,0.39,1,1.17
					c0,0.58-0.17,1.01-0.52,1.3c-0.35,0.29-0.71,0.44-1.1,0.47c-0.39,0.02-0.77,0.03-1.15,0.03l-2.03-0.03
					c0,0.91,0.09,2.71,0.28,5.4c0.19,2.69,0.34,4.43,0.45,5.21c0.11,0.79,0.13,1.3,0.07,1.53s-0.19,0.39-0.37,0.48
					c-0.29,0.13-0.68,0.2-1.17,0.2c-0.49,0-0.78-0.27-0.87-0.8c-0.45-2.91-0.74-6.91-0.9-11.99c-0.2,0.02-0.97,0.03-2.3,0.03
					s-2-0.39-2-1.17C454.15,793.12,454.77,792.57,456.01,792.57z"/>
				<path class="st8" d="M471.44,792.7c1.18,0,2.3,0.34,3.37,1.03s1.6,1.54,1.6,2.55s-0.43,1.99-1.3,2.93s-2.02,1.52-3.46,1.72
					c-0.62,0.09-1.56,0.13-2.8,0.13c0.24,1.89,0.72,3.13,1.43,3.73c0.22,0.25,0.52,0.37,0.9,0.37c1.38,0,2.53-0.44,3.46-1.32
					c0.93-0.88,1.6-1.32,2-1.32c0.18,0,0.44,0.17,0.8,0.5c0.35,0.33,0.53,0.64,0.53,0.93c0,0.58-0.7,1.41-2.1,2.5
					c-0.62,0.51-1.37,0.94-2.25,1.28c-0.88,0.34-1.69,0.52-2.45,0.52c-1.93,0-3.36-1.24-4.27-3.73c-0.58-1.53-0.87-3.22-0.87-5.06
					s0.43-3.43,1.3-4.76S469.57,792.7,471.44,792.7z M471.6,795c-0.84,0-1.57,0.48-2.17,1.43c-0.22,0.33-0.43,1.09-0.63,2.27
					c3.11,0,4.67-0.77,4.67-2.3C473.47,795.46,472.85,795,471.6,795z"/>
				<path class="st8" d="M481.87,793.67c0.93-0.78,2.02-1.17,3.25-1.17c1.23,0,2.42,0.22,3.55,0.67s1.7,1.03,1.7,1.77
					c0,0.38-0.14,0.68-0.43,0.9c-0.29,0.22-0.54,0.33-0.75,0.33c-0.21,0-0.38,0-0.5-0.02c-0.12-0.01-0.57-0.22-1.33-0.62
					c-0.77-0.4-1.47-0.6-2.12-0.6s-1.19,0.16-1.65,0.48c-0.46,0.32-0.68,0.79-0.68,1.42s0.26,1.11,0.78,1.47
					c0.52,0.36,1.44,0.66,2.75,0.92c1.31,0.26,2.32,0.62,3.02,1.08c0.7,0.47,1.05,1.33,1.05,2.6c0,1.84-0.48,3.15-1.45,3.91
					c-0.97,0.77-2.14,1.15-3.51,1.15c-1.38,0-2.55-0.19-3.51-0.57c-0.97-0.38-1.45-0.94-1.45-1.7c0-0.87,0.43-1.3,1.3-1.3
					c0.22,0,0.71,0.16,1.47,0.47c0.75,0.31,1.5,0.47,2.25,0.47s1.31-0.24,1.7-0.72s0.58-1.03,0.58-1.65s-0.25-1.07-0.77-1.35
					c-0.51-0.28-1.29-0.5-2.33-0.68s-1.81-0.37-2.3-0.57c-1.33-0.53-2-1.72-2-3.57C480.47,795.49,480.93,794.44,481.87,793.67z"/>
				<path class="st8" d="M506.29,792.6c1.6,0,2.91,0.77,3.95,2.3c1.03,1.53,1.55,3.37,1.55,5.51s-0.53,3.97-1.58,5.48
					c-1.05,1.51-2.45,2.27-4.2,2.27c-1.74,0-3.15-0.77-4.21-2.32s-1.6-3.26-1.6-5.15c0-2.42,0.49-4.35,1.47-5.8
					C502.7,793.37,504.24,792.6,506.29,792.6z M505.89,795.33c-0.93,0-1.7,0.49-2.3,1.47c-0.6,0.98-0.9,2.01-0.9,3.1
					c0,1.69,0.33,2.98,1,3.87c0.67,0.89,1.42,1.33,2.27,1.33c1.51,0,2.48-0.65,2.9-1.96c0.18-0.62,0.27-1.4,0.27-2.33
					C509.12,797.15,508.04,795.33,505.89,795.33z"/>
				<path class="st8" d="M514.32,792.92c0.29-0.25,0.58-0.38,0.88-0.38c0.3,0,0.53,0.06,0.7,0.17c0.17,0.11,0.27,0.21,0.3,0.3
					c0.03,0.09,0.07,0.25,0.12,0.47c-0.13,1.73-0.2,3.29-0.2,4.68c0,1.39,0.17,2.98,0.5,4.76c0.33,1.79,0.7,2.68,1.1,2.68
					c0.6,0,1.36-0.33,2.28-1c0.92-0.67,1.58-1.37,1.98-2.1c-0.27-3.2-0.4-5.94-0.4-8.23c0-0.47,0.15-0.87,0.45-1.2
					c0.3-0.33,0.66-0.5,1.08-0.5c0.69,0,1.03,0.47,1.03,1.4c0,1.58,0.12,3.92,0.35,7.03c0.23,3.11,0.47,5.09,0.72,5.93
					c0.04,0.18,0.07,0.38,0.07,0.62s-0.15,0.46-0.45,0.67c-0.3,0.21-0.69,0.32-1.17,0.32c-0.48,0-0.79-0.27-0.95-0.8
					c-0.04-0.44-0.16-1.11-0.33-2c-1.55,1.62-3.12,2.43-4.7,2.43c-0.73,0-1.39-0.28-1.97-0.83c-0.58-0.55-1.03-1.31-1.37-2.27
					c-0.58-1.84-0.87-3.58-0.87-5.2c0-1.62,0.09-3.62,0.27-6C513.84,793.49,514.03,793.17,514.32,792.92z"/>
				<path class="st8" d="M535.64,792.57l1.67,0.03c0.38,0,0.59-0.01,0.63-0.03v-6.83c0.02-0.38,0.21-0.7,0.57-0.97s0.69-0.4,1-0.4
					c0.31,0,0.56,0.1,0.75,0.3s0.27,0.51,0.25,0.93c-0.02,0.42-0.03,2.73-0.03,6.93l3.9-0.13c0.67,0,1,0.39,1,1.17
					c0,0.58-0.17,1.01-0.52,1.3s-0.71,0.44-1.1,0.47c-0.39,0.02-0.77,0.03-1.15,0.03l-2.03-0.03c0,0.91,0.09,2.71,0.28,5.4
					s0.34,4.43,0.45,5.21c0.11,0.79,0.13,1.3,0.07,1.53s-0.19,0.39-0.37,0.48c-0.29,0.13-0.68,0.2-1.17,0.2s-0.78-0.27-0.87-0.8
					c-0.45-2.91-0.75-6.91-0.9-11.99c-0.2,0.02-0.97,0.03-2.3,0.03c-1.33,0-2-0.39-2-1.17
					C533.77,793.12,534.39,792.57,535.64,792.57z"/>
				<path class="st8" d="M552.16,792.6c1.6,0,2.92,0.77,3.95,2.3c1.03,1.53,1.55,3.37,1.55,5.51s-0.53,3.97-1.58,5.48
					c-1.06,1.51-2.46,2.27-4.2,2.27s-3.15-0.77-4.21-2.32c-1.07-1.54-1.6-3.26-1.6-5.15c0-2.42,0.49-4.35,1.47-5.8
					C548.58,793.37,550.12,792.6,552.16,792.6z M551.76,795.33c-0.93,0-1.7,0.49-2.3,1.47c-0.6,0.98-0.9,2.01-0.9,3.1
					c0,1.69,0.33,2.98,1,3.87s1.42,1.33,2.27,1.33c1.51,0,2.48-0.65,2.9-1.96c0.18-0.62,0.27-1.4,0.27-2.33
					C555,797.15,553.92,795.33,551.76,795.33z"/>
				<path class="st8" d="M559.61,786.55c0.05-0.83,0.19-1.38,0.4-1.63c0.21-0.25,0.55-0.38,1.02-0.38c0.96,0,1.43,0.39,1.43,1.17
					c0,0.6-0.05,2.17-0.15,4.7c-0.1,2.53-0.15,4.8-0.15,6.8s0.08,3.61,0.23,4.83c0.27,2.13,0.64,3.2,1.13,3.2
					c0.49,0,0.85-0.34,1.1-1.03c0.11-0.27,0.29-0.5,0.53-0.72s0.56-0.32,0.93-0.32c0.78,0,1.17,0.66,1.17,1.97
					c0,0.71-0.38,1.42-1.15,2.12c-0.77,0.7-1.53,1.05-2.28,1.05c-0.76,0-1.36-0.13-1.82-0.38s-0.82-0.64-1.1-1.15
					c-0.28-0.51-0.5-1-0.67-1.48c-0.17-0.48-0.28-1.06-0.35-1.75c-0.13-1.11-0.23-2.89-0.28-5.35c-0.06-2.45-0.08-4.8-0.08-7.03
					C559.53,788.92,559.55,787.39,559.61,786.55z"/>
				<path class="st8" d="M573.35,792.7c1.18,0,2.3,0.34,3.37,1.03c1.07,0.69,1.6,1.54,1.6,2.55s-0.43,1.99-1.3,2.93
					s-2.02,1.52-3.46,1.72c-0.62,0.09-1.55,0.13-2.8,0.13c0.24,1.89,0.72,3.13,1.43,3.73c0.22,0.25,0.52,0.37,0.9,0.37
					c1.38,0,2.53-0.44,3.46-1.32c0.93-0.88,1.6-1.32,2-1.32c0.18,0,0.44,0.17,0.8,0.5s0.53,0.64,0.53,0.93c0,0.58-0.7,1.41-2.1,2.5
					c-0.62,0.51-1.37,0.94-2.25,1.28c-0.88,0.34-1.69,0.52-2.45,0.52c-1.93,0-3.35-1.24-4.26-3.73c-0.58-1.53-0.87-3.22-0.87-5.06
					s0.43-3.43,1.3-4.76S571.49,792.7,573.35,792.7z M573.52,795c-0.84,0-1.57,0.48-2.17,1.43c-0.22,0.33-0.43,1.09-0.63,2.27
					c3.11,0,4.66-0.77,4.66-2.3C575.38,795.46,574.76,795,573.52,795z"/>
				<path class="st8" d="M586.11,803.26l0.03,3.43c0,0.4-0.18,0.77-0.55,1.1c-0.37,0.33-0.73,0.5-1.08,0.5
					c-0.51,0-0.83-0.4-0.97-1.2c-0.02-0.18-0.11-1.8-0.27-4.88c-0.16-3.08-0.46-5.49-0.9-7.25c-0.2-0.84-0.3-1.34-0.3-1.5
					c0-0.73,0.44-1.1,1.33-1.1c0.38,0,0.68,0.14,0.9,0.43c0.22,0.29,0.36,0.58,0.42,0.88c0.05,0.3,0.11,0.71,0.15,1.22
					s0.08,0.83,0.1,0.97c0.47-1.11,1.17-1.94,2.1-2.5c0.93-0.55,1.95-0.83,3.07-0.83c1.82,0,2.73,0.47,2.73,1.4
					c0,0.47-0.16,0.84-0.48,1.12c-0.32,0.28-0.69,0.42-1.12,0.42c-1.89,0-3.22,0.6-4,1.8C586.5,798.46,586.11,800.46,586.11,803.26z
					"/>
				<path class="st8" d="M603.94,792.57c0.98,0,1.46,0.83,1.46,2.5c0,0.18,0,0.37,0,0.57l-0.07,2.33c-0.02,0.73-0.03,1.46-0.03,2.17
					l0.5,7.53c0,0.56-0.57,0.83-1.7,0.83c-0.07,0-0.23,0-0.48,0c-0.26,0-0.43-0.1-0.53-0.3c-0.1-0.2-0.11-0.44-0.03-0.73
					c0.08-0.29,0.05-0.61-0.08-0.97c-1.02,1.09-2.38,1.63-4.06,1.63c-3.13,0-4.7-2.42-4.7-7.26c0-2.69,0.5-4.72,1.52-6.1
					c1.01-1.38,2.46-2.07,4.35-2.07c0.89,0,1.78,0.16,2.67,0.47C603.03,792.77,603.43,792.57,603.94,792.57z M596.14,789.48
					c0-0.34,0.57-0.96,1.7-1.85c1.13-0.89,1.95-1.33,2.45-1.33s1.29,0.42,2.38,1.25c1.09,0.83,1.63,1.5,1.63,2.02
					c0,0.31-0.13,0.58-0.4,0.8c-0.27,0.22-0.49,0.33-0.67,0.33c-0.18,0-0.67-0.35-1.48-1.07c-0.81-0.71-1.32-1.07-1.52-1.07
					c-0.2,0-0.67,0.37-1.42,1.1c-0.74,0.73-1.27,1.1-1.58,1.1c-0.31,0-0.57-0.13-0.78-0.38
					C596.25,790.13,596.14,789.83,596.14,789.48z M600.47,795.6c-1.27,0-2.21,0.37-2.83,1.1c-0.62,0.73-0.93,2.08-0.93,4.03
					c0,3.29,0.89,4.93,2.67,4.93c0.47,0,0.98-0.21,1.55-0.63s0.96-0.9,1.18-1.43c0.42-1.2,0.63-2.51,0.63-3.93
					c0-1.42-0.17-2.45-0.52-3.1C601.88,795.92,601.29,795.6,600.47,795.6z"/>
				<path class="st8" d="M608.97,807.09l-0.37-13.53c0-0.42,0.14-0.77,0.43-1.03c0.29-0.27,0.58-0.4,0.87-0.4
					c0.71,0,1.12,0.3,1.23,0.9c0.09,0.6,0.13,1.22,0.13,1.87c1.2-1.58,2.7-2.37,4.5-2.37c2.75,0,4.13,3.14,4.13,9.43
					c0,0.58,0,1.45,0,2.62s-0.07,2.02-0.2,2.55c-0.16,0.67-0.63,1-1.43,1c-0.53,0-0.8-0.36-0.8-1.07l0.03-1.87
					c0-2.58-0.08-4.34-0.25-5.28c-0.17-0.94-0.33-1.69-0.48-2.25c-0.38-1.2-0.99-1.8-1.83-1.8c-1.11,0-1.89,0.4-2.33,1.2
					c-0.49,0.87-0.78,1.89-0.87,3.07c-0.16,2.07-0.23,4.25-0.23,6.56c0,0.44-0.17,0.8-0.5,1.07s-0.73,0.4-1.2,0.4
					C609.25,808.16,608.97,807.8,608.97,807.09z"/>
				<path class="st8" d="M623.48,796.26c0.79-1.22,1.79-2.14,3.02-2.75c1.22-0.61,2.41-0.92,3.56-0.92c1.16,0,2.08,0.14,2.78,0.42
					c0.7,0.28,1.05,0.64,1.05,1.1s-0.13,0.91-0.38,1.37c-0.26,0.46-0.6,0.68-1.02,0.68c-0.16,0-0.58-0.13-1.28-0.38
					c-0.7-0.25-1.15-0.38-1.35-0.38c-1.29,0-2.39,0.47-3.3,1.42c-0.91,0.94-1.37,2.19-1.37,3.75s0.25,2.71,0.75,3.48
					c0.5,0.77,1.36,1.15,2.58,1.15c0.49,0,1.33-0.28,2.52-0.85s1.93-0.85,2.22-0.85c0.29,0,0.52,0.09,0.7,0.27s0.27,0.4,0.27,0.67
					c0,0.53-0.34,1.09-1.02,1.68c-0.68,0.59-1.52,1.08-2.52,1.47c-1,0.39-1.9,0.58-2.7,0.58c-1.78,0-3.17-0.7-4.18-2.1
					c-1.01-1.4-1.52-3.31-1.52-5.73C622.29,798.84,622.69,797.49,623.48,796.26z"/>
				<path class="st8" d="M637.89,787.07c0.4,0,0.78,0.19,1.13,0.57c0.35,0.38,0.53,0.77,0.53,1.18s-0.19,0.83-0.58,1.25
					s-0.79,0.63-1.22,0.63s-0.8-0.18-1.15-0.53c-0.35-0.35-0.52-0.81-0.52-1.37c0-1.07,0.58-1.64,1.73-1.73
					C637.84,787.07,637.86,787.07,637.89,787.07z M639.29,804.53l0.03,2.33c0,0.42-0.17,0.77-0.5,1.05
					c-0.33,0.28-0.69,0.42-1.07,0.42c-0.55,0-0.84-0.28-0.87-0.83c-0.29-7.08-0.43-11.01-0.43-11.76s0.03-1.68,0.1-2.77
					c0.04-0.4,0.3-0.6,0.77-0.6c1.18,0,1.84,0.48,2,1.43c0.07,0.49,0.1,0.88,0.1,1.17l-0.13,2.1V804.53z"/>
				<path class="st8" d="M652.45,792.57c0.98,0,1.47,0.83,1.47,2.5c0,0.18,0,0.37,0,0.57l-0.07,2.33c-0.02,0.73-0.03,1.46-0.03,2.17
					l0.5,7.53c0,0.56-0.57,0.83-1.7,0.83c-0.07,0-0.23,0-0.48,0s-0.43-0.1-0.53-0.3c-0.1-0.2-0.11-0.44-0.03-0.73
					s0.05-0.61-0.08-0.97c-1.02,1.09-2.38,1.63-4.06,1.63c-3.13,0-4.7-2.42-4.7-7.26c0-2.69,0.51-4.72,1.52-6.1
					c1.01-1.38,2.46-2.07,4.35-2.07c0.89,0,1.78,0.16,2.67,0.47C651.54,792.77,651.93,792.57,652.45,792.57z M648.98,795.6
					c-1.27,0-2.21,0.37-2.83,1.1c-0.62,0.73-0.93,2.08-0.93,4.03c0,3.29,0.89,4.93,2.67,4.93c0.47,0,0.98-0.21,1.55-0.63
					s0.96-0.9,1.18-1.43c0.42-1.2,0.63-2.51,0.63-3.93c0-1.42-0.17-2.45-0.52-3.1C650.38,795.92,649.8,795.6,648.98,795.6z"/>
			</g>
			<g class="st0">
				<path class="st8" d="M423.6,832.51l-0.03-6.43c0-1.2,0.38-1.8,1.15-1.8s1.19,0.33,1.28,1c0.04,0.29,0.1,2.03,0.17,5.23
					c0.07,3.2,0.17,6.2,0.32,9c0.14,2.8,0.22,5.41,0.22,7.83c0,0.67-0.5,1-1.5,1c-0.67,0-1-0.47-1-1.4
					c-0.96,0.75-2.09,1.13-3.4,1.13c-1.67,0-3.01-0.62-4.05-1.87c-1.03-1.24-1.55-2.78-1.55-4.6c0-1.82,0.37-3.53,1.12-5.11
					c0.74-1.59,1.9-2.73,3.48-3.41c0.98-0.42,1.92-0.63,2.83-0.63C422.96,832.45,423.29,832.47,423.6,832.51z M423.78,837.06
					c-0.17-0.48-0.36-0.84-0.58-1.1c-0.22-0.26-0.46-0.41-0.72-0.47c-0.26-0.06-0.56-0.08-0.92-0.08c-0.36,0-0.79,0.13-1.3,0.4
					c-0.51,0.27-0.94,0.7-1.3,1.3c-0.71,1.2-1.07,2.46-1.07,3.78s0.26,2.4,0.78,3.23s1.27,1.25,2.23,1.25
					c0.97,0,1.73-0.48,2.28-1.43c0.55-0.95,0.83-2.18,0.83-3.66C424.03,838.61,423.95,837.54,423.78,837.06z"/>
				<path class="st8" d="M430.83,827.05c0.4,0,0.78,0.19,1.13,0.57c0.35,0.38,0.53,0.77,0.53,1.18s-0.2,0.83-0.58,1.25
					s-0.79,0.63-1.22,0.63s-0.81-0.18-1.15-0.53c-0.34-0.35-0.52-0.81-0.52-1.37c0-1.07,0.58-1.64,1.73-1.73
					C430.78,827.05,430.8,827.05,430.83,827.05z M432.23,844.51l0.03,2.33c0,0.42-0.17,0.77-0.5,1.05s-0.69,0.42-1.07,0.42
					c-0.56,0-0.84-0.28-0.87-0.83c-0.29-7.08-0.43-11.01-0.43-11.76s0.03-1.68,0.1-2.77c0.04-0.4,0.3-0.6,0.77-0.6
					c1.18,0,1.84,0.48,2,1.43c0.07,0.49,0.1,0.88,0.1,1.17l-0.13,2.1V844.51z"/>
				<path class="st8" d="M437.99,848.14c-0.58,0-0.92-0.32-1.03-0.97c0-4.49-0.27-8.48-0.8-11.99c0-0.44,0.16-0.84,0.48-1.2
					c0.32-0.36,0.69-0.53,1.1-0.53c0.41,0,0.72,0.23,0.92,0.7c0.82-1.09,1.92-1.63,3.3-1.63c1.75,0,3.11,0.84,4.06,2.53
					c1.11-1.6,2.58-2.4,4.42-2.4s3.2,0.73,4.11,2.2c0.6,0.91,1.02,2.11,1.27,3.6c0.24,1.49,0.37,3.6,0.37,6.33
					c0,1.07-0.11,1.89-0.33,2.48c-0.22,0.59-0.69,0.88-1.4,0.88c-0.58,0-0.87-0.37-0.87-1.1l0.1-4.16c0-5-1.3-7.5-3.9-7.5
					c-0.82,0-1.4,0.29-1.73,0.87c-0.38,0.69-0.6,1.41-0.67,2.17c-0.09,1.33-0.13,2.54-0.13,3.63v4.83c0,0.36-0.18,0.66-0.53,0.9
					c-0.36,0.24-0.72,0.37-1.1,0.37c-0.49,0-0.8-0.32-0.93-0.97l0.1-6.9c0-2.44-0.41-3.96-1.23-4.56c-0.4-0.29-1.01-0.43-1.82-0.43
					s-1.41,0.3-1.8,0.9s-0.58,1.57-0.58,2.9l0.2,6.2C439.56,847.18,439.04,848.14,437.99,848.14z"/>
				<path class="st8" d="M460.95,827.05c0.4,0,0.78,0.19,1.13,0.57c0.36,0.38,0.53,0.77,0.53,1.18s-0.19,0.83-0.58,1.25
					c-0.39,0.42-0.79,0.63-1.22,0.63s-0.8-0.18-1.15-0.53c-0.34-0.35-0.52-0.81-0.52-1.37c0-1.07,0.58-1.64,1.73-1.73
					C460.9,827.05,460.92,827.05,460.95,827.05z M462.35,844.51l0.03,2.33c0,0.42-0.17,0.77-0.5,1.05
					c-0.33,0.28-0.69,0.42-1.07,0.42c-0.55,0-0.84-0.28-0.87-0.83c-0.29-7.08-0.43-11.01-0.43-11.76s0.03-1.68,0.1-2.77
					c0.04-0.4,0.3-0.6,0.77-0.6c1.18,0,1.84,0.48,2,1.43c0.07,0.49,0.1,0.88,0.1,1.17l-0.13,2.1V844.51z"/>
				<path class="st8" d="M467.48,847.07l-0.37-13.53c0-0.42,0.14-0.77,0.43-1.03c0.29-0.27,0.58-0.4,0.87-0.4
					c0.71,0,1.12,0.3,1.23,0.9c0.09,0.6,0.13,1.22,0.13,1.87c1.2-1.58,2.7-2.37,4.5-2.37c2.75,0,4.13,3.14,4.13,9.43
					c0,0.58,0,1.45,0,2.62s-0.07,2.02-0.2,2.55c-0.16,0.67-0.63,1-1.43,1c-0.53,0-0.8-0.36-0.8-1.07l0.03-1.87
					c0-2.58-0.08-4.34-0.25-5.28c-0.17-0.94-0.33-1.69-0.48-2.25c-0.38-1.2-0.99-1.8-1.83-1.8c-1.11,0-1.89,0.4-2.33,1.2
					c-0.49,0.87-0.78,1.89-0.87,3.07c-0.16,2.07-0.23,4.25-0.23,6.56c0,0.44-0.17,0.8-0.5,1.07c-0.33,0.27-0.73,0.4-1.2,0.4
					C467.75,848.14,467.48,847.78,467.48,847.07z"/>
				<path class="st8" d="M481.77,832.9c0.29-0.25,0.58-0.38,0.88-0.38c0.3,0,0.53,0.06,0.7,0.17c0.17,0.11,0.27,0.21,0.3,0.3
					c0.03,0.09,0.07,0.25,0.12,0.47c-0.13,1.73-0.2,3.29-0.2,4.68c0,1.39,0.17,2.98,0.5,4.76s0.7,2.68,1.1,2.68
					c0.6,0,1.36-0.33,2.28-1c0.92-0.67,1.58-1.37,1.98-2.1c-0.27-3.2-0.4-5.94-0.4-8.23c0-0.47,0.15-0.87,0.45-1.2
					c0.3-0.33,0.66-0.5,1.08-0.5c0.69,0,1.03,0.47,1.03,1.4c0,1.58,0.12,3.92,0.35,7.03c0.23,3.11,0.47,5.09,0.72,5.93
					c0.04,0.18,0.07,0.38,0.07,0.62s-0.15,0.46-0.45,0.67s-0.69,0.32-1.17,0.32s-0.79-0.27-0.95-0.8c-0.04-0.44-0.16-1.11-0.33-2
					c-1.56,1.62-3.12,2.43-4.7,2.43c-0.73,0-1.39-0.28-1.97-0.83c-0.58-0.55-1.03-1.31-1.37-2.27c-0.58-1.84-0.87-3.58-0.87-5.2
					c0-1.62,0.09-3.62,0.27-6C481.29,833.47,481.48,833.15,481.77,832.9z"/>
				<path class="st8" d="M496.96,825.98c0.13-0.38,0.42-0.57,0.85-0.57c0.43,0,0.78,0.13,1.03,0.4c0.25,0.27,0.38,0.48,0.38,0.65
					c0,0.17-0.02,0.31-0.07,0.42c-0.36,1-0.95,1.94-1.78,2.83s-1.47,1.33-1.92,1.33s-0.78-0.11-1-0.33
					c-0.22-0.22-0.33-0.48-0.33-0.78c0-0.3,0.18-0.59,0.53-0.88C495.84,828.09,496.61,827.07,496.96,825.98z M498.19,844.51
					l0.03,2.33c0,0.42-0.17,0.77-0.5,1.05c-0.33,0.28-0.69,0.42-1.07,0.42c-0.55,0-0.84-0.28-0.87-0.83
					c-0.29-7.08-0.43-11.01-0.43-11.76s0.03-1.68,0.1-2.77c0.04-0.4,0.3-0.6,0.77-0.6c1.18,0,1.84,0.48,2,1.43
					c0.07,0.49,0.1,0.88,0.1,1.17l-0.13,2.1V844.51z"/>
				<path class="st8" d="M510.02,832.51l-0.03-6.43c0-1.2,0.38-1.8,1.15-1.8c0.77,0,1.19,0.33,1.28,1c0.04,0.29,0.1,2.03,0.17,5.23
					c0.07,3.2,0.17,6.2,0.32,9s0.22,5.41,0.22,7.83c0,0.67-0.5,1-1.5,1c-0.67,0-1-0.47-1-1.4c-0.96,0.75-2.09,1.13-3.4,1.13
					c-1.67,0-3.02-0.62-4.05-1.87c-1.03-1.24-1.55-2.78-1.55-4.6c0-1.82,0.37-3.53,1.12-5.11c0.74-1.59,1.9-2.73,3.48-3.41
					c0.98-0.42,1.92-0.63,2.83-0.63C509.39,832.45,509.71,832.47,510.02,832.51z M510.2,837.06c-0.17-0.48-0.36-0.84-0.58-1.1
					c-0.22-0.26-0.46-0.41-0.72-0.47s-0.56-0.08-0.92-0.08s-0.79,0.13-1.3,0.4c-0.51,0.27-0.95,0.7-1.3,1.3
					c-0.71,1.2-1.07,2.46-1.07,3.78s0.26,2.4,0.78,3.23c0.52,0.83,1.27,1.25,2.23,1.25s1.73-0.48,2.28-1.43
					c0.55-0.95,0.83-2.18,0.83-3.66C510.45,838.61,510.37,837.54,510.2,837.06z"/>
				<path class="st8" d="M524.35,832.55c0.98,0,1.46,0.83,1.46,2.5c0,0.18,0,0.37,0,0.57l-0.07,2.33c-0.02,0.73-0.03,1.46-0.03,2.17
					l0.5,7.53c0,0.56-0.57,0.83-1.7,0.83c-0.07,0-0.23,0-0.48,0c-0.26,0-0.43-0.1-0.53-0.3c-0.1-0.2-0.11-0.44-0.03-0.73
					c0.08-0.29,0.05-0.61-0.08-0.97c-1.02,1.09-2.38,1.63-4.06,1.63c-3.13,0-4.7-2.42-4.7-7.26c0-2.69,0.5-4.72,1.52-6.1
					c1.01-1.38,2.46-2.07,4.35-2.07c0.89,0,1.78,0.16,2.67,0.47C523.44,832.75,523.84,832.55,524.35,832.55z M520.88,835.58
					c-1.27,0-2.21,0.37-2.83,1.1c-0.62,0.73-0.93,2.08-0.93,4.03c0,3.29,0.89,4.93,2.67,4.93c0.47,0,0.98-0.21,1.55-0.63
					s0.96-0.9,1.18-1.43c0.42-1.2,0.63-2.51,0.63-3.93c0-1.42-0.17-2.45-0.52-3.1C522.29,835.9,521.7,835.58,520.88,835.58z"/>
				<path class="st8" d="M545.07,832.55c0.98,0,1.47,0.83,1.47,2.5c0,0.18,0,0.37,0,0.57l-0.07,2.33c-0.02,0.73-0.03,1.46-0.03,2.17
					l0.5,7.53c0,0.56-0.57,0.83-1.7,0.83c-0.07,0-0.23,0-0.48,0c-0.26,0-0.43-0.1-0.53-0.3c-0.1-0.2-0.11-0.44-0.03-0.73
					c0.08-0.29,0.05-0.61-0.08-0.97c-1.02,1.09-2.38,1.63-4.06,1.63c-3.13,0-4.7-2.42-4.7-7.26c0-2.69,0.5-4.72,1.52-6.1
					c1.01-1.38,2.46-2.07,4.35-2.07c0.89,0,1.78,0.16,2.67,0.47C544.16,832.75,544.56,832.55,545.07,832.55z M541.61,835.58
					c-1.27,0-2.21,0.37-2.83,1.1c-0.62,0.73-0.93,2.08-0.93,4.03c0,3.29,0.89,4.93,2.67,4.93c0.47,0,0.98-0.21,1.55-0.63
					s0.96-0.9,1.18-1.43c0.42-1.2,0.63-2.51,0.63-3.93c0-1.42-0.17-2.45-0.52-3.1S542.43,835.58,541.61,835.58z M543.74,830.98
					c-0.2,0.31-0.45,0.47-0.75,0.47c-0.3,0-0.66-0.11-1.07-0.33c-0.41-0.22-0.92-0.63-1.53-1.23s-1.07-1.18-1.37-1.75
					c-0.3-0.57-0.45-0.95-0.45-1.17c0-0.21,0.02-0.41,0.07-0.6c0.04-0.19,0.19-0.36,0.45-0.5c0.25-0.14,0.46-0.22,0.62-0.22
					s0.28,0.01,0.37,0.03c0.33,0.09,0.79,0.62,1.37,1.58c0.58,0.97,1.21,1.63,1.9,1.98c0.36,0.18,0.55,0.47,0.6,0.87
					C543.98,830.51,543.92,830.8,543.74,830.98z"/>
				<path class="st8" d="M566.06,846.74c-0.8,0.93-1.81,1.4-3.03,1.4s-2.28-0.38-3.17-1.13c-1.87-1.44-2.8-3.65-2.8-6.63
					c0-2.33,0.64-4.2,1.93-5.61c1.29-1.41,2.88-2.12,4.76-2.12s3.18,0.64,3.86,1.93c0.6,1.13,0.9,2.84,0.9,5.13l-0.07,2.73
					c0,1.29,0.06,3.07,0.18,5.35s0.18,3.99,0.18,5.15c0,1.91-0.47,3.31-1.42,4.21c-0.94,0.9-2.38,1.35-4.31,1.35
					c-1.15,0-2.33-0.24-3.53-0.73c-1.2-0.49-1.8-1.06-1.8-1.7c0-0.47,0.13-0.82,0.38-1.07s0.55-0.37,0.88-0.37
					c0.33,0,1.08,0.24,2.25,0.73s2,0.73,2.52,0.73c1.6,0,2.4-1.31,2.4-3.93S566.15,847.74,566.06,846.74z M566.03,839.69
					c0-1.61-0.24-2.74-0.72-3.4s-1.23-0.98-2.25-0.98s-1.84,0.47-2.46,1.4c-0.62,0.93-0.93,2.12-0.93,3.55s0.29,2.57,0.88,3.42
					c0.59,0.84,1.49,1.27,2.72,1.27s2.01-0.52,2.37-1.57C565.89,842.53,566.03,841.3,566.03,839.69z"/>
				<path class="st8" d="M571.24,826.53c0.05-0.83,0.19-1.38,0.4-1.63c0.21-0.25,0.55-0.38,1.02-0.38c0.95,0,1.43,0.39,1.43,1.17
					c0,0.6-0.05,2.17-0.15,4.7s-0.15,4.8-0.15,6.8s0.08,3.61,0.23,4.83c0.27,2.13,0.64,3.2,1.13,3.2s0.86-0.34,1.1-1.03
					c0.11-0.27,0.29-0.5,0.53-0.72s0.55-0.32,0.93-0.32c0.78,0,1.17,0.66,1.17,1.97c0,0.71-0.38,1.42-1.15,2.12
					c-0.77,0.7-1.53,1.05-2.28,1.05c-0.76,0-1.36-0.13-1.82-0.38s-0.82-0.64-1.1-1.15c-0.28-0.51-0.5-1-0.67-1.48
					s-0.28-1.06-0.35-1.75c-0.13-1.11-0.23-2.89-0.28-5.35c-0.06-2.45-0.08-4.8-0.08-7.03C571.16,828.9,571.18,827.37,571.24,826.53
					z"/>
				<path class="st8" d="M582.38,827.05c0.4,0,0.78,0.19,1.13,0.57c0.35,0.38,0.53,0.77,0.53,1.18s-0.19,0.83-0.58,1.25
					s-0.79,0.63-1.22,0.63s-0.8-0.18-1.15-0.53c-0.35-0.35-0.52-0.81-0.52-1.37c0-1.07,0.58-1.64,1.73-1.73
					C582.34,827.05,582.36,827.05,582.38,827.05z M583.78,844.51l0.03,2.33c0,0.42-0.17,0.77-0.5,1.05
					c-0.33,0.28-0.69,0.42-1.07,0.42c-0.55,0-0.84-0.28-0.87-0.83c-0.29-7.08-0.43-11.01-0.43-11.76s0.03-1.68,0.1-2.77
					c0.04-0.4,0.3-0.6,0.77-0.6c1.18,0,1.84,0.48,2,1.43c0.07,0.49,0.1,0.88,0.1,1.17l-0.13,2.1V844.51z"/>
				<path class="st8" d="M588.36,836.25c0.79-1.22,1.79-2.14,3.01-2.75c1.22-0.61,2.41-0.92,3.57-0.92s2.08,0.14,2.78,0.42
					c0.7,0.28,1.05,0.64,1.05,1.1s-0.13,0.91-0.38,1.37c-0.26,0.46-0.59,0.68-1.02,0.68c-0.16,0-0.58-0.13-1.28-0.38
					c-0.7-0.25-1.15-0.38-1.35-0.38c-1.29,0-2.39,0.47-3.3,1.42c-0.91,0.94-1.37,2.19-1.37,3.75s0.25,2.71,0.75,3.48
					c0.5,0.77,1.36,1.15,2.58,1.15c0.49,0,1.33-0.28,2.52-0.85c1.19-0.57,1.93-0.85,2.21-0.85s0.52,0.09,0.7,0.27
					s0.27,0.4,0.27,0.67c0,0.53-0.34,1.09-1.02,1.68c-0.68,0.59-1.52,1.08-2.52,1.47s-1.9,0.58-2.7,0.58c-1.78,0-3.17-0.7-4.18-2.1
					s-1.52-3.31-1.52-5.73C587.18,838.82,587.58,837.47,588.36,836.25z"/>
				<path class="st8" d="M606.47,832.58c1.6,0,2.92,0.77,3.95,2.3c1.03,1.53,1.55,3.37,1.55,5.51s-0.53,3.97-1.58,5.48
					c-1.06,1.51-2.46,2.27-4.2,2.27s-3.15-0.77-4.21-2.32c-1.07-1.54-1.6-3.26-1.6-5.15c0-2.42,0.49-4.35,1.47-5.8
					C602.88,833.35,604.43,832.58,606.47,832.58z M606.07,835.31c-0.93,0-1.7,0.49-2.3,1.47c-0.6,0.98-0.9,2.01-0.9,3.1
					c0,1.69,0.33,2.98,1,3.87s1.42,1.33,2.27,1.33c1.51,0,2.48-0.65,2.9-1.96c0.18-0.62,0.27-1.4,0.27-2.33
					C609.3,837.13,608.23,835.31,606.07,835.31z"/>
				<path class="st8" d="M615.97,833.65c0.93-0.78,2.02-1.17,3.25-1.17s2.42,0.22,3.55,0.67s1.7,1.03,1.7,1.77
					c0,0.38-0.14,0.68-0.43,0.9c-0.29,0.22-0.54,0.33-0.75,0.33s-0.38,0-0.5-0.02c-0.12-0.01-0.57-0.22-1.33-0.62
					s-1.47-0.6-2.12-0.6c-0.64,0-1.2,0.16-1.65,0.48c-0.46,0.32-0.68,0.79-0.68,1.42s0.26,1.11,0.78,1.47s1.44,0.66,2.75,0.92
					c1.31,0.26,2.32,0.62,3.02,1.08c0.7,0.47,1.05,1.33,1.05,2.6c0,1.84-0.48,3.15-1.45,3.91c-0.97,0.77-2.14,1.15-3.52,1.15
					s-2.55-0.19-3.51-0.57c-0.97-0.38-1.45-0.94-1.45-1.7c0-0.87,0.43-1.3,1.3-1.3c0.22,0,0.71,0.16,1.47,0.47
					c0.75,0.31,1.5,0.47,2.25,0.47s1.31-0.24,1.7-0.72s0.58-1.03,0.58-1.65s-0.25-1.07-0.77-1.35c-0.51-0.28-1.29-0.5-2.33-0.68
					c-1.04-0.18-1.81-0.37-2.3-0.57c-1.33-0.53-2-1.72-2-3.57C614.57,835.47,615.03,834.42,615.97,833.65z"/>
				<path class="st8" d="M631.62,832.68c1.18,0,2.3,0.34,3.37,1.03s1.6,1.54,1.6,2.55s-0.43,1.99-1.3,2.93
					c-0.87,0.94-2.02,1.52-3.46,1.72c-0.62,0.09-1.56,0.13-2.8,0.13c0.24,1.89,0.72,3.13,1.43,3.73c0.22,0.25,0.52,0.37,0.9,0.37
					c1.38,0,2.53-0.44,3.46-1.32c0.93-0.88,1.6-1.32,2-1.32c0.18,0,0.44,0.17,0.8,0.5c0.35,0.33,0.53,0.64,0.53,0.93
					c0,0.58-0.7,1.41-2.1,2.5c-0.62,0.51-1.37,0.94-2.25,1.28c-0.88,0.34-1.7,0.52-2.45,0.52c-1.93,0-3.35-1.24-4.26-3.73
					c-0.58-1.53-0.87-3.22-0.87-5.06s0.43-3.43,1.3-4.76C628.39,833.35,629.76,832.68,631.62,832.68z M631.79,834.98
					c-0.85,0-1.57,0.48-2.17,1.43c-0.22,0.33-0.43,1.09-0.63,2.27c3.11,0,4.66-0.77,4.66-2.3
					C633.66,835.45,633.04,834.98,631.79,834.98z"/>
			</g>
		</g>
		<rect x="81.37" y="360.36" class="st2" width="101.11" height="392.77"/>
	</g>
</g>
<g>
	<g>
		<g>
			<g class="st0">
				<path class="st8" d="M125.58,88.86c0.91,0,1.67,0.4,2.29,1.2c0.62,0.8,1.42,2.46,2.4,4.97c2.29,5.93,4.53,15.23,6.71,27.89
					c0.04,0.15,0.05,0.35,0.05,0.63c0,0.27-0.17,0.57-0.52,0.87c-0.35,0.31-0.84,0.46-1.47,0.46c-0.64,0-1.17-0.15-1.61-0.46
					c-0.44-0.31-0.73-0.82-0.87-1.53c-0.15-0.71-0.42-2.1-0.82-4.18c-0.87-4.62-1.46-7.02-1.75-7.21c-0.44-0.25-1.88-0.53-4.34-0.82
					c-2.46-0.29-4.09-0.44-4.89-0.44c-0.8,0-1.27,0.07-1.42,0.22c-0.66,0.58-1.55,5-2.67,13.26c-0.15,0.69-0.84,1.04-2.07,1.04
					c-1.24,0-1.86-0.53-1.86-1.58c0-2.62,0.96-7.62,2.89-15.01c1.93-7.39,3.53-12.28,4.8-14.68
					C122.05,90.41,123.77,88.86,125.58,88.86z M125.37,94.92c-0.55,0-1.49,1.61-2.84,4.83c-1.35,3.22-2.02,5.21-2.02,5.98
					c0,0.18,0.04,0.31,0.11,0.38c0.29,0.29,1.44,0.55,3.44,0.76c2,0.22,3.33,0.33,3.98,0.33s1.02-0.04,1.09-0.14
					c0.07-0.09,0.11-0.38,0.11-0.87s-0.49-2.49-1.47-6S125.99,94.92,125.37,94.92z"/>
				<path class="st8" d="M153.21,99.29l-0.05-10.54c0-1.96,0.63-2.95,1.88-2.95c1.26,0,1.96,0.55,2.1,1.64
					c0.07,0.47,0.16,3.33,0.27,8.57c0.11,5.24,0.28,10.15,0.52,14.74c0.24,4.58,0.35,8.86,0.35,12.83c0,1.09-0.82,1.64-2.46,1.64
					c-1.09,0-1.64-0.76-1.64-2.29c-1.56,1.24-3.42,1.86-5.57,1.86c-2.73,0-4.94-1.02-6.63-3.06c-1.69-2.04-2.54-4.55-2.54-7.53
					c0-2.98,0.61-5.78,1.83-8.38c1.22-2.6,3.12-4.47,5.7-5.59c1.6-0.69,3.15-1.04,4.64-1.04C152.17,99.18,152.7,99.22,153.21,99.29z
					 M153.51,106.74c-0.27-0.78-0.59-1.38-0.96-1.8c-0.36-0.42-0.76-0.67-1.17-0.76c-0.42-0.09-0.92-0.14-1.5-0.14
					c-0.58,0-1.29,0.22-2.13,0.66c-0.84,0.44-1.55,1.15-2.13,2.13c-1.17,1.96-1.75,4.03-1.75,6.2c0,2.17,0.43,3.93,1.28,5.29
					c0.85,1.37,2.07,2.05,3.66,2.05s2.83-0.78,3.74-2.35c0.91-1.56,1.36-3.57,1.36-6C153.92,109.28,153.78,107.52,153.51,106.74z"/>
				<path class="st8" d="M162.27,99.92c0.47-0.42,0.96-0.63,1.45-0.63c0.49,0,0.87,0.09,1.15,0.27c0.27,0.18,0.44,0.35,0.49,0.49
					c0.05,0.15,0.12,0.4,0.19,0.76c-0.22,2.84-0.33,5.4-0.33,7.67c0,2.27,0.27,4.88,0.82,7.81c0.55,2.93,1.15,4.39,1.8,4.39
					c0.98,0,2.23-0.55,3.74-1.64c1.51-1.09,2.59-2.24,3.25-3.44c-0.44-5.24-0.65-9.73-0.65-13.48c0-0.76,0.25-1.42,0.74-1.96
					s1.08-0.82,1.77-0.82c1.13,0,1.69,0.76,1.69,2.29c0,2.58,0.19,6.42,0.57,11.52c0.38,5.1,0.77,8.33,1.17,9.72
					c0.07,0.29,0.11,0.63,0.11,1.01s-0.25,0.75-0.74,1.09c-0.49,0.34-1.13,0.52-1.91,0.52c-0.78,0-1.3-0.44-1.56-1.31
					c-0.07-0.73-0.25-1.82-0.55-3.28c-2.55,2.66-5.11,3.99-7.7,3.99c-1.2,0-2.27-0.46-3.22-1.37c-0.95-0.91-1.69-2.15-2.24-3.71
					c-0.95-3.02-1.42-5.86-1.42-8.52s0.15-5.93,0.44-9.83C161.48,100.85,161.79,100.33,162.27,99.92z"/>
				<path class="st8" d="M183.15,89.49c0.09-1.36,0.31-2.26,0.65-2.67c0.35-0.42,0.9-0.63,1.67-0.63c1.56,0,2.35,0.64,2.35,1.91
					c0,0.98-0.08,3.55-0.25,7.7c-0.16,4.15-0.25,7.86-0.25,11.14s0.13,5.91,0.38,7.92c0.44,3.49,1.06,5.24,1.86,5.24
					c0.8,0,1.4-0.56,1.8-1.69c0.18-0.44,0.47-0.83,0.87-1.17c0.4-0.34,0.91-0.52,1.53-0.52c1.27,0,1.91,1.07,1.91,3.22
					c0,1.17-0.63,2.32-1.88,3.47s-2.5,1.72-3.74,1.72c-1.24,0-2.23-0.21-2.97-0.63c-0.75-0.42-1.35-1.05-1.8-1.88
					c-0.46-0.84-0.82-1.65-1.09-2.43c-0.27-0.78-0.46-1.74-0.57-2.87c-0.22-1.82-0.37-4.74-0.46-8.76
					c-0.09-4.02-0.14-7.86-0.14-11.52S183.05,90.86,183.15,89.49z"/>
				<path class="st8" d="M199.17,99.34l2.73,0.05c0.62,0,0.96-0.02,1.04-0.05V88.15c0.04-0.62,0.35-1.15,0.93-1.58
					c0.58-0.44,1.13-0.66,1.64-0.66c0.51,0,0.92,0.16,1.23,0.49c0.31,0.33,0.45,0.84,0.41,1.53c-0.04,0.69-0.05,4.48-0.05,11.35
					l6.39-0.22c1.09,0,1.64,0.64,1.64,1.91c0,0.95-0.28,1.66-0.85,2.13c-0.56,0.47-1.17,0.73-1.8,0.76s-1.26,0.05-1.88,0.05
					l-3.33-0.05c0,1.49,0.15,4.44,0.46,8.84c0.31,4.4,0.55,7.25,0.74,8.54c0.18,1.29,0.22,2.13,0.11,2.51
					c-0.11,0.38-0.31,0.65-0.6,0.79c-0.47,0.22-1.11,0.33-1.91,0.33c-0.8,0-1.27-0.44-1.42-1.31c-0.73-4.77-1.22-11.32-1.47-19.65
					c-0.33,0.04-1.58,0.05-3.77,0.05s-3.27-0.64-3.27-1.91C196.11,100.25,197.13,99.34,199.17,99.34z"/>
				<path class="st8" d="M226.24,99.4c2.62,0,4.78,1.26,6.47,3.77c1.69,2.51,2.54,5.52,2.54,9.03c0,3.51-0.86,6.5-2.59,8.98
					c-1.73,2.47-4.02,3.71-6.88,3.71c-2.86,0-5.16-1.26-6.91-3.79c-1.75-2.53-2.62-5.34-2.62-8.43c0-3.97,0.8-7.13,2.4-9.5
					C220.36,100.65,222.89,99.4,226.24,99.4z M225.59,103.87c-1.53,0-2.78,0.8-3.77,2.4c-0.98,1.6-1.47,3.29-1.47,5.08
					c0,2.77,0.55,4.88,1.64,6.33c1.09,1.46,2.33,2.18,3.71,2.18c2.47,0,4.06-1.07,4.75-3.22c0.29-1.02,0.44-2.29,0.44-3.82
					C230.88,106.86,229.11,103.87,225.59,103.87z"/>
				<path class="st8" d="M241.8,101.14c1.53-1.27,3.3-1.91,5.32-1.91c2.02,0,3.96,0.36,5.81,1.09s2.78,1.69,2.78,2.89
					c0,0.62-0.24,1.11-0.71,1.47c-0.47,0.36-0.88,0.55-1.23,0.55c-0.35,0-0.62-0.01-0.82-0.03c-0.2-0.02-0.93-0.35-2.18-1.01
					s-2.41-0.98-3.47-0.98c-1.06,0-1.96,0.26-2.7,0.79c-0.75,0.53-1.12,1.3-1.12,2.32c0,1.02,0.43,1.82,1.28,2.4
					c0.85,0.58,2.36,1.08,4.5,1.5c2.15,0.42,3.79,1.01,4.94,1.77c1.15,0.76,1.72,2.18,1.72,4.26c0,3.02-0.79,5.16-2.37,6.41
					s-3.5,1.88-5.76,1.88c-2.26,0-4.18-0.31-5.76-0.93c-1.58-0.62-2.37-1.55-2.37-2.78c0-1.42,0.71-2.13,2.13-2.13
					c0.36,0,1.16,0.25,2.4,0.76c1.24,0.51,2.46,0.76,3.68,0.76c1.22,0,2.15-0.39,2.78-1.17c0.64-0.78,0.96-1.68,0.96-2.7
					c0-1.02-0.42-1.75-1.26-2.21c-0.84-0.45-2.11-0.83-3.82-1.12c-1.71-0.29-2.97-0.6-3.77-0.93c-2.18-0.87-3.27-2.82-3.27-5.84
					C239.51,104.13,240.27,102.42,241.8,101.14z"/>
				<path class="st8" d="M285.19,99.29l-0.05-10.54c0-1.96,0.63-2.95,1.88-2.95c1.26,0,1.96,0.55,2.1,1.64
					c0.07,0.47,0.16,3.33,0.27,8.57c0.11,5.24,0.28,10.15,0.52,14.74c0.24,4.58,0.35,8.86,0.35,12.83c0,1.09-0.82,1.64-2.46,1.64
					c-1.09,0-1.64-0.76-1.64-2.29c-1.56,1.24-3.42,1.86-5.57,1.86c-2.73,0-4.94-1.02-6.63-3.06c-1.69-2.04-2.54-4.55-2.54-7.53
					c0-2.98,0.61-5.78,1.83-8.38c1.22-2.6,3.12-4.47,5.7-5.59c1.6-0.69,3.15-1.04,4.64-1.04C284.16,99.18,284.68,99.22,285.19,99.29
					z M285.49,106.74c-0.27-0.78-0.59-1.38-0.96-1.8c-0.36-0.42-0.76-0.67-1.17-0.76c-0.42-0.09-0.92-0.14-1.5-0.14
					c-0.58,0-1.29,0.22-2.13,0.66c-0.84,0.44-1.55,1.15-2.13,2.13c-1.17,1.96-1.75,4.03-1.75,6.2c0,2.17,0.43,3.93,1.28,5.29
					c0.85,1.37,2.07,2.05,3.66,2.05s2.83-0.78,3.74-2.35c0.91-1.56,1.36-3.57,1.36-6C285.9,109.28,285.77,107.52,285.49,106.74z"/>
				<path class="st8" d="M303.1,99.4c2.62,0,4.78,1.26,6.47,3.77c1.69,2.51,2.54,5.52,2.54,9.03c0,3.51-0.86,6.5-2.59,8.98
					c-1.73,2.47-4.02,3.71-6.88,3.71c-2.86,0-5.16-1.26-6.91-3.79c-1.75-2.53-2.62-5.34-2.62-8.43c0-3.97,0.8-7.13,2.4-9.5
					C297.22,100.65,299.75,99.4,303.1,99.4z M302.44,103.87c-1.53,0-2.78,0.8-3.77,2.4c-0.98,1.6-1.47,3.29-1.47,5.08
					c0,2.77,0.55,4.88,1.64,6.33c1.09,1.46,2.33,2.18,3.71,2.18c2.47,0,4.06-1.07,4.75-3.22c0.29-1.02,0.44-2.29,0.44-3.82
					C307.74,106.86,305.97,103.87,302.44,103.87z"/>
				<path class="st8" d="M336.61,124.78c-1.24,0-2.38-0.42-3.44-1.26l-0.71-0.6v16.38c-0.22,0.73-0.6,1.34-1.15,1.83
					c-0.55,0.49-1.13,0.74-1.75,0.74c-0.95,0-1.42-0.64-1.42-1.91v-38.05c0.22-0.95,0.48-1.62,0.79-2.02c0.31-0.4,0.8-0.6,1.47-0.6
					c0.67,0,1.11,0.16,1.31,0.46c0.2,0.31,0.45,1.16,0.74,2.54c0.15-0.73,0.73-1.4,1.75-2.02c1.02-0.62,2.38-0.93,4.09-0.93
					c3.71,0,6.35,1.35,7.92,4.04c1.56,2.69,2.35,5.87,2.35,9.53s-1.06,6.55-3.19,8.68S340.33,124.78,336.61,124.78z M332.46,108.4
					v10.15c0.22,0.11,0.47,0.29,0.76,0.55c1.06,0.95,2.2,1.42,3.44,1.42c5.02,0,7.53-2.58,7.53-7.75c0-4.4-1.13-7.19-3.38-8.35
					c-0.95-0.51-2.11-0.76-3.49-0.76c-1.35,0.18-2.49,0.77-3.44,1.77C332.94,106.43,332.46,107.42,332.46,108.4z"/>
				<path class="st8" d="M361.01,99.4c2.62,0,4.78,1.26,6.47,3.77s2.54,5.52,2.54,9.03c0,3.51-0.86,6.5-2.59,8.98
					s-4.02,3.71-6.88,3.71c-2.86,0-5.16-1.26-6.91-3.79c-1.75-2.53-2.62-5.34-2.62-8.43c0-3.97,0.8-7.13,2.4-9.5
					C355.14,100.65,357.66,99.4,361.01,99.4z M360.36,103.87c-1.53,0-2.78,0.8-3.77,2.4c-0.98,1.6-1.47,3.29-1.47,5.08
					c0,2.77,0.55,4.88,1.64,6.33c1.09,1.46,2.33,2.18,3.71,2.18c2.47,0,4.06-1.07,4.75-3.22c0.29-1.02,0.44-2.29,0.44-3.82
					C365.65,106.86,363.89,103.87,360.36,103.87z"/>
				<path class="st8" d="M390.98,99.07c0.51,0,0.89,0.17,1.15,0.52c0.25,0.35,0.38,0.72,0.38,1.12l-0.05,0.55
					c-1.53,3.89-2.66,7.06-3.38,9.5c-0.47,1.71-0.83,2.98-1.06,3.82c-0.24,0.84-0.63,2.31-1.17,4.42c-0.55,2.11-0.91,3.48-1.09,4.09
					c-0.51,1.24-1.4,1.86-2.67,1.86c-0.62,0-1.06-0.4-1.31-1.2c-1.17-3.64-2.88-7.75-5.13-12.34c-2.26-4.58-3.54-7.21-3.85-7.89
					c-0.31-0.67-0.46-1.28-0.46-1.83s0.25-1.07,0.74-1.58c0.49-0.51,1.05-0.76,1.67-0.76c0.62,0,1.15,0.33,1.58,0.98
					c0.4,0.8,1.54,3.04,3.41,6.71s3.19,6.57,3.96,8.68c0.04-0.22,0.16-0.67,0.38-1.36c1.86-6.44,3.37-11.04,4.53-13.81
					C389.2,99.56,390,99.07,390.98,99.07z"/>
				<path class="st8" d="M404.85,99.4c2.62,0,4.78,1.26,6.47,3.77c1.69,2.51,2.54,5.52,2.54,9.03c0,3.51-0.87,6.5-2.59,8.98
					c-1.73,2.47-4.02,3.71-6.88,3.71c-2.86,0-5.16-1.26-6.91-3.79c-1.75-2.53-2.62-5.34-2.62-8.43c0-3.97,0.8-7.13,2.4-9.5
					C398.97,100.65,401.5,99.4,404.85,99.4z M404.19,103.87c-1.53,0-2.78,0.8-3.77,2.4c-0.98,1.6-1.47,3.29-1.47,5.08
					c0,2.77,0.55,4.88,1.64,6.33s2.33,2.18,3.71,2.18c2.47,0,4.06-1.07,4.75-3.22c0.29-1.02,0.44-2.29,0.44-3.82
					C409.49,106.86,407.72,103.87,404.19,103.87z"/>
				<path class="st8" d="M431.1,125.11c-1.24,0-1.86-0.53-1.86-1.58c0-0.58,0.15-1.16,0.44-1.75c0.29-0.33,1.68-1.86,4.18-4.61
					c2.49-2.75,4.79-5.43,6.91-8.05c-4.95-7.71-8.1-12.75-9.44-15.12c-0.18-0.44-0.27-0.92-0.27-1.45c0-0.53,0.26-1.06,0.79-1.61
					s1.13-0.82,1.8-0.82c0.67,0,1.21,0.31,1.61,0.93c3.64,5.97,6.57,10.68,8.79,14.14c3.78-4.44,7.37-9.39,10.75-14.85
					c0.62-1.09,1.49-1.64,2.62-1.64c0.44,0,0.81,0.14,1.12,0.41c0.31,0.27,0.46,0.61,0.46,1.01s-0.11,0.91-0.33,1.53
					c-2.73,4.55-6.8,10.24-12.23,17.09c3.13,5.02,6.02,9.08,8.68,12.17c0.29,0.58,0.44,1.13,0.44,1.64c0,0.51-0.26,1.04-0.79,1.58
					c-0.53,0.55-1.12,0.82-1.77,0.82s-1.22-0.18-1.69-0.55c-1.64-2.07-4.37-6-8.19-11.79c-2.44,2.88-5.91,6.82-10.43,11.85
					C432.1,124.89,431.57,125.11,431.1,125.11z"/>
				<path class="st8" d="M477.77,99.34c1.6,0,2.4,1.37,2.4,4.09c0,0.29,0,0.6,0,0.93l-0.11,3.82c-0.04,1.2-0.05,2.38-0.05,3.55
					l0.82,12.34c0,0.91-0.93,1.37-2.78,1.37c-0.11,0-0.37,0-0.79,0c-0.42,0-0.71-0.16-0.87-0.49c-0.16-0.33-0.18-0.73-0.05-1.2
					c0.13-0.47,0.08-1-0.14-1.58c-1.67,1.78-3.89,2.67-6.66,2.67c-5.13,0-7.7-3.97-7.7-11.9c0-4.4,0.83-7.73,2.48-9.99
					s4.03-3.38,7.12-3.38c1.46,0,2.91,0.25,4.37,0.76C476.28,99.67,476.93,99.34,477.77,99.34z M472.1,104.31
					c-2.07,0-3.62,0.6-4.64,1.8c-1.02,1.2-1.53,3.4-1.53,6.6c0,5.39,1.46,8.08,4.37,8.08c0.76,0,1.61-0.35,2.54-1.04
					c0.93-0.69,1.57-1.47,1.94-2.35c0.69-1.96,1.04-4.11,1.04-6.44c0-2.33-0.28-4.02-0.85-5.08
					C474.4,104.84,473.44,104.31,472.1,104.31z"/>
				<path class="st8" d="M501.57,99.07c0.51,0,0.89,0.17,1.15,0.52c0.25,0.35,0.38,0.72,0.38,1.12l-0.05,0.55
					c-1.53,3.89-2.66,7.06-3.38,9.5c-0.47,1.71-0.83,2.98-1.06,3.82c-0.24,0.84-0.63,2.31-1.17,4.42c-0.55,2.11-0.91,3.48-1.09,4.09
					c-0.51,1.24-1.4,1.86-2.67,1.86c-0.62,0-1.06-0.4-1.31-1.2c-1.17-3.64-2.88-7.75-5.13-12.34c-2.26-4.58-3.54-7.21-3.85-7.89
					c-0.31-0.67-0.46-1.28-0.46-1.83s0.25-1.07,0.74-1.58c0.49-0.51,1.05-0.76,1.67-0.76c0.62,0,1.15,0.33,1.58,0.98
					c0.4,0.8,1.54,3.04,3.41,6.71s3.19,6.57,3.96,8.68c0.04-0.22,0.16-0.67,0.38-1.36c1.86-6.44,3.37-11.04,4.53-13.81
					C499.79,99.56,500.59,99.07,501.57,99.07z"/>
				<path class="st8" d="M521,99.34c1.6,0,2.4,1.37,2.4,4.09c0,0.29,0,0.6,0,0.93l-0.11,3.82c-0.04,1.2-0.05,2.38-0.05,3.55
					l0.82,12.34c0,0.91-0.93,1.37-2.78,1.37c-0.11,0-0.37,0-0.79,0s-0.71-0.16-0.87-0.49c-0.16-0.33-0.18-0.73-0.05-1.2
					c0.13-0.47,0.08-1-0.14-1.58c-1.67,1.78-3.89,2.67-6.66,2.67c-5.13,0-7.7-3.97-7.7-11.9c0-4.4,0.83-7.73,2.48-9.99
					c1.66-2.26,4.03-3.38,7.12-3.38c1.46,0,2.91,0.25,4.37,0.76C519.51,99.67,520.17,99.34,521,99.34z M515.33,104.31
					c-2.07,0-3.62,0.6-4.64,1.8c-1.02,1.2-1.53,3.4-1.53,6.6c0,5.39,1.46,8.08,4.37,8.08c0.76,0,1.61-0.35,2.54-1.04
					s1.57-1.47,1.94-2.35c0.69-1.96,1.04-4.11,1.04-6.44c0-2.33-0.28-4.02-0.85-5.08C517.63,104.84,516.67,104.31,515.33,104.31z"/>
				<path class="st8" d="M529.25,123.14l-0.6-22.16c0-0.69,0.24-1.25,0.71-1.69c0.47-0.44,0.95-0.65,1.42-0.65
					c1.16,0,1.84,0.49,2.02,1.47c0.15,0.98,0.22,2,0.22,3.06c1.96-2.58,4.42-3.88,7.37-3.88c4.51,0,6.77,5.15,6.77,15.45
					c0,0.95,0,2.38,0,4.29s-0.11,3.3-0.33,4.18c-0.26,1.09-1.04,1.64-2.35,1.64c-0.87,0-1.31-0.58-1.31-1.75l0.05-3.06
					c0-4.22-0.14-7.1-0.41-8.65c-0.27-1.55-0.54-2.78-0.79-3.68c-0.62-1.97-1.62-2.95-3-2.95c-1.82,0-3.09,0.66-3.82,1.96
					c-0.8,1.42-1.27,3.09-1.42,5.02c-0.25,3.38-0.38,6.97-0.38,10.75c0,0.73-0.27,1.31-0.82,1.75s-1.2,0.66-1.97,0.66
					C529.7,124.89,529.25,124.31,529.25,123.14z"/>
				<path class="st8" d="M553.21,99.34l2.73,0.05c0.62,0,0.96-0.02,1.04-0.05V88.15c0.04-0.62,0.35-1.15,0.93-1.58
					c0.58-0.44,1.13-0.66,1.64-0.66s0.92,0.16,1.23,0.49c0.31,0.33,0.45,0.84,0.41,1.53c-0.04,0.69-0.05,4.48-0.05,11.35l6.39-0.22
					c1.09,0,1.64,0.64,1.64,1.91c0,0.95-0.28,1.66-0.85,2.13c-0.57,0.47-1.17,0.73-1.8,0.76s-1.26,0.05-1.88,0.05l-3.33-0.05
					c0,1.49,0.15,4.44,0.46,8.84c0.31,4.4,0.55,7.25,0.74,8.54c0.18,1.29,0.22,2.13,0.11,2.51c-0.11,0.38-0.31,0.65-0.6,0.79
					c-0.47,0.22-1.11,0.33-1.91,0.33c-0.8,0-1.27-0.44-1.42-1.31c-0.73-4.77-1.22-11.32-1.47-19.65c-0.33,0.04-1.58,0.05-3.77,0.05
					s-3.28-0.64-3.28-1.91C550.15,100.25,551.17,99.34,553.21,99.34z"/>
				<path class="st8" d="M578.48,99.56c1.93,0,3.77,0.56,5.51,1.69c1.75,1.13,2.62,2.52,2.62,4.18c0,1.66-0.71,3.26-2.13,4.8
					c-1.42,1.55-3.31,2.48-5.68,2.81c-1.02,0.15-2.55,0.22-4.58,0.22c0.4,3.09,1.18,5.13,2.35,6.11c0.36,0.4,0.85,0.6,1.47,0.6
					c2.26,0,4.15-0.72,5.68-2.16c1.53-1.44,2.62-2.16,3.28-2.16c0.29,0,0.73,0.27,1.31,0.82s0.87,1.06,0.87,1.53
					c0,0.95-1.15,2.31-3.44,4.09c-1.02,0.84-2.25,1.54-3.68,2.1c-1.44,0.56-2.78,0.85-4.01,0.85c-3.17,0-5.5-2.04-6.99-6.11
					c-0.95-2.51-1.42-5.28-1.42-8.3s0.71-5.62,2.13-7.81C573.19,100.65,575.43,99.56,578.48,99.56z M578.76,103.33
					c-1.38,0-2.57,0.78-3.55,2.35c-0.36,0.55-0.71,1.78-1.04,3.71c5.09,0,7.64-1.25,7.64-3.77
					C581.81,104.09,580.79,103.33,578.76,103.33z"/>
			</g>
		</g>
	</g>
</g>
<g>
	<g>
		<path class="st8" d="M92.81,169.96c66.56-0.36,133.13-0.98,199.69-1.9c66.84-0.92,133.68-2.11,200.52-3.59
			c37.54-0.83,75.08-1.75,112.62-2.76c2.68-0.07,2.69-4.24,0-4.17c-66.45,1.79-132.92,3.3-199.38,4.52
			c-66.86,1.24-133.73,2.19-200.6,2.86c-37.61,0.38-75.22,0.66-112.84,0.87C90.13,165.8,90.13,169.97,92.81,169.96L92.81,169.96z"/>
	</g>
</g>
</svg>
