<?xml version="1.0" encoding="utf-8"?>
<!-- Generator: Adobe Illustrator 27.2.0, SVG Export Plug-In . SVG Version: 6.00 Build 0)  -->
<svg version="1.1" id="Camada_1" xmlns="http://www.w3.org/2000/svg" xmlns:xlink="http://www.w3.org/1999/xlink" x="0px" y="0px"
	 viewBox="0 0 1273 470" style="enable-background:new 0 0 1273 470;" xml:space="preserve">
<style type="text/css">
	.st0{opacity:0.5;}
	.st1{fill:#464442;}
	.st2{fill:#1E1D19;}
	.st3{fill:#F86701;}
</style>
<g class="st0">
	<g>
		<line class="st1" x1="1229.68" y1="30.93" x2="177.91" y2="32.38"/>
		
			<rect x="177.91" y="31.28" transform="matrix(1 -1.302082e-03 1.302082e-03 1 -0.0406 0.9164)" class="st2" width="1051.77" height="0.75"/>
	</g>
	<g>
		<line class="st1" x1="1229.68" y1="72.9" x2="177.91" y2="74.36"/>
		
			<rect x="177.91" y="73.25" transform="matrix(1 -1.302082e-03 1.302082e-03 1 -0.0953 0.9165)" class="st2" width="1051.77" height="0.75"/>
	</g>
	<g>
		<line class="st1" x1="1229.68" y1="114.88" x2="177.91" y2="116.33"/>
		
			<rect x="177.91" y="115.23" transform="matrix(1 -1.302082e-03 1.302082e-03 1 -0.1499 0.9165)" class="st2" width="1051.77" height="0.75"/>
	</g>
	<g>
		<line class="st1" x1="1229.68" y1="156.85" x2="177.91" y2="158.3"/>
		
			<rect x="177.91" y="157.2" transform="matrix(1 -1.302082e-03 1.302082e-03 1 -0.2046 0.9165)" class="st2" width="1051.77" height="0.75"/>
	</g>
	<g>
		<line class="st1" x1="1229.68" y1="198.83" x2="177.91" y2="200.28"/>
		
			<rect x="177.91" y="199.18" transform="matrix(1 -1.302082e-03 1.302082e-03 1 -0.2592 0.9166)" class="st2" width="1051.77" height="0.75"/>
	</g>
	<g>
		<line class="st1" x1="1229.68" y1="240.8" x2="177.91" y2="242.25"/>
		
			<rect x="177.91" y="241.15" transform="matrix(1 -1.302082e-03 1.302082e-03 1 -0.3139 0.9166)" class="st2" width="1051.77" height="0.75"/>
	</g>
	<g>
		<line class="st1" x1="1229.68" y1="282.77" x2="177.91" y2="284.23"/>
		
			<rect x="177.91" y="283.12" transform="matrix(1 -1.302082e-03 1.302082e-03 1 -0.3685 0.9166)" class="st2" width="1051.77" height="0.75"/>
	</g>
	<g>
		<line class="st1" x1="1229.68" y1="324.75" x2="177.91" y2="326.2"/>
		
			<rect x="177.91" y="325.1" transform="matrix(1 -1.302082e-03 1.302082e-03 1 -0.4232 0.9167)" class="st2" width="1051.77" height="0.75"/>
	</g>
	<g>
		<line class="st1" x1="1229.68" y1="366.72" x2="177.91" y2="368.17"/>
		
			<rect x="177.91" y="367.07" transform="matrix(1 -1.302082e-03 1.302082e-03 1 -0.4779 0.9167)" class="st2" width="1051.77" height="0.75"/>
	</g>
	<g>
		<line class="st1" x1="1229.68" y1="408.7" x2="177.91" y2="410.15"/>
		
			<rect x="177.91" y="409.05" transform="matrix(1 -1.302082e-03 1.302082e-03 1 -0.5325 0.9167)" class="st2" width="1051.77" height="0.75"/>
	</g>
</g>
<rect x="222" y="218" class="st3" width="36" height="190"/>
<rect x="339" y="176.49" class="st3" width="36" height="234.51"/>
<rect x="456" y="143.36" class="st3" width="36" height="271.64"/>
<rect x="573" y="147.27" class="st3" width="36" height="269.73"/>
<rect x="691" y="95.39" class="st3" width="36" height="315.61"/>
<rect x="808" y="61.34" class="st3" width="36" height="347.66"/>
<rect x="925" y="106.89" class="st3" width="36" height="303.11"/>
<rect x="1042" y="106.55" class="st3" width="36" height="309.45"/>
<rect x="1159" y="101.07" class="st3" width="36" height="310.93"/>
<g>
	<g>
		<path class="st2" d="M228.35,441.2h-8.3v-1.16l4.38-4.87c0.65-0.74,1.1-1.33,1.34-1.79c0.25-0.46,0.37-0.94,0.37-1.43
			c0-0.66-0.2-1.2-0.6-1.63s-0.93-0.63-1.6-0.63c-0.8,0-1.42,0.23-1.87,0.68s-0.67,1.09-0.67,1.9h-1.61c0-1.17,0.38-2.11,1.13-2.83
			c0.75-0.72,1.76-1.08,3.01-1.08c1.18,0,2.11,0.31,2.79,0.93c0.68,0.62,1.03,1.44,1.03,2.46c0,1.25-0.79,2.73-2.38,4.45l-3.39,3.68
			h6.36V441.2z"/>
		<path class="st2" d="M237.99,435.8c0,1.88-0.32,3.28-0.97,4.2s-1.65,1.37-3.02,1.37c-1.35,0-2.35-0.45-3-1.34
			c-0.65-0.9-0.99-2.23-1.01-4.01v-2.15c0-1.86,0.32-3.24,0.97-4.15s1.65-1.36,3.03-1.36c1.36,0,2.37,0.44,3.01,1.31
			c0.64,0.87,0.97,2.22,0.99,4.04V435.8z M236.38,433.6c0-1.36-0.19-2.36-0.57-2.98s-0.99-0.93-1.82-0.93
			c-0.82,0-1.42,0.31-1.8,0.93c-0.38,0.62-0.57,1.57-0.58,2.86v2.57c0,1.37,0.2,2.38,0.6,3.03s1,0.98,1.8,0.98
			c0.79,0,1.38-0.31,1.77-0.92c0.39-0.61,0.59-1.58,0.6-2.9V433.6z"/>
		<path class="st2" d="M245.34,441.2h-1.62v-10.72l-3.24,1.19v-1.46l4.61-1.73h0.25V441.2z"/>
		<path class="st2" d="M252.39,434.09h1.21c0.76-0.01,1.36-0.21,1.79-0.6c0.44-0.39,0.65-0.91,0.65-1.57c0-1.48-0.74-2.23-2.22-2.23
			c-0.7,0-1.25,0.2-1.67,0.6c-0.41,0.4-0.62,0.92-0.62,1.58h-1.61c0-1,0.37-1.84,1.1-2.5s1.67-1,2.8-1c1.19,0,2.13,0.32,2.81,0.95
			s1.02,1.51,1.02,2.63c0,0.55-0.18,1.08-0.53,1.6c-0.36,0.52-0.84,0.9-1.46,1.16c0.7,0.22,1.23,0.58,1.61,1.09
			c0.38,0.51,0.57,1.13,0.57,1.87c0,1.14-0.37,2.04-1.11,2.7c-0.74,0.67-1.71,1-2.9,1c-1.19,0-2.16-0.32-2.9-0.96
			c-0.74-0.64-1.12-1.49-1.12-2.55h1.62c0,0.67,0.22,1.2,0.65,1.6c0.43,0.4,1.02,0.6,1.75,0.6c0.78,0,1.37-0.2,1.78-0.61
			c0.41-0.41,0.62-0.99,0.62-1.75c0-0.74-0.23-1.3-0.68-1.7c-0.45-0.39-1.1-0.6-1.96-0.61h-1.21V434.09z"/>
	</g>
	<g>
		<path class="st2" d="M345.52,441.2h-8.3v-1.16l4.38-4.87c0.65-0.74,1.1-1.33,1.34-1.79c0.25-0.46,0.37-0.94,0.37-1.43
			c0-0.66-0.2-1.2-0.6-1.63s-0.93-0.63-1.6-0.63c-0.8,0-1.42,0.23-1.87,0.68s-0.67,1.09-0.67,1.9h-1.61c0-1.17,0.38-2.11,1.13-2.83
			c0.75-0.72,1.76-1.08,3.01-1.08c1.18,0,2.11,0.31,2.79,0.93c0.68,0.62,1.03,1.44,1.03,2.46c0,1.25-0.79,2.73-2.38,4.45l-3.39,3.68
			h6.36V441.2z"/>
		<path class="st2" d="M355.17,435.8c0,1.88-0.32,3.28-0.97,4.2s-1.65,1.37-3.02,1.37c-1.35,0-2.35-0.45-3-1.34
			c-0.65-0.9-0.99-2.23-1.01-4.01v-2.15c0-1.86,0.32-3.24,0.97-4.15s1.65-1.36,3.03-1.36c1.36,0,2.37,0.44,3.01,1.31
			c0.64,0.87,0.97,2.22,0.99,4.04V435.8z M353.56,433.6c0-1.36-0.19-2.36-0.57-2.98s-0.99-0.93-1.82-0.93
			c-0.82,0-1.42,0.31-1.8,0.93c-0.38,0.62-0.57,1.57-0.58,2.86v2.57c0,1.37,0.2,2.38,0.6,3.03s1,0.98,1.8,0.98
			c0.79,0,1.38-0.31,1.77-0.92c0.39-0.61,0.59-1.58,0.6-2.9V433.6z"/>
		<path class="st2" d="M362.51,441.2h-1.62v-10.72l-3.24,1.19v-1.46l4.61-1.73h0.25V441.2z"/>
		<path class="st2" d="M374.02,436.95h1.76v1.31h-1.76v2.94h-1.62v-2.94h-5.77v-0.95l5.67-8.77h1.71V436.95z M368.46,436.95h3.94
			v-6.21l-0.19,0.35L368.46,436.95z"/>
	</g>
	<g>
		<path class="st2" d="M462.7,441.2h-8.3v-1.16l4.38-4.87c0.65-0.74,1.1-1.33,1.34-1.79c0.25-0.46,0.37-0.94,0.37-1.43
			c0-0.66-0.2-1.2-0.6-1.63s-0.93-0.63-1.6-0.63c-0.8,0-1.42,0.23-1.87,0.68s-0.67,1.09-0.67,1.9h-1.61c0-1.17,0.38-2.11,1.13-2.83
			c0.75-0.72,1.76-1.08,3.01-1.08c1.18,0,2.11,0.31,2.79,0.93c0.68,0.62,1.03,1.44,1.03,2.46c0,1.25-0.79,2.73-2.38,4.45l-3.39,3.68
			h6.36V441.2z"/>
		<path class="st2" d="M472.34,435.8c0,1.88-0.32,3.28-0.97,4.2s-1.65,1.37-3.02,1.37c-1.35,0-2.35-0.45-3-1.34
			c-0.65-0.9-0.99-2.23-1.01-4.01v-2.15c0-1.86,0.32-3.24,0.97-4.15s1.65-1.36,3.03-1.36c1.36,0,2.37,0.44,3.01,1.31
			c0.64,0.87,0.97,2.22,0.99,4.04V435.8z M470.73,433.6c0-1.36-0.19-2.36-0.57-2.98s-0.99-0.93-1.82-0.93
			c-0.82,0-1.42,0.31-1.8,0.93c-0.38,0.62-0.57,1.57-0.58,2.86v2.57c0,1.37,0.2,2.38,0.6,3.03s1,0.98,1.8,0.98
			c0.79,0,1.38-0.31,1.77-0.92c0.39-0.61,0.59-1.58,0.6-2.9V433.6z"/>
		<path class="st2" d="M479.69,441.2h-1.62v-10.72l-3.24,1.19v-1.46l4.61-1.73h0.25V441.2z"/>
		<path class="st2" d="M485.14,434.86l0.64-6.31h6.49v1.49h-5.12l-0.38,3.45c0.62-0.37,1.32-0.55,2.11-0.55
			c1.15,0,2.07,0.38,2.75,1.14s1.02,1.79,1.02,3.09c0,1.3-0.35,2.33-1.06,3.08c-0.7,0.75-1.69,1.13-2.95,1.13
			c-1.12,0-2.03-0.31-2.74-0.93c-0.71-0.62-1.11-1.48-1.21-2.57h1.52c0.1,0.72,0.36,1.27,0.77,1.64s0.97,0.55,1.65,0.55
			c0.75,0,1.33-0.26,1.76-0.77c0.43-0.51,0.64-1.21,0.64-2.11c0-0.85-0.23-1.53-0.69-2.04c-0.46-0.51-1.07-0.77-1.84-0.77
			c-0.7,0-1.25,0.15-1.65,0.46l-0.43,0.35L485.14,434.86z"/>
	</g>
	<g>
		<path class="st2" d="M579.87,441.2h-8.3v-1.16l4.38-4.87c0.65-0.74,1.1-1.33,1.34-1.79c0.25-0.46,0.37-0.94,0.37-1.43
			c0-0.66-0.2-1.2-0.6-1.63s-0.93-0.63-1.6-0.63c-0.8,0-1.42,0.23-1.87,0.68s-0.67,1.09-0.67,1.9h-1.61c0-1.17,0.38-2.11,1.13-2.83
			c0.75-0.72,1.76-1.08,3.01-1.08c1.18,0,2.11,0.31,2.79,0.93c0.68,0.62,1.03,1.44,1.03,2.46c0,1.25-0.79,2.73-2.38,4.45l-3.39,3.68
			h6.36V441.2z"/>
		<path class="st2" d="M589.51,435.8c0,1.88-0.32,3.28-0.97,4.2s-1.65,1.37-3.02,1.37c-1.35,0-2.35-0.45-3-1.34
			c-0.65-0.9-0.99-2.23-1.01-4.01v-2.15c0-1.86,0.32-3.24,0.97-4.15s1.65-1.36,3.03-1.36c1.36,0,2.37,0.44,3.01,1.31
			c0.64,0.87,0.97,2.22,0.99,4.04V435.8z M587.91,433.6c0-1.36-0.19-2.36-0.57-2.98s-0.99-0.93-1.82-0.93
			c-0.82,0-1.42,0.31-1.8,0.93c-0.38,0.62-0.57,1.57-0.58,2.86v2.57c0,1.37,0.2,2.38,0.6,3.03s1,0.98,1.8,0.98
			c0.79,0,1.38-0.31,1.77-0.92c0.39-0.61,0.59-1.58,0.6-2.9V433.6z"/>
		<path class="st2" d="M596.86,441.2h-1.62v-10.72l-3.24,1.19v-1.46l4.61-1.73h0.25V441.2z"/>
		<path class="st2" d="M607.89,428.54v1.36h-0.3c-1.25,0.02-2.25,0.39-2.99,1.11s-1.17,1.73-1.29,3.04
			c0.67-0.77,1.58-1.15,2.73-1.15c1.1,0,1.98,0.39,2.64,1.17c0.66,0.78,0.99,1.78,0.99,3.01c0,1.3-0.36,2.35-1.07,3.13
			s-1.66,1.17-2.86,1.17c-1.21,0-2.19-0.46-2.95-1.4c-0.75-0.93-1.13-2.13-1.13-3.6v-0.62c0-2.33,0.5-4.11,1.49-5.34
			c0.99-1.23,2.47-1.86,4.44-1.89H607.89z M605.77,434.24c-0.55,0-1.06,0.17-1.52,0.5c-0.46,0.33-0.79,0.75-0.97,1.24v0.59
			c0,1.04,0.23,1.88,0.7,2.52c0.47,0.64,1.05,0.96,1.76,0.96c0.72,0,1.29-0.27,1.71-0.8c0.41-0.53,0.62-1.23,0.62-2.1
			c0-0.87-0.21-1.57-0.63-2.11C607.03,434.51,606.47,434.24,605.77,434.24z"/>
	</g>
	<g>
		<path class="st2" d="M697.04,441.2h-8.29v-1.16l4.38-4.87c0.65-0.74,1.1-1.33,1.34-1.79s0.37-0.94,0.37-1.43
			c0-0.66-0.2-1.2-0.6-1.63c-0.4-0.42-0.93-0.63-1.6-0.63c-0.8,0-1.42,0.23-1.87,0.68s-0.67,1.09-0.67,1.9h-1.61
			c0-1.17,0.38-2.11,1.13-2.83c0.75-0.72,1.76-1.08,3.01-1.08c1.18,0,2.11,0.31,2.79,0.93c0.68,0.62,1.03,1.44,1.03,2.46
			c0,1.25-0.79,2.73-2.38,4.45l-3.39,3.68h6.36V441.2z"/>
		<path class="st2" d="M706.69,435.8c0,1.88-0.32,3.28-0.96,4.2s-1.65,1.37-3.02,1.37c-1.35,0-2.35-0.45-3-1.34
			c-0.65-0.9-0.99-2.23-1.01-4.01v-2.15c0-1.86,0.32-3.24,0.97-4.15s1.65-1.36,3.03-1.36c1.36,0,2.37,0.44,3.01,1.31
			c0.64,0.87,0.97,2.22,0.99,4.04V435.8z M705.08,433.6c0-1.36-0.19-2.36-0.57-2.98s-0.99-0.93-1.82-0.93
			c-0.82,0-1.42,0.31-1.8,0.93c-0.38,0.62-0.57,1.57-0.58,2.86v2.57c0,1.37,0.2,2.38,0.59,3.03c0.4,0.65,1,0.98,1.8,0.98
			c0.79,0,1.38-0.31,1.77-0.92s0.59-1.58,0.6-2.9V433.6z"/>
		<path class="st2" d="M714.04,441.2h-1.62v-10.72l-3.24,1.19v-1.46l4.61-1.73h0.25V441.2z"/>
		<path class="st2" d="M726.92,429.45l-5.24,11.76h-1.69l5.23-11.34h-6.85v-1.32h8.56V429.45z"/>
	</g>
	<g>
		<path class="st2" d="M814.22,441.2h-8.3v-1.16l4.38-4.87c0.65-0.74,1.1-1.33,1.34-1.79s0.37-0.94,0.37-1.43
			c0-0.66-0.2-1.2-0.6-1.63s-0.93-0.63-1.6-0.63c-0.8,0-1.42,0.23-1.87,0.68s-0.67,1.09-0.67,1.9h-1.61c0-1.17,0.38-2.11,1.13-2.83
			c0.75-0.72,1.76-1.08,3.01-1.08c1.18,0,2.11,0.31,2.79,0.93c0.68,0.62,1.03,1.44,1.03,2.46c0,1.25-0.79,2.73-2.38,4.45l-3.39,3.68
			h6.36V441.2z"/>
		<path class="st2" d="M823.86,435.8c0,1.88-0.32,3.28-0.96,4.2c-0.64,0.92-1.65,1.37-3.02,1.37c-1.35,0-2.35-0.45-3-1.34
			c-0.65-0.9-0.99-2.23-1.01-4.01v-2.15c0-1.86,0.32-3.24,0.97-4.15c0.64-0.9,1.65-1.36,3.03-1.36c1.36,0,2.37,0.44,3.01,1.31
			c0.64,0.87,0.97,2.22,0.99,4.04V435.8z M822.25,433.6c0-1.36-0.19-2.36-0.57-2.98s-0.99-0.93-1.82-0.93
			c-0.82,0-1.42,0.31-1.8,0.93c-0.38,0.62-0.57,1.57-0.58,2.86v2.57c0,1.37,0.2,2.38,0.6,3.03s1,0.98,1.8,0.98
			c0.79,0,1.38-0.31,1.77-0.92c0.38-0.61,0.59-1.58,0.6-2.9V433.6z"/>
		<path class="st2" d="M831.21,441.2h-1.62v-10.72l-3.24,1.19v-1.46l4.61-1.73h0.25V441.2z"/>
		<path class="st2" d="M843.6,431.85c0,0.63-0.17,1.19-0.5,1.69c-0.33,0.49-0.78,0.88-1.35,1.16c0.66,0.28,1.18,0.7,1.57,1.24
			s0.58,1.16,0.58,1.85c0,1.1-0.37,1.97-1.11,2.62c-0.74,0.65-1.71,0.97-2.92,0.97c-1.22,0-2.19-0.33-2.93-0.98
			c-0.73-0.65-1.1-1.52-1.1-2.61c0-0.68,0.19-1.3,0.56-1.85s0.89-0.97,1.55-1.25c-0.56-0.28-1.01-0.66-1.33-1.16
			c-0.33-0.49-0.49-1.05-0.49-1.68c0-1.07,0.34-1.91,1.03-2.54s1.58-0.94,2.7-0.94c1.11,0,2.01,0.31,2.7,0.94
			S843.6,430.78,843.6,431.85z M842.29,437.75c0-0.71-0.22-1.28-0.67-1.73s-1.04-0.67-1.76-0.67s-1.3,0.22-1.74,0.66
			c-0.44,0.44-0.66,1.02-0.66,1.74s0.21,1.28,0.64,1.7c0.43,0.41,1.02,0.62,1.78,0.62c0.75,0,1.35-0.21,1.77-0.62
			S842.29,438.46,842.29,437.75z M839.87,429.69c-0.63,0-1.14,0.2-1.53,0.59s-0.59,0.92-0.59,1.6c0,0.64,0.19,1.16,0.58,1.56
			c0.38,0.4,0.9,0.6,1.54,0.6c0.64,0,1.16-0.2,1.54-0.6c0.39-0.4,0.58-0.92,0.58-1.56s-0.2-1.17-0.6-1.57
			C840.99,429.89,840.49,429.69,839.87,429.69z"/>
	</g>
	<g>
		<path class="st2" d="M931.39,441.2h-8.3v-1.16l4.38-4.87c0.65-0.74,1.1-1.33,1.34-1.79c0.25-0.46,0.37-0.94,0.37-1.43
			c0-0.66-0.2-1.2-0.6-1.63c-0.4-0.42-0.93-0.63-1.6-0.63c-0.8,0-1.42,0.23-1.87,0.68s-0.67,1.09-0.67,1.9h-1.61
			c0-1.17,0.38-2.11,1.13-2.83c0.75-0.72,1.75-1.08,3.01-1.08c1.18,0,2.11,0.31,2.79,0.93c0.68,0.62,1.03,1.44,1.03,2.46
			c0,1.25-0.79,2.73-2.38,4.45l-3.39,3.68h6.36V441.2z"/>
		<path class="st2" d="M941.04,435.8c0,1.88-0.32,3.28-0.97,4.2s-1.65,1.37-3.02,1.37c-1.35,0-2.35-0.45-3-1.34
			c-0.65-0.9-0.99-2.23-1.01-4.01v-2.15c0-1.86,0.32-3.24,0.96-4.15s1.65-1.36,3.03-1.36c1.36,0,2.37,0.44,3.01,1.31
			c0.64,0.87,0.97,2.22,0.99,4.04V435.8z M939.43,433.6c0-1.36-0.19-2.36-0.57-2.98s-0.99-0.93-1.82-0.93
			c-0.82,0-1.42,0.31-1.8,0.93c-0.38,0.62-0.57,1.57-0.58,2.86v2.57c0,1.37,0.2,2.38,0.6,3.03c0.4,0.65,1,0.98,1.8,0.98
			c0.79,0,1.38-0.31,1.77-0.92c0.38-0.61,0.59-1.58,0.6-2.9V433.6z"/>
		<path class="st2" d="M948.38,441.2h-1.62v-10.72l-3.24,1.19v-1.46l4.61-1.73h0.25V441.2z"/>
		<path class="st2" d="M959.26,435.64c-0.34,0.4-0.74,0.72-1.2,0.97c-0.47,0.24-0.98,0.37-1.54,0.37c-0.73,0-1.37-0.18-1.91-0.54
			s-0.96-0.87-1.26-1.52s-0.44-1.37-0.44-2.16c0-0.85,0.16-1.61,0.48-2.29c0.32-0.68,0.78-1.2,1.37-1.56
			c0.59-0.36,1.28-0.54,2.07-0.54c1.25,0,2.24,0.47,2.96,1.4c0.72,0.94,1.08,2.21,1.08,3.83v0.47c0,2.46-0.49,4.26-1.46,5.4
			c-0.97,1.13-2.44,1.71-4.41,1.74h-0.31v-1.37h0.34c1.33-0.02,2.35-0.37,3.06-1.04C958.81,438.14,959.2,437.08,959.26,435.64z
			 M956.79,435.64c0.54,0,1.04-0.17,1.49-0.5c0.46-0.33,0.79-0.74,1-1.23v-0.64c0-1.05-0.23-1.91-0.69-2.57
			c-0.46-0.66-1.04-0.99-1.74-0.99c-0.71,0-1.28,0.27-1.7,0.81s-0.64,1.26-0.64,2.14c0,0.86,0.21,1.58,0.62,2.13
			C955.53,435.36,956.09,435.64,956.79,435.64z"/>
	</g>
	<g>
		<path class="st2" d="M1048.57,441.2h-8.29v-1.16l4.38-4.87c0.65-0.74,1.1-1.33,1.34-1.79s0.37-0.94,0.37-1.43
			c0-0.66-0.2-1.2-0.6-1.63c-0.4-0.42-0.93-0.63-1.6-0.63c-0.8,0-1.42,0.23-1.87,0.68s-0.67,1.09-0.67,1.9h-1.61
			c0-1.17,0.38-2.11,1.13-2.83c0.75-0.72,1.76-1.08,3.01-1.08c1.18,0,2.11,0.31,2.79,0.93c0.68,0.62,1.03,1.44,1.03,2.46
			c0,1.25-0.79,2.73-2.38,4.45l-3.39,3.68h6.36V441.2z"/>
		<path class="st2" d="M1058.21,435.8c0,1.88-0.32,3.28-0.96,4.2s-1.65,1.37-3.02,1.37c-1.35,0-2.35-0.45-3-1.34
			c-0.65-0.9-0.99-2.23-1.01-4.01v-2.15c0-1.86,0.32-3.24,0.97-4.15s1.65-1.36,3.03-1.36c1.36,0,2.37,0.44,3.01,1.31
			c0.64,0.87,0.97,2.22,0.99,4.04V435.8z M1056.6,433.6c0-1.36-0.19-2.36-0.57-2.98s-0.99-0.93-1.82-0.93
			c-0.82,0-1.42,0.31-1.8,0.93c-0.38,0.62-0.57,1.57-0.58,2.86v2.57c0,1.37,0.2,2.38,0.59,3.03c0.4,0.65,1,0.98,1.8,0.98
			c0.79,0,1.38-0.31,1.77-0.92s0.59-1.58,0.6-2.9V433.6z"/>
		<path class="st2" d="M1068.57,441.2h-8.3v-1.16l4.38-4.87c0.65-0.74,1.1-1.33,1.34-1.79c0.25-0.46,0.37-0.94,0.37-1.43
			c0-0.66-0.2-1.2-0.6-1.63c-0.4-0.42-0.93-0.63-1.6-0.63c-0.8,0-1.42,0.23-1.87,0.68s-0.67,1.09-0.67,1.9h-1.61
			c0-1.17,0.38-2.11,1.13-2.83c0.75-0.72,1.75-1.08,3.01-1.08c1.18,0,2.11,0.31,2.79,0.93c0.68,0.62,1.03,1.44,1.03,2.46
			c0,1.25-0.79,2.73-2.38,4.45l-3.39,3.68h6.36V441.2z"/>
		<path class="st2" d="M1078.21,435.8c0,1.88-0.32,3.28-0.97,4.2s-1.65,1.37-3.02,1.37c-1.35,0-2.35-0.45-3-1.34
			c-0.65-0.9-0.99-2.23-1.01-4.01v-2.15c0-1.86,0.32-3.24,0.96-4.15s1.65-1.36,3.03-1.36c1.36,0,2.37,0.44,3.01,1.31
			c0.64,0.87,0.97,2.22,0.99,4.04V435.8z M1076.6,433.6c0-1.36-0.19-2.36-0.57-2.98s-0.99-0.93-1.82-0.93
			c-0.82,0-1.42,0.31-1.8,0.93c-0.38,0.62-0.57,1.57-0.58,2.86v2.57c0,1.37,0.2,2.38,0.6,3.03c0.4,0.65,1,0.98,1.8,0.98
			c0.79,0,1.38-0.31,1.77-0.92c0.38-0.61,0.59-1.58,0.6-2.9V433.6z"/>
	</g>
	<g>
		<path class="st2" d="M1165.74,441.2h-8.3v-1.16l4.38-4.87c0.65-0.74,1.1-1.33,1.34-1.79c0.25-0.46,0.37-0.94,0.37-1.43
			c0-0.66-0.2-1.2-0.6-1.63c-0.4-0.42-0.93-0.63-1.6-0.63c-0.8,0-1.42,0.23-1.87,0.68s-0.67,1.09-0.67,1.9h-1.61
			c0-1.17,0.38-2.11,1.13-2.83c0.75-0.72,1.75-1.08,3.01-1.08c1.18,0,2.11,0.31,2.79,0.93c0.68,0.62,1.03,1.44,1.03,2.46
			c0,1.25-0.79,2.73-2.38,4.45l-3.39,3.68h6.36V441.2z"/>
		<path class="st2" d="M1175.39,435.8c0,1.88-0.32,3.28-0.97,4.2s-1.65,1.37-3.02,1.37c-1.35,0-2.35-0.45-3-1.34
			c-0.65-0.9-0.99-2.23-1.01-4.01v-2.15c0-1.86,0.32-3.24,0.96-4.15s1.65-1.36,3.03-1.36c1.36,0,2.37,0.44,3.01,1.31
			c0.64,0.87,0.97,2.22,0.99,4.04V435.8z M1173.78,433.6c0-1.36-0.19-2.36-0.57-2.98s-0.99-0.93-1.82-0.93
			c-0.82,0-1.42,0.31-1.8,0.93c-0.38,0.62-0.57,1.57-0.58,2.86v2.57c0,1.37,0.2,2.38,0.6,3.03c0.4,0.65,1,0.98,1.8,0.98
			c0.79,0,1.38-0.31,1.77-0.92c0.38-0.61,0.59-1.58,0.6-2.9V433.6z"/>
		<path class="st2" d="M1185.74,441.2h-8.29v-1.16l4.38-4.87c0.65-0.74,1.1-1.33,1.34-1.79s0.37-0.94,0.37-1.43
			c0-0.66-0.2-1.2-0.6-1.63c-0.4-0.42-0.93-0.63-1.6-0.63c-0.8,0-1.42,0.23-1.87,0.68s-0.67,1.09-0.67,1.9h-1.61
			c0-1.17,0.38-2.11,1.13-2.83c0.75-0.72,1.76-1.08,3.01-1.08c1.18,0,2.11,0.31,2.79,0.93c0.68,0.62,1.03,1.44,1.03,2.46
			c0,1.25-0.79,2.73-2.38,4.45l-3.39,3.68h6.36V441.2z"/>
		<path class="st2" d="M1192.73,441.2h-1.62v-10.72l-3.24,1.19v-1.46l4.61-1.73h0.25V441.2z"/>
	</g>
</g>
<g>
	<path class="st2" d="M30.22,37.88h-1.62V27.16l-3.24,1.19v-1.46l4.61-1.73h0.25V37.88z"/>
	<path class="st2" d="M35.14,37.04c0-0.28,0.08-0.51,0.25-0.7s0.41-0.28,0.74-0.28c0.33,0,0.58,0.09,0.75,0.28s0.26,0.42,0.26,0.7
		c0,0.27-0.09,0.49-0.26,0.67s-0.42,0.27-0.75,0.27c-0.33,0-0.58-0.09-0.74-0.27S35.14,37.31,35.14,37.04z"/>
	<path class="st2" d="M47.3,28.53c0,0.63-0.17,1.19-0.5,1.69c-0.33,0.49-0.78,0.88-1.35,1.16c0.66,0.28,1.18,0.7,1.57,1.24
		c0.39,0.54,0.58,1.16,0.58,1.85c0,1.1-0.37,1.97-1.11,2.62c-0.74,0.65-1.71,0.97-2.92,0.97c-1.22,0-2.19-0.33-2.93-0.98
		c-0.73-0.65-1.1-1.52-1.1-2.61c0-0.68,0.19-1.3,0.56-1.85s0.89-0.97,1.55-1.25c-0.56-0.28-1.01-0.66-1.33-1.16
		c-0.32-0.49-0.49-1.05-0.49-1.68c0-1.07,0.34-1.91,1.03-2.54s1.59-0.94,2.7-0.94c1.11,0,2.01,0.31,2.7,0.94
		C46.96,26.61,47.3,27.46,47.3,28.53z M45.99,34.43c0-0.71-0.23-1.28-0.67-1.73s-1.04-0.67-1.76-0.67s-1.31,0.22-1.74,0.66
		c-0.44,0.44-0.66,1.02-0.66,1.74s0.21,1.28,0.64,1.7c0.43,0.41,1.02,0.62,1.78,0.62c0.75,0,1.34-0.21,1.77-0.62
		C45.77,35.71,45.99,35.14,45.99,34.43z M43.57,26.37c-0.63,0-1.14,0.2-1.53,0.59c-0.39,0.39-0.59,0.92-0.59,1.6
		c0,0.64,0.19,1.16,0.58,1.56c0.39,0.4,0.9,0.6,1.54,0.6s1.16-0.2,1.54-0.6c0.39-0.4,0.58-0.92,0.58-1.56s-0.2-1.17-0.6-1.57
		C44.69,26.57,44.18,26.37,43.57,26.37z"/>
	<path class="st2" d="M57.56,32.48c0,1.88-0.32,3.28-0.97,4.2s-1.65,1.37-3.02,1.37c-1.35,0-2.35-0.45-3-1.34
		c-0.65-0.9-0.99-2.23-1.01-4.01v-2.15c0-1.86,0.32-3.24,0.97-4.15s1.65-1.36,3.03-1.36c1.36,0,2.37,0.44,3.01,1.31
		c0.64,0.87,0.97,2.22,0.99,4.04V32.48z M55.95,30.28c0-1.36-0.19-2.36-0.57-2.98s-0.99-0.93-1.82-0.93c-0.82,0-1.42,0.31-1.8,0.93
		c-0.38,0.62-0.57,1.57-0.58,2.86v2.57c0,1.37,0.2,2.38,0.6,3.03s1,0.98,1.8,0.98c0.79,0,1.38-0.31,1.77-0.92
		c0.39-0.61,0.59-1.58,0.6-2.9V30.28z"/>
	<path class="st2" d="M67.56,32.48c0,1.88-0.32,3.28-0.97,4.2s-1.65,1.37-3.02,1.37c-1.35,0-2.35-0.45-3-1.34
		c-0.65-0.9-0.99-2.23-1.01-4.01v-2.15c0-1.86,0.32-3.24,0.97-4.15s1.65-1.36,3.03-1.36c1.36,0,2.37,0.44,3.01,1.31
		c0.64,0.87,0.97,2.22,0.99,4.04V32.48z M65.95,30.28c0-1.36-0.19-2.36-0.57-2.98s-0.99-0.93-1.82-0.93c-0.82,0-1.42,0.31-1.8,0.93
		c-0.38,0.62-0.57,1.57-0.58,2.86v2.57c0,1.37,0.2,2.38,0.6,3.03s1,0.98,1.8,0.98c0.79,0,1.38-0.31,1.77-0.92
		c0.39-0.61,0.59-1.58,0.6-2.9V30.28z"/>
	<path class="st2" d="M69.82,37.04c0-0.28,0.08-0.51,0.25-0.7s0.41-0.28,0.74-0.28c0.33,0,0.58,0.09,0.75,0.28s0.26,0.42,0.26,0.7
		c0,0.27-0.09,0.49-0.26,0.67s-0.42,0.27-0.75,0.27c-0.33,0-0.58-0.09-0.74-0.27S69.82,37.31,69.82,37.04z"/>
	<path class="st2" d="M82.25,32.48c0,1.88-0.32,3.28-0.97,4.2s-1.65,1.37-3.02,1.37c-1.35,0-2.35-0.45-3-1.34
		c-0.65-0.9-0.99-2.23-1.01-4.01v-2.15c0-1.86,0.32-3.24,0.97-4.15s1.65-1.36,3.03-1.36c1.36,0,2.37,0.44,3.01,1.31
		c0.64,0.87,0.97,2.22,0.99,4.04V32.48z M80.64,30.28c0-1.36-0.19-2.36-0.57-2.98s-0.99-0.93-1.82-0.93c-0.82,0-1.42,0.31-1.8,0.93
		c-0.38,0.62-0.57,1.57-0.58,2.86v2.57c0,1.37,0.2,2.38,0.6,3.03s1,0.98,1.8,0.98c0.79,0,1.38-0.31,1.77-0.92
		c0.39-0.61,0.59-1.58,0.6-2.9V30.28z"/>
	<path class="st2" d="M92.25,32.48c0,1.88-0.32,3.28-0.97,4.2s-1.65,1.37-3.02,1.37c-1.35,0-2.35-0.45-3-1.34
		c-0.65-0.9-0.99-2.23-1.01-4.01v-2.15c0-1.86,0.32-3.24,0.97-4.15s1.65-1.36,3.03-1.36c1.36,0,2.37,0.44,3.01,1.31
		c0.64,0.87,0.97,2.22,0.99,4.04V32.48z M90.64,30.28c0-1.36-0.19-2.36-0.57-2.98s-0.99-0.93-1.82-0.93c-0.82,0-1.42,0.31-1.8,0.93
		c-0.38,0.62-0.57,1.57-0.58,2.86v2.57c0,1.37,0.2,2.38,0.6,3.03s1,0.98,1.8,0.98c0.79,0,1.38-0.31,1.77-0.92
		c0.39-0.61,0.59-1.58,0.6-2.9V30.28z"/>
	<path class="st2" d="M102.25,32.48c0,1.88-0.32,3.28-0.97,4.2s-1.65,1.37-3.02,1.37c-1.35,0-2.35-0.45-3-1.34
		c-0.65-0.9-0.99-2.23-1.01-4.01v-2.15c0-1.86,0.32-3.24,0.97-4.15s1.65-1.36,3.03-1.36c1.36,0,2.37,0.44,3.01,1.31
		c0.64,0.87,0.97,2.22,0.99,4.04V32.48z M100.64,30.28c0-1.36-0.19-2.36-0.57-2.98s-0.99-0.93-1.82-0.93c-0.82,0-1.42,0.31-1.8,0.93
		c-0.38,0.62-0.57,1.57-0.58,2.86v2.57c0,1.37,0.2,2.38,0.6,3.03s1,0.98,1.8,0.98c0.79,0,1.38-0.31,1.77-0.92
		c0.39-0.61,0.59-1.58,0.6-2.9V30.28z"/>
	<path class="st2" d="M104.51,37.04c0-0.28,0.08-0.51,0.25-0.7s0.41-0.28,0.74-0.28c0.33,0,0.58,0.09,0.75,0.28s0.26,0.42,0.26,0.7
		c0,0.27-0.09,0.49-0.26,0.67s-0.42,0.27-0.75,0.27c-0.33,0-0.58-0.09-0.74-0.27S104.51,37.31,104.51,37.04z"/>
	<path class="st2" d="M116.93,32.48c0,1.88-0.32,3.28-0.97,4.2s-1.65,1.37-3.02,1.37c-1.35,0-2.35-0.45-3-1.34
		c-0.65-0.9-0.99-2.23-1.01-4.01v-2.15c0-1.86,0.32-3.24,0.97-4.15s1.65-1.36,3.03-1.36c1.36,0,2.37,0.44,3.01,1.31
		c0.64,0.87,0.97,2.22,0.99,4.04V32.48z M115.33,30.28c0-1.36-0.19-2.36-0.57-2.98s-0.99-0.93-1.82-0.93c-0.82,0-1.42,0.31-1.8,0.93
		c-0.38,0.62-0.57,1.57-0.58,2.86v2.57c0,1.37,0.2,2.38,0.6,3.03s1,0.98,1.8,0.98c0.79,0,1.38-0.31,1.77-0.92
		c0.39-0.61,0.59-1.58,0.6-2.9V30.28z"/>
	<path class="st2" d="M126.93,32.48c0,1.88-0.32,3.28-0.97,4.2s-1.65,1.37-3.02,1.37c-1.35,0-2.35-0.45-3-1.34
		c-0.65-0.9-0.99-2.23-1.01-4.01v-2.15c0-1.86,0.32-3.24,0.97-4.15s1.65-1.36,3.03-1.36c1.36,0,2.37,0.44,3.01,1.31
		c0.64,0.87,0.97,2.22,0.99,4.04V32.48z M125.33,30.28c0-1.36-0.19-2.36-0.57-2.98s-0.99-0.93-1.82-0.93c-0.82,0-1.42,0.31-1.8,0.93
		c-0.38,0.62-0.57,1.57-0.58,2.86v2.57c0,1.37,0.2,2.38,0.6,3.03s1,0.98,1.8,0.98c0.79,0,1.38-0.31,1.77-0.92
		c0.39-0.61,0.59-1.58,0.6-2.9V30.28z"/>
	<path class="st2" d="M136.93,32.48c0,1.88-0.32,3.28-0.97,4.2s-1.65,1.37-3.02,1.37c-1.35,0-2.35-0.45-3-1.34
		c-0.65-0.9-0.99-2.23-1.01-4.01v-2.15c0-1.86,0.32-3.24,0.97-4.15s1.65-1.36,3.03-1.36c1.36,0,2.37,0.44,3.01,1.31
		c0.64,0.87,0.97,2.22,0.99,4.04V32.48z M135.33,30.28c0-1.36-0.19-2.36-0.57-2.98s-0.99-0.93-1.82-0.93c-0.82,0-1.42,0.31-1.8,0.93
		c-0.38,0.62-0.57,1.57-0.58,2.86v2.57c0,1.37,0.2,2.38,0.6,3.03s1,0.98,1.8,0.98c0.79,0,1.38-0.31,1.77-0.92
		c0.39-0.61,0.59-1.58,0.6-2.9V30.28z"/>
	<path class="st2" d="M139.11,40.4l-0.91-0.63c0.54-0.76,0.83-1.54,0.85-2.35v-1.45h1.57v1.26c0,0.59-0.14,1.17-0.43,1.76
		C139.9,39.58,139.54,40.05,139.11,40.4z"/>
	<path class="st2" d="M150.43,32.48c0,1.88-0.32,3.28-0.97,4.2s-1.65,1.37-3.02,1.37c-1.35,0-2.35-0.45-3-1.34
		c-0.65-0.9-0.99-2.23-1.01-4.01v-2.15c0-1.86,0.32-3.24,0.97-4.15s1.65-1.36,3.03-1.36c1.36,0,2.37,0.44,3.01,1.31
		c0.64,0.87,0.97,2.22,0.99,4.04V32.48z M148.82,30.28c0-1.36-0.19-2.36-0.57-2.98s-0.99-0.93-1.82-0.93c-0.82,0-1.42,0.31-1.8,0.93
		c-0.38,0.62-0.57,1.57-0.58,2.86v2.57c0,1.37,0.2,2.38,0.6,3.03s1,0.98,1.8,0.98c0.79,0,1.38-0.31,1.77-0.92
		c0.39-0.61,0.59-1.58,0.6-2.9V30.28z"/>
	<path class="st2" d="M160.43,32.48c0,1.88-0.32,3.28-0.97,4.2s-1.65,1.37-3.02,1.37c-1.35,0-2.35-0.45-3-1.34
		c-0.65-0.9-0.99-2.23-1.01-4.01v-2.15c0-1.86,0.32-3.24,0.97-4.15s1.65-1.36,3.03-1.36c1.36,0,2.37,0.44,3.01,1.31
		c0.64,0.87,0.97,2.22,0.99,4.04V32.48z M158.82,30.28c0-1.36-0.19-2.36-0.57-2.98s-0.99-0.93-1.82-0.93c-0.82,0-1.42,0.31-1.8,0.93
		c-0.38,0.62-0.57,1.57-0.58,2.86v2.57c0,1.37,0.2,2.38,0.6,3.03s1,0.98,1.8,0.98c0.79,0,1.38-0.31,1.77-0.92
		c0.39-0.61,0.59-1.58,0.6-2.9V30.28z"/>
</g>
<g>
	<path class="st2" d="M30.22,79.88h-1.62V69.16l-3.24,1.19v-1.46l4.61-1.73h0.25V79.88z"/>
	<path class="st2" d="M35.14,79.04c0-0.28,0.08-0.51,0.25-0.7s0.41-0.28,0.74-0.28c0.33,0,0.58,0.09,0.75,0.28s0.26,0.42,0.26,0.7
		c0,0.27-0.09,0.49-0.26,0.67s-0.42,0.27-0.75,0.27c-0.33,0-0.58-0.09-0.74-0.27S35.14,79.31,35.14,79.04z"/>
	<path class="st2" d="M45.94,67.21v1.36h-0.3c-1.25,0.02-2.25,0.39-2.99,1.11s-1.17,1.73-1.29,3.04c0.67-0.77,1.58-1.15,2.73-1.15
		c1.1,0,1.98,0.39,2.64,1.17c0.66,0.78,0.99,1.78,0.99,3.01c0,1.3-0.36,2.35-1.07,3.13s-1.66,1.17-2.86,1.17
		c-1.21,0-2.19-0.46-2.95-1.4c-0.75-0.93-1.13-2.13-1.13-3.6v-0.62c0-2.33,0.5-4.11,1.49-5.34c0.99-1.23,2.47-1.86,4.44-1.89H45.94z
		 M43.82,72.92c-0.55,0-1.06,0.17-1.52,0.5c-0.46,0.33-0.79,0.75-0.97,1.24v0.59c0,1.04,0.23,1.88,0.7,2.52
		c0.47,0.64,1.05,0.96,1.76,0.96c0.72,0,1.29-0.27,1.71-0.8c0.41-0.53,0.62-1.23,0.62-2.1c0-0.87-0.21-1.57-0.63-2.11
		C45.08,73.19,44.52,72.92,43.82,72.92z"/>
	<path class="st2" d="M57.56,74.48c0,1.88-0.32,3.28-0.97,4.2s-1.65,1.37-3.02,1.37c-1.35,0-2.35-0.45-3-1.34
		c-0.65-0.9-0.99-2.23-1.01-4.01v-2.15c0-1.86,0.32-3.24,0.97-4.15s1.65-1.36,3.03-1.36c1.36,0,2.37,0.44,3.01,1.31
		c0.64,0.87,0.97,2.22,0.99,4.04V74.48z M55.95,72.28c0-1.36-0.19-2.36-0.57-2.98s-0.99-0.93-1.82-0.93c-0.82,0-1.42,0.31-1.8,0.93
		c-0.38,0.62-0.57,1.57-0.58,2.86v2.57c0,1.37,0.2,2.38,0.6,3.03s1,0.98,1.8,0.98c0.79,0,1.38-0.31,1.77-0.92
		c0.39-0.61,0.59-1.58,0.6-2.9V72.28z"/>
	<path class="st2" d="M67.56,74.48c0,1.88-0.32,3.28-0.97,4.2s-1.65,1.37-3.02,1.37c-1.35,0-2.35-0.45-3-1.34
		c-0.65-0.9-0.99-2.23-1.01-4.01v-2.15c0-1.86,0.32-3.24,0.97-4.15s1.65-1.36,3.03-1.36c1.36,0,2.37,0.44,3.01,1.31
		c0.64,0.87,0.97,2.22,0.99,4.04V74.48z M65.95,72.28c0-1.36-0.19-2.36-0.57-2.98s-0.99-0.93-1.82-0.93c-0.82,0-1.42,0.31-1.8,0.93
		c-0.38,0.62-0.57,1.57-0.58,2.86v2.57c0,1.37,0.2,2.38,0.6,3.03s1,0.98,1.8,0.98c0.79,0,1.38-0.31,1.77-0.92
		c0.39-0.61,0.59-1.58,0.6-2.9V72.28z"/>
	<path class="st2" d="M69.82,79.04c0-0.28,0.08-0.51,0.25-0.7s0.41-0.28,0.74-0.28c0.33,0,0.58,0.09,0.75,0.28s0.26,0.42,0.26,0.7
		c0,0.27-0.09,0.49-0.26,0.67s-0.42,0.27-0.75,0.27c-0.33,0-0.58-0.09-0.74-0.27S69.82,79.31,69.82,79.04z"/>
	<path class="st2" d="M82.25,74.48c0,1.88-0.32,3.28-0.97,4.2s-1.65,1.37-3.02,1.37c-1.35,0-2.35-0.45-3-1.34
		c-0.65-0.9-0.99-2.23-1.01-4.01v-2.15c0-1.86,0.32-3.24,0.97-4.15s1.65-1.36,3.03-1.36c1.36,0,2.37,0.44,3.01,1.31
		c0.64,0.87,0.97,2.22,0.99,4.04V74.48z M80.64,72.28c0-1.36-0.19-2.36-0.57-2.98s-0.99-0.93-1.82-0.93c-0.82,0-1.42,0.31-1.8,0.93
		c-0.38,0.62-0.57,1.57-0.58,2.86v2.57c0,1.37,0.2,2.38,0.6,3.03s1,0.98,1.8,0.98c0.79,0,1.38-0.31,1.77-0.92
		c0.39-0.61,0.59-1.58,0.6-2.9V72.28z"/>
	<path class="st2" d="M92.25,74.48c0,1.88-0.32,3.28-0.97,4.2s-1.65,1.37-3.02,1.37c-1.35,0-2.35-0.45-3-1.34
		c-0.65-0.9-0.99-2.23-1.01-4.01v-2.15c0-1.86,0.32-3.24,0.97-4.15s1.65-1.36,3.03-1.36c1.36,0,2.37,0.44,3.01,1.31
		c0.64,0.87,0.97,2.22,0.99,4.04V74.48z M90.64,72.28c0-1.36-0.19-2.36-0.57-2.98s-0.99-0.93-1.82-0.93c-0.82,0-1.42,0.31-1.8,0.93
		c-0.38,0.62-0.57,1.57-0.58,2.86v2.57c0,1.37,0.2,2.38,0.6,3.03s1,0.98,1.8,0.98c0.79,0,1.38-0.31,1.77-0.92
		c0.39-0.61,0.59-1.58,0.6-2.9V72.28z"/>
	<path class="st2" d="M102.25,74.48c0,1.88-0.32,3.28-0.97,4.2s-1.65,1.37-3.02,1.37c-1.35,0-2.35-0.45-3-1.34
		c-0.65-0.9-0.99-2.23-1.01-4.01v-2.15c0-1.86,0.32-3.24,0.97-4.15s1.65-1.36,3.03-1.36c1.36,0,2.37,0.44,3.01,1.31
		c0.64,0.87,0.97,2.22,0.99,4.04V74.48z M100.64,72.28c0-1.36-0.19-2.36-0.57-2.98s-0.99-0.93-1.82-0.93c-0.82,0-1.42,0.31-1.8,0.93
		c-0.38,0.62-0.57,1.57-0.58,2.86v2.57c0,1.37,0.2,2.38,0.6,3.03s1,0.98,1.8,0.98c0.79,0,1.38-0.31,1.77-0.92
		c0.39-0.61,0.59-1.58,0.6-2.9V72.28z"/>
	<path class="st2" d="M104.51,79.04c0-0.28,0.08-0.51,0.25-0.7s0.41-0.28,0.74-0.28c0.33,0,0.58,0.09,0.75,0.28s0.26,0.42,0.26,0.7
		c0,0.27-0.09,0.49-0.26,0.67s-0.42,0.27-0.75,0.27c-0.33,0-0.58-0.09-0.74-0.27S104.51,79.31,104.51,79.04z"/>
	<path class="st2" d="M116.93,74.48c0,1.88-0.32,3.28-0.97,4.2s-1.65,1.37-3.02,1.37c-1.35,0-2.35-0.45-3-1.34
		c-0.65-0.9-0.99-2.23-1.01-4.01v-2.15c0-1.86,0.32-3.24,0.97-4.15s1.65-1.36,3.03-1.36c1.36,0,2.37,0.44,3.01,1.31
		c0.64,0.87,0.97,2.22,0.99,4.04V74.48z M115.33,72.28c0-1.36-0.19-2.36-0.57-2.98s-0.99-0.93-1.82-0.93c-0.82,0-1.42,0.31-1.8,0.93
		c-0.38,0.62-0.57,1.57-0.58,2.86v2.57c0,1.37,0.2,2.38,0.6,3.03s1,0.98,1.8,0.98c0.79,0,1.38-0.31,1.77-0.92
		c0.39-0.61,0.59-1.58,0.6-2.9V72.28z"/>
	<path class="st2" d="M126.93,74.48c0,1.88-0.32,3.28-0.97,4.2s-1.65,1.37-3.02,1.37c-1.35,0-2.35-0.45-3-1.34
		c-0.65-0.9-0.99-2.23-1.01-4.01v-2.15c0-1.86,0.32-3.24,0.97-4.15s1.65-1.36,3.03-1.36c1.36,0,2.37,0.44,3.01,1.31
		c0.64,0.87,0.97,2.22,0.99,4.04V74.48z M125.33,72.28c0-1.36-0.19-2.36-0.57-2.98s-0.99-0.93-1.82-0.93c-0.82,0-1.42,0.31-1.8,0.93
		c-0.38,0.62-0.57,1.57-0.58,2.86v2.57c0,1.37,0.2,2.38,0.6,3.03s1,0.98,1.8,0.98c0.79,0,1.38-0.31,1.77-0.92
		c0.39-0.61,0.59-1.58,0.6-2.9V72.28z"/>
	<path class="st2" d="M136.93,74.48c0,1.88-0.32,3.28-0.97,4.2s-1.65,1.37-3.02,1.37c-1.35,0-2.35-0.45-3-1.34
		c-0.65-0.9-0.99-2.23-1.01-4.01v-2.15c0-1.86,0.32-3.24,0.97-4.15s1.65-1.36,3.03-1.36c1.36,0,2.37,0.44,3.01,1.31
		c0.64,0.87,0.97,2.22,0.99,4.04V74.48z M135.33,72.28c0-1.36-0.19-2.36-0.57-2.98s-0.99-0.93-1.82-0.93c-0.82,0-1.42,0.31-1.8,0.93
		c-0.38,0.62-0.57,1.57-0.58,2.86v2.57c0,1.37,0.2,2.38,0.6,3.03s1,0.98,1.8,0.98c0.79,0,1.38-0.31,1.77-0.92
		c0.39-0.61,0.59-1.58,0.6-2.9V72.28z"/>
	<path class="st2" d="M139.11,82.4l-0.91-0.63c0.54-0.76,0.83-1.54,0.85-2.35v-1.45h1.57v1.26c0,0.59-0.14,1.17-0.43,1.76
		C139.9,81.58,139.54,82.05,139.11,82.4z"/>
	<path class="st2" d="M150.43,74.48c0,1.88-0.32,3.28-0.97,4.2s-1.65,1.37-3.02,1.37c-1.35,0-2.35-0.45-3-1.34
		c-0.65-0.9-0.99-2.23-1.01-4.01v-2.15c0-1.86,0.32-3.24,0.97-4.15s1.65-1.36,3.03-1.36c1.36,0,2.37,0.44,3.01,1.31
		c0.64,0.87,0.97,2.22,0.99,4.04V74.48z M148.82,72.28c0-1.36-0.19-2.36-0.57-2.98s-0.99-0.93-1.82-0.93c-0.82,0-1.42,0.31-1.8,0.93
		c-0.38,0.62-0.57,1.57-0.58,2.86v2.57c0,1.37,0.2,2.38,0.6,3.03s1,0.98,1.8,0.98c0.79,0,1.38-0.31,1.77-0.92
		c0.39-0.61,0.59-1.58,0.6-2.9V72.28z"/>
	<path class="st2" d="M160.43,74.48c0,1.88-0.32,3.28-0.97,4.2s-1.65,1.37-3.02,1.37c-1.35,0-2.35-0.45-3-1.34
		c-0.65-0.9-0.99-2.23-1.01-4.01v-2.15c0-1.86,0.32-3.24,0.97-4.15s1.65-1.36,3.03-1.36c1.36,0,2.37,0.44,3.01,1.31
		c0.64,0.87,0.97,2.22,0.99,4.04V74.48z M158.82,72.28c0-1.36-0.19-2.36-0.57-2.98s-0.99-0.93-1.82-0.93c-0.82,0-1.42,0.31-1.8,0.93
		c-0.38,0.62-0.57,1.57-0.58,2.86v2.57c0,1.37,0.2,2.38,0.6,3.03s1,0.98,1.8,0.98c0.79,0,1.38-0.31,1.77-0.92
		c0.39-0.61,0.59-1.58,0.6-2.9V72.28z"/>
</g>
<g>
	<path class="st2" d="M30.22,121.88h-1.62v-10.72l-3.24,1.19v-1.46l4.61-1.73h0.25V121.88z"/>
	<path class="st2" d="M35.14,121.04c0-0.28,0.08-0.51,0.25-0.7s0.41-0.28,0.74-0.28c0.33,0,0.58,0.09,0.75,0.28s0.26,0.42,0.26,0.7
		c0,0.27-0.09,0.49-0.26,0.67s-0.42,0.27-0.75,0.27c-0.33,0-0.58-0.09-0.74-0.27S35.14,121.31,35.14,121.04z"/>
	<path class="st2" d="M46.41,117.63h1.76v1.31h-1.76v2.94H44.8v-2.94h-5.77V118l5.67-8.77h1.71V117.63z M40.86,117.63h3.94v-6.21
		l-0.19,0.35L40.86,117.63z"/>
	<path class="st2" d="M57.56,116.48c0,1.88-0.32,3.28-0.97,4.2s-1.65,1.37-3.02,1.37c-1.35,0-2.35-0.45-3-1.34
		c-0.65-0.9-0.99-2.23-1.01-4.01v-2.15c0-1.86,0.32-3.24,0.97-4.15s1.65-1.36,3.03-1.36c1.36,0,2.37,0.44,3.01,1.31
		c0.64,0.87,0.97,2.22,0.99,4.04V116.48z M55.95,114.28c0-1.36-0.19-2.36-0.57-2.98s-0.99-0.93-1.82-0.93
		c-0.82,0-1.42,0.31-1.8,0.93c-0.38,0.62-0.57,1.57-0.58,2.86v2.57c0,1.37,0.2,2.38,0.6,3.03s1,0.98,1.8,0.98
		c0.79,0,1.38-0.31,1.77-0.92c0.39-0.61,0.59-1.58,0.6-2.9V114.28z"/>
	<path class="st2" d="M67.56,116.48c0,1.88-0.32,3.28-0.97,4.2s-1.65,1.37-3.02,1.37c-1.35,0-2.35-0.45-3-1.34
		c-0.65-0.9-0.99-2.23-1.01-4.01v-2.15c0-1.86,0.32-3.24,0.97-4.15s1.65-1.36,3.03-1.36c1.36,0,2.37,0.44,3.01,1.31
		c0.64,0.87,0.97,2.22,0.99,4.04V116.48z M65.95,114.28c0-1.36-0.19-2.36-0.57-2.98s-0.99-0.93-1.82-0.93
		c-0.82,0-1.42,0.31-1.8,0.93c-0.38,0.62-0.57,1.57-0.58,2.86v2.57c0,1.37,0.2,2.38,0.6,3.03s1,0.98,1.8,0.98
		c0.79,0,1.38-0.31,1.77-0.92c0.39-0.61,0.59-1.58,0.6-2.9V114.28z"/>
	<path class="st2" d="M69.82,121.04c0-0.28,0.08-0.51,0.25-0.7s0.41-0.28,0.74-0.28c0.33,0,0.58,0.09,0.75,0.28s0.26,0.42,0.26,0.7
		c0,0.27-0.09,0.49-0.26,0.67s-0.42,0.27-0.75,0.27c-0.33,0-0.58-0.09-0.74-0.27S69.82,121.31,69.82,121.04z"/>
	<path class="st2" d="M82.25,116.48c0,1.88-0.32,3.28-0.97,4.2s-1.65,1.37-3.02,1.37c-1.35,0-2.35-0.45-3-1.34
		c-0.65-0.9-0.99-2.23-1.01-4.01v-2.15c0-1.86,0.32-3.24,0.97-4.15s1.65-1.36,3.03-1.36c1.36,0,2.37,0.44,3.01,1.31
		c0.64,0.87,0.97,2.22,0.99,4.04V116.48z M80.64,114.28c0-1.36-0.19-2.36-0.57-2.98s-0.99-0.93-1.82-0.93
		c-0.82,0-1.42,0.31-1.8,0.93c-0.38,0.62-0.57,1.57-0.58,2.86v2.57c0,1.37,0.2,2.38,0.6,3.03s1,0.98,1.8,0.98
		c0.79,0,1.38-0.31,1.77-0.92c0.39-0.61,0.59-1.58,0.6-2.9V114.28z"/>
	<path class="st2" d="M92.25,116.48c0,1.88-0.32,3.28-0.97,4.2s-1.65,1.37-3.02,1.37c-1.35,0-2.35-0.45-3-1.34
		c-0.65-0.9-0.99-2.23-1.01-4.01v-2.15c0-1.86,0.32-3.24,0.97-4.15s1.65-1.36,3.03-1.36c1.36,0,2.37,0.44,3.01,1.31
		c0.64,0.87,0.97,2.22,0.99,4.04V116.48z M90.64,114.28c0-1.36-0.19-2.36-0.57-2.98s-0.99-0.93-1.82-0.93
		c-0.82,0-1.42,0.31-1.8,0.93c-0.38,0.62-0.57,1.57-0.58,2.86v2.57c0,1.37,0.2,2.38,0.6,3.03s1,0.98,1.8,0.98
		c0.79,0,1.38-0.31,1.77-0.92c0.39-0.61,0.59-1.58,0.6-2.9V114.28z"/>
	<path class="st2" d="M102.25,116.48c0,1.88-0.32,3.28-0.97,4.2s-1.65,1.37-3.02,1.37c-1.35,0-2.35-0.45-3-1.34
		c-0.65-0.9-0.99-2.23-1.01-4.01v-2.15c0-1.86,0.32-3.24,0.97-4.15s1.65-1.36,3.03-1.36c1.36,0,2.37,0.44,3.01,1.31
		c0.64,0.87,0.97,2.22,0.99,4.04V116.48z M100.64,114.28c0-1.36-0.19-2.36-0.57-2.98s-0.99-0.93-1.82-0.93
		c-0.82,0-1.42,0.31-1.8,0.93c-0.38,0.62-0.57,1.57-0.58,2.86v2.57c0,1.37,0.2,2.38,0.6,3.03s1,0.98,1.8,0.98
		c0.79,0,1.38-0.31,1.77-0.92c0.39-0.61,0.59-1.58,0.6-2.9V114.28z"/>
	<path class="st2" d="M104.51,121.04c0-0.28,0.08-0.51,0.25-0.7s0.41-0.28,0.74-0.28c0.33,0,0.58,0.09,0.75,0.28s0.26,0.42,0.26,0.7
		c0,0.27-0.09,0.49-0.26,0.67s-0.42,0.27-0.75,0.27c-0.33,0-0.58-0.09-0.74-0.27S104.51,121.31,104.51,121.04z"/>
	<path class="st2" d="M116.93,116.48c0,1.88-0.32,3.28-0.97,4.2s-1.65,1.37-3.02,1.37c-1.35,0-2.35-0.45-3-1.34
		c-0.65-0.9-0.99-2.23-1.01-4.01v-2.15c0-1.86,0.32-3.24,0.97-4.15s1.65-1.36,3.03-1.36c1.36,0,2.37,0.44,3.01,1.31
		c0.64,0.87,0.97,2.22,0.99,4.04V116.48z M115.33,114.28c0-1.36-0.19-2.36-0.57-2.98s-0.99-0.93-1.82-0.93
		c-0.82,0-1.42,0.31-1.8,0.93c-0.38,0.62-0.57,1.57-0.58,2.86v2.57c0,1.37,0.2,2.38,0.6,3.03s1,0.98,1.8,0.98
		c0.79,0,1.38-0.31,1.77-0.92c0.39-0.61,0.59-1.58,0.6-2.9V114.28z"/>
	<path class="st2" d="M126.93,116.48c0,1.88-0.32,3.28-0.97,4.2s-1.65,1.37-3.02,1.37c-1.35,0-2.35-0.45-3-1.34
		c-0.65-0.9-0.99-2.23-1.01-4.01v-2.15c0-1.86,0.32-3.24,0.97-4.15s1.65-1.36,3.03-1.36c1.36,0,2.37,0.44,3.01,1.31
		c0.64,0.87,0.97,2.22,0.99,4.04V116.48z M125.33,114.28c0-1.36-0.19-2.36-0.57-2.98s-0.99-0.93-1.82-0.93
		c-0.82,0-1.42,0.31-1.8,0.93c-0.38,0.62-0.57,1.57-0.58,2.86v2.57c0,1.37,0.2,2.38,0.6,3.03s1,0.98,1.8,0.98
		c0.79,0,1.38-0.31,1.77-0.92c0.39-0.61,0.59-1.58,0.6-2.9V114.28z"/>
	<path class="st2" d="M136.93,116.48c0,1.88-0.32,3.28-0.97,4.2s-1.65,1.37-3.02,1.37c-1.35,0-2.35-0.45-3-1.34
		c-0.65-0.9-0.99-2.23-1.01-4.01v-2.15c0-1.86,0.32-3.24,0.97-4.15s1.65-1.36,3.03-1.36c1.36,0,2.37,0.44,3.01,1.31
		c0.64,0.87,0.97,2.22,0.99,4.04V116.48z M135.33,114.28c0-1.36-0.19-2.36-0.57-2.98s-0.99-0.93-1.82-0.93
		c-0.82,0-1.42,0.31-1.8,0.93c-0.38,0.62-0.57,1.57-0.58,2.86v2.57c0,1.37,0.2,2.38,0.6,3.03s1,0.98,1.8,0.98
		c0.79,0,1.38-0.31,1.77-0.92c0.39-0.61,0.59-1.58,0.6-2.9V114.28z"/>
	<path class="st2" d="M139.11,124.4l-0.91-0.63c0.54-0.76,0.83-1.54,0.85-2.35v-1.45h1.57v1.26c0,0.59-0.14,1.17-0.43,1.76
		C139.9,123.58,139.54,124.05,139.11,124.4z"/>
	<path class="st2" d="M150.43,116.48c0,1.88-0.32,3.28-0.97,4.2s-1.65,1.37-3.02,1.37c-1.35,0-2.35-0.45-3-1.34
		c-0.65-0.9-0.99-2.23-1.01-4.01v-2.15c0-1.86,0.32-3.24,0.97-4.15s1.65-1.36,3.03-1.36c1.36,0,2.37,0.44,3.01,1.31
		c0.64,0.87,0.97,2.22,0.99,4.04V116.48z M148.82,114.28c0-1.36-0.19-2.36-0.57-2.98s-0.99-0.93-1.82-0.93
		c-0.82,0-1.42,0.31-1.8,0.93c-0.38,0.62-0.57,1.57-0.58,2.86v2.57c0,1.37,0.2,2.38,0.6,3.03s1,0.98,1.8,0.98
		c0.79,0,1.38-0.31,1.77-0.92c0.39-0.61,0.59-1.58,0.6-2.9V114.28z"/>
	<path class="st2" d="M160.43,116.48c0,1.88-0.32,3.28-0.97,4.2s-1.65,1.37-3.02,1.37c-1.35,0-2.35-0.45-3-1.34
		c-0.65-0.9-0.99-2.23-1.01-4.01v-2.15c0-1.86,0.32-3.24,0.97-4.15s1.65-1.36,3.03-1.36c1.36,0,2.37,0.44,3.01,1.31
		c0.64,0.87,0.97,2.22,0.99,4.04V116.48z M158.82,114.28c0-1.36-0.19-2.36-0.57-2.98s-0.99-0.93-1.82-0.93
		c-0.82,0-1.42,0.31-1.8,0.93c-0.38,0.62-0.57,1.57-0.58,2.86v2.57c0,1.37,0.2,2.38,0.6,3.03s1,0.98,1.8,0.98
		c0.79,0,1.38-0.31,1.77-0.92c0.39-0.61,0.59-1.58,0.6-2.9V114.28z"/>
</g>
<g>
	<path class="st2" d="M30.22,163.88h-1.62v-10.72l-3.24,1.19v-1.46l4.61-1.73h0.25V163.88z"/>
	<path class="st2" d="M35.14,163.04c0-0.28,0.08-0.51,0.25-0.7s0.41-0.28,0.74-0.28c0.33,0,0.58,0.09,0.75,0.28s0.26,0.42,0.26,0.7
		c0,0.27-0.09,0.49-0.26,0.67s-0.42,0.27-0.75,0.27c-0.33,0-0.58-0.09-0.74-0.27S35.14,163.31,35.14,163.04z"/>
	<path class="st2" d="M47.92,163.88h-8.3v-1.16l4.38-4.87c0.65-0.74,1.1-1.33,1.34-1.79c0.25-0.46,0.37-0.94,0.37-1.43
		c0-0.66-0.2-1.2-0.6-1.63s-0.93-0.63-1.6-0.63c-0.8,0-1.42,0.23-1.87,0.68s-0.67,1.09-0.67,1.9h-1.61c0-1.17,0.38-2.11,1.13-2.83
		c0.75-0.72,1.76-1.08,3.01-1.08c1.18,0,2.11,0.31,2.79,0.93c0.68,0.62,1.03,1.44,1.03,2.46c0,1.25-0.79,2.73-2.38,4.45l-3.39,3.68
		h6.36V163.88z"/>
	<path class="st2" d="M57.56,158.48c0,1.88-0.32,3.28-0.97,4.2s-1.65,1.37-3.02,1.37c-1.35,0-2.35-0.45-3-1.34
		c-0.65-0.9-0.99-2.23-1.01-4.01v-2.15c0-1.86,0.32-3.24,0.97-4.15s1.65-1.36,3.03-1.36c1.36,0,2.37,0.44,3.01,1.31
		c0.64,0.87,0.97,2.22,0.99,4.04V158.48z M55.95,156.28c0-1.36-0.19-2.36-0.57-2.98s-0.99-0.93-1.82-0.93
		c-0.82,0-1.42,0.31-1.8,0.93c-0.38,0.62-0.57,1.57-0.58,2.86v2.57c0,1.37,0.2,2.38,0.6,3.03s1,0.98,1.8,0.98
		c0.79,0,1.38-0.31,1.77-0.92c0.39-0.61,0.59-1.58,0.6-2.9V156.28z"/>
	<path class="st2" d="M67.56,158.48c0,1.88-0.32,3.28-0.97,4.2s-1.65,1.37-3.02,1.37c-1.35,0-2.35-0.45-3-1.34
		c-0.65-0.9-0.99-2.23-1.01-4.01v-2.15c0-1.86,0.32-3.24,0.97-4.15s1.65-1.36,3.03-1.36c1.36,0,2.37,0.44,3.01,1.31
		c0.64,0.87,0.97,2.22,0.99,4.04V158.48z M65.95,156.28c0-1.36-0.19-2.36-0.57-2.98s-0.99-0.93-1.82-0.93
		c-0.82,0-1.42,0.31-1.8,0.93c-0.38,0.62-0.57,1.57-0.58,2.86v2.57c0,1.37,0.2,2.38,0.6,3.03s1,0.98,1.8,0.98
		c0.79,0,1.38-0.31,1.77-0.92c0.39-0.61,0.59-1.58,0.6-2.9V156.28z"/>
	<path class="st2" d="M69.82,163.04c0-0.28,0.08-0.51,0.25-0.7s0.41-0.28,0.74-0.28c0.33,0,0.58,0.09,0.75,0.28s0.26,0.42,0.26,0.7
		c0,0.27-0.09,0.49-0.26,0.67s-0.42,0.27-0.75,0.27c-0.33,0-0.58-0.09-0.74-0.27S69.82,163.31,69.82,163.04z"/>
	<path class="st2" d="M82.25,158.48c0,1.88-0.32,3.28-0.97,4.2s-1.65,1.37-3.02,1.37c-1.35,0-2.35-0.45-3-1.34
		c-0.65-0.9-0.99-2.23-1.01-4.01v-2.15c0-1.86,0.32-3.24,0.97-4.15s1.65-1.36,3.03-1.36c1.36,0,2.37,0.44,3.01,1.31
		c0.64,0.87,0.97,2.22,0.99,4.04V158.48z M80.64,156.28c0-1.36-0.19-2.36-0.57-2.98s-0.99-0.93-1.82-0.93
		c-0.82,0-1.42,0.31-1.8,0.93c-0.38,0.62-0.57,1.57-0.58,2.86v2.57c0,1.37,0.2,2.38,0.6,3.03s1,0.98,1.8,0.98
		c0.79,0,1.38-0.31,1.77-0.92c0.39-0.61,0.59-1.58,0.6-2.9V156.28z"/>
	<path class="st2" d="M92.25,158.48c0,1.88-0.32,3.28-0.97,4.2s-1.65,1.37-3.02,1.37c-1.35,0-2.35-0.45-3-1.34
		c-0.65-0.9-0.99-2.23-1.01-4.01v-2.15c0-1.86,0.32-3.24,0.97-4.15s1.65-1.36,3.03-1.36c1.36,0,2.37,0.44,3.01,1.31
		c0.64,0.87,0.97,2.22,0.99,4.04V158.48z M90.64,156.28c0-1.36-0.19-2.36-0.57-2.98s-0.99-0.93-1.82-0.93
		c-0.82,0-1.42,0.31-1.8,0.93c-0.38,0.62-0.57,1.57-0.58,2.86v2.57c0,1.37,0.2,2.38,0.6,3.03s1,0.98,1.8,0.98
		c0.79,0,1.38-0.31,1.77-0.92c0.39-0.61,0.59-1.58,0.6-2.9V156.28z"/>
	<path class="st2" d="M102.25,158.48c0,1.88-0.32,3.28-0.97,4.2s-1.65,1.37-3.02,1.37c-1.35,0-2.35-0.45-3-1.34
		c-0.65-0.9-0.99-2.23-1.01-4.01v-2.15c0-1.86,0.32-3.24,0.97-4.15s1.65-1.36,3.03-1.36c1.36,0,2.37,0.44,3.01,1.31
		c0.64,0.87,0.97,2.22,0.99,4.04V158.48z M100.64,156.28c0-1.36-0.19-2.36-0.57-2.98s-0.99-0.93-1.82-0.93
		c-0.82,0-1.42,0.31-1.8,0.93c-0.38,0.62-0.57,1.57-0.58,2.86v2.57c0,1.37,0.2,2.38,0.6,3.03s1,0.98,1.8,0.98
		c0.79,0,1.38-0.31,1.77-0.92c0.39-0.61,0.59-1.58,0.6-2.9V156.28z"/>
	<path class="st2" d="M104.51,163.04c0-0.28,0.08-0.51,0.25-0.7s0.41-0.28,0.74-0.28c0.33,0,0.58,0.09,0.75,0.28s0.26,0.42,0.26,0.7
		c0,0.27-0.09,0.49-0.26,0.67s-0.42,0.27-0.75,0.27c-0.33,0-0.58-0.09-0.74-0.27S104.51,163.31,104.51,163.04z"/>
	<path class="st2" d="M116.93,158.48c0,1.88-0.32,3.28-0.97,4.2s-1.65,1.37-3.02,1.37c-1.35,0-2.35-0.45-3-1.34
		c-0.65-0.9-0.99-2.23-1.01-4.01v-2.15c0-1.86,0.32-3.24,0.97-4.15s1.65-1.36,3.03-1.36c1.36,0,2.37,0.44,3.01,1.31
		c0.64,0.87,0.97,2.22,0.99,4.04V158.48z M115.33,156.28c0-1.36-0.19-2.36-0.57-2.98s-0.99-0.93-1.82-0.93
		c-0.82,0-1.42,0.31-1.8,0.93c-0.38,0.62-0.57,1.57-0.58,2.86v2.57c0,1.37,0.2,2.38,0.6,3.03s1,0.98,1.8,0.98
		c0.79,0,1.38-0.31,1.77-0.92c0.39-0.61,0.59-1.58,0.6-2.9V156.28z"/>
	<path class="st2" d="M126.93,158.48c0,1.88-0.32,3.28-0.97,4.2s-1.65,1.37-3.02,1.37c-1.35,0-2.35-0.45-3-1.34
		c-0.65-0.9-0.99-2.23-1.01-4.01v-2.15c0-1.86,0.32-3.24,0.97-4.15s1.65-1.36,3.03-1.36c1.36,0,2.37,0.44,3.01,1.31
		c0.64,0.87,0.97,2.22,0.99,4.04V158.48z M125.33,156.28c0-1.36-0.19-2.36-0.57-2.98s-0.99-0.93-1.82-0.93
		c-0.82,0-1.42,0.31-1.8,0.93c-0.38,0.62-0.57,1.57-0.58,2.86v2.57c0,1.37,0.2,2.38,0.6,3.03s1,0.98,1.8,0.98
		c0.79,0,1.38-0.31,1.77-0.92c0.39-0.61,0.59-1.58,0.6-2.9V156.28z"/>
	<path class="st2" d="M136.93,158.48c0,1.88-0.32,3.28-0.97,4.2s-1.65,1.37-3.02,1.37c-1.35,0-2.35-0.45-3-1.34
		c-0.65-0.9-0.99-2.23-1.01-4.01v-2.15c0-1.86,0.32-3.24,0.97-4.15s1.65-1.36,3.03-1.36c1.36,0,2.37,0.44,3.01,1.31
		c0.64,0.87,0.97,2.22,0.99,4.04V158.48z M135.33,156.28c0-1.36-0.19-2.36-0.57-2.98s-0.99-0.93-1.82-0.93
		c-0.82,0-1.42,0.31-1.8,0.93c-0.38,0.62-0.57,1.57-0.58,2.86v2.57c0,1.37,0.2,2.38,0.6,3.03s1,0.98,1.8,0.98
		c0.79,0,1.38-0.31,1.77-0.92c0.39-0.61,0.59-1.58,0.6-2.9V156.28z"/>
	<path class="st2" d="M139.11,166.4l-0.91-0.63c0.54-0.76,0.83-1.54,0.85-2.35v-1.45h1.57v1.26c0,0.59-0.14,1.17-0.43,1.76
		C139.9,165.58,139.54,166.05,139.11,166.4z"/>
	<path class="st2" d="M150.43,158.48c0,1.88-0.32,3.28-0.97,4.2s-1.65,1.37-3.02,1.37c-1.35,0-2.35-0.45-3-1.34
		c-0.65-0.9-0.99-2.23-1.01-4.01v-2.15c0-1.86,0.32-3.24,0.97-4.15s1.65-1.36,3.03-1.36c1.36,0,2.37,0.44,3.01,1.31
		c0.64,0.87,0.97,2.22,0.99,4.04V158.48z M148.82,156.28c0-1.36-0.19-2.36-0.57-2.98s-0.99-0.93-1.82-0.93
		c-0.82,0-1.42,0.31-1.8,0.93c-0.38,0.62-0.57,1.57-0.58,2.86v2.57c0,1.37,0.2,2.38,0.6,3.03s1,0.98,1.8,0.98
		c0.79,0,1.38-0.31,1.77-0.92c0.39-0.61,0.59-1.58,0.6-2.9V156.28z"/>
	<path class="st2" d="M160.43,158.48c0,1.88-0.32,3.28-0.97,4.2s-1.65,1.37-3.02,1.37c-1.35,0-2.35-0.45-3-1.34
		c-0.65-0.9-0.99-2.23-1.01-4.01v-2.15c0-1.86,0.32-3.24,0.97-4.15s1.65-1.36,3.03-1.36c1.36,0,2.37,0.44,3.01,1.31
		c0.64,0.87,0.97,2.22,0.99,4.04V158.48z M158.82,156.28c0-1.36-0.19-2.36-0.57-2.98s-0.99-0.93-1.82-0.93
		c-0.82,0-1.42,0.31-1.8,0.93c-0.38,0.62-0.57,1.57-0.58,2.86v2.57c0,1.37,0.2,2.38,0.6,3.03s1,0.98,1.8,0.98
		c0.79,0,1.38-0.31,1.77-0.92c0.39-0.61,0.59-1.58,0.6-2.9V156.28z"/>
</g>
<g>
	<path class="st2" d="M30.22,205.88h-1.62v-10.72l-3.24,1.19v-1.46l4.61-1.73h0.25V205.88z"/>
	<path class="st2" d="M35.14,205.04c0-0.28,0.08-0.51,0.25-0.7s0.41-0.28,0.74-0.28c0.33,0,0.58,0.09,0.75,0.28s0.26,0.42,0.26,0.7
		c0,0.27-0.09,0.49-0.26,0.67s-0.42,0.27-0.75,0.27c-0.33,0-0.58-0.09-0.74-0.27S35.14,205.31,35.14,205.04z"/>
	<path class="st2" d="M47.56,200.48c0,1.88-0.32,3.28-0.97,4.2s-1.65,1.37-3.02,1.37c-1.35,0-2.35-0.45-3-1.34
		c-0.65-0.9-0.99-2.23-1.01-4.01v-2.15c0-1.86,0.32-3.24,0.97-4.15s1.65-1.36,3.03-1.36c1.36,0,2.37,0.44,3.01,1.31
		c0.64,0.87,0.97,2.22,0.99,4.04V200.48z M45.95,198.28c0-1.36-0.19-2.36-0.57-2.98s-0.99-0.93-1.82-0.93
		c-0.82,0-1.42,0.31-1.8,0.93c-0.38,0.62-0.57,1.57-0.58,2.86v2.57c0,1.37,0.2,2.38,0.6,3.03s1,0.98,1.8,0.98
		c0.79,0,1.38-0.31,1.77-0.92c0.39-0.61,0.59-1.58,0.6-2.9V198.28z"/>
	<path class="st2" d="M57.56,200.48c0,1.88-0.32,3.28-0.97,4.2s-1.65,1.37-3.02,1.37c-1.35,0-2.35-0.45-3-1.34
		c-0.65-0.9-0.99-2.23-1.01-4.01v-2.15c0-1.86,0.32-3.24,0.97-4.15s1.65-1.36,3.03-1.36c1.36,0,2.37,0.44,3.01,1.31
		c0.64,0.87,0.97,2.22,0.99,4.04V200.48z M55.95,198.28c0-1.36-0.19-2.36-0.57-2.98s-0.99-0.93-1.82-0.93
		c-0.82,0-1.42,0.31-1.8,0.93c-0.38,0.62-0.57,1.57-0.58,2.86v2.57c0,1.37,0.2,2.38,0.6,3.03s1,0.98,1.8,0.98
		c0.79,0,1.38-0.31,1.77-0.92c0.39-0.61,0.59-1.58,0.6-2.9V198.28z"/>
	<path class="st2" d="M67.56,200.48c0,1.88-0.32,3.28-0.97,4.2s-1.65,1.37-3.02,1.37c-1.35,0-2.35-0.45-3-1.34
		c-0.65-0.9-0.99-2.23-1.01-4.01v-2.15c0-1.86,0.32-3.24,0.97-4.15s1.65-1.36,3.03-1.36c1.36,0,2.37,0.44,3.01,1.31
		c0.64,0.87,0.97,2.22,0.99,4.04V200.48z M65.95,198.28c0-1.36-0.19-2.36-0.57-2.98s-0.99-0.93-1.82-0.93
		c-0.82,0-1.42,0.31-1.8,0.93c-0.38,0.62-0.57,1.57-0.58,2.86v2.57c0,1.37,0.2,2.38,0.6,3.03s1,0.98,1.8,0.98
		c0.79,0,1.38-0.31,1.77-0.92c0.39-0.61,0.59-1.58,0.6-2.9V198.28z"/>
	<path class="st2" d="M69.82,205.04c0-0.28,0.08-0.51,0.25-0.7s0.41-0.28,0.74-0.28c0.33,0,0.58,0.09,0.75,0.28s0.26,0.42,0.26,0.7
		c0,0.27-0.09,0.49-0.26,0.67s-0.42,0.27-0.75,0.27c-0.33,0-0.58-0.09-0.74-0.27S69.82,205.31,69.82,205.04z"/>
	<path class="st2" d="M82.25,200.48c0,1.88-0.32,3.28-0.97,4.2s-1.65,1.37-3.02,1.37c-1.35,0-2.35-0.45-3-1.34
		c-0.65-0.9-0.99-2.23-1.01-4.01v-2.15c0-1.86,0.32-3.24,0.97-4.15s1.65-1.36,3.03-1.36c1.36,0,2.37,0.44,3.01,1.31
		c0.64,0.87,0.97,2.22,0.99,4.04V200.48z M80.64,198.28c0-1.36-0.19-2.36-0.57-2.98s-0.99-0.93-1.82-0.93
		c-0.82,0-1.42,0.31-1.8,0.93c-0.38,0.62-0.57,1.57-0.58,2.86v2.57c0,1.37,0.2,2.38,0.6,3.03s1,0.98,1.8,0.98
		c0.79,0,1.38-0.31,1.77-0.92c0.39-0.61,0.59-1.58,0.6-2.9V198.28z"/>
	<path class="st2" d="M92.25,200.48c0,1.88-0.32,3.28-0.97,4.2s-1.65,1.37-3.02,1.37c-1.35,0-2.35-0.45-3-1.34
		c-0.65-0.9-0.99-2.23-1.01-4.01v-2.15c0-1.86,0.32-3.24,0.97-4.15s1.65-1.36,3.03-1.36c1.36,0,2.37,0.44,3.01,1.31
		c0.64,0.87,0.97,2.22,0.99,4.04V200.48z M90.64,198.28c0-1.36-0.19-2.36-0.57-2.98s-0.99-0.93-1.82-0.93
		c-0.82,0-1.42,0.31-1.8,0.93c-0.38,0.62-0.57,1.57-0.58,2.86v2.57c0,1.37,0.2,2.38,0.6,3.03s1,0.98,1.8,0.98
		c0.79,0,1.38-0.31,1.77-0.92c0.39-0.61,0.59-1.58,0.6-2.9V198.28z"/>
	<path class="st2" d="M102.25,200.48c0,1.88-0.32,3.28-0.97,4.2s-1.65,1.37-3.02,1.37c-1.35,0-2.35-0.45-3-1.34
		c-0.65-0.9-0.99-2.23-1.01-4.01v-2.15c0-1.86,0.32-3.24,0.97-4.15s1.65-1.36,3.03-1.36c1.36,0,2.37,0.44,3.01,1.31
		c0.64,0.87,0.97,2.22,0.99,4.04V200.48z M100.64,198.28c0-1.36-0.19-2.36-0.57-2.98s-0.99-0.93-1.82-0.93
		c-0.82,0-1.42,0.31-1.8,0.93c-0.38,0.62-0.57,1.57-0.58,2.86v2.57c0,1.37,0.2,2.38,0.6,3.03s1,0.98,1.8,0.98
		c0.79,0,1.38-0.31,1.77-0.92c0.39-0.61,0.59-1.58,0.6-2.9V198.28z"/>
	<path class="st2" d="M104.51,205.04c0-0.28,0.08-0.51,0.25-0.7s0.41-0.28,0.74-0.28c0.33,0,0.58,0.09,0.75,0.28s0.26,0.42,0.26,0.7
		c0,0.27-0.09,0.49-0.26,0.67s-0.42,0.27-0.75,0.27c-0.33,0-0.58-0.09-0.74-0.27S104.51,205.31,104.51,205.04z"/>
	<path class="st2" d="M116.93,200.48c0,1.88-0.32,3.28-0.97,4.2s-1.65,1.37-3.02,1.37c-1.35,0-2.35-0.45-3-1.34
		c-0.65-0.9-0.99-2.23-1.01-4.01v-2.15c0-1.86,0.32-3.24,0.97-4.15s1.65-1.36,3.03-1.36c1.36,0,2.37,0.44,3.01,1.31
		c0.64,0.87,0.97,2.22,0.99,4.04V200.48z M115.33,198.28c0-1.36-0.19-2.36-0.57-2.98s-0.99-0.93-1.82-0.93
		c-0.82,0-1.42,0.31-1.8,0.93c-0.38,0.62-0.57,1.57-0.58,2.86v2.57c0,1.37,0.2,2.38,0.6,3.03s1,0.98,1.8,0.98
		c0.79,0,1.38-0.31,1.77-0.92c0.39-0.61,0.59-1.58,0.6-2.9V198.28z"/>
	<path class="st2" d="M126.93,200.48c0,1.88-0.32,3.28-0.97,4.2s-1.65,1.37-3.02,1.37c-1.35,0-2.35-0.45-3-1.34
		c-0.65-0.9-0.99-2.23-1.01-4.01v-2.15c0-1.86,0.32-3.24,0.97-4.15s1.65-1.36,3.03-1.36c1.36,0,2.37,0.44,3.01,1.31
		c0.64,0.87,0.97,2.22,0.99,4.04V200.48z M125.33,198.28c0-1.36-0.19-2.36-0.57-2.98s-0.99-0.93-1.82-0.93
		c-0.82,0-1.42,0.31-1.8,0.93c-0.38,0.62-0.57,1.57-0.58,2.86v2.57c0,1.37,0.2,2.38,0.6,3.03s1,0.98,1.8,0.98
		c0.79,0,1.38-0.31,1.77-0.92c0.39-0.61,0.59-1.58,0.6-2.9V198.28z"/>
	<path class="st2" d="M136.93,200.48c0,1.88-0.32,3.28-0.97,4.2s-1.65,1.37-3.02,1.37c-1.35,0-2.35-0.45-3-1.34
		c-0.65-0.9-0.99-2.23-1.01-4.01v-2.15c0-1.86,0.32-3.24,0.97-4.15s1.65-1.36,3.03-1.36c1.36,0,2.37,0.44,3.01,1.31
		c0.64,0.87,0.97,2.22,0.99,4.04V200.48z M135.33,198.28c0-1.36-0.19-2.36-0.57-2.98s-0.99-0.93-1.82-0.93
		c-0.82,0-1.42,0.31-1.8,0.93c-0.38,0.62-0.57,1.57-0.58,2.86v2.57c0,1.37,0.2,2.38,0.6,3.03s1,0.98,1.8,0.98
		c0.79,0,1.38-0.31,1.77-0.92c0.39-0.61,0.59-1.58,0.6-2.9V198.28z"/>
	<path class="st2" d="M139.11,208.4l-0.91-0.63c0.54-0.76,0.83-1.54,0.85-2.35v-1.45h1.57v1.26c0,0.59-0.14,1.17-0.43,1.76
		C139.9,207.58,139.54,208.05,139.11,208.4z"/>
	<path class="st2" d="M150.43,200.48c0,1.88-0.32,3.28-0.97,4.2s-1.65,1.37-3.02,1.37c-1.35,0-2.35-0.45-3-1.34
		c-0.65-0.9-0.99-2.23-1.01-4.01v-2.15c0-1.86,0.32-3.24,0.97-4.15s1.65-1.36,3.03-1.36c1.36,0,2.37,0.44,3.01,1.31
		c0.64,0.87,0.97,2.22,0.99,4.04V200.48z M148.82,198.28c0-1.36-0.19-2.36-0.57-2.98s-0.99-0.93-1.82-0.93
		c-0.82,0-1.42,0.31-1.8,0.93c-0.38,0.62-0.57,1.57-0.58,2.86v2.57c0,1.37,0.2,2.38,0.6,3.03s1,0.98,1.8,0.98
		c0.79,0,1.38-0.31,1.77-0.92c0.39-0.61,0.59-1.58,0.6-2.9V198.28z"/>
	<path class="st2" d="M160.43,200.48c0,1.88-0.32,3.28-0.97,4.2s-1.65,1.37-3.02,1.37c-1.35,0-2.35-0.45-3-1.34
		c-0.65-0.9-0.99-2.23-1.01-4.01v-2.15c0-1.86,0.32-3.24,0.97-4.15s1.65-1.36,3.03-1.36c1.36,0,2.37,0.44,3.01,1.31
		c0.64,0.87,0.97,2.22,0.99,4.04V200.48z M158.82,198.28c0-1.36-0.19-2.36-0.57-2.98s-0.99-0.93-1.82-0.93
		c-0.82,0-1.42,0.31-1.8,0.93c-0.38,0.62-0.57,1.57-0.58,2.86v2.57c0,1.37,0.2,2.38,0.6,3.03s1,0.98,1.8,0.98
		c0.79,0,1.38-0.31,1.77-0.92c0.39-0.61,0.59-1.58,0.6-2.9V198.28z"/>
</g>
<g>
	<path class="st2" d="M46.61,238.53c0,0.63-0.17,1.19-0.5,1.69c-0.33,0.49-0.78,0.88-1.35,1.16c0.66,0.28,1.18,0.7,1.57,1.24
		c0.39,0.54,0.58,1.16,0.58,1.85c0,1.1-0.37,1.97-1.11,2.62c-0.74,0.65-1.71,0.97-2.92,0.97c-1.22,0-2.19-0.33-2.93-0.98
		c-0.73-0.65-1.1-1.52-1.1-2.61c0-0.68,0.19-1.3,0.56-1.85s0.89-0.97,1.55-1.25c-0.56-0.28-1.01-0.66-1.33-1.16
		c-0.32-0.49-0.49-1.05-0.49-1.68c0-1.07,0.34-1.91,1.03-2.54c0.68-0.63,1.59-0.94,2.7-0.94c1.11,0,2.01,0.31,2.7,0.94
		C46.27,236.61,46.61,237.46,46.61,238.53z M45.3,244.43c0-0.71-0.23-1.28-0.67-1.73s-1.04-0.67-1.76-0.67s-1.31,0.22-1.74,0.66
		c-0.44,0.44-0.66,1.02-0.66,1.74s0.21,1.28,0.64,1.7c0.43,0.41,1.02,0.62,1.78,0.62c0.75,0,1.34-0.21,1.77-0.62
		C45.09,245.71,45.3,245.14,45.3,244.43z M42.88,236.37c-0.63,0-1.14,0.2-1.53,0.59c-0.39,0.39-0.59,0.92-0.59,1.6
		c0,0.64,0.19,1.16,0.58,1.56c0.39,0.4,0.9,0.6,1.54,0.6s1.16-0.2,1.54-0.6c0.39-0.4,0.58-0.92,0.58-1.56s-0.2-1.17-0.6-1.57
		C44.01,236.57,43.5,236.37,42.88,236.37z"/>
	<path class="st2" d="M56.88,242.48c0,1.88-0.32,3.28-0.97,4.2s-1.65,1.37-3.02,1.37c-1.35,0-2.35-0.45-3-1.34
		c-0.65-0.9-0.99-2.23-1.01-4.01v-2.15c0-1.86,0.32-3.24,0.97-4.15c0.64-0.9,1.65-1.36,3.03-1.36c1.36,0,2.37,0.44,3.01,1.31
		c0.64,0.87,0.97,2.22,0.99,4.04V242.48z M55.27,240.28c0-1.36-0.19-2.36-0.57-2.98s-0.99-0.93-1.82-0.93
		c-0.82,0-1.42,0.31-1.8,0.93c-0.38,0.62-0.57,1.57-0.58,2.86v2.57c0,1.37,0.2,2.38,0.6,3.03s1,0.98,1.8,0.98
		c0.79,0,1.38-0.31,1.77-0.92c0.39-0.61,0.59-1.58,0.6-2.9V240.28z"/>
	<path class="st2" d="M66.87,242.48c0,1.88-0.32,3.28-0.97,4.2s-1.65,1.37-3.02,1.37c-1.35,0-2.35-0.45-3-1.34
		c-0.65-0.9-0.99-2.23-1.01-4.01v-2.15c0-1.86,0.32-3.24,0.97-4.15c0.64-0.9,1.65-1.36,3.03-1.36c1.36,0,2.37,0.44,3.01,1.31
		c0.64,0.87,0.97,2.22,0.99,4.04V242.48z M65.27,240.28c0-1.36-0.19-2.36-0.57-2.98s-0.99-0.93-1.82-0.93
		c-0.82,0-1.42,0.31-1.8,0.93c-0.38,0.62-0.57,1.57-0.58,2.86v2.57c0,1.37,0.2,2.38,0.6,3.03s1,0.98,1.8,0.98
		c0.79,0,1.38-0.31,1.77-0.92c0.39-0.61,0.59-1.58,0.6-2.9V240.28z"/>
	<path class="st2" d="M69.14,247.04c0-0.28,0.08-0.51,0.25-0.7s0.41-0.28,0.74-0.28c0.33,0,0.58,0.09,0.75,0.28s0.26,0.42,0.26,0.7
		c0,0.27-0.09,0.49-0.26,0.67s-0.42,0.27-0.75,0.27c-0.33,0-0.58-0.09-0.74-0.27S69.14,247.3,69.14,247.04z"/>
	<path class="st2" d="M81.56,242.48c0,1.88-0.32,3.28-0.97,4.2s-1.65,1.37-3.02,1.37c-1.35,0-2.35-0.45-3-1.34
		c-0.65-0.9-0.99-2.23-1.01-4.01v-2.15c0-1.86,0.32-3.24,0.97-4.15c0.64-0.9,1.65-1.36,3.03-1.36c1.36,0,2.37,0.44,3.01,1.31
		c0.64,0.87,0.97,2.22,0.99,4.04V242.48z M79.95,240.28c0-1.36-0.19-2.36-0.57-2.98s-0.99-0.93-1.82-0.93
		c-0.82,0-1.42,0.31-1.8,0.93c-0.38,0.62-0.57,1.57-0.58,2.86v2.57c0,1.37,0.2,2.38,0.6,3.03s1,0.98,1.8,0.98
		c0.79,0,1.38-0.31,1.77-0.92c0.39-0.61,0.59-1.58,0.6-2.9V240.28z"/>
	<path class="st2" d="M91.56,242.48c0,1.88-0.32,3.28-0.97,4.2s-1.65,1.37-3.02,1.37c-1.35,0-2.35-0.45-3-1.34
		c-0.65-0.9-0.99-2.23-1.01-4.01v-2.15c0-1.86,0.32-3.24,0.97-4.15c0.64-0.9,1.65-1.36,3.03-1.36c1.36,0,2.37,0.44,3.01,1.31
		c0.64,0.87,0.97,2.22,0.99,4.04V242.48z M89.95,240.28c0-1.36-0.19-2.36-0.57-2.98s-0.99-0.93-1.82-0.93
		c-0.82,0-1.42,0.31-1.8,0.93c-0.38,0.62-0.57,1.57-0.58,2.86v2.57c0,1.37,0.2,2.38,0.6,3.03s1,0.98,1.8,0.98
		c0.79,0,1.38-0.31,1.77-0.92c0.39-0.61,0.59-1.58,0.6-2.9V240.28z"/>
	<path class="st2" d="M101.56,242.48c0,1.88-0.32,3.28-0.97,4.2s-1.65,1.37-3.02,1.37c-1.35,0-2.35-0.45-3-1.34
		c-0.65-0.9-0.99-2.23-1.01-4.01v-2.15c0-1.86,0.32-3.24,0.97-4.15c0.64-0.9,1.65-1.36,3.03-1.36c1.36,0,2.37,0.44,3.01,1.31
		c0.64,0.87,0.97,2.22,0.99,4.04V242.48z M99.95,240.28c0-1.36-0.19-2.36-0.57-2.98s-0.99-0.93-1.82-0.93
		c-0.82,0-1.42,0.31-1.8,0.93c-0.38,0.62-0.57,1.57-0.58,2.86v2.57c0,1.37,0.2,2.38,0.6,3.03s1,0.98,1.8,0.98
		c0.79,0,1.38-0.31,1.77-0.92c0.39-0.61,0.59-1.58,0.6-2.9V240.28z"/>
	<path class="st2" d="M103.82,247.04c0-0.28,0.08-0.51,0.25-0.7s0.41-0.28,0.74-0.28c0.33,0,0.58,0.09,0.75,0.28s0.26,0.42,0.26,0.7
		c0,0.27-0.09,0.49-0.26,0.67s-0.42,0.27-0.75,0.27c-0.33,0-0.58-0.09-0.74-0.27S103.82,247.3,103.82,247.04z"/>
	<path class="st2" d="M116.25,242.48c0,1.88-0.32,3.28-0.97,4.2s-1.65,1.37-3.02,1.37c-1.35,0-2.35-0.45-3-1.34
		c-0.65-0.9-0.99-2.23-1.01-4.01v-2.15c0-1.86,0.32-3.24,0.97-4.15c0.64-0.9,1.65-1.36,3.03-1.36c1.36,0,2.37,0.44,3.01,1.31
		c0.64,0.87,0.97,2.22,0.99,4.04V242.48z M114.64,240.28c0-1.36-0.19-2.36-0.57-2.98s-0.99-0.93-1.82-0.93
		c-0.82,0-1.42,0.31-1.8,0.93c-0.38,0.62-0.57,1.57-0.58,2.86v2.57c0,1.37,0.2,2.38,0.6,3.03s1,0.98,1.8,0.98
		c0.79,0,1.38-0.31,1.77-0.92c0.39-0.61,0.59-1.58,0.6-2.9V240.28z"/>
	<path class="st2" d="M126.25,242.48c0,1.88-0.32,3.28-0.97,4.2s-1.65,1.37-3.02,1.37c-1.35,0-2.35-0.45-3-1.34
		c-0.65-0.9-0.99-2.23-1.01-4.01v-2.15c0-1.86,0.32-3.24,0.97-4.15c0.64-0.9,1.65-1.36,3.03-1.36c1.36,0,2.37,0.44,3.01,1.31
		c0.64,0.87,0.97,2.22,0.99,4.04V242.48z M124.64,240.28c0-1.36-0.19-2.36-0.57-2.98s-0.99-0.93-1.82-0.93
		c-0.82,0-1.42,0.31-1.8,0.93c-0.38,0.62-0.57,1.57-0.58,2.86v2.57c0,1.37,0.2,2.38,0.6,3.03s1,0.98,1.8,0.98
		c0.79,0,1.38-0.31,1.77-0.92c0.39-0.61,0.59-1.58,0.6-2.9V240.28z"/>
	<path class="st2" d="M136.25,242.48c0,1.88-0.32,3.28-0.97,4.2s-1.65,1.37-3.02,1.37c-1.35,0-2.35-0.45-3-1.34
		c-0.65-0.9-0.99-2.23-1.01-4.01v-2.15c0-1.86,0.32-3.24,0.97-4.15c0.64-0.9,1.65-1.36,3.03-1.36c1.36,0,2.37,0.44,3.01,1.31
		c0.64,0.87,0.97,2.22,0.99,4.04V242.48z M134.64,240.28c0-1.36-0.19-2.36-0.57-2.98s-0.99-0.93-1.82-0.93
		c-0.82,0-1.42,0.31-1.8,0.93c-0.38,0.62-0.57,1.57-0.58,2.86v2.57c0,1.37,0.2,2.38,0.6,3.03s1,0.98,1.8,0.98
		c0.79,0,1.38-0.31,1.77-0.92c0.39-0.61,0.59-1.58,0.6-2.9V240.28z"/>
	<path class="st2" d="M138.42,250.4l-0.91-0.63c0.54-0.76,0.83-1.54,0.85-2.35v-1.45h1.57v1.26c0,0.59-0.14,1.17-0.43,1.76
		C139.22,249.58,138.86,250.05,138.42,250.4z"/>
	<path class="st2" d="M149.74,242.48c0,1.88-0.32,3.28-0.97,4.2s-1.65,1.37-3.02,1.37c-1.35,0-2.35-0.45-3-1.34
		c-0.65-0.9-0.99-2.23-1.01-4.01v-2.15c0-1.86,0.32-3.24,0.97-4.15c0.64-0.9,1.65-1.36,3.03-1.36c1.36,0,2.37,0.44,3.01,1.31
		c0.64,0.87,0.97,2.22,0.99,4.04V242.48z M148.13,240.28c0-1.36-0.19-2.36-0.57-2.98s-0.99-0.93-1.82-0.93
		c-0.82,0-1.42,0.31-1.8,0.93c-0.38,0.62-0.57,1.57-0.58,2.86v2.57c0,1.37,0.2,2.38,0.6,3.03s1,0.98,1.8,0.98
		c0.79,0,1.38-0.31,1.77-0.92c0.39-0.61,0.59-1.58,0.6-2.9V240.28z"/>
	<path class="st2" d="M159.74,242.48c0,1.88-0.32,3.28-0.97,4.2s-1.65,1.37-3.02,1.37c-1.35,0-2.35-0.45-3-1.34
		c-0.65-0.9-0.99-2.23-1.01-4.01v-2.15c0-1.86,0.32-3.24,0.97-4.15c0.64-0.9,1.65-1.36,3.03-1.36c1.36,0,2.37,0.44,3.01,1.31
		c0.64,0.87,0.97,2.22,0.99,4.04V242.48z M158.13,240.28c0-1.36-0.19-2.36-0.57-2.98s-0.99-0.93-1.82-0.93
		c-0.82,0-1.42,0.31-1.8,0.93c-0.38,0.62-0.57,1.57-0.58,2.86v2.57c0,1.37,0.2,2.38,0.6,3.03s1,0.98,1.8,0.98
		c0.79,0,1.38-0.31,1.77-0.92c0.39-0.61,0.59-1.58,0.6-2.9V240.28z"/>
</g>
<g>
	<path class="st2" d="M45.25,277.21v1.36h-0.3c-1.25,0.02-2.25,0.39-2.99,1.11s-1.17,1.73-1.29,3.04c0.67-0.77,1.58-1.15,2.73-1.15
		c1.1,0,1.98,0.39,2.64,1.17c0.66,0.78,0.99,1.78,0.99,3.01c0,1.3-0.36,2.35-1.07,3.13s-1.66,1.17-2.86,1.17
		c-1.21,0-2.19-0.46-2.95-1.4c-0.75-0.93-1.13-2.13-1.13-3.6v-0.62c0-2.33,0.5-4.11,1.49-5.34c0.99-1.23,2.47-1.86,4.44-1.89H45.25z
		 M43.14,282.92c-0.55,0-1.06,0.17-1.52,0.5c-0.46,0.33-0.79,0.75-0.97,1.24v0.59c0,1.04,0.23,1.88,0.7,2.52
		c0.47,0.64,1.05,0.96,1.76,0.96c0.72,0,1.29-0.27,1.71-0.8c0.41-0.53,0.62-1.23,0.62-2.1c0-0.87-0.21-1.57-0.63-2.11
		C44.39,283.18,43.83,282.92,43.14,282.92z"/>
	<path class="st2" d="M56.88,284.48c0,1.88-0.32,3.28-0.97,4.2s-1.65,1.37-3.02,1.37c-1.35,0-2.35-0.45-3-1.34
		c-0.65-0.9-0.99-2.23-1.01-4.01v-2.15c0-1.86,0.32-3.24,0.97-4.15s1.65-1.36,3.03-1.36c1.36,0,2.37,0.44,3.01,1.31
		c0.64,0.87,0.97,2.22,0.99,4.04V284.48z M55.27,282.28c0-1.36-0.19-2.36-0.57-2.98s-0.99-0.93-1.82-0.93
		c-0.82,0-1.42,0.31-1.8,0.93c-0.38,0.62-0.57,1.57-0.58,2.86v2.57c0,1.37,0.2,2.38,0.6,3.03s1,0.98,1.8,0.98
		c0.79,0,1.38-0.31,1.77-0.92c0.39-0.61,0.59-1.58,0.6-2.9V282.28z"/>
	<path class="st2" d="M66.87,284.48c0,1.88-0.32,3.28-0.97,4.2s-1.65,1.37-3.02,1.37c-1.35,0-2.35-0.45-3-1.34
		c-0.65-0.9-0.99-2.23-1.01-4.01v-2.15c0-1.86,0.32-3.24,0.97-4.15s1.65-1.36,3.03-1.36c1.36,0,2.37,0.44,3.01,1.31
		c0.64,0.87,0.97,2.22,0.99,4.04V284.48z M65.27,282.28c0-1.36-0.19-2.36-0.57-2.98s-0.99-0.93-1.82-0.93
		c-0.82,0-1.42,0.31-1.8,0.93c-0.38,0.62-0.57,1.57-0.58,2.86v2.57c0,1.37,0.2,2.38,0.6,3.03s1,0.98,1.8,0.98
		c0.79,0,1.38-0.31,1.77-0.92c0.39-0.61,0.59-1.58,0.6-2.9V282.28z"/>
	<path class="st2" d="M69.14,289.04c0-0.28,0.08-0.51,0.25-0.7s0.41-0.28,0.74-0.28c0.33,0,0.58,0.09,0.75,0.28s0.26,0.42,0.26,0.7
		c0,0.27-0.09,0.49-0.26,0.67s-0.42,0.27-0.75,0.27c-0.33,0-0.58-0.09-0.74-0.27S69.14,289.3,69.14,289.04z"/>
	<path class="st2" d="M81.56,284.48c0,1.88-0.32,3.28-0.97,4.2s-1.65,1.37-3.02,1.37c-1.35,0-2.35-0.45-3-1.34
		c-0.65-0.9-0.99-2.23-1.01-4.01v-2.15c0-1.86,0.32-3.24,0.97-4.15s1.65-1.36,3.03-1.36c1.36,0,2.37,0.44,3.01,1.31
		c0.64,0.87,0.97,2.22,0.99,4.04V284.48z M79.95,282.28c0-1.36-0.19-2.36-0.57-2.98s-0.99-0.93-1.82-0.93
		c-0.82,0-1.42,0.31-1.8,0.93c-0.38,0.62-0.57,1.57-0.58,2.86v2.57c0,1.37,0.2,2.38,0.6,3.03s1,0.98,1.8,0.98
		c0.79,0,1.38-0.31,1.77-0.92c0.39-0.61,0.59-1.58,0.6-2.9V282.28z"/>
	<path class="st2" d="M91.56,284.48c0,1.88-0.32,3.28-0.97,4.2s-1.65,1.37-3.02,1.37c-1.35,0-2.35-0.45-3-1.34
		c-0.65-0.9-0.99-2.23-1.01-4.01v-2.15c0-1.86,0.32-3.24,0.97-4.15s1.65-1.36,3.03-1.36c1.36,0,2.37,0.44,3.01,1.31
		c0.64,0.87,0.97,2.22,0.99,4.04V284.48z M89.95,282.28c0-1.36-0.19-2.36-0.57-2.98s-0.99-0.93-1.82-0.93
		c-0.82,0-1.42,0.31-1.8,0.93c-0.38,0.62-0.57,1.57-0.58,2.86v2.57c0,1.37,0.2,2.38,0.6,3.03s1,0.98,1.8,0.98
		c0.79,0,1.38-0.31,1.77-0.92c0.39-0.61,0.59-1.58,0.6-2.9V282.28z"/>
	<path class="st2" d="M101.56,284.48c0,1.88-0.32,3.28-0.97,4.2s-1.65,1.37-3.02,1.37c-1.35,0-2.35-0.45-3-1.34
		c-0.65-0.9-0.99-2.23-1.01-4.01v-2.15c0-1.86,0.32-3.24,0.97-4.15s1.65-1.36,3.03-1.36c1.36,0,2.37,0.44,3.01,1.31
		c0.64,0.87,0.97,2.22,0.99,4.04V284.48z M99.95,282.28c0-1.36-0.19-2.36-0.57-2.98s-0.99-0.93-1.82-0.93
		c-0.82,0-1.42,0.31-1.8,0.93c-0.38,0.62-0.57,1.57-0.58,2.86v2.57c0,1.37,0.2,2.38,0.6,3.03s1,0.98,1.8,0.98
		c0.79,0,1.38-0.31,1.77-0.92c0.39-0.61,0.59-1.58,0.6-2.9V282.28z"/>
	<path class="st2" d="M103.82,289.04c0-0.28,0.08-0.51,0.25-0.7s0.41-0.28,0.74-0.28c0.33,0,0.58,0.09,0.75,0.28s0.26,0.42,0.26,0.7
		c0,0.27-0.09,0.49-0.26,0.67s-0.42,0.27-0.75,0.27c-0.33,0-0.58-0.09-0.74-0.27S103.82,289.3,103.82,289.04z"/>
	<path class="st2" d="M116.25,284.48c0,1.88-0.32,3.28-0.97,4.2s-1.65,1.37-3.02,1.37c-1.35,0-2.35-0.45-3-1.34
		c-0.65-0.9-0.99-2.23-1.01-4.01v-2.15c0-1.86,0.32-3.24,0.97-4.15s1.65-1.36,3.03-1.36c1.36,0,2.37,0.44,3.01,1.31
		c0.64,0.87,0.97,2.22,0.99,4.04V284.48z M114.64,282.28c0-1.36-0.19-2.36-0.57-2.98s-0.99-0.93-1.82-0.93
		c-0.82,0-1.42,0.31-1.8,0.93c-0.38,0.62-0.57,1.57-0.58,2.86v2.57c0,1.37,0.2,2.38,0.6,3.03s1,0.98,1.8,0.98
		c0.79,0,1.38-0.31,1.77-0.92c0.39-0.61,0.59-1.58,0.6-2.9V282.28z"/>
	<path class="st2" d="M126.25,284.48c0,1.88-0.32,3.28-0.97,4.2s-1.65,1.37-3.02,1.37c-1.35,0-2.35-0.45-3-1.34
		c-0.65-0.9-0.99-2.23-1.01-4.01v-2.15c0-1.86,0.32-3.24,0.97-4.15s1.65-1.36,3.03-1.36c1.36,0,2.37,0.44,3.01,1.31
		c0.64,0.87,0.97,2.22,0.99,4.04V284.48z M124.64,282.28c0-1.36-0.19-2.36-0.57-2.98s-0.99-0.93-1.82-0.93
		c-0.82,0-1.42,0.31-1.8,0.93c-0.38,0.62-0.57,1.57-0.58,2.86v2.57c0,1.37,0.2,2.38,0.6,3.03s1,0.98,1.8,0.98
		c0.79,0,1.38-0.31,1.77-0.92c0.39-0.61,0.59-1.58,0.6-2.9V282.28z"/>
	<path class="st2" d="M136.25,284.48c0,1.88-0.32,3.28-0.97,4.2s-1.65,1.37-3.02,1.37c-1.35,0-2.35-0.45-3-1.34
		c-0.65-0.9-0.99-2.23-1.01-4.01v-2.15c0-1.86,0.32-3.24,0.97-4.15s1.65-1.36,3.03-1.36c1.36,0,2.37,0.44,3.01,1.31
		c0.64,0.87,0.97,2.22,0.99,4.04V284.48z M134.64,282.28c0-1.36-0.19-2.36-0.57-2.98s-0.99-0.93-1.82-0.93
		c-0.82,0-1.42,0.31-1.8,0.93c-0.38,0.62-0.57,1.57-0.58,2.86v2.57c0,1.37,0.2,2.38,0.6,3.03s1,0.98,1.8,0.98
		c0.79,0,1.38-0.31,1.77-0.92c0.39-0.61,0.59-1.58,0.6-2.9V282.28z"/>
	<path class="st2" d="M138.42,292.4l-0.91-0.63c0.54-0.76,0.83-1.54,0.85-2.35v-1.45h1.57v1.26c0,0.59-0.14,1.17-0.43,1.76
		C139.22,291.58,138.86,292.05,138.42,292.4z"/>
	<path class="st2" d="M149.74,284.48c0,1.88-0.32,3.28-0.97,4.2s-1.65,1.37-3.02,1.37c-1.35,0-2.35-0.45-3-1.34
		c-0.65-0.9-0.99-2.23-1.01-4.01v-2.15c0-1.86,0.32-3.24,0.97-4.15s1.65-1.36,3.03-1.36c1.36,0,2.37,0.44,3.01,1.31
		c0.64,0.87,0.97,2.22,0.99,4.04V284.48z M148.13,282.28c0-1.36-0.19-2.36-0.57-2.98s-0.99-0.93-1.82-0.93
		c-0.82,0-1.42,0.31-1.8,0.93c-0.38,0.62-0.57,1.57-0.58,2.86v2.57c0,1.37,0.2,2.38,0.6,3.03s1,0.98,1.8,0.98
		c0.79,0,1.38-0.31,1.77-0.92c0.39-0.61,0.59-1.58,0.6-2.9V282.28z"/>
	<path class="st2" d="M159.74,284.48c0,1.88-0.32,3.28-0.97,4.2s-1.65,1.37-3.02,1.37c-1.35,0-2.35-0.45-3-1.34
		c-0.65-0.9-0.99-2.23-1.01-4.01v-2.15c0-1.86,0.32-3.24,0.97-4.15s1.65-1.36,3.03-1.36c1.36,0,2.37,0.44,3.01,1.31
		c0.64,0.87,0.97,2.22,0.99,4.04V284.48z M158.13,282.28c0-1.36-0.19-2.36-0.57-2.98s-0.99-0.93-1.82-0.93
		c-0.82,0-1.42,0.31-1.8,0.93c-0.38,0.62-0.57,1.57-0.58,2.86v2.57c0,1.37,0.2,2.38,0.6,3.03s1,0.98,1.8,0.98
		c0.79,0,1.38-0.31,1.77-0.92c0.39-0.61,0.59-1.58,0.6-2.9V282.28z"/>
</g>
<g>
	<path class="st2" d="M45.73,327.63h1.76v1.31h-1.76v2.94h-1.62v-2.94h-5.77V328l5.67-8.77h1.71V327.63z M40.17,327.63h3.94v-6.21
		l-0.19,0.35L40.17,327.63z"/>
	<path class="st2" d="M56.88,326.48c0,1.88-0.32,3.28-0.97,4.2s-1.65,1.37-3.02,1.37c-1.35,0-2.35-0.45-3-1.34
		c-0.65-0.9-0.99-2.23-1.01-4.01v-2.15c0-1.86,0.32-3.24,0.97-4.15s1.65-1.36,3.03-1.36c1.36,0,2.37,0.44,3.01,1.31
		c0.64,0.87,0.97,2.22,0.99,4.04V326.48z M55.27,324.28c0-1.36-0.19-2.36-0.57-2.98s-0.99-0.93-1.82-0.93
		c-0.82,0-1.42,0.31-1.8,0.93c-0.38,0.62-0.57,1.57-0.58,2.86v2.57c0,1.37,0.2,2.38,0.6,3.03s1,0.98,1.8,0.98
		c0.79,0,1.38-0.31,1.77-0.92c0.39-0.61,0.59-1.58,0.6-2.9V324.28z"/>
	<path class="st2" d="M66.87,326.48c0,1.88-0.32,3.28-0.97,4.2s-1.65,1.37-3.02,1.37c-1.35,0-2.35-0.45-3-1.34
		c-0.65-0.9-0.99-2.23-1.01-4.01v-2.15c0-1.86,0.32-3.24,0.97-4.15s1.65-1.36,3.03-1.36c1.36,0,2.37,0.44,3.01,1.31
		c0.64,0.87,0.97,2.22,0.99,4.04V326.48z M65.27,324.28c0-1.36-0.19-2.36-0.57-2.98s-0.99-0.93-1.82-0.93
		c-0.82,0-1.42,0.31-1.8,0.93c-0.38,0.62-0.57,1.57-0.58,2.86v2.57c0,1.37,0.2,2.38,0.6,3.03s1,0.98,1.8,0.98
		c0.79,0,1.38-0.31,1.77-0.92c0.39-0.61,0.59-1.58,0.6-2.9V324.28z"/>
	<path class="st2" d="M69.14,331.04c0-0.28,0.08-0.51,0.25-0.7s0.41-0.28,0.74-0.28c0.33,0,0.58,0.09,0.75,0.28s0.26,0.42,0.26,0.7
		c0,0.27-0.09,0.49-0.26,0.67s-0.42,0.27-0.75,0.27c-0.33,0-0.58-0.09-0.74-0.27S69.14,331.3,69.14,331.04z"/>
	<path class="st2" d="M81.56,326.48c0,1.88-0.32,3.28-0.97,4.2s-1.65,1.37-3.02,1.37c-1.35,0-2.35-0.45-3-1.34
		c-0.65-0.9-0.99-2.23-1.01-4.01v-2.15c0-1.86,0.32-3.24,0.97-4.15s1.65-1.36,3.03-1.36c1.36,0,2.37,0.44,3.01,1.31
		c0.64,0.87,0.97,2.22,0.99,4.04V326.48z M79.95,324.28c0-1.36-0.19-2.36-0.57-2.98s-0.99-0.93-1.82-0.93
		c-0.82,0-1.42,0.31-1.8,0.93c-0.38,0.62-0.57,1.57-0.58,2.86v2.57c0,1.37,0.2,2.38,0.6,3.03s1,0.98,1.8,0.98
		c0.79,0,1.38-0.31,1.77-0.92c0.39-0.61,0.59-1.58,0.6-2.9V324.28z"/>
	<path class="st2" d="M91.56,326.48c0,1.88-0.32,3.28-0.97,4.2s-1.65,1.37-3.02,1.37c-1.35,0-2.35-0.45-3-1.34
		c-0.65-0.9-0.99-2.23-1.01-4.01v-2.15c0-1.86,0.32-3.24,0.97-4.15s1.65-1.36,3.03-1.36c1.36,0,2.37,0.44,3.01,1.31
		c0.64,0.87,0.97,2.22,0.99,4.04V326.48z M89.95,324.28c0-1.36-0.19-2.36-0.57-2.98s-0.99-0.93-1.82-0.93
		c-0.82,0-1.42,0.31-1.8,0.93c-0.38,0.62-0.57,1.57-0.58,2.86v2.57c0,1.37,0.2,2.38,0.6,3.03s1,0.98,1.8,0.98
		c0.79,0,1.38-0.31,1.77-0.92c0.39-0.61,0.59-1.58,0.6-2.9V324.28z"/>
	<path class="st2" d="M101.56,326.48c0,1.88-0.32,3.28-0.97,4.2s-1.65,1.37-3.02,1.37c-1.35,0-2.35-0.45-3-1.34
		c-0.65-0.9-0.99-2.23-1.01-4.01v-2.15c0-1.86,0.32-3.24,0.97-4.15s1.65-1.36,3.03-1.36c1.36,0,2.37,0.44,3.01,1.31
		c0.64,0.87,0.97,2.22,0.99,4.04V326.48z M99.95,324.28c0-1.36-0.19-2.36-0.57-2.98s-0.99-0.93-1.82-0.93
		c-0.82,0-1.42,0.31-1.8,0.93c-0.38,0.62-0.57,1.57-0.58,2.86v2.57c0,1.37,0.2,2.38,0.6,3.03s1,0.98,1.8,0.98
		c0.79,0,1.38-0.31,1.77-0.92c0.39-0.61,0.59-1.58,0.6-2.9V324.28z"/>
	<path class="st2" d="M103.82,331.04c0-0.28,0.08-0.51,0.25-0.7s0.41-0.28,0.74-0.28c0.33,0,0.58,0.09,0.75,0.28s0.26,0.42,0.26,0.7
		c0,0.27-0.09,0.49-0.26,0.67s-0.42,0.27-0.75,0.27c-0.33,0-0.58-0.09-0.74-0.27S103.82,331.3,103.82,331.04z"/>
	<path class="st2" d="M116.25,326.48c0,1.88-0.32,3.28-0.97,4.2s-1.65,1.37-3.02,1.37c-1.35,0-2.35-0.45-3-1.34
		c-0.65-0.9-0.99-2.23-1.01-4.01v-2.15c0-1.86,0.32-3.24,0.97-4.15s1.65-1.36,3.03-1.36c1.36,0,2.37,0.44,3.01,1.31
		c0.64,0.87,0.97,2.22,0.99,4.04V326.48z M114.64,324.28c0-1.36-0.19-2.36-0.57-2.98s-0.99-0.93-1.82-0.93
		c-0.82,0-1.42,0.31-1.8,0.93c-0.38,0.62-0.57,1.57-0.58,2.86v2.57c0,1.37,0.2,2.38,0.6,3.03s1,0.98,1.8,0.98
		c0.79,0,1.38-0.31,1.77-0.92c0.39-0.61,0.59-1.58,0.6-2.9V324.28z"/>
	<path class="st2" d="M126.25,326.48c0,1.88-0.32,3.28-0.97,4.2s-1.65,1.37-3.02,1.37c-1.35,0-2.35-0.45-3-1.34
		c-0.65-0.9-0.99-2.23-1.01-4.01v-2.15c0-1.86,0.32-3.24,0.97-4.15s1.65-1.36,3.03-1.36c1.36,0,2.37,0.44,3.01,1.31
		c0.64,0.87,0.97,2.22,0.99,4.04V326.48z M124.64,324.28c0-1.36-0.19-2.36-0.57-2.98s-0.99-0.93-1.82-0.93
		c-0.82,0-1.42,0.31-1.8,0.93c-0.38,0.62-0.57,1.57-0.58,2.86v2.57c0,1.37,0.2,2.38,0.6,3.03s1,0.98,1.8,0.98
		c0.79,0,1.38-0.31,1.77-0.92c0.39-0.61,0.59-1.58,0.6-2.9V324.28z"/>
	<path class="st2" d="M136.25,326.48c0,1.88-0.32,3.28-0.97,4.2s-1.65,1.37-3.02,1.37c-1.35,0-2.35-0.45-3-1.34
		c-0.65-0.9-0.99-2.23-1.01-4.01v-2.15c0-1.86,0.32-3.24,0.97-4.15s1.65-1.36,3.03-1.36c1.36,0,2.37,0.44,3.01,1.31
		c0.64,0.87,0.97,2.22,0.99,4.04V326.48z M134.64,324.28c0-1.36-0.19-2.36-0.57-2.98s-0.99-0.93-1.82-0.93
		c-0.82,0-1.42,0.31-1.8,0.93c-0.38,0.62-0.57,1.57-0.58,2.86v2.57c0,1.37,0.2,2.38,0.6,3.03s1,0.98,1.8,0.98
		c0.79,0,1.38-0.31,1.77-0.92c0.39-0.61,0.59-1.58,0.6-2.9V324.28z"/>
	<path class="st2" d="M138.42,334.4l-0.91-0.63c0.54-0.76,0.83-1.54,0.85-2.35v-1.45h1.57v1.26c0,0.59-0.14,1.17-0.43,1.76
		C139.22,333.58,138.86,334.05,138.42,334.4z"/>
	<path class="st2" d="M149.74,326.48c0,1.88-0.32,3.28-0.97,4.2s-1.65,1.37-3.02,1.37c-1.35,0-2.35-0.45-3-1.34
		c-0.65-0.9-0.99-2.23-1.01-4.01v-2.15c0-1.86,0.32-3.24,0.97-4.15s1.65-1.36,3.03-1.36c1.36,0,2.37,0.44,3.01,1.31
		c0.64,0.87,0.97,2.22,0.99,4.04V326.48z M148.13,324.28c0-1.36-0.19-2.36-0.57-2.98s-0.99-0.93-1.82-0.93
		c-0.82,0-1.42,0.31-1.8,0.93c-0.38,0.62-0.57,1.57-0.58,2.86v2.57c0,1.37,0.2,2.38,0.6,3.03s1,0.98,1.8,0.98
		c0.79,0,1.38-0.31,1.77-0.92c0.39-0.61,0.59-1.58,0.6-2.9V324.28z"/>
	<path class="st2" d="M159.74,326.48c0,1.88-0.32,3.28-0.97,4.2s-1.65,1.37-3.02,1.37c-1.35,0-2.35-0.45-3-1.34
		c-0.65-0.9-0.99-2.23-1.01-4.01v-2.15c0-1.86,0.32-3.24,0.97-4.15s1.65-1.36,3.03-1.36c1.36,0,2.37,0.44,3.01,1.31
		c0.64,0.87,0.97,2.22,0.99,4.04V326.48z M158.13,324.28c0-1.36-0.19-2.36-0.57-2.98s-0.99-0.93-1.82-0.93
		c-0.82,0-1.42,0.31-1.8,0.93c-0.38,0.62-0.57,1.57-0.58,2.86v2.57c0,1.37,0.2,2.38,0.6,3.03s1,0.98,1.8,0.98
		c0.79,0,1.38-0.31,1.77-0.92c0.39-0.61,0.59-1.58,0.6-2.9V324.28z"/>
</g>
<g>
	<path class="st2" d="M47.23,373.88h-8.3v-1.16l4.38-4.87c0.65-0.74,1.1-1.33,1.34-1.79c0.25-0.46,0.37-0.94,0.37-1.43
		c0-0.66-0.2-1.2-0.6-1.63s-0.93-0.63-1.6-0.63c-0.8,0-1.42,0.23-1.87,0.68s-0.67,1.09-0.67,1.9h-1.61c0-1.17,0.38-2.11,1.13-2.83
		c0.75-0.72,1.76-1.08,3.01-1.08c1.18,0,2.11,0.31,2.79,0.93c0.68,0.62,1.03,1.44,1.03,2.46c0,1.25-0.79,2.73-2.38,4.45l-3.39,3.68
		h6.36V373.88z"/>
	<path class="st2" d="M56.88,368.48c0,1.88-0.32,3.28-0.97,4.2s-1.65,1.37-3.02,1.37c-1.35,0-2.35-0.45-3-1.34
		c-0.65-0.9-0.99-2.23-1.01-4.01v-2.15c0-1.86,0.32-3.24,0.97-4.15s1.65-1.36,3.03-1.36c1.36,0,2.37,0.44,3.01,1.31
		c0.64,0.87,0.97,2.22,0.99,4.04V368.48z M55.27,366.28c0-1.36-0.19-2.36-0.57-2.98s-0.99-0.93-1.82-0.93
		c-0.82,0-1.42,0.31-1.8,0.93c-0.38,0.62-0.57,1.57-0.58,2.86v2.57c0,1.37,0.2,2.38,0.6,3.03s1,0.98,1.8,0.98
		c0.79,0,1.38-0.31,1.77-0.92c0.39-0.61,0.59-1.58,0.6-2.9V366.28z"/>
	<path class="st2" d="M66.87,368.48c0,1.88-0.32,3.28-0.97,4.2s-1.65,1.37-3.02,1.37c-1.35,0-2.35-0.45-3-1.34
		c-0.65-0.9-0.99-2.23-1.01-4.01v-2.15c0-1.86,0.32-3.24,0.97-4.15s1.65-1.36,3.03-1.36c1.36,0,2.37,0.44,3.01,1.31
		c0.64,0.87,0.97,2.22,0.99,4.04V368.48z M65.27,366.28c0-1.36-0.19-2.36-0.57-2.98s-0.99-0.93-1.82-0.93
		c-0.82,0-1.42,0.31-1.8,0.93c-0.38,0.62-0.57,1.57-0.58,2.86v2.57c0,1.37,0.2,2.38,0.6,3.03s1,0.98,1.8,0.98
		c0.79,0,1.38-0.31,1.77-0.92c0.39-0.61,0.59-1.58,0.6-2.9V366.28z"/>
	<path class="st2" d="M69.14,373.04c0-0.28,0.08-0.51,0.25-0.7s0.41-0.28,0.74-0.28c0.33,0,0.58,0.09,0.75,0.28s0.26,0.42,0.26,0.7
		c0,0.27-0.09,0.49-0.26,0.67s-0.42,0.27-0.75,0.27c-0.33,0-0.58-0.09-0.74-0.27S69.14,373.3,69.14,373.04z"/>
	<path class="st2" d="M81.56,368.48c0,1.88-0.32,3.28-0.97,4.2s-1.65,1.37-3.02,1.37c-1.35,0-2.35-0.45-3-1.34
		c-0.65-0.9-0.99-2.23-1.01-4.01v-2.15c0-1.86,0.32-3.24,0.97-4.15s1.65-1.36,3.03-1.36c1.36,0,2.37,0.44,3.01,1.31
		c0.64,0.87,0.97,2.22,0.99,4.04V368.48z M79.95,366.28c0-1.36-0.19-2.36-0.57-2.98s-0.99-0.93-1.82-0.93
		c-0.82,0-1.42,0.31-1.8,0.93c-0.38,0.62-0.57,1.57-0.58,2.86v2.57c0,1.37,0.2,2.38,0.6,3.03s1,0.98,1.8,0.98
		c0.79,0,1.38-0.31,1.77-0.92c0.39-0.61,0.59-1.58,0.6-2.9V366.28z"/>
	<path class="st2" d="M91.56,368.48c0,1.88-0.32,3.28-0.97,4.2s-1.65,1.37-3.02,1.37c-1.35,0-2.35-0.45-3-1.34
		c-0.65-0.9-0.99-2.23-1.01-4.01v-2.15c0-1.86,0.32-3.24,0.97-4.15s1.65-1.36,3.03-1.36c1.36,0,2.37,0.44,3.01,1.31
		c0.64,0.87,0.97,2.22,0.99,4.04V368.48z M89.95,366.28c0-1.36-0.19-2.36-0.57-2.98s-0.99-0.93-1.82-0.93
		c-0.82,0-1.42,0.31-1.8,0.93c-0.38,0.62-0.57,1.57-0.58,2.86v2.57c0,1.37,0.2,2.38,0.6,3.03s1,0.98,1.8,0.98
		c0.79,0,1.38-0.31,1.77-0.92c0.39-0.61,0.59-1.58,0.6-2.9V366.28z"/>
	<path class="st2" d="M101.56,368.48c0,1.88-0.32,3.28-0.97,4.2s-1.65,1.37-3.02,1.37c-1.35,0-2.35-0.45-3-1.34
		c-0.65-0.9-0.99-2.23-1.01-4.01v-2.15c0-1.86,0.32-3.24,0.97-4.15s1.65-1.36,3.03-1.36c1.36,0,2.37,0.44,3.01,1.31
		c0.64,0.87,0.97,2.22,0.99,4.04V368.48z M99.95,366.28c0-1.36-0.19-2.36-0.57-2.98s-0.99-0.93-1.82-0.93
		c-0.82,0-1.42,0.31-1.8,0.93c-0.38,0.62-0.57,1.57-0.58,2.86v2.57c0,1.37,0.2,2.38,0.6,3.03s1,0.98,1.8,0.98
		c0.79,0,1.38-0.31,1.77-0.92c0.39-0.61,0.59-1.58,0.6-2.9V366.28z"/>
	<path class="st2" d="M103.82,373.04c0-0.28,0.08-0.51,0.25-0.7s0.41-0.28,0.74-0.28c0.33,0,0.58,0.09,0.75,0.28s0.26,0.42,0.26,0.7
		c0,0.27-0.09,0.49-0.26,0.67s-0.42,0.27-0.75,0.27c-0.33,0-0.58-0.09-0.74-0.27S103.82,373.3,103.82,373.04z"/>
	<path class="st2" d="M116.25,368.48c0,1.88-0.32,3.28-0.97,4.2s-1.65,1.37-3.02,1.37c-1.35,0-2.35-0.45-3-1.34
		c-0.65-0.9-0.99-2.23-1.01-4.01v-2.15c0-1.86,0.32-3.24,0.97-4.15s1.65-1.36,3.03-1.36c1.36,0,2.37,0.44,3.01,1.31
		c0.64,0.87,0.97,2.22,0.99,4.04V368.48z M114.64,366.28c0-1.36-0.19-2.36-0.57-2.98s-0.99-0.93-1.82-0.93
		c-0.82,0-1.42,0.31-1.8,0.93c-0.38,0.62-0.57,1.57-0.58,2.86v2.57c0,1.37,0.2,2.38,0.6,3.03s1,0.98,1.8,0.98
		c0.79,0,1.38-0.31,1.77-0.92c0.39-0.61,0.59-1.58,0.6-2.9V366.28z"/>
	<path class="st2" d="M126.25,368.48c0,1.88-0.32,3.28-0.97,4.2s-1.65,1.37-3.02,1.37c-1.35,0-2.35-0.45-3-1.34
		c-0.65-0.9-0.99-2.23-1.01-4.01v-2.15c0-1.86,0.32-3.24,0.97-4.15s1.65-1.36,3.03-1.36c1.36,0,2.37,0.44,3.01,1.31
		c0.64,0.87,0.97,2.22,0.99,4.04V368.48z M124.64,366.28c0-1.36-0.19-2.36-0.57-2.98s-0.99-0.93-1.82-0.93
		c-0.82,0-1.42,0.31-1.8,0.93c-0.38,0.62-0.57,1.57-0.58,2.86v2.57c0,1.37,0.2,2.38,0.6,3.03s1,0.98,1.8,0.98
		c0.79,0,1.38-0.31,1.77-0.92c0.39-0.61,0.59-1.58,0.6-2.9V366.28z"/>
	<path class="st2" d="M136.25,368.48c0,1.88-0.32,3.28-0.97,4.2s-1.65,1.37-3.02,1.37c-1.35,0-2.35-0.45-3-1.34
		c-0.65-0.9-0.99-2.23-1.01-4.01v-2.15c0-1.86,0.32-3.24,0.97-4.15s1.65-1.36,3.03-1.36c1.36,0,2.37,0.44,3.01,1.31
		c0.64,0.87,0.97,2.22,0.99,4.04V368.48z M134.64,366.28c0-1.36-0.19-2.36-0.57-2.98s-0.99-0.93-1.82-0.93
		c-0.82,0-1.42,0.31-1.8,0.93c-0.38,0.62-0.57,1.57-0.58,2.86v2.57c0,1.37,0.2,2.38,0.6,3.03s1,0.98,1.8,0.98
		c0.79,0,1.38-0.31,1.77-0.92c0.39-0.61,0.59-1.58,0.6-2.9V366.28z"/>
	<path class="st2" d="M138.42,376.4l-0.91-0.63c0.54-0.76,0.83-1.54,0.85-2.35v-1.45h1.57v1.26c0,0.59-0.14,1.17-0.43,1.76
		C139.22,375.58,138.86,376.05,138.42,376.4z"/>
	<path class="st2" d="M149.74,368.48c0,1.88-0.32,3.28-0.97,4.2s-1.65,1.37-3.02,1.37c-1.35,0-2.35-0.45-3-1.34
		c-0.65-0.9-0.99-2.23-1.01-4.01v-2.15c0-1.86,0.32-3.24,0.97-4.15s1.65-1.36,3.03-1.36c1.36,0,2.37,0.44,3.01,1.31
		c0.64,0.87,0.97,2.22,0.99,4.04V368.48z M148.13,366.28c0-1.36-0.19-2.36-0.57-2.98s-0.99-0.93-1.82-0.93
		c-0.82,0-1.42,0.31-1.8,0.93c-0.38,0.62-0.57,1.57-0.58,2.86v2.57c0,1.37,0.2,2.38,0.6,3.03s1,0.98,1.8,0.98
		c0.79,0,1.38-0.31,1.77-0.92c0.39-0.61,0.59-1.58,0.6-2.9V366.28z"/>
	<path class="st2" d="M159.74,368.48c0,1.88-0.32,3.28-0.97,4.2s-1.65,1.37-3.02,1.37c-1.35,0-2.35-0.45-3-1.34
		c-0.65-0.9-0.99-2.23-1.01-4.01v-2.15c0-1.86,0.32-3.24,0.97-4.15s1.65-1.36,3.03-1.36c1.36,0,2.37,0.44,3.01,1.31
		c0.64,0.87,0.97,2.22,0.99,4.04V368.48z M158.13,366.28c0-1.36-0.19-2.36-0.57-2.98s-0.99-0.93-1.82-0.93
		c-0.82,0-1.42,0.31-1.8,0.93c-0.38,0.62-0.57,1.57-0.58,2.86v2.57c0,1.37,0.2,2.38,0.6,3.03s1,0.98,1.8,0.98
		c0.79,0,1.38-0.31,1.77-0.92c0.39-0.61,0.59-1.58,0.6-2.9V366.28z"/>
</g>
</svg>
