<?xml version="1.0" encoding="utf-8"?>
<!-- Generator: Adobe Illustrator 27.2.0, SVG Export Plug-In . SVG Version: 6.00 Build 0)  -->
<svg version="1.1" id="Camada_1" xmlns="http://www.w3.org/2000/svg" xmlns:xlink="http://www.w3.org/1999/xlink" x="0px" y="0px"
	 viewBox="0 0 720 221.91" style="enable-background:new 0 0 720 221.91;" xml:space="preserve">
<style type="text/css">
	.st0{opacity:0.5;fill:#484443;enable-background:new    ;}
	.st1{opacity:0.5;enable-background:new    ;}
	.st2{fill:#484443;}
	.st3{fill:#FA6701;}
</style>
<path class="st0" d="M299.58,112.21h30.9c2.89,0,5.58-1.14,7.57-3.2c1.99-2.06,3.04-4.79,2.94-7.68c-0.01-0.21-0.09-2.11-0.82-5.1
	l-0.01,0c-1.8-7.45-6.02-9.81-11.36-12.47c1.04-2.07,1.64-4.4,1.64-6.88c0-8.5-6.91-15.41-15.41-15.41
	c-8.5,0-15.41,6.91-15.41,15.41c0,2.47,0.6,4.8,1.64,6.88c-5.56,2.77-9.92,5.2-11.58,13.41c-0.56,2.74-0.63,3.88-0.64,4.17
	c-0.09,2.89,0.97,5.61,2.96,7.67C294,111.07,296.69,112.21,299.58,112.21L299.58,112.21z M315.12,67.58
	c5.13,0.05,9.27,4.27,9.22,9.4c-0.05,5.13-4.27,9.26-9.4,9.21s-9.26-4.27-9.21-9.4C305.78,71.66,309.99,67.53,315.12,67.58z
	 M295.66,98.39c1.14-5.6,3.42-6.73,8.94-9.47l0.5-0.26c2.68,2.27,6.14,3.64,9.92,3.64c3.78,0,7.24-1.37,9.92-3.64l0.5,0.26
	c5.53,2.74,7.81,3.88,8.95,9.47h0.01c0.43,1.96,0.48,3.15,0.48,3.15c0.04,1.22-0.39,2.37-1.23,3.23c-0.84,0.86-1.97,1.34-3.18,1.34
	h-30.9c-1.22,0-2.36-0.48-3.2-1.34c-0.84-0.87-1.28-2.01-1.24-3.2C295.14,101.56,295.19,100.68,295.66,98.39L295.66,98.39z"/>
<path class="st0" d="M371.18,112.21h30.9c2.89,0,5.58-1.14,7.57-3.2c1.99-2.06,3.04-4.79,2.94-7.68c-0.01-0.21-0.09-2.11-0.82-5.1
	l-0.01,0c-1.8-7.45-6.02-9.81-11.36-12.47c1.04-2.07,1.64-4.4,1.64-6.88c0-8.5-6.91-15.41-15.41-15.41
	c-8.5,0-15.41,6.91-15.41,15.41c0,2.47,0.6,4.8,1.64,6.88c-5.56,2.77-9.92,5.2-11.58,13.41c-0.56,2.74-0.63,3.88-0.64,4.17
	c-0.09,2.89,0.97,5.61,2.96,7.67C365.6,111.07,368.29,112.21,371.18,112.21L371.18,112.21z M386.72,67.58
	c5.13,0.05,9.27,4.27,9.22,9.4c-0.05,5.13-4.27,9.26-9.4,9.21s-9.26-4.27-9.21-9.4C377.37,71.66,381.59,67.53,386.72,67.58z
	 M367.26,98.39c1.14-5.6,3.42-6.73,8.94-9.47l0.5-0.26c2.68,2.27,6.14,3.64,9.92,3.64c3.78,0,7.24-1.37,9.92-3.64l0.5,0.26
	c5.53,2.74,7.81,3.88,8.95,9.47h0.01c0.43,1.96,0.48,3.15,0.48,3.15c0.04,1.22-0.39,2.37-1.23,3.23c-0.84,0.86-1.97,1.34-3.18,1.34
	h-30.9c-1.22,0-2.36-0.48-3.2-1.34c-0.84-0.87-1.28-2.01-1.24-3.2C366.74,101.56,366.79,100.68,367.26,98.39L367.26,98.39z"/>
<g class="st1">
	<path class="st2" d="M78.73,73.7h16.26c1.52,0,2.94-0.6,3.99-1.68c1.05-1.08,1.6-2.52,1.55-4.04c0-0.11-0.05-1.11-0.43-2.69
		l-0.01,0c-0.95-3.92-3.17-5.16-5.98-6.56c0.55-1.09,0.86-2.32,0.86-3.62c0-4.47-3.64-8.11-8.11-8.11c-4.47,0-8.11,3.64-8.11,8.11
		c0,1.3,0.31,2.53,0.86,3.62c-2.93,1.46-5.22,2.74-6.1,7.06c-0.29,1.44-0.33,2.04-0.33,2.19c-0.05,1.52,0.51,2.95,1.56,4.04
		C75.79,73.11,77.21,73.7,78.73,73.7L78.73,73.7z M86.91,50.21c2.7,0.03,4.88,2.25,4.85,4.95c-0.03,2.7-2.25,4.88-4.95,4.85
		c-2.7-0.03-4.88-2.25-4.85-4.95C81.99,52.36,84.21,50.19,86.91,50.21z M76.67,66.43c0.6-2.95,1.8-3.54,4.71-4.99l0.27-0.14
		c1.41,1.19,3.23,1.92,5.22,1.92c1.99,0,3.81-0.72,5.22-1.92l0.27,0.13c2.91,1.44,4.11,2.04,4.71,4.99h0
		c0.22,1.03,0.26,1.66,0.26,1.66c0.02,0.64-0.21,1.25-0.65,1.7c-0.44,0.45-1.03,0.7-1.68,0.7H78.73c-0.64,0-1.24-0.25-1.68-0.71
		c-0.44-0.46-0.67-1.06-0.66-1.68C76.39,68.1,76.42,67.64,76.67,66.43L76.67,66.43z"/>
	<path class="st2" d="M73.62,110.24c0.95,3.92,3.17,5.16,5.98,6.56c-0.55,1.09-0.86,2.32-0.86,3.62c0,4.47,3.64,8.11,8.11,8.11
		c4.47,0,8.11-3.64,8.11-8.11c0-1.3-0.31-2.53-0.86-3.62c2.93-1.46,5.22-2.74,6.1-7.06c0.29-1.44,0.33-2.04,0.33-2.19
		c0.05-1.52-0.51-2.95-1.56-4.04c-1.05-1.08-2.47-1.68-3.99-1.68H78.72c-1.52,0-2.94,0.6-3.99,1.68c-1.05,1.08-1.6,2.52-1.55,4.04
		C73.19,107.67,73.23,108.67,73.62,110.24L73.62,110.24z M86.85,125.32c-2.7,0-4.9-2.2-4.9-4.9c0-2.7,2.2-4.9,4.9-4.9
		c2.7,0,4.9,2.2,4.9,4.9C91.75,123.13,89.55,125.32,86.85,125.32z M77.04,105.75c0.44-0.45,1.03-0.7,1.67-0.7h16.26
		c0.64,0,1.24,0.25,1.68,0.71c0.44,0.45,0.67,1.06,0.66,1.68c0,0.01-0.03,0.47-0.27,1.67c-0.6,2.94-1.8,3.54-4.71,4.99l-0.27,0.14
		c-1.41-1.19-3.23-1.92-5.22-1.92c-1.99,0-3.81,0.72-5.22,1.92l-0.27-0.14c-2.91-1.44-4.11-2.04-4.71-4.99l0,0
		c-0.22-1.03-0.26-1.66-0.26-1.66C76.37,106.81,76.6,106.2,77.04,105.75L77.04,105.75z"/>
	<path class="st2" d="M71.11,75.18c-1.08-1.05-2.52-1.6-4.04-1.55c-0.11,0-1.11,0.05-2.69,0.43l0,0.01
		c-3.92,0.95-5.16,3.17-6.56,5.98c-1.09-0.55-2.32-0.86-3.62-0.86c-4.47,0-8.11,3.64-8.11,8.11c0,4.47,3.64,8.11,8.11,8.11
		c1.3,0,2.53-0.31,3.62-0.86c1.46,2.93,2.74,5.22,7.06,6.1c1.44,0.29,2.04,0.33,2.19,0.33c1.52,0.05,2.95-0.51,4.04-1.56
		c1.08-1.05,1.68-2.47,1.68-3.99V79.16C72.79,77.64,72.19,76.23,71.11,75.18L71.11,75.18z M49.3,87.29c0-2.7,2.2-4.9,4.9-4.9
		c2.7,0,4.9,2.2,4.9,4.9c0,2.7-2.2,4.9-4.9,4.9C51.5,92.19,49.3,90,49.3,87.29z M68.88,97.11c-0.46,0.44-1.06,0.67-1.68,0.66
		c-0.01,0-0.47-0.03-1.67-0.27c-2.94-0.6-3.54-1.8-4.98-4.71l-0.14-0.27c1.19-1.41,1.92-3.23,1.92-5.22c0-1.99-0.72-3.81-1.92-5.22
		l0.13-0.27c1.44-2.91,2.04-4.11,4.99-4.71v0c1.03-0.22,1.66-0.26,1.66-0.26c0.64-0.02,1.25,0.21,1.7,0.65
		c0.45,0.44,0.7,1.03,0.7,1.68v16.26C69.58,96.07,69.33,96.67,68.88,97.11L68.88,97.11z"/>
	<path class="st2" d="M109.34,100.54L109.34,100.54c3.92-0.95,5.16-3.18,6.56-5.98c1.09,0.55,2.32,0.86,3.62,0.86
		c4.47,0,8.11-3.64,8.11-8.11c0-4.47-3.64-8.11-8.11-8.11c-1.3,0-2.53,0.32-3.62,0.86c-1.46-2.93-2.74-5.22-7.06-6.1
		c-1.44-0.29-2.04-0.33-2.19-0.33c-1.52-0.05-2.95,0.51-4.04,1.56c-1.08,1.05-1.68,2.47-1.68,3.99v16.26c0,1.52,0.6,2.94,1.68,3.99
		c1.08,1.05,2.52,1.6,4.04,1.55C106.76,100.97,107.76,100.92,109.34,100.54L109.34,100.54z M124.42,87.3c0,2.7-2.2,4.9-4.9,4.9
		c-2.7,0-4.9-2.2-4.9-4.9c0-2.7,2.2-4.9,4.9-4.9C122.22,82.41,124.42,84.6,124.42,87.3L124.42,87.3z M104.84,97.11
		c-0.45-0.44-0.7-1.03-0.7-1.67V79.17c0-0.65,0.25-1.24,0.71-1.68c0.46-0.44,1.06-0.67,1.68-0.65c0,0,0.47,0.03,1.67,0.27
		c2.94,0.6,3.54,1.8,4.98,4.71l0.14,0.27c-1.19,1.41-1.92,3.23-1.92,5.22c0,1.99,0.72,3.81,1.92,5.22l-0.13,0.27
		c-1.44,2.91-2.04,4.11-4.99,4.71v0c-1.03,0.23-1.66,0.26-1.66,0.26C105.9,97.78,105.29,97.55,104.84,97.11L104.84,97.11z"/>
</g>
<g>
	<path d="M22.08,140.32l2.15,8.23l2.14-8.23h3v11.38h-2.3v-3.08l0.21-4.74L25,151.69h-1.56l-2.27-7.82l0.21,4.74v3.08h-2.3v-11.38
		H22.08z"/>
	<path d="M34.52,151.85c-1.14,0-2.02-0.34-2.66-1.02c-0.64-0.68-0.95-1.65-0.95-2.91v-0.67c0-1.33,0.29-2.36,0.88-3.09
		c0.58-0.72,1.42-1.09,2.51-1.09c1.06,0,1.86,0.34,2.4,1.02c0.54,0.68,0.81,1.68,0.82,3.02v1.08h-4.4c0.03,0.63,0.17,1.09,0.41,1.38
		c0.24,0.29,0.62,0.44,1.13,0.44c0.74,0,1.36-0.25,1.85-0.76l0.87,1.34c-0.27,0.38-0.66,0.68-1.18,0.91S35.12,151.85,34.52,151.85z
		 M33.12,146.66h2.21v-0.2c-0.01-0.5-0.09-0.89-0.25-1.15s-0.43-0.39-0.81-0.39c-0.39,0-0.67,0.14-0.84,0.41
		C33.26,145.61,33.16,146.05,33.12,146.66z"/>
	<path d="M40.84,143.24l0.06,0.78c0.49-0.62,1.15-0.94,1.96-0.94c0.84,0,1.44,0.38,1.79,1.14c0.48-0.76,1.17-1.14,2.07-1.14
		c1.48,0,2.24,1.02,2.27,3.07v5.54h-2.21v-5.4c0-0.49-0.07-0.84-0.2-1.05c-0.14-0.21-0.36-0.31-0.69-0.31
		c-0.41,0-0.72,0.25-0.92,0.76l0.02,0.27v5.73h-2.21v-5.38c0-0.48-0.07-0.83-0.2-1.05c-0.13-0.22-0.36-0.32-0.7-0.32
		c-0.38,0-0.68,0.21-0.91,0.62v6.14h-2.21v-8.45H40.84z"/>
	<path d="M57.22,147.74c0,1.37-0.22,2.4-0.66,3.08s-1.12,1.03-2.06,1.03c-0.73,0-1.32-0.33-1.77-0.99l-0.07,0.84h-2.04v-12h2.21
		v4.23c0.42-0.56,0.97-0.84,1.65-0.84c0.94,0,1.62,0.34,2.06,1.02s0.66,1.68,0.67,2.99V147.74z M55.01,147.18
		c0-0.89-0.09-1.49-0.26-1.79s-0.47-0.46-0.9-0.46c-0.46,0-0.8,0.21-1.02,0.63v3.85c0.2,0.4,0.54,0.59,1.03,0.59
		c0.42,0,0.71-0.14,0.88-0.41s0.25-0.81,0.26-1.61V147.18z"/>
	<path d="M62.72,145.37l-0.73-0.06c-0.6,0-1.01,0.27-1.23,0.8v5.59h-2.22v-8.45h2.09l0.06,0.91c0.35-0.71,0.83-1.07,1.45-1.07
		c0.25,0,0.45,0.03,0.61,0.1L62.72,145.37z"/>
	<path d="M63.31,147.19c0-1.28,0.3-2.29,0.91-3.02c0.6-0.73,1.44-1.09,2.51-1.09c1.08,0,1.92,0.36,2.52,1.09
		c0.6,0.73,0.91,1.74,0.91,3.03v0.54c0,1.29-0.3,2.29-0.9,3.02c-0.6,0.72-1.44,1.09-2.52,1.09c-1.08,0-1.93-0.36-2.53-1.09
		s-0.9-1.74-0.9-3.03V147.19z M65.53,147.75c0,1.51,0.4,2.27,1.21,2.27c0.74,0,1.15-0.63,1.2-1.89l0.01-0.93
		c0-0.77-0.11-1.34-0.32-1.71c-0.21-0.37-0.52-0.56-0.91-0.56c-0.38,0-0.67,0.19-0.88,0.56s-0.32,0.94-0.32,1.71V147.75z"/>
	<path d="M75.27,149.43c0-0.19-0.09-0.36-0.27-0.52s-0.58-0.37-1.2-0.64c-0.91-0.37-1.54-0.75-1.88-1.15
		c-0.34-0.4-0.51-0.89-0.51-1.48c0-0.74,0.27-1.35,0.8-1.83c0.53-0.48,1.24-0.72,2.12-0.72c0.93,0,1.67,0.24,2.23,0.72
		c0.56,0.48,0.84,1.12,0.84,1.93h-2.21c0-0.69-0.29-1.03-0.86-1.03c-0.23,0-0.43,0.07-0.58,0.22c-0.15,0.15-0.23,0.35-0.23,0.61
		c0,0.19,0.08,0.35,0.25,0.5c0.17,0.14,0.56,0.35,1.18,0.61c0.9,0.33,1.54,0.7,1.91,1.11c0.37,0.41,0.56,0.94,0.56,1.59
		c0,0.75-0.28,1.36-0.85,1.82c-0.57,0.46-1.31,0.69-2.23,0.69c-0.62,0-1.17-0.12-1.64-0.36c-0.47-0.24-0.85-0.58-1.11-1.01
		c-0.27-0.43-0.4-0.9-0.4-1.4h2.1c0.01,0.39,0.1,0.67,0.27,0.87c0.17,0.19,0.45,0.29,0.83,0.29
		C74.98,150.23,75.27,149.96,75.27,149.43z"/>
	<path d="M82.19,147.21c0-1.39,0.23-2.42,0.7-3.1s1.15-1.02,2.05-1.02c0.65,0,1.19,0.28,1.62,0.84v-4.23h2.23v12h-2.01l-0.1-0.86
		c-0.45,0.68-1.04,1.02-1.75,1.02c-0.89,0-1.56-0.34-2.03-1.02c-0.47-0.68-0.7-1.67-0.71-2.98V147.21z M84.41,147.76
		c0,0.83,0.09,1.42,0.27,1.75c0.18,0.33,0.48,0.5,0.9,0.5c0.44,0,0.77-0.2,0.99-0.59v-3.86c-0.22-0.42-0.55-0.62-0.98-0.62
		c-0.41,0-0.7,0.16-0.89,0.49s-0.28,0.91-0.28,1.75V147.76z"/>
	<path d="M90.16,147.19c0-1.28,0.3-2.29,0.91-3.02c0.6-0.73,1.44-1.09,2.51-1.09c1.08,0,1.92,0.36,2.52,1.09
		c0.6,0.73,0.91,1.74,0.91,3.03v0.54c0,1.29-0.3,2.29-0.9,3.02c-0.6,0.72-1.44,1.09-2.52,1.09c-1.08,0-1.93-0.36-2.53-1.09
		s-0.9-1.74-0.9-3.03V147.19z M92.38,147.75c0,1.51,0.4,2.27,1.21,2.27c0.74,0,1.15-0.63,1.2-1.89l0.01-0.93
		c0-0.77-0.11-1.34-0.32-1.71c-0.21-0.37-0.52-0.56-0.91-0.56c-0.38,0-0.67,0.19-0.88,0.56s-0.32,0.94-0.32,1.71V147.75z"/>
	<path d="M108.04,147.05h-3.57v4.64h-2.3v-11.38h6.3v1.91h-4v2.91h3.57V147.05z"/>
	<path d="M112.08,147.69v4h-2.3v-11.38h3.88c1.12,0,2.02,0.35,2.69,1.05c0.67,0.7,1,1.6,1,2.72s-0.33,2-0.99,2.64
		c-0.66,0.65-1.58,0.97-2.75,0.97H112.08z M112.08,145.78h1.58c0.44,0,0.78-0.14,1.02-0.43c0.24-0.29,0.36-0.7,0.36-1.25
		c0-0.57-0.12-1.02-0.37-1.36c-0.25-0.34-0.57-0.51-0.98-0.51h-1.6V145.78z"/>
	<path d="M126.59,147.9c-0.06,1.3-0.42,2.28-1.09,2.95s-1.62,1-2.84,1c-1.29,0-2.27-0.42-2.96-1.27c-0.69-0.85-1.03-2.05-1.03-3.62
		v-1.91c0-1.56,0.35-2.77,1.06-3.61c0.71-0.85,1.69-1.27,2.95-1.27c1.24,0,2.18,0.35,2.82,1.04c0.64,0.69,1.01,1.69,1.1,2.98h-2.3
		c-0.02-0.8-0.14-1.36-0.37-1.66s-0.64-0.46-1.25-0.46c-0.61,0-1.05,0.21-1.3,0.64c-0.26,0.43-0.39,1.14-0.41,2.12v2.15
		c0,1.13,0.13,1.91,0.38,2.33c0.25,0.42,0.69,0.63,1.3,0.63c0.6,0,1.02-0.15,1.25-0.44c0.23-0.29,0.36-0.83,0.39-1.6H126.59z"/>
	<path d="M127.64,147.19c0-1.28,0.3-2.29,0.91-3.02c0.6-0.73,1.44-1.09,2.51-1.09c1.08,0,1.92,0.36,2.52,1.09
		c0.6,0.73,0.91,1.74,0.91,3.03v0.54c0,1.29-0.3,2.29-0.9,3.02c-0.6,0.72-1.44,1.09-2.52,1.09c-1.08,0-1.93-0.36-2.53-1.09
		s-0.9-1.74-0.9-3.03V147.19z M129.86,147.75c0,1.51,0.4,2.27,1.21,2.27c0.74,0,1.15-0.63,1.2-1.89l0.01-0.93
		c0-0.77-0.11-1.34-0.32-1.71c-0.21-0.37-0.52-0.56-0.91-0.56c-0.38,0-0.67,0.19-0.88,0.56s-0.32,0.94-0.32,1.71V147.75z"/>
	<path d="M137.88,143.24l0.06,0.84c0.5-0.66,1.15-0.99,1.96-0.99c1.45,0,2.2,1.02,2.24,3.05v5.55h-2.22v-5.39
		c0-0.48-0.07-0.83-0.21-1.04c-0.14-0.22-0.39-0.32-0.75-0.32c-0.4,0-0.71,0.21-0.94,0.62v6.14h-2.22v-8.45H137.88z"/>
	<path d="M143.44,147.21c0-1.39,0.23-2.42,0.7-3.1s1.15-1.02,2.05-1.02c0.65,0,1.19,0.28,1.62,0.84v-4.23h2.23v12h-2.01l-0.1-0.86
		c-0.45,0.68-1.04,1.02-1.75,1.02c-0.89,0-1.56-0.34-2.03-1.02c-0.47-0.68-0.7-1.67-0.71-2.98V147.21z M145.66,147.76
		c0,0.83,0.09,1.42,0.27,1.75c0.18,0.33,0.48,0.5,0.9,0.5c0.44,0,0.77-0.2,0.99-0.59v-3.86c-0.22-0.42-0.55-0.62-0.98-0.62
		c-0.41,0-0.7,0.16-0.89,0.49s-0.28,0.91-0.28,1.75V147.76z"/>
	<path d="M151.66,141.05c0-0.34,0.11-0.62,0.33-0.84s0.51-0.33,0.88-0.33c0.36,0,0.66,0.11,0.88,0.33s0.33,0.5,0.33,0.84
		c0,0.34-0.11,0.62-0.32,0.84c-0.22,0.22-0.51,0.34-0.88,0.34c-0.37,0-0.66-0.11-0.88-0.34
		C151.77,141.67,151.66,141.39,151.66,141.05z M153.98,151.69h-2.22v-8.45h2.22V151.69z"/>
	<path d="M159.44,149.43c0-0.19-0.09-0.36-0.27-0.52s-0.58-0.37-1.2-0.64c-0.91-0.37-1.54-0.75-1.88-1.15
		c-0.34-0.4-0.51-0.89-0.51-1.48c0-0.74,0.27-1.35,0.8-1.83c0.53-0.48,1.24-0.72,2.12-0.72c0.93,0,1.67,0.24,2.23,0.72
		c0.56,0.48,0.84,1.12,0.84,1.93h-2.21c0-0.69-0.29-1.03-0.86-1.03c-0.23,0-0.43,0.07-0.58,0.22c-0.15,0.15-0.23,0.35-0.23,0.61
		c0,0.19,0.08,0.35,0.25,0.5c0.17,0.14,0.56,0.35,1.18,0.61c0.9,0.33,1.54,0.7,1.91,1.11c0.37,0.41,0.56,0.94,0.56,1.59
		c0,0.75-0.28,1.36-0.85,1.82c-0.57,0.46-1.31,0.69-2.23,0.69c-0.62,0-1.17-0.12-1.64-0.36c-0.47-0.24-0.85-0.58-1.11-1.01
		c-0.27-0.43-0.4-0.9-0.4-1.4h2.1c0.01,0.39,0.1,0.67,0.27,0.87c0.17,0.19,0.45,0.29,0.83,0.29
		C159.14,150.23,159.44,149.96,159.44,149.43z"/>
	<path d="M162.96,141.05c0-0.34,0.11-0.62,0.33-0.84s0.51-0.33,0.88-0.33c0.36,0,0.66,0.11,0.88,0.33s0.33,0.5,0.33,0.84
		c0,0.34-0.11,0.62-0.32,0.84c-0.22,0.22-0.51,0.34-0.88,0.34c-0.37,0-0.66-0.11-0.88-0.34
		C163.07,141.67,162.96,141.39,162.96,141.05z M165.28,151.69h-2.22v-8.45h2.22V151.69z"/>
</g>
<g>
	<path d="M181.29,84.43c1.06,0,2.06,0.31,3.02,0.93c0.96,0.62,1.44,1.38,1.44,2.29s-0.39,1.79-1.17,2.63
		c-0.78,0.85-1.81,1.36-3.11,1.54c-0.56,0.08-1.4,0.12-2.51,0.12c0.22,1.69,0.65,2.81,1.29,3.35c0.2,0.22,0.47,0.33,0.81,0.33
		c1.24,0,2.27-0.39,3.11-1.18c0.84-0.79,1.44-1.18,1.79-1.18c0.16,0,0.4,0.15,0.72,0.45c0.32,0.3,0.48,0.58,0.48,0.84
		c0,0.52-0.63,1.27-1.88,2.24c-0.56,0.46-1.23,0.84-2.02,1.15c-0.79,0.31-1.52,0.46-2.2,0.46c-1.73,0-3.01-1.12-3.83-3.35
		c-0.52-1.38-0.78-2.89-0.78-4.55s0.39-3.08,1.17-4.28C178.39,85.03,179.61,84.43,181.29,84.43z M181.44,86.49
		c-0.76,0-1.41,0.43-1.94,1.29c-0.2,0.3-0.39,0.98-0.57,2.03c2.79,0,4.19-0.69,4.19-2.06C183.11,86.91,182.55,86.49,181.44,86.49z"
		/>
	<path d="M188.81,78.91c0.05-0.75,0.17-1.24,0.36-1.47c0.19-0.23,0.49-0.34,0.91-0.34c0.86,0,1.29,0.35,1.29,1.05
		c0,0.54-0.04,1.94-0.13,4.22c-0.09,2.27-0.13,4.31-0.13,6.1c0,1.79,0.07,3.24,0.21,4.34c0.24,1.91,0.58,2.87,1.02,2.87
		c0.44,0,0.77-0.31,0.99-0.93c0.1-0.24,0.26-0.45,0.48-0.64c0.22-0.19,0.5-0.28,0.84-0.28c0.7,0,1.05,0.59,1.05,1.76
		c0,0.64-0.34,1.27-1.03,1.9c-0.69,0.63-1.37,0.94-2.05,0.94s-1.22-0.12-1.63-0.34c-0.41-0.23-0.74-0.57-0.99-1.03
		c-0.25-0.46-0.45-0.9-0.6-1.33s-0.25-0.95-0.31-1.57c-0.12-1-0.2-2.6-0.25-4.8s-0.07-4.31-0.07-6.31S188.76,79.66,188.81,78.91z"/>
	<path d="M201.14,84.43c1.06,0,2.06,0.31,3.02,0.93c0.96,0.62,1.44,1.38,1.44,2.29s-0.39,1.79-1.17,2.63
		c-0.78,0.85-1.81,1.36-3.11,1.54c-0.56,0.08-1.4,0.12-2.51,0.12c0.22,1.69,0.65,2.81,1.29,3.35c0.2,0.22,0.47,0.33,0.81,0.33
		c1.24,0,2.27-0.39,3.11-1.18c0.84-0.79,1.44-1.18,1.79-1.18c0.16,0,0.4,0.15,0.72,0.45c0.32,0.3,0.48,0.58,0.48,0.84
		c0,0.52-0.63,1.27-1.88,2.24c-0.56,0.46-1.23,0.84-2.02,1.15c-0.79,0.31-1.52,0.46-2.2,0.46c-1.73,0-3.01-1.12-3.83-3.35
		c-0.52-1.38-0.78-2.89-0.78-4.55s0.39-3.08,1.17-4.28C198.24,85.03,199.47,84.43,201.14,84.43z M201.29,86.49
		c-0.76,0-1.41,0.43-1.94,1.29c-0.2,0.3-0.39,0.98-0.57,2.03c2.79,0,4.19-0.69,4.19-2.06C202.97,86.91,202.41,86.49,201.29,86.49z"
		/>
	<path d="M217.32,97.05c-0.72,0.84-1.63,1.26-2.72,1.26c-1.1,0-2.04-0.34-2.84-1.02c-1.67-1.29-2.51-3.28-2.51-5.95
		c0-2.09,0.58-3.77,1.73-5.04c1.16-1.27,2.58-1.9,4.28-1.9c1.69,0,2.85,0.58,3.47,1.74c0.54,1.02,0.81,2.55,0.81,4.61l-0.06,2.45
		c0,1.16,0.05,2.76,0.16,4.8c0.11,2.04,0.16,3.58,0.16,4.62c0,1.71-0.42,2.98-1.27,3.78c-0.85,0.81-2.14,1.21-3.87,1.21
		c-1.04,0-2.09-0.22-3.17-0.66s-1.61-0.95-1.61-1.53c0-0.42,0.11-0.74,0.34-0.96c0.23-0.22,0.49-0.33,0.79-0.33
		c0.3,0,0.97,0.22,2.02,0.66c1.05,0.44,1.8,0.66,2.26,0.66c1.44,0,2.15-1.18,2.15-3.53S217.4,97.95,217.32,97.05z M217.29,90.72
		c0-1.45-0.21-2.46-0.64-3.05c-0.43-0.59-1.1-0.88-2.02-0.88s-1.65,0.42-2.21,1.26c-0.56,0.84-0.84,1.9-0.84,3.18
		s0.26,2.31,0.79,3.07c0.53,0.76,1.34,1.14,2.44,1.14c1.1,0,1.8-0.47,2.12-1.41C217.17,93.27,217.29,92.17,217.29,90.72z"/>
	<path d="M226.35,84.43c1.06,0,2.06,0.31,3.02,0.93c0.96,0.62,1.44,1.38,1.44,2.29s-0.39,1.79-1.17,2.63
		c-0.78,0.85-1.81,1.36-3.11,1.54c-0.56,0.08-1.4,0.12-2.51,0.12c0.22,1.69,0.65,2.81,1.29,3.35c0.2,0.22,0.47,0.33,0.81,0.33
		c1.24,0,2.27-0.39,3.11-1.18c0.84-0.79,1.44-1.18,1.79-1.18c0.16,0,0.4,0.15,0.72,0.45c0.32,0.3,0.48,0.58,0.48,0.84
		c0,0.52-0.63,1.27-1.88,2.24c-0.56,0.46-1.23,0.84-2.02,1.15c-0.79,0.31-1.52,0.46-2.2,0.46c-1.73,0-3.01-1.12-3.83-3.35
		c-0.52-1.38-0.78-2.89-0.78-4.55s0.39-3.08,1.17-4.28C223.45,85.03,224.68,84.43,226.35,84.43z M226.5,86.49
		c-0.76,0-1.41,0.43-1.94,1.29c-0.2,0.3-0.39,0.98-0.57,2.03c2.79,0,4.19-0.69,4.19-2.06C228.18,86.91,227.62,86.49,226.5,86.49z"/>
	<path d="M235.66,98.31c-0.52,0-0.83-0.29-0.93-0.87c0-4.03-0.24-7.62-0.72-10.77c0-0.4,0.14-0.76,0.43-1.08
		c0.29-0.32,0.62-0.48,0.99-0.48c0.37,0,0.64,0.21,0.82,0.63c0.74-0.98,1.72-1.47,2.96-1.47c1.57,0,2.79,0.76,3.65,2.27
		c1-1.44,2.32-2.15,3.96-2.15c1.64,0,2.88,0.66,3.69,1.97c0.54,0.82,0.92,1.89,1.14,3.23c0.22,1.34,0.33,3.23,0.33,5.68
		c0,0.96-0.1,1.7-0.3,2.23c-0.2,0.53-0.62,0.79-1.26,0.79c-0.52,0-0.78-0.33-0.78-0.99l0.09-3.74c0-4.49-1.17-6.73-3.5-6.73
		c-0.74,0-1.26,0.26-1.56,0.78c-0.34,0.62-0.54,1.27-0.6,1.94c-0.08,1.2-0.12,2.28-0.12,3.26v4.34c0,0.32-0.16,0.59-0.48,0.81
		c-0.32,0.22-0.65,0.33-0.99,0.33c-0.44,0-0.72-0.29-0.84-0.87l0.09-6.19c0-2.19-0.37-3.56-1.11-4.1c-0.36-0.26-0.9-0.39-1.63-0.39
		c-0.73,0-1.27,0.27-1.61,0.81c-0.35,0.54-0.52,1.41-0.52,2.6l0.18,5.56C237.06,97.45,236.59,98.31,235.66,98.31z"/>
</g>
<g>
	<path d="M464.75,102.02c-0.68,0-1.31-0.23-1.88-0.69l-0.39-0.33v8.97c-0.12,0.4-0.33,0.73-0.63,1c-0.3,0.27-0.62,0.4-0.96,0.4
		c-0.52,0-0.78-0.35-0.78-1.05V89.49c0.12-0.52,0.26-0.89,0.43-1.11c0.17-0.22,0.44-0.33,0.81-0.33c0.37,0,0.61,0.08,0.72,0.25
		c0.11,0.17,0.24,0.63,0.4,1.39c0.08-0.4,0.4-0.77,0.96-1.11c0.56-0.34,1.31-0.51,2.24-0.51c2.03,0,3.48,0.74,4.34,2.21
		s1.29,3.21,1.29,5.22c0,2-0.58,3.59-1.75,4.75C468.38,101.43,466.79,102.02,464.75,102.02z M462.48,93.04v5.56
		c0.12,0.06,0.26,0.16,0.42,0.3c0.58,0.52,1.21,0.78,1.88,0.78c2.75,0,4.13-1.42,4.13-4.25c0-2.41-0.62-3.94-1.85-4.58
		c-0.52-0.28-1.16-0.42-1.91-0.42c-0.74,0.1-1.37,0.42-1.88,0.97C462.74,91.96,462.48,92.51,462.48,93.04z"/>
	<path d="M481.17,88.08c0.88,0,1.32,0.75,1.32,2.24c0,0.16,0,0.33,0,0.51l-0.06,2.09c-0.02,0.66-0.03,1.31-0.03,1.94l0.45,6.76
		c0,0.5-0.51,0.75-1.53,0.75c-0.06,0-0.2,0-0.43,0s-0.39-0.09-0.48-0.27c-0.09-0.18-0.1-0.4-0.03-0.66
		c0.07-0.26,0.04-0.55-0.08-0.87c-0.92,0.98-2.13,1.47-3.65,1.47c-2.81,0-4.22-2.17-4.22-6.52c0-2.41,0.45-4.24,1.36-5.47
		s2.21-1.85,3.9-1.85c0.8,0,1.59,0.14,2.39,0.42C480.35,88.26,480.71,88.08,481.17,88.08z M478.06,90.8c-1.14,0-1.98,0.33-2.54,0.99
		c-0.56,0.66-0.84,1.86-0.84,3.62c0,2.95,0.8,4.43,2.39,4.43c0.42,0,0.88-0.19,1.39-0.57c0.51-0.38,0.86-0.81,1.06-1.29
		c0.38-1.08,0.57-2.25,0.57-3.53c0-1.28-0.16-2.2-0.46-2.78C479.32,91.09,478.8,90.8,478.06,90.8z"/>
	<path d="M488.41,97.68l0.03,3.08c0,0.36-0.17,0.69-0.49,0.99s-0.65,0.45-0.97,0.45c-0.46,0-0.75-0.36-0.87-1.08
		c-0.02-0.16-0.1-1.62-0.24-4.38c-0.14-2.76-0.41-4.93-0.81-6.5c-0.18-0.76-0.27-1.21-0.27-1.35c0-0.66,0.4-0.99,1.2-0.99
		c0.34,0,0.61,0.13,0.81,0.39c0.2,0.26,0.32,0.52,0.37,0.79c0.05,0.27,0.09,0.63,0.13,1.09c0.04,0.46,0.07,0.75,0.09,0.87
		c0.42-1,1.05-1.74,1.88-2.24c0.84-0.5,1.75-0.75,2.75-0.75c1.63,0,2.45,0.42,2.45,1.26c0,0.42-0.15,0.75-0.43,1
		c-0.29,0.25-0.62,0.37-1,0.37c-1.7,0-2.89,0.54-3.59,1.62C488.76,93.37,488.41,95.17,488.41,97.68z"/>
	<path d="M504.41,88.08c0.88,0,1.32,0.75,1.32,2.24c0,0.16,0,0.33,0,0.51l-0.06,2.09c-0.02,0.66-0.03,1.31-0.03,1.94l0.45,6.76
		c0,0.5-0.51,0.75-1.53,0.75c-0.06,0-0.21,0-0.43,0c-0.23,0-0.39-0.09-0.48-0.27c-0.09-0.18-0.1-0.4-0.03-0.66
		c0.07-0.26,0.04-0.55-0.08-0.87c-0.92,0.98-2.13,1.47-3.65,1.47c-2.81,0-4.22-2.17-4.22-6.52c0-2.41,0.45-4.24,1.36-5.47
		c0.91-1.24,2.21-1.85,3.9-1.85c0.8,0,1.59,0.14,2.39,0.42C503.59,88.26,503.95,88.08,504.41,88.08z M501.3,90.8
		c-1.14,0-1.98,0.33-2.54,0.99c-0.56,0.66-0.84,1.86-0.84,3.62c0,2.95,0.8,4.43,2.39,4.43c0.42,0,0.88-0.19,1.39-0.57
		s0.86-0.81,1.06-1.29c0.38-1.08,0.57-2.25,0.57-3.53c0-1.28-0.15-2.2-0.46-2.78C502.56,91.09,502.03,90.8,501.3,90.8z"/>
</g>
<g>
	<path d="M302.09,150.8c-0.06,1.3-0.42,2.28-1.09,2.95s-1.62,1-2.84,1c-1.29,0-2.27-0.42-2.96-1.27c-0.69-0.85-1.03-2.05-1.03-3.62
		v-1.91c0-1.56,0.35-2.77,1.06-3.61c0.71-0.85,1.69-1.27,2.95-1.27c1.24,0,2.18,0.35,2.82,1.04c0.64,0.69,1.01,1.69,1.1,2.98h-2.3
		c-0.02-0.8-0.14-1.36-0.37-1.66s-0.64-0.46-1.25-0.46c-0.61,0-1.05,0.21-1.3,0.64c-0.26,0.43-0.39,1.14-0.41,2.12v2.15
		c0,1.13,0.13,1.91,0.38,2.33c0.25,0.42,0.69,0.63,1.3,0.63c0.6,0,1.02-0.15,1.25-0.44c0.23-0.29,0.36-0.83,0.39-1.6H302.09z"/>
	<path d="M303.14,150.09c0-1.28,0.3-2.29,0.91-3.02c0.6-0.73,1.44-1.09,2.51-1.09c1.08,0,1.92,0.36,2.52,1.09
		c0.6,0.73,0.91,1.74,0.91,3.03v0.54c0,1.29-0.3,2.29-0.9,3.02c-0.6,0.72-1.44,1.09-2.52,1.09c-1.08,0-1.93-0.36-2.53-1.09
		s-0.9-1.74-0.9-3.03V150.09z M305.35,150.65c0,1.51,0.4,2.27,1.21,2.27c0.74,0,1.15-0.63,1.2-1.89l0.01-0.93
		c0-0.77-0.11-1.34-0.32-1.71c-0.21-0.37-0.52-0.56-0.91-0.56c-0.38,0-0.67,0.19-0.88,0.56s-0.32,0.94-0.32,1.71V150.65z"/>
	<path d="M311.1,150.09c0-1.28,0.3-2.29,0.91-3.02c0.6-0.73,1.44-1.09,2.51-1.09c1.08,0,1.92,0.36,2.52,1.09
		c0.6,0.73,0.91,1.74,0.91,3.03v0.54c0,1.29-0.3,2.29-0.9,3.02c-0.6,0.72-1.44,1.09-2.52,1.09c-1.08,0-1.93-0.36-2.53-1.09
		s-0.9-1.74-0.9-3.03V150.09z M313.32,150.65c0,1.51,0.4,2.27,1.21,2.27c0.74,0,1.15-0.63,1.2-1.89l0.01-0.93
		c0-0.77-0.11-1.34-0.32-1.71c-0.21-0.37-0.52-0.56-0.91-0.56c-0.38,0-0.67,0.19-0.88,0.56s-0.32,0.94-0.32,1.71V150.65z"/>
	<path d="M323.49,148.27l-0.73-0.06c-0.6,0-1.01,0.27-1.23,0.8v5.59h-2.22v-8.45h2.09l0.06,0.91c0.35-0.71,0.83-1.07,1.45-1.07
		c0.25,0,0.45,0.03,0.61,0.1L323.49,148.27z"/>
	<path d="M324.18,150.11c0-1.39,0.23-2.42,0.7-3.1s1.15-1.02,2.05-1.02c0.65,0,1.19,0.28,1.62,0.84v-4.23h2.23v12h-2.01l-0.1-0.86
		c-0.45,0.68-1.04,1.02-1.75,1.02c-0.89,0-1.56-0.34-2.03-1.02c-0.47-0.68-0.7-1.67-0.71-2.98V150.11z M326.39,150.66
		c0,0.83,0.09,1.42,0.27,1.75c0.18,0.33,0.48,0.5,0.9,0.5c0.44,0,0.77-0.2,0.99-0.59v-3.86c-0.22-0.42-0.55-0.62-0.98-0.62
		c-0.41,0-0.7,0.16-0.89,0.49s-0.28,0.91-0.28,1.75V150.66z"/>
	<path d="M335.82,154.75c-1.14,0-2.02-0.34-2.66-1.02c-0.64-0.68-0.95-1.65-0.95-2.91v-0.67c0-1.33,0.29-2.36,0.88-3.09
		c0.58-0.72,1.42-1.09,2.51-1.09c1.06,0,1.86,0.34,2.4,1.02c0.54,0.68,0.81,1.68,0.82,3.02v1.08h-4.4c0.03,0.63,0.17,1.09,0.41,1.38
		c0.24,0.29,0.62,0.44,1.13,0.44c0.74,0,1.36-0.25,1.85-0.76l0.87,1.34c-0.27,0.38-0.66,0.68-1.18,0.91S336.42,154.75,335.82,154.75
		z M334.43,149.56h2.21v-0.2c-0.01-0.5-0.09-0.89-0.25-1.15s-0.43-0.39-0.81-0.39c-0.39,0-0.67,0.14-0.84,0.41
		C334.56,148.51,334.46,148.95,334.43,149.56z"/>
	<path d="M342.08,146.14l0.06,0.84c0.5-0.66,1.15-0.99,1.96-0.99c1.45,0,2.2,1.02,2.24,3.05v5.55h-2.22v-5.39
		c0-0.48-0.07-0.83-0.21-1.04c-0.14-0.22-0.39-0.32-0.75-0.32c-0.4,0-0.71,0.21-0.94,0.62v6.14H340v-8.45H342.08z"/>
	<path d="M351.95,154.59c-0.06-0.13-0.12-0.35-0.19-0.66c-0.4,0.54-0.93,0.81-1.61,0.81c-0.71,0-1.3-0.23-1.76-0.7
		c-0.47-0.47-0.7-1.08-0.7-1.82c0-0.89,0.28-1.57,0.85-2.05c0.56-0.48,1.38-0.73,2.44-0.74h0.67v-0.68c0-0.38-0.07-0.65-0.2-0.8
		c-0.13-0.16-0.32-0.23-0.57-0.23c-0.55,0-0.83,0.32-0.83,0.97h-2.21c0-0.78,0.29-1.43,0.88-1.93s1.33-0.76,2.22-0.76
		c0.93,0,1.64,0.24,2.15,0.72s0.76,1.17,0.76,2.07v3.98c0.01,0.73,0.11,1.3,0.31,1.71v0.13H351.95z M350.64,153.01
		c0.24,0,0.45-0.05,0.62-0.15s0.3-0.22,0.38-0.35v-1.76h-0.53c-0.38,0-0.67,0.12-0.89,0.36c-0.22,0.24-0.32,0.56-0.32,0.96
		C349.91,152.7,350.15,153.01,350.64,153.01z"/>
	<path d="M355.17,150.11c0-1.39,0.23-2.42,0.7-3.1s1.15-1.02,2.05-1.02c0.65,0,1.19,0.28,1.62,0.84v-4.23h2.23v12h-2.01l-0.1-0.86
		c-0.45,0.68-1.04,1.02-1.75,1.02c-0.89,0-1.56-0.34-2.03-1.02c-0.47-0.68-0.7-1.67-0.71-2.98V150.11z M357.39,150.66
		c0,0.83,0.09,1.42,0.27,1.75c0.18,0.33,0.48,0.5,0.9,0.5c0.44,0,0.77-0.2,0.99-0.59v-3.86c-0.22-0.42-0.55-0.62-0.98-0.62
		c-0.41,0-0.7,0.16-0.89,0.49s-0.28,0.91-0.28,1.75V150.66z"/>
	<path d="M363.14,150.09c0-1.28,0.3-2.29,0.91-3.02c0.6-0.73,1.44-1.09,2.51-1.09c1.08,0,1.92,0.36,2.52,1.09
		c0.6,0.73,0.91,1.74,0.91,3.03v0.54c0,1.29-0.3,2.29-0.9,3.02c-0.6,0.72-1.44,1.09-2.52,1.09c-1.08,0-1.93-0.36-2.53-1.09
		s-0.9-1.74-0.9-3.03V150.09z M365.36,150.65c0,1.51,0.4,2.27,1.21,2.27c0.74,0,1.15-0.63,1.2-1.89l0.01-0.93
		c0-0.77-0.11-1.34-0.32-1.71c-0.21-0.37-0.52-0.56-0.91-0.56c-0.38,0-0.67,0.19-0.88,0.56s-0.32,0.94-0.32,1.71V150.65z"/>
	<path d="M375.53,148.27l-0.73-0.06c-0.6,0-1.01,0.27-1.23,0.8v5.59h-2.22v-8.45h2.09l0.06,0.91c0.35-0.71,0.83-1.07,1.45-1.07
		c0.25,0,0.45,0.03,0.61,0.1L375.53,148.27z"/>
	<path d="M380.64,150.64h-3.82v-1.84h3.82V150.64z"/>
	<path d="M390.32,153.3c-0.44,0.48-0.99,0.84-1.63,1.08c-0.64,0.24-1.35,0.36-2.11,0.36c-1.31,0-2.32-0.41-3.05-1.21
		c-0.72-0.81-1.1-1.99-1.12-3.54v-2.05c0-1.57,0.34-2.77,1.03-3.62c0.68-0.85,1.68-1.27,3-1.27c1.23,0,2.17,0.3,2.79,0.91
		c0.63,0.61,0.99,1.57,1.09,2.87h-2.23c-0.06-0.72-0.21-1.22-0.45-1.48c-0.24-0.26-0.62-0.39-1.12-0.39c-0.62,0-1.07,0.23-1.35,0.68
		s-0.43,1.17-0.44,2.16v2.06c0,1.04,0.15,1.79,0.46,2.26c0.31,0.47,0.82,0.71,1.53,0.71c0.45,0,0.82-0.09,1.1-0.27l0.2-0.14v-2.09
		h-1.61v-1.73h3.91V153.3z"/>
	<path d="M395.25,154.75c-1.14,0-2.02-0.34-2.66-1.02c-0.64-0.68-0.95-1.65-0.95-2.91v-0.67c0-1.33,0.29-2.36,0.88-3.09
		c0.58-0.72,1.42-1.09,2.51-1.09c1.06,0,1.86,0.34,2.4,1.02c0.54,0.68,0.81,1.68,0.82,3.02v1.08h-4.4c0.03,0.63,0.17,1.09,0.41,1.38
		c0.24,0.29,0.62,0.44,1.13,0.44c0.74,0,1.36-0.25,1.85-0.76l0.87,1.34c-0.27,0.38-0.66,0.68-1.18,0.91S395.85,154.75,395.25,154.75
		z M393.86,149.56h2.21v-0.2c-0.01-0.5-0.09-0.89-0.25-1.15s-0.43-0.39-0.81-0.39c-0.39,0-0.67,0.14-0.84,0.41
		C393.99,148.51,393.89,148.95,393.86,149.56z"/>
	<path d="M403.66,148.27l-0.73-0.06c-0.6,0-1.01,0.27-1.23,0.8v5.59h-2.22v-8.45h2.09l0.06,0.91c0.35-0.71,0.83-1.07,1.45-1.07
		c0.25,0,0.45,0.03,0.61,0.1L403.66,148.27z"/>
	<path d="M408.57,154.59c-0.06-0.13-0.12-0.35-0.19-0.66c-0.4,0.54-0.93,0.81-1.61,0.81c-0.71,0-1.3-0.23-1.76-0.7
		c-0.47-0.47-0.7-1.08-0.7-1.82c0-0.89,0.28-1.57,0.85-2.05c0.56-0.48,1.38-0.73,2.44-0.74h0.67v-0.68c0-0.38-0.07-0.65-0.2-0.8
		c-0.13-0.16-0.32-0.23-0.57-0.23c-0.55,0-0.83,0.32-0.83,0.97h-2.21c0-0.78,0.29-1.43,0.88-1.93s1.33-0.76,2.22-0.76
		c0.93,0,1.64,0.24,2.15,0.72s0.76,1.17,0.76,2.07v3.98c0.01,0.73,0.11,1.3,0.31,1.71v0.13H408.57z M407.27,153.01
		c0.24,0,0.45-0.05,0.62-0.15s0.3-0.22,0.38-0.35v-1.76h-0.53c-0.38,0-0.67,0.12-0.89,0.36c-0.22,0.24-0.32,0.56-0.32,0.96
		C406.54,152.7,406.78,153.01,407.27,153.01z"/>
	<path d="M414.41,154.59h-2.22v-12h2.22V154.59z"/>
	<path d="M297.16,168.87h-3.58v3.02h4.23v1.91h-6.53v-11.38h6.52v1.91h-4.22v2.69h3.58V168.87z"/>
	<path d="M306.53,170.67l1.91-8.25H311l-3.28,11.38h-2.39l-3.26-11.38h2.55L306.53,170.67z"/>
	<path d="M311.96,163.15c0-0.34,0.11-0.62,0.33-0.84s0.51-0.33,0.88-0.33c0.36,0,0.66,0.11,0.88,0.33s0.33,0.5,0.33,0.84
		c0,0.34-0.11,0.62-0.32,0.84c-0.22,0.22-0.51,0.34-0.88,0.34c-0.37,0-0.66-0.11-0.88-0.34
		C312.07,163.77,311.96,163.49,311.96,163.15z M314.28,173.79h-2.22v-8.45h2.22V173.79z"/>
	<path d="M319.05,172.11c0.64,0,0.97-0.42,0.98-1.25h2.08c-0.01,0.92-0.29,1.67-0.85,2.23c-0.56,0.57-1.28,0.85-2.16,0.85
		c-1.09,0-1.92-0.34-2.49-1.02c-0.57-0.68-0.86-1.67-0.88-2.99v-0.67c0-1.33,0.28-2.34,0.85-3.04c0.56-0.7,1.4-1.05,2.5-1.05
		c0.93,0,1.67,0.29,2.2,0.86c0.54,0.58,0.81,1.39,0.82,2.45h-2.08c-0.01-0.47-0.08-0.84-0.23-1.09c-0.15-0.25-0.4-0.38-0.75-0.38
		c-0.39,0-0.66,0.14-0.83,0.41c-0.17,0.27-0.26,0.8-0.27,1.59v0.86c0,0.69,0.03,1.17,0.1,1.44c0.07,0.27,0.18,0.47,0.34,0.6
		S318.76,172.11,319.05,172.11z"/>
	<path d="M326.77,173.95c-1.14,0-2.02-0.34-2.66-1.02c-0.64-0.68-0.95-1.65-0.95-2.91v-0.67c0-1.33,0.29-2.36,0.88-3.09
		c0.58-0.72,1.42-1.09,2.51-1.09c1.06,0,1.86,0.34,2.4,1.02c0.54,0.68,0.81,1.68,0.82,3.02v1.08h-4.4c0.03,0.63,0.17,1.09,0.41,1.38
		c0.24,0.29,0.62,0.44,1.13,0.44c0.74,0,1.36-0.25,1.85-0.76l0.87,1.34c-0.27,0.38-0.66,0.68-1.18,0.91S327.37,173.95,326.77,173.95
		z M325.38,168.76h2.21v-0.2c-0.01-0.5-0.09-0.89-0.25-1.15s-0.43-0.39-0.81-0.39c-0.39,0-0.67,0.14-0.84,0.41
		C325.51,167.71,325.41,168.15,325.38,168.76z"/>
	<path d="M334.99,169.84h-3.82V168h3.82V169.84z"/>
	<path d="M344.64,170c-0.06,1.3-0.42,2.28-1.09,2.95s-1.62,1-2.84,1c-1.29,0-2.27-0.42-2.96-1.27c-0.69-0.85-1.03-2.05-1.03-3.62
		v-1.91c0-1.56,0.35-2.77,1.06-3.61c0.71-0.85,1.69-1.27,2.95-1.27c1.24,0,2.18,0.35,2.82,1.04c0.64,0.69,1.01,1.69,1.1,2.98h-2.3
		c-0.02-0.8-0.14-1.36-0.37-1.66s-0.64-0.46-1.25-0.46c-0.61,0-1.05,0.21-1.3,0.64c-0.26,0.43-0.39,1.14-0.41,2.12v2.15
		c0,1.13,0.13,1.91,0.38,2.33c0.25,0.42,0.69,0.63,1.3,0.63c0.6,0,1.02-0.15,1.25-0.44c0.23-0.29,0.36-0.83,0.39-1.6H344.64z"/>
	<path d="M345.69,169.29c0-1.28,0.3-2.29,0.91-3.02c0.6-0.73,1.44-1.09,2.51-1.09c1.08,0,1.92,0.36,2.52,1.09
		c0.6,0.73,0.91,1.74,0.91,3.03v0.54c0,1.29-0.3,2.29-0.9,3.02c-0.6,0.72-1.44,1.09-2.52,1.09c-1.08,0-1.93-0.36-2.53-1.09
		s-0.9-1.74-0.9-3.03V169.29z M347.91,169.85c0,1.51,0.4,2.27,1.21,2.27c0.74,0,1.15-0.63,1.2-1.89l0.01-0.93
		c0-0.77-0.11-1.34-0.32-1.71c-0.21-0.37-0.52-0.56-0.91-0.56c-0.38,0-0.67,0.19-0.88,0.56s-0.32,0.94-0.32,1.71V169.85z"/>
	<path d="M353.65,169.29c0-1.28,0.3-2.29,0.91-3.02c0.6-0.73,1.44-1.09,2.51-1.09c1.08,0,1.92,0.36,2.52,1.09
		c0.6,0.73,0.91,1.74,0.91,3.03v0.54c0,1.29-0.3,2.29-0.9,3.02s-1.44,1.09-2.52,1.09c-1.08,0-1.93-0.36-2.53-1.09
		s-0.9-1.74-0.9-3.03V169.29z M355.87,169.85c0,1.51,0.4,2.27,1.21,2.27c0.74,0,1.15-0.63,1.2-1.89l0.01-0.93
		c0-0.77-0.11-1.34-0.32-1.71c-0.21-0.37-0.52-0.56-0.91-0.56c-0.38,0-0.67,0.19-0.88,0.56s-0.32,0.94-0.32,1.71V169.85z"/>
	<path d="M366.04,167.47l-0.73-0.06c-0.6,0-1.01,0.27-1.23,0.8v5.59h-2.22v-8.45h2.09l0.06,0.91c0.35-0.71,0.83-1.07,1.45-1.07
		c0.25,0,0.45,0.03,0.61,0.1L366.04,167.47z"/>
	<path d="M366.73,169.31c0-1.39,0.23-2.42,0.7-3.1s1.15-1.02,2.05-1.02c0.65,0,1.19,0.28,1.62,0.84v-4.23h2.23v12h-2.01l-0.1-0.86
		c-0.45,0.68-1.04,1.02-1.75,1.02c-0.89,0-1.56-0.34-2.03-1.02c-0.47-0.68-0.71-1.67-0.71-2.98V169.31z M368.95,169.86
		c0,0.83,0.09,1.42,0.27,1.75c0.18,0.33,0.48,0.5,0.9,0.5c0.44,0,0.77-0.2,0.99-0.59v-3.86c-0.22-0.42-0.55-0.62-0.98-0.62
		c-0.41,0-0.7,0.16-0.89,0.49s-0.28,0.91-0.28,1.75V169.86z"/>
	<path d="M378.37,173.95c-1.14,0-2.02-0.34-2.66-1.02c-0.64-0.68-0.95-1.65-0.95-2.91v-0.67c0-1.33,0.29-2.36,0.88-3.09
		c0.58-0.72,1.42-1.09,2.51-1.09c1.06,0,1.86,0.34,2.4,1.02c0.54,0.68,0.81,1.68,0.82,3.02v1.08h-4.4c0.03,0.63,0.17,1.09,0.41,1.38
		c0.24,0.29,0.62,0.44,1.13,0.44c0.74,0,1.36-0.25,1.85-0.76l0.87,1.34c-0.27,0.38-0.66,0.68-1.18,0.91S378.97,173.95,378.37,173.95
		z M376.98,168.76h2.21v-0.2c-0.01-0.5-0.09-0.89-0.25-1.15s-0.43-0.39-0.81-0.39c-0.39,0-0.67,0.14-0.84,0.41
		C377.11,167.71,377.01,168.15,376.98,168.76z"/>
	<path d="M384.64,165.34l0.06,0.84c0.5-0.66,1.15-0.99,1.96-0.99c1.45,0,2.2,1.02,2.24,3.05v5.55h-2.22v-5.39
		c0-0.48-0.07-0.83-0.21-1.04c-0.14-0.22-0.39-0.32-0.75-0.32c-0.4,0-0.71,0.21-0.94,0.62v6.14h-2.22v-8.45H384.64z"/>
	<path d="M394.5,173.79c-0.06-0.13-0.12-0.35-0.19-0.66c-0.4,0.54-0.93,0.81-1.61,0.81c-0.71,0-1.3-0.23-1.76-0.7
		c-0.47-0.47-0.7-1.08-0.7-1.82c0-0.89,0.28-1.57,0.85-2.05c0.56-0.48,1.38-0.73,2.44-0.74h0.67v-0.68c0-0.38-0.07-0.65-0.2-0.8
		c-0.13-0.16-0.32-0.23-0.57-0.23c-0.55,0-0.83,0.32-0.83,0.97h-2.21c0-0.78,0.29-1.43,0.88-1.93s1.33-0.76,2.22-0.76
		c0.93,0,1.64,0.24,2.15,0.72s0.76,1.17,0.76,2.07v3.98c0.01,0.73,0.11,1.3,0.31,1.71v0.13H394.5z M393.2,172.21
		c0.24,0,0.45-0.05,0.62-0.15s0.3-0.22,0.38-0.35v-1.76h-0.53c-0.38,0-0.67,0.12-0.89,0.36c-0.22,0.24-0.32,0.56-0.32,0.96
		C392.46,171.9,392.71,172.21,393.2,172.21z"/>
	<path d="M397.72,169.31c0-1.39,0.23-2.42,0.7-3.1s1.15-1.02,2.05-1.02c0.65,0,1.19,0.28,1.62,0.84v-4.23h2.23v12h-2.01l-0.1-0.86
		c-0.45,0.68-1.04,1.02-1.75,1.02c-0.89,0-1.56-0.34-2.03-1.02c-0.47-0.68-0.71-1.67-0.71-2.98V169.31z M399.94,169.86
		c0,0.83,0.09,1.42,0.27,1.75c0.18,0.33,0.48,0.5,0.9,0.5c0.44,0,0.77-0.2,0.99-0.59v-3.86c-0.22-0.42-0.55-0.62-0.98-0.62
		c-0.41,0-0.7,0.16-0.89,0.49s-0.28,0.91-0.28,1.75V169.86z"/>
	<path d="M405.69,169.29c0-1.28,0.3-2.29,0.91-3.02c0.6-0.73,1.44-1.09,2.51-1.09c1.08,0,1.92,0.36,2.52,1.09
		c0.6,0.73,0.91,1.74,0.91,3.03v0.54c0,1.29-0.3,2.29-0.9,3.02c-0.6,0.72-1.44,1.09-2.52,1.09c-1.08,0-1.93-0.36-2.53-1.09
		s-0.9-1.74-0.9-3.03V169.29z M407.91,169.85c0,1.51,0.4,2.27,1.21,2.27c0.74,0,1.15-0.63,1.2-1.89l0.01-0.93
		c0-0.77-0.11-1.34-0.32-1.71c-0.21-0.37-0.52-0.56-0.91-0.56c-0.38,0-0.67,0.19-0.88,0.56s-0.32,0.94-0.32,1.71V169.85z"/>
	<path d="M418.08,167.47l-0.73-0.06c-0.6,0-1.01,0.27-1.23,0.8v5.59h-2.22v-8.45h2.09l0.06,0.91c0.35-0.71,0.83-1.07,1.45-1.07
		c0.25,0,0.45,0.03,0.61,0.1L418.08,167.47z"/>
	<path d="M280.35,188.37c0-1.17,0.14-2.29,0.41-3.36s0.68-2.03,1.23-2.88c0.54-0.85,1.13-1.43,1.75-1.75l0.41,1.22
		c-0.59,0.55-1.05,1.4-1.4,2.54s-0.52,2.46-0.54,3.96v0.47c0,1.56,0.17,2.94,0.51,4.12c0.34,1.18,0.82,2.07,1.43,2.65l-0.41,1.2
		c-0.61-0.32-1.19-0.9-1.73-1.73s-0.95-1.77-1.22-2.83c-0.28-1.06-0.42-2.16-0.43-3.3V188.37z"/>
	<path d="M285.09,188.51c0-1.39,0.23-2.42,0.7-3.1s1.15-1.02,2.05-1.02c0.65,0,1.19,0.28,1.62,0.84v-4.23h2.23v12h-2.01l-0.1-0.86
		c-0.45,0.68-1.04,1.02-1.75,1.02c-0.89,0-1.56-0.34-2.03-1.02c-0.47-0.68-0.7-1.67-0.71-2.98V188.51z M287.31,189.06
		c0,0.83,0.09,1.42,0.27,1.75c0.18,0.33,0.48,0.5,0.9,0.5c0.44,0,0.77-0.2,0.99-0.59v-3.86c-0.22-0.42-0.55-0.62-0.98-0.62
		c-0.41,0-0.7,0.16-0.89,0.49s-0.28,0.91-0.28,1.75V189.06z"/>
	<path d="M296.73,193.15c-1.14,0-2.02-0.34-2.66-1.02c-0.64-0.68-0.95-1.65-0.95-2.91v-0.67c0-1.33,0.29-2.36,0.88-3.09
		c0.58-0.72,1.42-1.09,2.51-1.09c1.06,0,1.86,0.34,2.4,1.02c0.54,0.68,0.81,1.68,0.82,3.02v1.08h-4.4c0.03,0.63,0.17,1.09,0.41,1.38
		c0.24,0.29,0.62,0.44,1.13,0.44c0.74,0,1.36-0.25,1.85-0.76l0.87,1.34c-0.27,0.38-0.66,0.68-1.18,0.91S297.33,193.15,296.73,193.15
		z M295.34,187.96h2.21v-0.2c-0.01-0.5-0.09-0.89-0.25-1.15s-0.43-0.39-0.81-0.39c-0.39,0-0.67,0.14-0.84,0.41
		C295.47,186.91,295.37,187.35,295.34,187.96z"/>
	<path d="M308.83,186.67l-0.73-0.06c-0.6,0-1.01,0.27-1.23,0.8v5.59h-2.22v-8.45h2.09l0.06,0.91c0.35-0.71,0.83-1.07,1.45-1.07
		c0.25,0,0.45,0.03,0.61,0.1L308.83,186.67z"/>
	<path d="M313.23,193.15c-1.14,0-2.02-0.34-2.66-1.02c-0.64-0.68-0.95-1.65-0.95-2.91v-0.67c0-1.33,0.29-2.36,0.88-3.09
		c0.58-0.72,1.42-1.09,2.51-1.09c1.06,0,1.86,0.34,2.4,1.02c0.54,0.68,0.81,1.68,0.82,3.02v1.08h-4.4c0.03,0.63,0.17,1.09,0.41,1.38
		c0.24,0.29,0.62,0.44,1.13,0.44c0.74,0,1.36-0.25,1.85-0.76l0.87,1.34c-0.27,0.38-0.66,0.68-1.18,0.91S313.83,193.15,313.23,193.15
		z M311.84,187.96h2.21v-0.2c-0.01-0.5-0.09-0.89-0.25-1.15s-0.43-0.39-0.81-0.39c-0.39,0-0.67,0.14-0.84,0.41
		C311.97,186.91,311.87,187.35,311.84,187.96z"/>
	<path d="M317.21,188.51c0-1.39,0.25-2.42,0.75-3.1s1.2-1.02,2.1-1.02c0.77,0,1.36,0.3,1.77,0.91l0.09-0.75h1.99v8.45
		c0,1.08-0.3,1.9-0.91,2.47c-0.6,0.57-1.47,0.86-2.6,0.86c-0.46,0-0.95-0.09-1.46-0.28c-0.51-0.18-0.89-0.42-1.14-0.71l0.74-1.53
		c0.21,0.22,0.48,0.4,0.81,0.54c0.33,0.14,0.65,0.21,0.95,0.21c0.49,0,0.85-0.12,1.07-0.36c0.22-0.24,0.33-0.62,0.33-1.14v-0.73
		c-0.42,0.55-0.97,0.83-1.65,0.83c-0.9,0-1.6-0.35-2.09-1.05s-0.74-1.69-0.75-2.96V188.51z M319.42,189.06c0,0.78,0.1,1.35,0.3,1.71
		s0.53,0.54,0.97,0.54c0.45,0,0.79-0.16,1.01-0.49v-4.04c-0.23-0.36-0.56-0.54-0.99-0.54c-0.44,0-0.76,0.18-0.97,0.54
		s-0.32,0.94-0.32,1.73V189.06z"/>
	<path d="M325.52,182.35c0-0.34,0.11-0.62,0.33-0.84s0.51-0.33,0.88-0.33c0.36,0,0.66,0.11,0.88,0.33s0.33,0.5,0.33,0.84
		c0,0.34-0.11,0.62-0.32,0.84c-0.22,0.22-0.51,0.34-0.88,0.34c-0.37,0-0.66-0.11-0.88-0.34
		C325.63,182.97,325.52,182.69,325.52,182.35z M327.84,192.99h-2.22v-8.45h2.22V192.99z"/>
	<path d="M329.29,188.49c0-1.28,0.3-2.29,0.91-3.02c0.6-0.73,1.44-1.09,2.51-1.09c1.08,0,1.92,0.36,2.52,1.09
		c0.6,0.73,0.91,1.74,0.91,3.03v0.54c0,1.29-0.3,2.29-0.9,3.02c-0.6,0.72-1.44,1.09-2.52,1.09c-1.08,0-1.93-0.36-2.53-1.09
		s-0.9-1.74-0.9-3.03V188.49z M335.22,181.1c0,0.58-0.15,1.07-0.44,1.47c-0.29,0.4-0.67,0.61-1.11,0.61c-0.17,0-0.31-0.02-0.44-0.07
		c-0.13-0.05-0.31-0.14-0.54-0.29c-0.23-0.15-0.4-0.23-0.49-0.27c-0.1-0.03-0.2-0.05-0.32-0.05c-0.14,0-0.26,0.06-0.35,0.19
		s-0.14,0.31-0.14,0.55l-1.25-0.07c0-0.58,0.15-1.07,0.45-1.48s0.66-0.61,1.09-0.61c0.11,0,0.23,0.02,0.33,0.05
		c0.11,0.03,0.29,0.12,0.55,0.27c0.26,0.15,0.45,0.24,0.57,0.28c0.11,0.04,0.23,0.06,0.34,0.06c0.14,0,0.25-0.06,0.36-0.19
		s0.15-0.31,0.15-0.55L335.22,181.1z M331.51,189.05c0,1.51,0.4,2.27,1.21,2.27c0.74,0,1.15-0.63,1.2-1.89l0.01-0.93
		c0-0.77-0.11-1.34-0.32-1.71c-0.21-0.37-0.52-0.56-0.91-0.56c-0.38,0-0.67,0.19-0.88,0.56s-0.32,0.94-0.32,1.71V189.05z"/>
	<path d="M340.93,193.15c-1.14,0-2.02-0.34-2.66-1.02c-0.64-0.68-0.95-1.65-0.95-2.91v-0.67c0-1.33,0.29-2.36,0.88-3.09
		c0.58-0.72,1.42-1.09,2.51-1.09c1.06,0,1.86,0.34,2.4,1.02c0.54,0.68,0.81,1.68,0.82,3.02v1.08h-4.4c0.03,0.63,0.17,1.09,0.41,1.38
		c0.24,0.29,0.62,0.44,1.13,0.44c0.74,0,1.36-0.25,1.85-0.76l0.87,1.34c-0.27,0.38-0.66,0.68-1.18,0.91S341.53,193.15,340.93,193.15
		z M339.53,187.96h2.21v-0.2c-0.01-0.5-0.09-0.89-0.25-1.15s-0.43-0.39-0.81-0.39c-0.39,0-0.67,0.14-0.84,0.41
		C339.67,186.91,339.57,187.35,339.53,187.96z"/>
	<path d="M348.91,190.73c0-0.19-0.09-0.36-0.27-0.52s-0.58-0.37-1.2-0.64c-0.91-0.37-1.54-0.75-1.88-1.15
		c-0.34-0.4-0.51-0.89-0.51-1.48c0-0.74,0.27-1.35,0.8-1.83c0.53-0.48,1.24-0.72,2.12-0.72c0.93,0,1.67,0.24,2.23,0.72
		c0.56,0.48,0.84,1.12,0.84,1.93h-2.21c0-0.69-0.29-1.03-0.86-1.03c-0.23,0-0.43,0.07-0.58,0.22c-0.15,0.15-0.23,0.35-0.23,0.61
		c0,0.19,0.08,0.35,0.25,0.5c0.17,0.14,0.56,0.35,1.18,0.61c0.9,0.33,1.54,0.7,1.91,1.11c0.37,0.41,0.56,0.94,0.56,1.59
		c0,0.75-0.28,1.36-0.85,1.82c-0.57,0.46-1.31,0.69-2.23,0.69c-0.62,0-1.17-0.12-1.64-0.36c-0.47-0.24-0.85-0.58-1.11-1.01
		c-0.27-0.43-0.4-0.9-0.4-1.4h2.1c0.01,0.39,0.1,0.67,0.27,0.87c0.17,0.19,0.45,0.29,0.83,0.29
		C348.61,191.53,348.91,191.26,348.91,190.73z"/>
	<path d="M355.82,188.51c0-1.39,0.23-2.42,0.7-3.1s1.15-1.02,2.05-1.02c0.65,0,1.19,0.28,1.63,0.84v-4.23h2.23v12h-2.01l-0.1-0.86
		c-0.45,0.68-1.04,1.02-1.75,1.02c-0.89,0-1.56-0.34-2.03-1.02c-0.47-0.68-0.7-1.67-0.71-2.98V188.51z M358.04,189.06
		c0,0.83,0.09,1.42,0.27,1.75c0.18,0.33,0.48,0.5,0.9,0.5c0.44,0,0.77-0.2,0.99-0.59v-3.86c-0.22-0.42-0.55-0.62-0.98-0.62
		c-0.41,0-0.7,0.16-0.89,0.49s-0.28,0.91-0.28,1.75V189.06z"/>
	<path d="M364.05,182.35c0-0.34,0.11-0.62,0.33-0.84s0.51-0.33,0.88-0.33c0.36,0,0.66,0.11,0.88,0.33s0.33,0.5,0.33,0.84
		c0,0.34-0.11,0.62-0.32,0.84c-0.22,0.22-0.51,0.34-0.88,0.34c-0.37,0-0.66-0.11-0.88-0.34
		C364.16,182.97,364.05,182.69,364.05,182.35z M366.37,192.99h-2.22v-8.45h2.22V192.99z"/>
	<path d="M368.59,192.99v-6.8h-1.02v-1.66h1.02v-0.76c0-0.93,0.25-1.66,0.74-2.18c0.49-0.52,1.16-0.78,2.02-0.78
		c0.26,0,0.59,0.05,1,0.16l-0.02,1.77c-0.15-0.05-0.33-0.07-0.54-0.07c-0.66,0-0.98,0.39-0.98,1.17v0.69h1.32v1.66h-1.32v6.8H368.59
		z"/>
	<path d="M376.55,193.15c-1.14,0-2.02-0.34-2.66-1.02c-0.64-0.68-0.95-1.65-0.95-2.91v-0.67c0-1.33,0.29-2.36,0.88-3.09
		c0.58-0.72,1.42-1.09,2.51-1.09c1.06,0,1.86,0.34,2.4,1.02c0.54,0.68,0.81,1.68,0.82,3.02v1.08h-4.4c0.03,0.63,0.17,1.09,0.41,1.38
		c0.24,0.29,0.62,0.44,1.13,0.44c0.74,0,1.36-0.25,1.85-0.76l0.87,1.34c-0.27,0.38-0.66,0.68-1.18,0.91S377.15,193.15,376.55,193.15
		z M375.16,187.96h2.21v-0.2c-0.01-0.5-0.09-0.89-0.25-1.15s-0.43-0.39-0.81-0.39c-0.39,0-0.67,0.14-0.84,0.41
		C375.29,186.91,375.19,187.35,375.16,187.96z"/>
	<path d="M384.96,186.67l-0.73-0.06c-0.6,0-1.01,0.27-1.23,0.8v5.59h-2.22v-8.45h2.09l0.06,0.91c0.35-0.71,0.83-1.07,1.45-1.07
		c0.25,0,0.45,0.03,0.61,0.1L384.96,186.67z"/>
	<path d="M389.36,193.15c-1.14,0-2.02-0.34-2.66-1.02c-0.64-0.68-0.95-1.65-0.95-2.91v-0.67c0-1.33,0.29-2.36,0.88-3.09
		c0.58-0.72,1.42-1.09,2.51-1.09c1.06,0,1.86,0.34,2.4,1.02c0.54,0.68,0.81,1.68,0.82,3.02v1.08h-4.4c0.03,0.63,0.17,1.09,0.41,1.38
		c0.24,0.29,0.62,0.44,1.13,0.44c0.74,0,1.36-0.25,1.85-0.76l0.87,1.34c-0.27,0.38-0.66,0.68-1.18,0.91S389.97,193.15,389.36,193.15
		z M387.97,187.96h2.21v-0.2c-0.01-0.5-0.09-0.89-0.25-1.15s-0.43-0.39-0.81-0.39c-0.39,0-0.67,0.14-0.84,0.41
		C388.11,186.91,388,187.35,387.97,187.96z"/>
	<path d="M395.63,184.54l0.06,0.84c0.5-0.66,1.15-0.99,1.96-0.99c1.45,0,2.2,1.02,2.24,3.05v5.55h-2.22v-5.39
		c0-0.48-0.07-0.83-0.21-1.04c-0.14-0.22-0.39-0.32-0.75-0.32c-0.4,0-0.71,0.21-0.94,0.62v6.14h-2.22v-8.45H395.63z"/>
	<path d="M404.05,182.46v2.08h1.13v1.66h-1.13v4.2c0,0.33,0.04,0.56,0.14,0.69c0.09,0.12,0.27,0.19,0.53,0.19
		c0.21,0,0.39-0.02,0.52-0.05l-0.02,1.72c-0.38,0.14-0.78,0.21-1.22,0.21c-1.43,0-2.15-0.82-2.16-2.46v-4.5h-0.98v-1.66h0.98v-2.08
		H404.05z"/>
	<path d="M409.81,193.15c-1.14,0-2.02-0.34-2.66-1.02c-0.64-0.68-0.95-1.65-0.95-2.91v-0.67c0-1.33,0.29-2.36,0.88-3.09
		c0.58-0.72,1.42-1.09,2.51-1.09c1.06,0,1.86,0.34,2.4,1.02c0.54,0.68,0.81,1.68,0.82,3.02v1.08h-4.4c0.03,0.63,0.17,1.09,0.41,1.38
		c0.24,0.29,0.62,0.44,1.13,0.44c0.74,0,1.36-0.25,1.85-0.76l0.87,1.34c-0.27,0.38-0.66,0.68-1.18,0.91S410.41,193.15,409.81,193.15
		z M408.42,187.96h2.21v-0.2c-0.01-0.5-0.09-0.89-0.25-1.15s-0.43-0.39-0.81-0.39c-0.39,0-0.67,0.14-0.84,0.41
		C408.55,186.91,408.45,187.35,408.42,187.96z"/>
	<path d="M417.79,190.73c0-0.19-0.09-0.36-0.27-0.52s-0.58-0.37-1.2-0.64c-0.91-0.37-1.54-0.75-1.88-1.15
		c-0.34-0.4-0.51-0.89-0.51-1.48c0-0.74,0.27-1.35,0.8-1.83c0.53-0.48,1.24-0.72,2.12-0.72c0.93,0,1.67,0.24,2.23,0.72
		c0.56,0.48,0.84,1.12,0.84,1.93h-2.21c0-0.69-0.29-1.03-0.86-1.03c-0.23,0-0.43,0.07-0.58,0.22c-0.15,0.15-0.23,0.35-0.23,0.61
		c0,0.19,0.08,0.35,0.25,0.5c0.17,0.14,0.56,0.35,1.18,0.61c0.9,0.33,1.54,0.7,1.91,1.11c0.37,0.41,0.56,0.94,0.56,1.59
		c0,0.75-0.28,1.36-0.85,1.82c-0.57,0.46-1.31,0.69-2.23,0.69c-0.62,0-1.17-0.12-1.64-0.36c-0.47-0.24-0.85-0.58-1.11-1.01
		c-0.27-0.43-0.4-0.9-0.4-1.4h2.1c0.01,0.39,0.1,0.67,0.27,0.87c0.17,0.19,0.45,0.29,0.83,0.29
		C417.5,191.53,417.79,191.26,417.79,190.73z"/>
	<path d="M424.86,188.56c0,1.21-0.16,2.36-0.46,3.45c-0.31,1.08-0.74,2.03-1.29,2.85c-0.55,0.82-1.13,1.38-1.75,1.7l-0.41-1.2
		c0.59-0.57,1.06-1.44,1.41-2.61s0.52-2.49,0.53-3.97v-0.41c0-1.52-0.17-2.87-0.51-4.07c-0.34-1.2-0.82-2.1-1.43-2.71l0.41-1.2
		c0.4,0.2,0.81,0.54,1.23,1.02c0.42,0.47,0.8,1.06,1.14,1.76c0.34,0.7,0.61,1.48,0.82,2.36
		C424.75,186.38,424.86,187.39,424.86,188.56z"/>
</g>
<g>
	<path d="M567.74,72.55l2.15,8.23l2.14-8.23h3v11.38h-2.3v-3.08l0.21-4.74l-2.27,7.82h-1.56l-2.27-7.82l0.21,4.74v3.08h-2.3V72.55
		H567.74z"/>
	<path d="M580.78,83.93c-0.06-0.13-0.12-0.35-0.19-0.66c-0.4,0.54-0.93,0.81-1.61,0.81c-0.71,0-1.3-0.23-1.76-0.7
		s-0.7-1.08-0.7-1.82c0-0.89,0.28-1.57,0.85-2.05s1.38-0.73,2.44-0.74h0.67v-0.68c0-0.38-0.07-0.65-0.2-0.8s-0.32-0.23-0.57-0.23
		c-0.55,0-0.83,0.32-0.83,0.97h-2.21c0-0.78,0.29-1.43,0.88-1.93s1.33-0.76,2.22-0.76c0.93,0,1.64,0.24,2.15,0.72
		s0.76,1.17,0.76,2.07v3.98c0.01,0.73,0.11,1.3,0.31,1.71v0.13H580.78z M579.48,82.35c0.25,0,0.45-0.05,0.62-0.15
		s0.3-0.22,0.38-0.35v-1.76h-0.53c-0.38,0-0.67,0.12-0.89,0.36s-0.32,0.56-0.32,0.96C578.74,82.04,578.99,82.35,579.48,82.35z"/>
	<path d="M586.32,75.47l0.06,0.84c0.5-0.66,1.15-0.99,1.96-0.99c1.45,0,2.2,1.02,2.24,3.05v5.55h-2.22v-5.39
		c0-0.48-0.07-0.83-0.21-1.04s-0.39-0.32-0.75-0.32c-0.4,0-0.71,0.21-0.94,0.62v6.14h-2.22v-8.45H586.32z"/>
	<path d="M591.88,79.44c0-1.39,0.23-2.42,0.7-3.1s1.15-1.02,2.05-1.02c0.65,0,1.19,0.28,1.62,0.84v-4.23h2.23v12h-2.01l-0.1-0.86
		c-0.45,0.68-1.04,1.02-1.75,1.02c-0.89,0-1.56-0.34-2.03-1.02s-0.7-1.67-0.71-2.98V79.44z M594.1,80c0,0.83,0.09,1.42,0.27,1.75
		s0.48,0.5,0.9,0.5c0.44,0,0.77-0.2,0.99-0.59v-3.86c-0.22-0.42-0.55-0.62-0.98-0.62c-0.41,0-0.7,0.16-0.89,0.49
		s-0.28,0.91-0.28,1.75V80z"/>
	<path d="M604.12,83.93c-0.06-0.13-0.12-0.35-0.19-0.66c-0.4,0.54-0.93,0.81-1.61,0.81c-0.71,0-1.3-0.23-1.76-0.7
		s-0.7-1.08-0.7-1.82c0-0.89,0.28-1.57,0.85-2.05s1.38-0.73,2.44-0.74h0.67v-0.68c0-0.38-0.07-0.65-0.2-0.8s-0.32-0.23-0.57-0.23
		c-0.55,0-0.83,0.32-0.83,0.97h-2.21c0-0.78,0.29-1.43,0.88-1.93s1.33-0.76,2.22-0.76c0.93,0,1.64,0.24,2.15,0.72
		s0.76,1.17,0.76,2.07v3.98c0.01,0.73,0.11,1.3,0.31,1.71v0.13H604.12z M602.81,82.35c0.25,0,0.45-0.05,0.62-0.15
		s0.3-0.22,0.38-0.35v-1.76h-0.53c-0.38,0-0.67,0.12-0.89,0.36s-0.32,0.56-0.32,0.96C602.08,82.04,602.33,82.35,602.81,82.35z"/>
	<path d="M607.34,79.44c0-1.39,0.23-2.42,0.7-3.1s1.15-1.02,2.05-1.02c0.65,0,1.19,0.28,1.62,0.84v-4.23h2.23v12h-2.01l-0.1-0.86
		c-0.45,0.68-1.04,1.02-1.75,1.02c-0.89,0-1.56-0.34-2.03-1.02s-0.7-1.67-0.71-2.98V79.44z M609.56,80c0,0.83,0.09,1.42,0.27,1.75
		s0.48,0.5,0.9,0.5c0.44,0,0.77-0.2,0.99-0.59v-3.86c-0.22-0.42-0.55-0.62-0.98-0.62c-0.41,0-0.7,0.16-0.89,0.49
		s-0.28,0.91-0.28,1.75V80z"/>
	<path d="M615.31,79.43c0-1.28,0.3-2.29,0.91-3.02s1.44-1.09,2.51-1.09c1.08,0,1.92,0.36,2.52,1.09s0.91,1.74,0.91,3.03v0.54
		c0,1.29-0.3,2.29-0.9,3.02s-1.44,1.09-2.52,1.09c-1.08,0-1.93-0.36-2.53-1.09s-0.9-1.74-0.9-3.03V79.43z M617.53,79.98
		c0,1.51,0.4,2.27,1.21,2.27c0.75,0,1.15-0.63,1.2-1.89l0.01-0.93c0-0.77-0.11-1.34-0.32-1.71s-0.52-0.56-0.91-0.56
		c-0.38,0-0.67,0.19-0.88,0.56s-0.32,0.94-0.32,1.71V79.98z"/>
	<path d="M626.92,79.44c0-1.39,0.23-2.42,0.7-3.1s1.15-1.02,2.05-1.02c0.65,0,1.19,0.28,1.62,0.84v-4.23h2.23v12h-2.01l-0.1-0.86
		c-0.45,0.68-1.04,1.02-1.75,1.02c-0.89,0-1.56-0.34-2.03-1.02s-0.7-1.67-0.71-2.98V79.44z M629.13,80c0,0.83,0.09,1.42,0.27,1.75
		s0.48,0.5,0.9,0.5c0.44,0,0.77-0.2,0.99-0.59v-3.86c-0.22-0.42-0.55-0.62-0.98-0.62c-0.41,0-0.7,0.16-0.89,0.49
		s-0.28,0.91-0.28,1.75V80z"/>
	<path d="M638.56,84.08c-1.14,0-2.02-0.34-2.66-1.02s-0.95-1.65-0.95-2.91v-0.67c0-1.33,0.29-2.36,0.88-3.09s1.42-1.09,2.51-1.09
		c1.06,0,1.86,0.34,2.4,1.02c0.54,0.68,0.81,1.68,0.82,3.02v1.08h-4.4c0.03,0.63,0.17,1.09,0.41,1.38s0.62,0.44,1.13,0.44
		c0.74,0,1.36-0.25,1.85-0.76l0.87,1.34c-0.27,0.38-0.66,0.68-1.18,0.91S639.16,84.08,638.56,84.08z M637.17,78.9h2.21v-0.2
		c-0.01-0.5-0.09-0.89-0.25-1.15s-0.43-0.39-0.81-0.39s-0.67,0.14-0.84,0.41S637.2,78.29,637.17,78.9z"/>
	<path d="M653.13,83.93h-6.7v-1.56l3.08-3.91c0.39-0.54,0.68-1.02,0.86-1.43s0.28-0.8,0.28-1.18c0-0.5-0.09-0.9-0.26-1.19
		s-0.43-0.43-0.75-0.43c-0.36,0-0.64,0.17-0.86,0.5s-0.32,0.8-0.32,1.41h-2.22c0-0.7,0.14-1.34,0.43-1.91s0.7-1.03,1.22-1.35
		s1.12-0.48,1.78-0.48c1.02,0,1.8,0.28,2.36,0.84s0.84,1.36,0.84,2.39c0,0.64-0.16,1.29-0.46,1.95s-0.87,1.47-1.68,2.43l-1.46,2.09
		h3.87V83.93z"/>
	<path d="M662.28,83.93c-0.06-0.13-0.12-0.35-0.19-0.66c-0.4,0.54-0.93,0.81-1.61,0.81c-0.71,0-1.3-0.23-1.76-0.7
		s-0.7-1.08-0.7-1.82c0-0.89,0.28-1.57,0.85-2.05s1.38-0.73,2.44-0.74h0.67v-0.68c0-0.38-0.07-0.65-0.2-0.8s-0.32-0.23-0.57-0.23
		c-0.55,0-0.83,0.32-0.83,0.97h-2.21c0-0.78,0.29-1.43,0.88-1.93s1.33-0.76,2.22-0.76c0.93,0,1.64,0.24,2.15,0.72
		s0.76,1.17,0.76,2.07v3.98c0.01,0.73,0.11,1.3,0.31,1.71v0.13H662.28z M660.98,82.35c0.25,0,0.45-0.05,0.62-0.15
		s0.3-0.22,0.38-0.35v-1.76h-0.53c-0.38,0-0.67,0.12-0.89,0.36s-0.32,0.56-0.32,0.96C660.24,82.04,660.49,82.35,660.98,82.35z"/>
	<path d="M667.82,75.47l0.06,0.84c0.5-0.66,1.15-0.99,1.96-0.99c1.45,0,2.2,1.02,2.24,3.05v5.55h-2.22v-5.39
		c0-0.48-0.07-0.83-0.21-1.04s-0.39-0.32-0.75-0.32c-0.4,0-0.71,0.21-0.94,0.62v6.14h-2.22v-8.45H667.82z"/>
	<path d="M673.42,79.43c0-1.28,0.3-2.29,0.91-3.02s1.44-1.09,2.51-1.09c1.08,0,1.92,0.36,2.52,1.09s0.91,1.74,0.91,3.03v0.54
		c0,1.29-0.3,2.29-0.9,3.02s-1.44,1.09-2.52,1.09c-1.08,0-1.93-0.36-2.53-1.09s-0.9-1.74-0.9-3.03V79.43z M675.63,79.98
		c0,1.51,0.4,2.27,1.21,2.27c0.75,0,1.15-0.63,1.2-1.89l0.01-0.93c0-0.77-0.11-1.34-0.32-1.71s-0.52-0.56-0.91-0.56
		c-0.38,0-0.67,0.19-0.88,0.56s-0.32,0.94-0.32,1.71V79.98z"/>
	<path d="M685.38,81.66c0-0.19-0.09-0.36-0.27-0.52s-0.58-0.37-1.2-0.64c-0.91-0.37-1.54-0.75-1.88-1.15s-0.51-0.89-0.51-1.48
		c0-0.74,0.27-1.35,0.8-1.83s1.24-0.72,2.12-0.72c0.93,0,1.67,0.24,2.23,0.72s0.84,1.12,0.84,1.93h-2.21c0-0.69-0.29-1.03-0.86-1.03
		c-0.23,0-0.43,0.07-0.58,0.22s-0.23,0.35-0.23,0.61c0,0.19,0.08,0.35,0.25,0.5s0.56,0.35,1.18,0.61c0.9,0.33,1.54,0.7,1.91,1.11
		s0.56,0.94,0.56,1.59c0,0.75-0.28,1.36-0.85,1.82s-1.31,0.69-2.23,0.69c-0.62,0-1.17-0.12-1.64-0.36s-0.84-0.58-1.11-1.01
		s-0.4-0.9-0.4-1.4h2.1c0.01,0.39,0.1,0.67,0.27,0.87s0.45,0.29,0.83,0.29C685.08,82.47,685.38,82.2,685.38,81.66z"/>
	<path d="M567.04,118.33v4h-2.3v-11.38h3.88c1.12,0,2.02,0.35,2.69,1.05c0.67,0.7,1,1.6,1,2.72s-0.33,2-0.99,2.64
		s-1.58,0.97-2.75,0.97H567.04z M567.04,116.41h1.58c0.44,0,0.78-0.14,1.02-0.43s0.36-0.7,0.36-1.25c0-0.57-0.12-1.02-0.37-1.36
		s-0.57-0.51-0.98-0.51h-1.6V116.41z"/>
	<path d="M573.38,117.83c0-1.28,0.3-2.29,0.91-3.02s1.44-1.09,2.51-1.09c1.08,0,1.92,0.36,2.52,1.09s0.91,1.74,0.91,3.03v0.54
		c0,1.29-0.3,2.29-0.9,3.02s-1.44,1.09-2.52,1.09c-1.08,0-1.93-0.36-2.53-1.09s-0.9-1.74-0.9-3.03V117.83z M575.6,118.38
		c0,1.51,0.4,2.27,1.21,2.27c0.75,0,1.15-0.63,1.2-1.89l0.01-0.93c0-0.77-0.11-1.34-0.32-1.71s-0.52-0.56-0.91-0.56
		c-0.38,0-0.67,0.19-0.88,0.56s-0.32,0.94-0.32,1.71V118.38z"/>
	<path d="M581.3,117.84c0-1.39,0.23-2.42,0.7-3.1s1.15-1.02,2.05-1.02c0.65,0,1.19,0.28,1.62,0.84v-4.23h2.23v12h-2.01l-0.1-0.86
		c-0.45,0.68-1.04,1.02-1.75,1.02c-0.89,0-1.56-0.34-2.03-1.02s-0.7-1.67-0.71-2.98V117.84z M583.52,118.4
		c0,0.83,0.09,1.42,0.27,1.75s0.48,0.5,0.9,0.5c0.44,0,0.77-0.2,0.99-0.59v-3.86c-0.22-0.42-0.55-0.62-0.98-0.62
		c-0.41,0-0.7,0.16-0.89,0.49s-0.28,0.91-0.28,1.75V118.4z"/>
	<path d="M592.94,122.48c-1.14,0-2.02-0.34-2.66-1.02s-0.95-1.65-0.95-2.91v-0.67c0-1.33,0.29-2.36,0.88-3.09s1.42-1.09,2.51-1.09
		c1.06,0,1.86,0.34,2.4,1.02c0.54,0.68,0.81,1.68,0.82,3.02v1.08h-4.4c0.03,0.63,0.17,1.09,0.41,1.38s0.62,0.44,1.13,0.44
		c0.74,0,1.36-0.25,1.85-0.76l0.87,1.34c-0.27,0.38-0.66,0.68-1.18,0.91S593.54,122.48,592.94,122.48z M591.55,117.3h2.21v-0.2
		c-0.01-0.5-0.09-0.89-0.25-1.15s-0.43-0.39-0.81-0.39s-0.67,0.14-0.84,0.41S591.58,116.69,591.55,117.3z"/>
	<path d="M599.21,113.88l0.06,0.84c0.5-0.66,1.15-0.99,1.96-0.99c1.45,0,2.2,1.02,2.24,3.05v5.55h-2.22v-5.39
		c0-0.48-0.07-0.83-0.21-1.04s-0.39-0.32-0.75-0.32c-0.4,0-0.71,0.21-0.94,0.62v6.14h-2.22v-8.45H599.21z"/>
	<path d="M604.76,117.84c0-1.39,0.23-2.42,0.7-3.1s1.15-1.02,2.05-1.02c0.65,0,1.19,0.28,1.62,0.84v-4.23h2.23v12h-2.01l-0.1-0.86
		c-0.45,0.68-1.04,1.02-1.75,1.02c-0.89,0-1.56-0.34-2.03-1.02s-0.7-1.67-0.71-2.98V117.84z M606.98,118.4
		c0,0.83,0.09,1.42,0.27,1.75s0.48,0.5,0.9,0.5c0.44,0,0.77-0.2,0.99-0.59v-3.86c-0.22-0.42-0.55-0.62-0.98-0.62
		c-0.41,0-0.7,0.16-0.89,0.49s-0.28,0.91-0.28,1.75V118.4z"/>
	<path d="M612.73,117.83c0-1.28,0.3-2.29,0.91-3.02s1.44-1.09,2.51-1.09c1.08,0,1.92,0.36,2.52,1.09s0.91,1.74,0.91,3.03v0.54
		c0,1.29-0.3,2.29-0.9,3.02s-1.44,1.09-2.52,1.09c-1.08,0-1.93-0.36-2.53-1.09s-0.9-1.74-0.9-3.03V117.83z M614.95,118.38
		c0,1.51,0.4,2.27,1.21,2.27c0.75,0,1.15-0.63,1.2-1.89l0.01-0.93c0-0.77-0.11-1.34-0.32-1.71s-0.52-0.56-0.91-0.56
		c-0.38,0-0.67,0.19-0.88,0.56s-0.32,0.94-0.32,1.71V118.38z"/>
	<path d="M628.38,120.06c0-0.19-0.09-0.36-0.27-0.52s-0.58-0.37-1.2-0.64c-0.91-0.37-1.54-0.75-1.88-1.15s-0.51-0.89-0.51-1.48
		c0-0.74,0.27-1.35,0.8-1.83s1.24-0.72,2.12-0.72c0.93,0,1.67,0.24,2.23,0.72s0.84,1.12,0.84,1.93h-2.21c0-0.69-0.29-1.03-0.86-1.03
		c-0.23,0-0.43,0.07-0.58,0.22s-0.23,0.35-0.23,0.61c0,0.19,0.08,0.35,0.25,0.5s0.56,0.35,1.18,0.61c0.9,0.33,1.54,0.7,1.91,1.11
		s0.56,0.94,0.56,1.59c0,0.75-0.28,1.36-0.85,1.82s-1.31,0.69-2.23,0.69c-0.62,0-1.17-0.12-1.64-0.36s-0.84-0.58-1.11-1.01
		s-0.4-0.9-0.4-1.4h2.1c0.01,0.39,0.1,0.67,0.27,0.87s0.45,0.29,0.83,0.29C628.08,120.87,628.38,120.6,628.38,120.06z"/>
	<path d="M635.31,122.48c-1.14,0-2.02-0.34-2.66-1.02s-0.95-1.65-0.95-2.91v-0.67c0-1.33,0.29-2.36,0.88-3.09s1.42-1.09,2.51-1.09
		c1.06,0,1.86,0.34,2.4,1.02c0.54,0.68,0.81,1.68,0.82,3.02v1.08h-4.4c0.03,0.63,0.17,1.09,0.41,1.38s0.62,0.44,1.13,0.44
		c0.74,0,1.36-0.25,1.85-0.76l0.87,1.34c-0.27,0.38-0.66,0.68-1.18,0.91S635.92,122.48,635.31,122.48z M633.92,117.3h2.21v-0.2
		c-0.01-0.5-0.09-0.89-0.25-1.15s-0.43-0.39-0.81-0.39s-0.67,0.14-0.84,0.41S633.96,116.69,633.92,117.3z"/>
	<path d="M643.73,116.01l-0.73-0.06c-0.6,0-1.01,0.27-1.23,0.8v5.59h-2.22v-8.45h2.09l0.06,0.91c0.35-0.71,0.83-1.07,1.45-1.07
		c0.25,0,0.45,0.03,0.61,0.1L643.73,116.01z"/>
	<path d="M568.81,135.21l-0.73-0.06c-0.6,0-1.01,0.27-1.23,0.8v5.59h-2.22v-8.45h2.09l0.06,0.91c0.35-0.71,0.83-1.07,1.45-1.07
		c0.25,0,0.45,0.03,0.61,0.1L568.81,135.21z"/>
	<path d="M573.21,141.68c-1.14,0-2.02-0.34-2.66-1.02s-0.95-1.65-0.95-2.91v-0.67c0-1.33,0.29-2.36,0.88-3.09s1.42-1.09,2.51-1.09
		c1.06,0,1.86,0.34,2.4,1.02c0.54,0.68,0.81,1.68,0.82,3.02v1.08h-4.4c0.03,0.63,0.17,1.09,0.41,1.38s0.62,0.44,1.13,0.44
		c0.74,0,1.36-0.25,1.85-0.76l0.87,1.34c-0.27,0.38-0.66,0.68-1.18,0.91S573.81,141.68,573.21,141.68z M571.81,136.5h2.21v-0.2
		c-0.01-0.5-0.09-0.89-0.25-1.15s-0.43-0.39-0.81-0.39s-0.67,0.14-0.84,0.41S571.85,135.89,571.81,136.5z"/>
	<path d="M580.5,139.85c0.64,0,0.97-0.42,0.98-1.25h2.08c-0.01,0.92-0.29,1.67-0.85,2.23s-1.28,0.85-2.16,0.85
		c-1.09,0-1.92-0.34-2.49-1.02s-0.86-1.67-0.88-2.99V137c0-1.33,0.28-2.34,0.85-3.04s1.4-1.05,2.5-1.05c0.93,0,1.67,0.29,2.2,0.86
		s0.81,1.39,0.82,2.45h-2.08c0-0.47-0.08-0.84-0.23-1.09s-0.4-0.38-0.75-0.38c-0.39,0-0.66,0.14-0.83,0.41s-0.25,0.8-0.27,1.59v0.86
		c0,0.69,0.03,1.17,0.1,1.44s0.18,0.47,0.34,0.6S580.22,139.85,580.5,139.85z"/>
	<path d="M584.55,137.03c0-1.28,0.3-2.29,0.91-3.02s1.44-1.09,2.51-1.09c1.08,0,1.92,0.36,2.52,1.09s0.91,1.74,0.91,3.03v0.54
		c0,1.29-0.3,2.29-0.9,3.02s-1.44,1.09-2.52,1.09c-1.08,0-1.93-0.36-2.53-1.09s-0.9-1.74-0.9-3.03V137.03z M586.77,137.58
		c0,1.51,0.4,2.27,1.21,2.27c0.75,0,1.15-0.63,1.2-1.89l0.01-0.93c0-0.77-0.11-1.34-0.32-1.71s-0.52-0.56-0.91-0.56
		c-0.38,0-0.67,0.19-0.88,0.56s-0.32,0.94-0.32,1.71V137.58z"/>
	<path d="M594.79,133.07l0.06,0.84c0.5-0.66,1.15-0.99,1.96-0.99c1.45,0,2.2,1.02,2.24,3.05v5.55h-2.22v-5.39
		c0-0.48-0.07-0.83-0.21-1.04s-0.39-0.32-0.75-0.32c-0.4,0-0.71,0.21-0.94,0.62v6.14h-2.22v-8.45H594.79z"/>
	<path d="M600.35,137.04c0-1.39,0.23-2.42,0.7-3.1s1.15-1.02,2.05-1.02c0.65,0,1.19,0.28,1.62,0.84v-4.23h2.23v12h-2.01l-0.1-0.86
		c-0.45,0.68-1.04,1.02-1.75,1.02c-0.89,0-1.56-0.34-2.03-1.02s-0.7-1.67-0.71-2.98V137.04z M602.56,137.6
		c0,0.83,0.09,1.42,0.27,1.75s0.48,0.5,0.9,0.5c0.44,0,0.77-0.2,0.99-0.59v-3.86c-0.22-0.42-0.55-0.62-0.98-0.62
		c-0.41,0-0.7,0.16-0.89,0.49s-0.28,0.91-0.28,1.75V137.6z"/>
	<path d="M612.73,140.75c-0.46,0.62-1.07,0.93-1.84,0.93c-0.78,0-1.36-0.27-1.77-0.8s-0.6-1.31-0.6-2.33v-5.48h2.21v5.53
		c0.01,0.82,0.28,1.23,0.82,1.23c0.5,0,0.87-0.22,1.09-0.66v-6.11h2.23v8.45h-2.08L612.73,140.75z"/>
	<path d="M618.89,139.69h3.34v1.84h-5.97v-1.38l3.27-5.23h-3.19v-1.84h5.84v1.34L618.89,139.69z"/>
	<path d="M623.69,130.89c0-0.34,0.11-0.62,0.33-0.84s0.51-0.33,0.88-0.33s0.66,0.11,0.88,0.33s0.33,0.5,0.33,0.84
		c0,0.34-0.11,0.62-0.32,0.84s-0.51,0.34-0.88,0.34s-0.66-0.11-0.88-0.34S623.69,131.23,623.69,130.89z M626.01,141.53h-2.22v-8.45
		h2.22V141.53z"/>
	<path d="M627.42,137.04c0-1.39,0.23-2.42,0.7-3.1s1.15-1.02,2.05-1.02c0.65,0,1.19,0.28,1.62,0.84v-4.23h2.23v12h-2.01l-0.1-0.86
		c-0.45,0.68-1.04,1.02-1.75,1.02c-0.89,0-1.56-0.34-2.03-1.02s-0.7-1.67-0.71-2.98V137.04z M629.64,137.6
		c0,0.83,0.09,1.42,0.27,1.75s0.48,0.5,0.9,0.5c0.44,0,0.77-0.2,0.99-0.59v-3.86c-0.22-0.42-0.55-0.62-0.98-0.62
		c-0.41,0-0.7,0.16-0.89,0.49s-0.28,0.91-0.28,1.75V137.6z"/>
	<path d="M635.39,137.03c0-1.28,0.3-2.29,0.91-3.02s1.44-1.09,2.51-1.09c1.08,0,1.92,0.36,2.52,1.09s0.91,1.74,0.91,3.03v0.54
		c0,1.29-0.3,2.29-0.9,3.02s-1.44,1.09-2.52,1.09c-1.08,0-1.93-0.36-2.53-1.09s-0.9-1.74-0.9-3.03V137.03z M637.61,137.58
		c0,1.51,0.4,2.27,1.21,2.27c0.75,0,1.15-0.63,1.2-1.89l0.01-0.93c0-0.77-0.11-1.34-0.32-1.71s-0.52-0.56-0.91-0.56
		c-0.38,0-0.67,0.19-0.88,0.56s-0.32,0.94-0.32,1.71V137.58z"/>
	<path d="M571.22,156.77c0,1.33-0.23,2.35-0.68,3.05s-1.13,1.06-2.04,1.06c-0.69,0-1.24-0.28-1.66-0.84v3.93h-2.21v-11.7h2.05
		l0.08,0.77c0.42-0.62,1-0.93,1.73-0.93c0.9,0,1.58,0.33,2.04,0.98s0.69,1.66,0.7,3.02V156.77z M569.02,156.21
		c0-0.82-0.09-1.4-0.27-1.73s-0.48-0.51-0.91-0.51c-0.45,0-0.78,0.19-0.99,0.57v3.96c0.2,0.36,0.53,0.55,1.01,0.55
		c0.44,0,0.74-0.18,0.91-0.55s0.25-0.95,0.25-1.73V156.21z"/>
	<path d="M572.3,156.23c0-1.28,0.3-2.29,0.91-3.02s1.44-1.09,2.51-1.09c1.08,0,1.92,0.36,2.52,1.09s0.91,1.74,0.91,3.03v0.54
		c0,1.29-0.3,2.29-0.9,3.02s-1.44,1.09-2.52,1.09c-1.08,0-1.93-0.36-2.53-1.09s-0.9-1.74-0.9-3.03V156.23z M574.52,156.78
		c0,1.51,0.4,2.27,1.21,2.27c0.75,0,1.15-0.63,1.2-1.89l0.01-0.93c0-0.77-0.11-1.34-0.32-1.71s-0.52-0.56-0.91-0.56
		c-0.38,0-0.67,0.19-0.88,0.56s-0.32,0.94-0.32,1.71V156.78z"/>
	<path d="M584.69,154.41l-0.73-0.06c-0.6,0-1.01,0.27-1.23,0.8v5.59h-2.22v-8.45h2.09l0.06,0.91c0.35-0.71,0.83-1.07,1.45-1.07
		c0.25,0,0.45,0.03,0.61,0.1L584.69,154.41z"/>
	<path d="M589.51,150.09c0-0.34,0.11-0.62,0.33-0.84s0.51-0.33,0.88-0.33s0.66,0.11,0.88,0.33s0.33,0.5,0.33,0.84
		c0,0.34-0.11,0.62-0.32,0.84s-0.51,0.34-0.88,0.34s-0.66-0.11-0.88-0.34S589.51,150.43,589.51,150.09z M591.83,160.73h-2.22v-8.45
		h2.22V160.73z"/>
	<path d="M593.28,156.24c0-1.39,0.25-2.42,0.75-3.1s1.2-1.02,2.1-1.02c0.77,0,1.36,0.3,1.77,0.91l0.09-0.75h1.99v8.45
		c0,1.08-0.3,1.9-0.91,2.47s-1.47,0.86-2.6,0.86c-0.46,0-0.95-0.09-1.46-0.28s-0.89-0.42-1.14-0.71l0.74-1.53
		c0.21,0.22,0.48,0.4,0.81,0.54s0.65,0.21,0.95,0.21c0.5,0,0.85-0.12,1.07-0.36s0.33-0.62,0.33-1.14v-0.73
		c-0.42,0.55-0.97,0.83-1.65,0.83c-0.9,0-1.6-0.35-2.09-1.05s-0.74-1.69-0.75-2.96V156.24z M595.49,156.8c0,0.78,0.1,1.35,0.3,1.71
		s0.53,0.54,0.97,0.54c0.45,0,0.79-0.16,1.01-0.49v-4.04c-0.23-0.36-0.56-0.54-0.99-0.54c-0.44,0-0.76,0.18-0.97,0.54
		s-0.32,0.94-0.32,1.73V156.8z"/>
	<path d="M605.74,159.95c-0.46,0.62-1.07,0.93-1.84,0.93c-0.78,0-1.36-0.27-1.77-0.8s-0.6-1.31-0.6-2.33v-5.48h2.21v5.53
		c0.01,0.82,0.28,1.23,0.82,1.23c0.5,0,0.87-0.22,1.09-0.66v-6.11h2.23v8.45h-2.08L605.74,159.95z"/>
	<path d="M613.48,160.73c-0.06-0.13-0.12-0.35-0.19-0.66c-0.4,0.54-0.93,0.81-1.61,0.81c-0.71,0-1.3-0.23-1.76-0.7
		s-0.7-1.08-0.7-1.82c0-0.89,0.28-1.57,0.85-2.05s1.38-0.73,2.44-0.74h0.67v-0.68c0-0.38-0.07-0.65-0.2-0.8s-0.32-0.23-0.57-0.23
		c-0.55,0-0.83,0.32-0.83,0.97h-2.21c0-0.78,0.29-1.43,0.88-1.93s1.33-0.76,2.22-0.76c0.93,0,1.64,0.24,2.15,0.72
		s0.76,1.17,0.76,2.07v3.98c0.01,0.73,0.11,1.3,0.31,1.71v0.13H613.48z M612.17,159.15c0.25,0,0.45-0.05,0.62-0.15
		s0.3-0.22,0.38-0.35v-1.76h-0.53c-0.38,0-0.67,0.12-0.89,0.36s-0.32,0.56-0.32,0.96C611.44,158.84,611.68,159.15,612.17,159.15z"/>
	<path d="M619.31,160.73h-2.22v-12h2.22V160.73z"/>
	<path d="M571.22,175.97c0,1.33-0.23,2.35-0.68,3.05s-1.13,1.06-2.04,1.06c-0.69,0-1.24-0.28-1.66-0.84v3.93h-2.21v-11.7h2.05
		l0.08,0.77c0.42-0.62,1-0.93,1.73-0.93c0.9,0,1.58,0.33,2.04,0.98s0.69,1.66,0.7,3.02V175.97z M569.02,175.41
		c0-0.82-0.09-1.4-0.27-1.73s-0.48-0.51-0.91-0.51c-0.45,0-0.78,0.19-0.99,0.57v3.96c0.2,0.36,0.53,0.55,1.01,0.55
		c0.44,0,0.74-0.18,0.91-0.55s0.25-0.95,0.25-1.73V175.41z"/>
	<path d="M575.97,180.08c-1.14,0-2.02-0.34-2.66-1.02s-0.95-1.65-0.95-2.91v-0.67c0-1.33,0.29-2.36,0.88-3.09s1.42-1.09,2.51-1.09
		c1.06,0,1.86,0.34,2.4,1.02c0.54,0.68,0.81,1.68,0.82,3.02v1.08h-4.4c0.03,0.63,0.17,1.09,0.41,1.38s0.62,0.44,1.13,0.44
		c0.74,0,1.36-0.25,1.85-0.76l0.87,1.34c-0.27,0.38-0.66,0.68-1.18,0.91S576.58,180.08,575.97,180.08z M574.58,174.9h2.21v-0.2
		c-0.01-0.5-0.09-0.89-0.25-1.15s-0.43-0.39-0.81-0.39s-0.67,0.14-0.84,0.41S574.61,174.29,574.58,174.9z"/>
	<path d="M584.38,173.61l-0.73-0.06c-0.6,0-1.01,0.27-1.23,0.8v5.59h-2.22v-8.45h2.09l0.06,0.91c0.35-0.71,0.83-1.07,1.45-1.07
		c0.25,0,0.45,0.03,0.61,0.1L584.38,173.61z"/>
	<path d="M587.89,179.93h-2.21v-8.45h2.21V179.93z M587.25,168.05h2.48l-2.17,2.42h-1.84L587.25,168.05z"/>
	<path d="M589.46,175.43c0-1.28,0.3-2.29,0.91-3.02s1.44-1.09,2.51-1.09c1.08,0,1.92,0.36,2.52,1.09s0.91,1.74,0.91,3.03v0.54
		c0,1.29-0.3,2.29-0.9,3.02s-1.44,1.09-2.52,1.09c-1.08,0-1.93-0.36-2.53-1.09s-0.9-1.74-0.9-3.03V175.43z M591.67,175.98
		c0,1.51,0.4,2.27,1.21,2.27c0.75,0,1.15-0.63,1.2-1.89l0.01-0.93c0-0.77-0.11-1.34-0.32-1.71s-0.52-0.56-0.91-0.56
		c-0.38,0-0.67,0.19-0.88,0.56s-0.32,0.94-0.32,1.71V175.98z"/>
	<path d="M597.38,175.44c0-1.39,0.23-2.42,0.7-3.1s1.15-1.02,2.05-1.02c0.65,0,1.19,0.28,1.62,0.84v-4.23h2.23v12h-2.01l-0.1-0.86
		c-0.45,0.68-1.04,1.02-1.75,1.02c-0.89,0-1.56-0.34-2.03-1.02s-0.7-1.67-0.71-2.98V175.44z M599.6,176c0,0.83,0.09,1.42,0.27,1.75
		s0.48,0.5,0.9,0.5c0.44,0,0.77-0.2,0.99-0.59v-3.86c-0.22-0.42-0.55-0.62-0.98-0.62c-0.41,0-0.7,0.16-0.89,0.49
		s-0.28,0.91-0.28,1.75V176z"/>
	<path d="M605.35,175.43c0-1.28,0.3-2.29,0.91-3.02s1.44-1.09,2.51-1.09c1.08,0,1.92,0.36,2.52,1.09s0.91,1.74,0.91,3.03v0.54
		c0,1.29-0.3,2.29-0.9,3.02s-1.44,1.09-2.52,1.09c-1.08,0-1.93-0.36-2.53-1.09s-0.9-1.74-0.9-3.03V175.43z M607.56,175.98
		c0,1.51,0.4,2.27,1.21,2.27c0.75,0,1.15-0.63,1.2-1.89l0.01-0.93c0-0.77-0.11-1.34-0.32-1.71s-0.52-0.56-0.91-0.56
		c-0.38,0-0.67,0.19-0.88,0.56s-0.32,0.94-0.32,1.71V175.98z"/>
</g>
<g>
	<path class="st3" d="M282.31,84.87c-1.05,0-2.02-0.66-2.37-1.71c-1.79-5.37-12.71-32.07-51.66-31.3
		c-53.18,1.1-64.8,18.98-69.77,26.62c-1.59,2.45-2.74,4.21-4.64,4.86c-1.31,0.44-2.73-0.26-3.17-1.57
		c-0.44-1.29,0.24-2.69,1.51-3.15c0.43-0.29,1.36-1.72,2.1-2.87c5.39-8.3,18.03-27.74,73.86-28.89
		c42.48-0.86,54.52,28.77,56.51,34.72c0.44,1.31-0.27,2.73-1.58,3.16C282.84,84.83,282.57,84.87,282.31,84.87z M152.2,78.63
		L152.2,78.63L152.2,78.63z"/>
	<path class="st3" d="M286.35,89.73l-16.76-7.65c-1.26-0.57-1.81-2.06-1.24-3.31c0.57-1.26,2.06-1.81,3.31-1.24l11.03,5.04
		l2.18-10.73c0.27-1.35,1.59-2.22,2.95-1.95c1.35,0.27,2.23,1.59,1.95,2.95L286.35,89.73z"/>
</g>
<g>
	<path class="st3" d="M552.01,82.33c-1.05,0-2.02-0.66-2.37-1.71c-1.76-5.29-12.36-31.32-49.95-31.32c-0.57,0-1.13,0.01-1.71,0.02
		c-53.18,1.1-64.8,18.98-69.77,26.62c-1.59,2.45-2.74,4.21-4.64,4.86c-1.31,0.44-2.73-0.26-3.17-1.57
		c-0.44-1.29,0.24-2.68,1.51-3.15c0.43-0.29,1.36-1.72,2.11-2.87c5.39-8.3,18.03-27.74,73.86-28.89
		c42.45-0.86,54.52,28.77,56.51,34.72c0.44,1.31-0.27,2.73-1.58,3.16C552.53,82.28,552.27,82.33,552.01,82.33z"/>
	<path class="st3" d="M556.09,87.13l-16.76-7.65c-1.26-0.57-1.81-2.06-1.24-3.31c0.57-1.25,2.06-1.81,3.31-1.24l11.03,5.04
		l2.18-10.73c0.27-1.35,1.59-2.23,2.95-1.95c1.35,0.27,2.23,1.59,1.95,2.95L556.09,87.13z"/>
</g>
</svg>
