<?xml version="1.0" encoding="utf-8"?>
<!-- Generator: Adobe Illustrator 27.2.0, SVG Export Plug-In . SVG Version: 6.00 Build 0)  -->
<svg version="1.1" id="Camada_1" xmlns="http://www.w3.org/2000/svg" xmlns:xlink="http://www.w3.org/1999/xlink" x="0px" y="0px"
	 viewBox="0 0 720 720" style="enable-background:new 0 0 720 720;" xml:space="preserve">
<style type="text/css">
	.st0{fill:#FFE1DD;}
	.st1{fill:#FFFFFF;}
	.st2{fill:#CC0000;}
	.st3{fill:#484443;}
</style>
<rect class="st0" width="720" height="720"/>
<rect x="106.81" y="272.71" transform="matrix(0.9579 -0.2873 0.2873 0.9579 -87.9167 75.8179)" class="st1" width="215.21" height="129.61"/>
<polygon class="st2" points="399.78,393.58 407.81,521.21 587.23,524.46 614.01,471.96 611.23,404.83 560.77,373.37 "/>
<polygon class="st2" points="302,249 337,372 513,337 528,280 511,215 455,195 "/>
<rect x="194.9" y="389.19" class="st1" width="215.21" height="129.61"/>
<path class="st3" d="M451.7,177.06c-7.22,0.25-14.45,1.28-21.71,3.22l-287.91,76.78c-51.63,13.75-82.64,67.12-68.76,118.58
	c10.99,40.77,46.77,68.29,86.86,71.15c-0.16,2.26-0.2,4.53-0.2,6.83c0,53.11,43.38,96.47,96.51,96.47h295.97
	c53.13,0,96.51-43.36,96.51-96.47s-43.38-96.47-96.51-96.47H504.2c36.74-21.5,56.4-65.65,44.84-108.54
	c-11.28-41.85-48.69-69.96-90.08-71.55c-2.39-0.09-4.83-0.08-7.24,0L451.7,177.06z M453.11,215.65c1.44-0.06,2.98-0.06,4.42,0
	c24.96,0.96,47.44,17.61,54.29,43.01c8.44,31.32-9.77,62.72-41.42,71.15l-100.93,26.93l0,0c-0.4,0.12-0.81,0.25-1.21,0.4h-24.93
	l-28.55-106.12l125.27-33.36C444.49,216.48,448.77,215.82,453.11,215.65L453.11,215.65z M277.38,261.08l25.94,96.08h-46.85
	c-36.69,0-68.73,20.77-85.05,51.05c-27.73,2.21-53.46-14.92-60.92-42.61c-8.44-31.32,9.77-62.72,41.42-71.15L277.38,261.08
	L277.38,261.08z M256.47,395.74h128.68v115.77H256.47c-32.42,0-57.91-25.48-57.91-57.88S224.05,395.74,256.47,395.74L256.47,395.74z
	 M423.75,395.74h128.68c32.42,0,57.91,25.48,57.91,57.88s-25.49,57.88-57.91,57.88H423.75V395.74z"/>
</svg>
