<?xml version="1.0" encoding="utf-8"?>
<!-- Generator: Adobe Illustrator 27.2.0, SVG Export Plug-In . SVG Version: 6.00 Build 0)  -->
<svg version="1.1" id="Camada_1" xmlns="http://www.w3.org/2000/svg" xmlns:xlink="http://www.w3.org/1999/xlink" x="0px" y="0px"
	 viewBox="0 0 720 891" style="enable-background:new 0 0 720 891;" xml:space="preserve">
<style type="text/css">
	.st0{opacity:0.5;}
	.st1{opacity:0.5;fill:#484443;enable-background:new    ;}
	.st2{fill:#FFFFFF;}
	.st3{enable-background:new    ;}
	.st4{fill:#201C19;}
	.st5{opacity:0.6;fill:#484442;enable-background:new    ;}
</style>
<g>
	<g>
		<g class="st0">
			<rect x="63.52" y="626.67" class="st1" width="587.08" height="0.5"/>
			<rect x="63.52" y="534.63" class="st1" width="587.08" height="0.5"/>
			<rect x="63.52" y="443.89" class="st1" width="587.08" height="0.5"/>
			<rect x="63.52" y="350.56" class="st1" width="587.08" height="0.5"/>
			<rect x="63.52" y="443.89" class="st1" width="587.08" height="0.5"/>
			<rect x="63.52" y="350.56" class="st1" width="587.08" height="0.5"/>
			<rect x="63.52" y="534.63" class="st1" width="587.08" height="0.5"/>
			<rect x="63.52" y="625.37" class="st1" width="587.08" height="0.5"/>
			<rect x="63.52" y="258.52" class="st1" width="587.08" height="0.5"/>
		</g>
		<rect x="525.24" y="506.36" class="st2" width="101.11" height="211.94"/>
		<rect x="525.24" y="457.67" class="st2" width="101.11" height="260.63"/>
		<rect x="306.37" y="373.67" class="st2" width="101.11" height="344.63"/>
		<rect x="65.89" y="717.8" width="584.71" height="1"/>
		<g>
			<g class="st3">
				<path class="st4" d="M336.14,338.65l-0.39,15.52c0,0.72-0.24,1.26-0.71,1.63c-0.48,0.36-1.01,0.54-1.6,0.54
					c-0.92,0-1.38-1.23-1.38-3.69c0-5.09,0.15-9.79,0.44-14.09l-5.02,0.3c-0.39,0.03-0.76-0.16-1.08-0.57
					c-0.33-0.41-0.49-0.83-0.49-1.26c0-1.15,0.69-1.72,2.07-1.72l4.83-0.05l0.49-5.96c-1.12-0.39-3.97-0.95-8.57-1.67
					c-1.77-0.3-2.82-0.48-3.15-0.54c-0.85-0.16-1.28-0.8-1.28-1.92c0-0.39,0.16-0.77,0.49-1.13c0.33-0.36,0.8-0.54,1.4-0.54
					c0.61,0,3.07,0.35,7.39,1.06s6.71,1.27,7.17,1.7c0.2,0.17,0.3,0.77,0.3,1.82c0,0.49-0.12,1.82-0.35,3.99
					c-0.2,1.51-0.31,2.55-0.34,3.1l2.46-0.15c0.23,0,0.6,0,1.11,0c0.51,0,0.94,0.12,1.31,0.34s0.54,0.67,0.54,1.3
					c0,0.64-0.23,1.12-0.69,1.43s-1.35,0.49-2.66,0.52L336.14,338.65z"/>
				<path class="st4" d="M349.79,335.05c1.35-0.49,2.64-0.74,3.89-0.74s2.45,0.2,3.62,0.59c1.17,0.39,2.23,1,3.2,1.82
					s1.75,1.95,2.34,3.37s0.89,3.08,0.89,4.95c0,3.15-0.92,5.81-2.76,7.98s-3.97,3.25-6.38,3.25s-4.53-0.55-6.35-1.65
					s-2.73-2.31-2.73-3.62c0-0.62,0.07-1.09,0.22-1.4s0.42-0.57,0.81-0.76c0.39-0.2,0.75-0.29,1.06-0.29s0.74,0.19,1.28,0.57
					s1.31,0.91,2.29,1.6c0.99,0.69,2.12,1.03,3.4,1.03s2.41-0.65,3.4-1.95c0.99-1.3,1.48-2.72,1.48-4.26c0-4.43-1.99-6.65-5.96-6.65
					c-0.85,0-1.85,0.08-2.98,0.25c-1.13,0.16-1.87,0.26-2.22,0.29c-0.34,0.03-0.81-0.08-1.4-0.34c-0.69-0.66-1.03-2.75-1.03-6.28
					s0.08-5.81,0.25-6.85c0.16-1.03,0.44-1.63,0.84-1.8c0.69-0.3,2.75-0.44,6.18-0.44s6.18,0.33,8.25,0.99
					c0.66,0.39,0.98,0.96,0.98,1.7c0,0.74-0.21,1.34-0.62,1.8s-0.85,0.64-1.31,0.54c-2.73-0.59-5.47-0.89-8.23-0.89
					c-0.85,0-1.71,0.03-2.56,0.1C349.64,329.24,349.69,331.61,349.79,335.05z"/>
				<path class="st4" d="M367.96,328.11c1.54-2.46,3.89-3.69,7.04-3.69c1.71,0,3.14,0.49,4.29,1.48c1.15,0.99,1.72,2.47,1.72,4.46
					s-0.86,3.95-2.59,5.89c-1.72,1.94-3.64,2.91-5.74,2.91c-1.54,0-2.91-0.61-4.11-1.82c-1.2-1.21-1.8-2.74-1.8-4.58
					C366.78,330.9,367.17,329.36,367.96,328.11z M391.21,326.78c0,0.56-0.9,2.13-2.71,4.73c-1.08,1.35-3.78,5.44-8.08,12.27
					c-2.76,4.3-4.88,7.68-6.36,10.15c-0.85,1.35-1.7,2.02-2.54,2.02s-1.45-0.3-1.85-0.89c-0.17-0.26-0.25-0.56-0.25-0.89
					c0-0.33,0.14-0.77,0.42-1.33s1.27-1.86,2.98-3.92c1.71-2.05,3.67-4.93,5.89-8.62s3.87-6.4,4.95-8.1
					c1.08-1.71,1.82-2.97,2.22-3.79c0.62-1.45,1.43-2.59,2.41-3.45c0.62-0.43,1.18-0.64,1.67-0.64s0.82,0.12,0.99,0.34
					c0.16,0.23,0.25,0.62,0.25,1.18L391.21,326.78L391.21,326.78z M377.32,330.92c0-2.4-0.74-3.6-2.22-3.6s-2.63,0.48-3.47,1.45
					s-1.26,2.11-1.26,3.42s0.17,2.17,0.52,2.56c0.34,0.39,1.03,0.59,2.07,0.59c1.03,0,2.02-0.43,2.96-1.28
					C376.85,333.21,377.32,332.16,377.32,330.92z M380.62,349.81c0-2.02,0.82-3.82,2.46-5.39c1.64-1.58,3.4-2.36,5.27-2.36
					s3.38,0.67,4.51,2s1.7,2.99,1.7,4.97c0,1.99-0.74,3.64-2.22,4.95s-3.23,1.97-5.25,1.97s-3.6-0.52-4.75-1.55
					C381.2,353.35,380.62,351.83,380.62,349.81z M384.27,349.34c0,2.13,1.02,3.2,3.05,3.2c0.89,0,1.77-0.41,2.66-1.23
					s1.33-1.64,1.33-2.46c0-1.44-0.38-2.46-1.13-3.05c-0.36-0.26-0.79-0.39-1.28-0.39c-1.18,0-2.25,0.37-3.2,1.11
					C384.74,347.25,384.27,348.19,384.27,349.34z"/>
			</g>
		</g>
		<g>
			<g class="st3">
				<path class="st4" d="M101.28,526.31c-1.94,0-3.74,0.84-5.42,2.51c-0.46,0.33-0.87,0.49-1.23,0.49s-0.67-0.03-0.94-0.1
					c-0.76-0.23-1.13-0.75-1.13-1.58c0-1.35,0.85-2.53,2.56-3.55c1.71-1.02,3.73-1.53,6.06-1.53c2.33,0,4.28,0.62,5.84,1.85
					s2.34,2.83,2.34,4.8s-0.22,3.61-0.67,4.93s-1.4,2.4-2.88,3.25c3.48,1.31,5.22,3.68,5.22,7.09c0,2.89-0.87,5.38-2.61,7.46
					c-1.74,2.09-3.87,3.13-6.38,3.13s-4.72-0.6-6.63-1.8c-1.9-1.2-2.86-2.55-2.86-4.06c0-0.3,0.16-0.64,0.49-1.04
					c0.33-0.39,0.8-0.59,1.43-0.59c0.62,0,1.3,0.29,2.02,0.86c0.72,0.57,1.54,1.15,2.46,1.72c0.92,0.58,1.95,0.86,3.1,0.86
					c3.28,0,4.93-2.05,4.93-6.16c0-1.58-0.57-2.85-1.7-3.82s-2.73-1.47-4.8-1.5c-0.43-0.03-0.75-0.07-0.96-0.1
					c-0.21-0.03-0.49-0.18-0.84-0.44c-0.34-0.26-0.52-0.67-0.52-1.23c0-1.18,0.66-1.82,1.97-1.92s2.49-0.69,3.52-1.77
					s1.55-2.45,1.55-4.09c0-0.92-0.39-1.76-1.18-2.54C103.25,526.7,102.33,526.31,101.28,526.31z"/>
				<path class="st4" d="M128.18,552.76c0,1.61-0.87,2.41-2.61,2.41c-0.36,0-0.68-0.16-0.96-0.47s-0.42-0.8-0.42-1.45l-0.15-12.51
					c0-4.14,0.05-8.03,0.15-11.67c-1.12,0.99-2.2,2.12-3.25,3.4s-1.77,2.13-2.14,2.56c-0.38,0.43-0.87,0.85-1.48,1.26
					c-0.61,0.41-1.17,0.62-1.7,0.62s-0.94-0.18-1.26-0.54c-0.31-0.36-0.47-0.8-0.47-1.33s0.39-1.24,1.16-2.14
					c0.77-0.9,3.62-3.97,8.55-9.19c0.75-0.69,1.71-1.03,2.86-1.03c0.56,0,1.02,0.17,1.38,0.49c0.36,0.33,0.54,0.71,0.54,1.13
					l-0.34,13.25L128.18,552.76z"/>
				<path class="st4" d="M136.06,549.96c0.89,0,1.48,0.46,1.77,1.38c0,2.17-0.34,4.12-1.03,5.86c-0.23,0.62-0.57,1.15-1.01,1.58
					s-0.91,0.64-1.4,0.64c-1.08,0-1.63-0.58-1.63-1.72c0-0.36,0.05-0.71,0.15-1.03c1.02-1.15,1.53-2.87,1.53-5.17
					C134.63,550.47,135.17,549.96,136.06,549.96z"/>
				<path class="st4" d="M154.87,555.18l-7.24-0.1c-0.33,0-0.66,0-0.99,0c-3.25,0-4.88-0.62-4.88-1.87c0-0.89,0.16-1.72,0.49-2.51
					c0.33-0.79,0.64-1.38,0.94-1.77s0.89-1.05,1.77-1.97c0.89-0.92,1.53-1.61,1.92-2.07s1.58-1.63,3.57-3.5s3.48-3.56,4.48-5.07
					s1.5-3.1,1.5-4.78c0-2.59-1.03-4.27-3.1-5.02c-0.59-0.2-1.2-0.29-1.82-0.29c-1.41,0-2.82,0.61-4.24,1.82
					c-0.56,0.53-1.15,0.79-1.77,0.79c-0.2,0-0.38-0.02-0.54-0.05c-0.82-0.2-1.23-0.77-1.23-1.72c0-1.28,0.9-2.35,2.71-3.2
					c1.94-0.92,4.05-1.38,6.33-1.38s4.15,0.83,5.62,2.49c1.46,1.66,2.19,3.72,2.19,6.18c0,3.51-1.08,6.54-3.25,9.06
					c-1.02,1.18-2.05,2.28-3.1,3.3c-3.32,3.15-5.53,5.55-6.65,7.19c1.48,0.1,3.31,0.15,5.49,0.15c2.18,0,4.88-0.13,8.1-0.39
					c0.49,0.1,0.89,0.32,1.21,0.67c0.31,0.34,0.47,0.73,0.47,1.16c0,1.12-0.59,1.89-1.77,2.32
					C159.9,554.98,157.83,555.18,154.87,555.18z"/>
				<path class="st4" d="M166.79,526.9c1.54-2.46,3.89-3.69,7.04-3.69c1.71,0,3.14,0.49,4.29,1.48s1.72,2.47,1.72,4.46
					c0,1.99-0.86,3.95-2.59,5.89s-3.64,2.91-5.74,2.91c-1.54,0-2.92-0.61-4.11-1.82c-1.2-1.21-1.8-2.74-1.8-4.58
					C165.61,529.7,166.01,528.15,166.79,526.9z M190.04,525.57c0,0.56-0.9,2.13-2.71,4.73c-1.08,1.35-3.78,5.44-8.08,12.27
					c-2.76,4.3-4.88,7.68-6.35,10.15c-0.85,1.35-1.7,2.02-2.54,2.02s-1.45-0.3-1.85-0.89c-0.16-0.26-0.25-0.56-0.25-0.89
					s0.14-0.77,0.42-1.33s1.27-1.86,2.98-3.92c1.71-2.05,3.67-4.93,5.89-8.62s3.87-6.4,4.95-8.1c1.08-1.71,1.82-2.97,2.22-3.79
					c0.62-1.45,1.43-2.59,2.41-3.45c0.62-0.43,1.18-0.64,1.67-0.64s0.82,0.12,0.99,0.34c0.16,0.23,0.25,0.62,0.25,1.18
					L190.04,525.57L190.04,525.57z M176.15,529.71c0-2.4-0.74-3.6-2.22-3.6s-2.64,0.48-3.47,1.45s-1.26,2.11-1.26,3.42
					s0.17,2.17,0.52,2.56s1.03,0.59,2.07,0.59c1.03,0,2.02-0.43,2.96-1.28C175.68,532.01,176.15,530.96,176.15,529.71z
					 M179.45,548.6c0-2.02,0.82-3.82,2.46-5.39c1.64-1.58,3.4-2.36,5.27-2.36c1.87,0,3.37,0.67,4.51,2c1.13,1.33,1.7,2.99,1.7,4.97
					c0,1.99-0.74,3.64-2.22,4.95s-3.23,1.97-5.25,1.97s-3.6-0.52-4.75-1.55C180.03,552.15,179.45,550.62,179.45,548.6z
					 M183.1,548.13c0,2.13,1.02,3.2,3.05,3.2c0.89,0,1.77-0.41,2.66-1.23s1.33-1.64,1.33-2.46c0-1.44-0.38-2.46-1.13-3.05
					c-0.36-0.26-0.79-0.39-1.28-0.39c-1.18,0-2.25,0.37-3.2,1.11C183.57,546.04,183.1,546.98,183.1,548.13z"/>
			</g>
		</g>
		<g>
			<g class="st3">
				<path class="st4" d="M546.83,422.22c1.35-0.49,2.64-0.74,3.89-0.74s2.46,0.2,3.62,0.59c1.17,0.39,2.23,1,3.2,1.82
					c0.97,0.82,1.75,1.95,2.34,3.37c0.59,1.43,0.89,3.08,0.89,4.95c0,3.15-0.92,5.81-2.76,7.98s-3.96,3.25-6.38,3.25
					s-4.53-0.55-6.35-1.65c-1.82-1.1-2.73-2.31-2.73-3.62c0-0.62,0.07-1.09,0.22-1.4c0.15-0.31,0.42-0.57,0.81-0.76
					c0.39-0.2,0.75-0.29,1.06-0.29s0.74,0.19,1.28,0.57c0.54,0.38,1.31,0.91,2.29,1.6c0.99,0.69,2.12,1.03,3.4,1.03
					s2.41-0.65,3.4-1.95c0.99-1.3,1.48-2.72,1.48-4.26c0-4.43-1.99-6.65-5.96-6.65c-0.85,0-1.85,0.08-2.98,0.25
					c-1.13,0.16-1.87,0.26-2.22,0.29s-0.81-0.08-1.4-0.34c-0.69-0.66-1.04-2.75-1.04-6.28s0.08-5.81,0.25-6.85
					c0.16-1.03,0.44-1.63,0.84-1.8c0.69-0.3,2.75-0.44,6.18-0.44s6.18,0.33,8.25,0.99c0.66,0.39,0.98,0.96,0.98,1.7
					c0,0.74-0.21,1.34-0.62,1.8s-0.85,0.64-1.31,0.54c-2.73-0.59-5.47-0.89-8.23-0.89c-0.86,0-1.71,0.03-2.56,0.1
					C546.68,416.4,546.73,418.77,546.83,422.22z"/>
				<path class="st4" d="M578.4,425.81l-0.39,15.52c0,0.72-0.24,1.26-0.71,1.63c-0.48,0.36-1.01,0.54-1.6,0.54
					c-0.92,0-1.38-1.23-1.38-3.69c0-5.09,0.15-9.79,0.44-14.09l-5.03,0.3c-0.39,0.03-0.76-0.16-1.08-0.57
					c-0.33-0.41-0.49-0.83-0.49-1.26c0-1.15,0.69-1.72,2.07-1.72l4.83-0.05l0.49-5.96c-1.12-0.39-3.97-0.95-8.57-1.67
					c-1.77-0.3-2.83-0.48-3.15-0.54c-0.86-0.16-1.28-0.8-1.28-1.92c0-0.39,0.16-0.77,0.49-1.13c0.33-0.36,0.8-0.54,1.4-0.54
					s3.07,0.35,7.39,1.06s6.71,1.27,7.17,1.7c0.2,0.17,0.3,0.77,0.3,1.82c0,0.49-0.12,1.82-0.35,3.99c-0.2,1.51-0.31,2.55-0.34,3.1
					l2.46-0.15c0.23,0,0.6,0,1.11,0s0.94,0.12,1.31,0.34s0.54,0.67,0.54,1.3c0,0.64-0.23,1.12-0.69,1.43s-1.35,0.49-2.66,0.52
					L578.4,425.81z"/>
				<path class="st4" d="M589.39,415.27c1.54-2.46,3.89-3.69,7.04-3.69c1.71,0,3.14,0.49,4.29,1.48s1.72,2.47,1.72,4.46
					s-0.86,3.95-2.59,5.89s-3.64,2.91-5.74,2.91c-1.54,0-2.92-0.61-4.11-1.82c-1.2-1.21-1.8-2.74-1.8-4.58
					C588.2,418.06,588.6,416.52,589.39,415.27z M612.64,413.94c0,0.56-0.9,2.13-2.71,4.73c-1.08,1.35-3.78,5.44-8.08,12.27
					c-2.76,4.3-4.88,7.68-6.35,10.15c-0.85,1.35-1.7,2.02-2.54,2.02c-0.84,0-1.45-0.3-1.85-0.89c-0.17-0.26-0.25-0.56-0.25-0.89
					c0-0.33,0.14-0.77,0.42-1.33c0.28-0.56,1.27-1.86,2.98-3.92c1.71-2.05,3.67-4.93,5.89-8.62c2.22-3.69,3.87-6.4,4.95-8.1
					c1.08-1.71,1.82-2.97,2.22-3.79c0.62-1.45,1.43-2.59,2.41-3.45c0.62-0.43,1.18-0.64,1.67-0.64s0.82,0.12,0.99,0.34
					c0.16,0.23,0.25,0.62,0.25,1.18L612.64,413.94L612.64,413.94z M598.75,418.08c0-2.4-0.74-3.6-2.22-3.6s-2.64,0.48-3.47,1.45
					c-0.84,0.97-1.26,2.11-1.26,3.42s0.17,2.17,0.52,2.56c0.35,0.39,1.04,0.59,2.07,0.59s2.02-0.43,2.96-1.28
					C598.28,420.38,598.75,419.33,598.75,418.08z M602.05,436.97c0-2.02,0.82-3.82,2.46-5.39c1.64-1.58,3.4-2.36,5.27-2.36
					s3.37,0.67,4.51,2c1.13,1.33,1.7,2.99,1.7,4.97c0,1.99-0.74,3.64-2.22,4.95s-3.23,1.97-5.25,1.97s-3.6-0.52-4.75-1.55
					C602.62,440.52,602.05,438.99,602.05,436.97z M605.69,436.5c0,2.13,1.02,3.2,3.05,3.2c0.89,0,1.77-0.41,2.66-1.23
					c0.89-0.82,1.33-1.64,1.33-2.46c0-1.44-0.38-2.46-1.13-3.05c-0.36-0.26-0.79-0.39-1.28-0.39c-1.18,0-2.25,0.37-3.2,1.11
					C606.17,434.41,605.69,435.35,605.69,436.5z"/>
			</g>
		</g>
		<g>
			<g class="st3">
				<path class="st4" d="M78.73,750.33c1.73,0.29,3.32,0.43,4.76,0.43s2.37-0.01,2.77-0.03c-0.04-1.69-0.07-3.31-0.07-4.86
					s0-2.61,0-3.17c0-0.55,0.02-0.91,0.07-1.05s0.19-0.28,0.43-0.42c0.24-0.13,0.6-0.2,1.07-0.2c0.67,0,1,0.4,1,1.2v11.79
					c0,2.44-0.06,5.13-0.17,8.06c-0.02,0.64-0.57,0.97-1.63,0.97c-0.53,0-0.8-0.32-0.8-0.97l0.13-8.83
					c-0.71,0.04-1.68,0.07-2.92,0.07c-1.23,0-2.78-0.13-4.65-0.4c0,2.93,0.13,6,0.4,9.2c0.02,0.36-0.13,0.63-0.47,0.82
					c-0.33,0.19-0.75,0.28-1.25,0.28s-0.77-0.25-0.82-0.77c-0.29-3.15-0.43-6.26-0.43-9.33l0.2-10.39c0-0.44,0.17-0.77,0.5-0.98
					c0.33-0.21,0.69-0.32,1.07-0.32c0.62,0,0.93,0.3,0.93,0.9L78.73,750.33z"/>
				<path class="st4" d="M93.39,742.04c0.4,0,0.78,0.19,1.13,0.57s0.53,0.77,0.53,1.18s-0.19,0.83-0.58,1.25s-0.79,0.63-1.22,0.63
					s-0.81-0.18-1.15-0.53c-0.34-0.35-0.52-0.81-0.52-1.37c0-1.07,0.58-1.64,1.73-1.73C93.34,742.04,93.36,742.04,93.39,742.04z
					 M94.79,759.5l0.03,2.33c0,0.42-0.17,0.77-0.5,1.05c-0.33,0.28-0.69,0.42-1.07,0.42c-0.56,0-0.84-0.28-0.87-0.83
					c-0.29-7.08-0.43-11.01-0.43-11.76s0.03-1.68,0.1-2.77c0.04-0.4,0.3-0.6,0.77-0.6c1.18,0,1.84,0.48,2,1.43
					c0.07,0.49,0.1,0.88,0.1,1.17l-0.13,2.1C94.79,752.04,94.79,759.5,94.79,759.5z"/>
				<path class="st4" d="M103.92,763.06c-0.76,0-1.46-0.25-2.1-0.77l-0.43-0.37v10c-0.13,0.44-0.37,0.82-0.7,1.12
					s-0.69,0.45-1.07,0.45c-0.58,0-0.87-0.39-0.87-1.17V749.1c0.13-0.58,0.29-0.99,0.48-1.23s0.49-0.37,0.9-0.37s0.68,0.09,0.8,0.28
					s0.27,0.71,0.45,1.55c0.09-0.44,0.44-0.85,1.07-1.23c0.62-0.38,1.45-0.57,2.5-0.57c2.27,0,3.88,0.82,4.83,2.46
					c0.95,1.64,1.43,3.58,1.43,5.81s-0.65,4-1.95,5.3C107.96,762.41,106.18,763.06,103.92,763.06z M101.38,753.07v6.2
					c0.13,0.07,0.29,0.18,0.47,0.33c0.64,0.58,1.34,0.87,2.1,0.87c3.06,0,4.6-1.58,4.6-4.73c0-2.69-0.69-4.39-2.07-5.1
					c-0.58-0.31-1.29-0.47-2.13-0.47c-0.82,0.11-1.52,0.47-2.1,1.08C101.67,751.86,101.38,752.47,101.38,753.07z"/>
				<path class="st4" d="M117.71,747.67c1.18,0,2.3,0.34,3.37,1.03s1.6,1.54,1.6,2.55s-0.43,1.99-1.3,2.93s-2.02,1.52-3.46,1.72
					c-0.62,0.09-1.56,0.13-2.8,0.13c0.24,1.89,0.72,3.13,1.43,3.73c0.22,0.25,0.52,0.37,0.9,0.37c1.38,0,2.53-0.44,3.46-1.32
					s1.6-1.32,2-1.32c0.18,0,0.44,0.17,0.8,0.5c0.35,0.33,0.53,0.64,0.53,0.93c0,0.58-0.7,1.41-2.1,2.5
					c-0.62,0.51-1.37,0.94-2.25,1.28s-1.69,0.52-2.45,0.52c-1.93,0-3.35-1.24-4.26-3.73c-0.58-1.53-0.87-3.22-0.87-5.06
					s0.43-3.43,1.3-4.76S115.84,747.67,117.71,747.67z M117.88,749.97c-0.84,0-1.57,0.48-2.17,1.43c-0.22,0.33-0.43,1.09-0.63,2.27
					c3.11,0,4.66-0.77,4.66-2.3C119.74,750.43,119.12,749.97,117.88,749.97z"/>
				<path class="st4" d="M130.47,758.23l0.03,3.43c0,0.4-0.18,0.77-0.55,1.1c-0.37,0.33-0.73,0.5-1.08,0.5
					c-0.51,0-0.83-0.4-0.97-1.2c-0.02-0.18-0.11-1.8-0.27-4.88c-0.16-3.08-0.46-5.49-0.9-7.25c-0.2-0.84-0.3-1.34-0.3-1.5
					c0-0.73,0.44-1.1,1.33-1.1c0.38,0,0.68,0.14,0.9,0.43s0.36,0.58,0.42,0.88s0.11,0.71,0.15,1.22s0.08,0.83,0.1,0.97
					c0.47-1.11,1.17-1.94,2.1-2.5c0.93-0.55,1.95-0.83,3.06-0.83c1.82,0,2.73,0.47,2.73,1.4c0,0.47-0.16,0.84-0.48,1.12
					c-0.32,0.28-0.69,0.42-1.12,0.42c-1.89,0-3.22,0.6-4,1.8C130.86,753.43,130.47,755.43,130.47,758.23z"/>
				<path class="st4" d="M139.83,747.54l1.67,0.03c0.38,0,0.59-0.01,0.63-0.03v-6.83c0.02-0.38,0.21-0.7,0.57-0.97
					c0.35-0.27,0.69-0.4,1-0.4s0.56,0.1,0.75,0.3s0.27,0.51,0.25,0.93s-0.03,2.73-0.03,6.93l3.9-0.13c0.67,0,1,0.39,1,1.17
					c0,0.58-0.17,1.01-0.52,1.3c-0.34,0.29-0.71,0.44-1.1,0.47c-0.39,0.02-0.77,0.03-1.15,0.03l-2.03-0.03
					c0,0.91,0.09,2.71,0.28,5.4s0.34,4.43,0.45,5.21c0.11,0.79,0.13,1.3,0.07,1.53c-0.07,0.23-0.19,0.39-0.37,0.48
					c-0.29,0.13-0.68,0.2-1.17,0.2s-0.78-0.27-0.87-0.8c-0.44-2.91-0.74-6.91-0.9-11.99c-0.2,0.02-0.97,0.03-2.3,0.03
					s-2-0.39-2-1.17C137.96,748.09,138.59,747.54,139.83,747.54z"/>
				<path class="st4" d="M155.26,747.67c1.18,0,2.3,0.34,3.37,1.03c1.07,0.69,1.6,1.54,1.6,2.55s-0.43,1.99-1.3,2.93
					s-2.02,1.52-3.46,1.72c-0.62,0.09-1.56,0.13-2.8,0.13c0.24,1.89,0.72,3.13,1.43,3.73c0.22,0.25,0.52,0.37,0.9,0.37
					c1.38,0,2.53-0.44,3.46-1.32c0.93-0.88,1.6-1.32,2-1.32c0.18,0,0.44,0.17,0.8,0.5c0.35,0.33,0.53,0.64,0.53,0.93
					c0,0.58-0.7,1.41-2.1,2.5c-0.62,0.51-1.37,0.94-2.25,1.28s-1.69,0.52-2.45,0.52c-1.93,0-3.35-1.24-4.26-3.73
					c-0.58-1.53-0.87-3.22-0.87-5.06s0.43-3.43,1.3-4.76S153.39,747.67,155.26,747.67z M155.42,749.97c-0.84,0-1.57,0.48-2.17,1.43
					c-0.22,0.33-0.43,1.09-0.63,2.27c3.11,0,4.66-0.77,4.66-2.3C157.29,750.43,156.67,749.97,155.42,749.97z"/>
				<path class="st4" d="M164.98,762.06l-0.37-13.53c0-0.42,0.14-0.77,0.43-1.03c0.29-0.27,0.58-0.4,0.87-0.4
					c0.71,0,1.12,0.3,1.23,0.9c0.09,0.6,0.13,1.22,0.13,1.87c1.2-1.58,2.7-2.37,4.5-2.37c2.75,0,4.13,3.14,4.13,9.43
					c0,0.58,0,1.45,0,2.62s-0.07,2.02-0.2,2.55c-0.16,0.67-0.63,1-1.43,1c-0.53,0-0.8-0.36-0.8-1.07l0.03-1.87
					c0-2.58-0.08-4.34-0.25-5.28s-0.33-1.69-0.48-2.25c-0.38-1.2-0.99-1.8-1.83-1.8c-1.11,0-1.89,0.4-2.33,1.2
					c-0.49,0.87-0.78,1.89-0.87,3.07c-0.16,2.07-0.23,4.25-0.23,6.56c0,0.44-0.17,0.8-0.5,1.07s-0.73,0.4-1.2,0.4
					C165.26,763.13,164.98,762.77,164.98,762.06z"/>
				<path class="st4" d="M180.74,748.63c0.93-0.78,2.02-1.17,3.25-1.17s2.42,0.22,3.55,0.67s1.7,1.03,1.7,1.77
					c0,0.38-0.14,0.68-0.43,0.9c-0.29,0.22-0.54,0.33-0.75,0.33s-0.38,0-0.5-0.02c-0.12-0.01-0.57-0.22-1.33-0.62
					s-1.47-0.6-2.12-0.6c-0.64,0-1.19,0.16-1.65,0.48c-0.46,0.32-0.68,0.79-0.68,1.42s0.26,1.11,0.78,1.47s1.44,0.66,2.75,0.92
					s2.32,0.62,3.02,1.08c0.7,0.47,1.05,1.33,1.05,2.6c0,1.84-0.48,3.15-1.45,3.91c-0.97,0.77-2.14,1.15-3.52,1.15
					s-2.55-0.19-3.51-0.57c-0.97-0.38-1.45-0.94-1.45-1.7c0-0.87,0.43-1.3,1.3-1.3c0.22,0,0.71,0.16,1.47,0.47
					c0.75,0.31,1.5,0.47,2.25,0.47c0.74,0,1.31-0.24,1.7-0.72s0.58-1.03,0.58-1.65s-0.26-1.07-0.77-1.35
					c-0.51-0.28-1.29-0.5-2.33-0.68c-1.04-0.18-1.81-0.37-2.3-0.57c-1.33-0.53-2-1.72-2-3.57
					C179.34,750.46,179.81,749.41,180.74,748.63z"/>
				<path class="st4" d="M200.9,747.54c0.98,0,1.47,0.83,1.47,2.5c0,0.18,0,0.37,0,0.57l-0.07,2.33c-0.02,0.73-0.03,1.46-0.03,2.17
					l0.5,7.53c0,0.56-0.57,0.83-1.7,0.83c-0.07,0-0.23,0-0.48,0c-0.26,0-0.43-0.1-0.53-0.3s-0.11-0.44-0.03-0.73
					s0.05-0.61-0.08-0.97c-1.02,1.09-2.38,1.63-4.06,1.63c-3.13,0-4.7-2.42-4.7-7.26c0-2.69,0.5-4.72,1.52-6.1
					c1.01-1.38,2.46-2.07,4.35-2.07c0.89,0,1.78,0.16,2.67,0.47C199.99,747.74,200.39,747.54,200.9,747.54z M192.6,744.29
					c0-0.46,0.33-0.95,0.98-1.48c0.65-0.53,1.28-0.8,1.87-0.8s1.06,0.09,1.42,0.27c0.35,0.18,0.6,0.38,0.73,0.6
					c0.35,0.58,0.68,0.87,0.97,0.87c0.29,0,0.6-0.27,0.95-0.8c0.34-0.53,0.67-0.8,0.97-0.8s0.56,0.13,0.78,0.4s0.33,0.54,0.33,0.83
					c0,0.8-0.33,1.41-0.98,1.83c-0.66,0.42-1.29,0.63-1.9,0.63s-1.08-0.13-1.42-0.38c-0.33-0.25-0.62-0.51-0.87-0.77
					c-0.24-0.26-0.51-0.38-0.8-0.38c-0.13,0-0.41,0.25-0.83,0.75s-0.78,0.75-1.07,0.75c-0.29,0-0.55-0.14-0.78-0.42
					C192.72,745.11,192.6,744.74,192.6,744.29z M197.43,750.57c-1.27,0-2.21,0.37-2.83,1.1s-0.93,2.08-0.93,4.03
					c0,3.29,0.89,4.93,2.67,4.93c0.47,0,0.98-0.21,1.55-0.63s0.96-0.9,1.18-1.43c0.42-1.2,0.63-2.51,0.63-3.93s-0.17-2.45-0.52-3.1
					C198.84,750.89,198.26,750.57,197.43,750.57z"/>
				<path class="st4" d="M210.56,747.57c1.6,0,2.92,0.77,3.95,2.3c1.03,1.53,1.55,3.37,1.55,5.51s-0.53,3.97-1.58,5.48
					c-1.06,1.51-2.45,2.27-4.2,2.27s-3.15-0.77-4.21-2.32c-1.07-1.54-1.6-3.26-1.6-5.15c0-2.42,0.49-4.35,1.47-5.8
					C206.97,748.33,208.52,747.57,210.56,747.57z M210.16,750.3c-0.93,0-1.7,0.49-2.3,1.47s-0.9,2.01-0.9,3.1
					c0,1.69,0.33,2.98,1,3.87s1.42,1.33,2.27,1.33c1.51,0,2.48-0.65,2.9-1.96c0.18-0.62,0.27-1.4,0.27-2.33
					C213.39,752.12,212.31,750.3,210.16,750.3z"/>
			</g>
		</g>
		<g>
			<g class="st3">
				<path class="st4" d="M269.41,751.63c-0.31-0.2-0.47-0.49-0.47-0.87s0.12-0.72,0.37-1.03c-0.09-2.22-0.13-4.56-0.13-7.03
					c0.13-0.53,0.34-0.92,0.62-1.17s0.68-0.4,1.22-0.47c2.93,0.13,6.11,0.2,9.53,0.2c0.84,0.18,1.27,0.54,1.27,1.1
					c0,0.93-0.91,1.48-2.73,1.63c-0.49,0.02-1.02,0.03-1.6,0.03h-2.17c-0.42,0-1.59-0.09-3.5-0.27c0,2.78,0.04,4.69,0.13,5.73
					c1.18,0.02,3.44,0.03,6.8,0.03c0.8,0.16,1.2,0.52,1.2,1.08s-0.32,1.01-0.97,1.32c-0.07,0.04-0.19,0.09-0.37,0.13l-5.76-0.1
					c-0.36,0-0.64,0.02-0.87,0.07l0.13,5.73c0,1.29-0.03,2.21-0.1,2.77l7.73-0.1c0.71,0.11,1.07,0.41,1.07,0.9
					c0,0.33-0.15,0.67-0.45,1s-0.65,0.54-1.05,0.63l-8.53,0.13c-0.51,0-0.87-0.09-1.07-0.28s-0.3-0.5-0.3-0.95
					c0.09-0.62,0.13-1.62,0.13-3v-2.33L269.41,751.63z"/>
				<path class="st4" d="M287.34,748.14l2.73,4.8c0.75-0.82,1.47-1.73,2.13-2.73l1.4-2.07c0.27-0.38,0.59-0.57,0.98-0.57
					s0.7,0.12,0.95,0.35c0.24,0.23,0.37,0.51,0.37,0.83s-0.47,1.19-1.4,2.6s-1.93,2.78-3,4.11c0.2,0.31,0.64,1.03,1.33,2.17
					c0.69,1.13,1.44,2.21,2.27,3.23c0.16,0.25,0.23,0.54,0.23,0.88s-0.13,0.66-0.4,0.95c-0.27,0.29-0.57,0.43-0.9,0.43
					c-0.56,0-1.28-0.62-2.17-1.85s-1.68-2.58-2.37-4.05c-0.67,0.91-1.32,1.87-1.95,2.87s-1.12,1.73-1.47,2.18
					c-0.34,0.46-0.72,0.68-1.13,0.68s-0.73-0.12-0.97-0.37c-0.23-0.24-0.35-0.54-0.35-0.9c0-0.87,1.55-3.05,4.66-6.56
					c-0.38-0.73-1.07-1.88-2.07-3.43s-1.5-2.51-1.5-2.87c0-0.35,0.15-0.67,0.45-0.93s0.68-0.4,1.13-0.4
					C286.78,747.5,287.12,747.71,287.34,748.14z"/>
				<path class="st4" d="M299.22,751.23c0.79-1.22,1.79-2.14,3.02-2.75c1.22-0.61,2.41-0.92,3.56-0.92s2.08,0.14,2.78,0.42
					c0.7,0.28,1.05,0.64,1.05,1.1s-0.13,0.91-0.38,1.37c-0.26,0.46-0.59,0.68-1.02,0.68c-0.16,0-0.58-0.13-1.28-0.38
					s-1.15-0.38-1.35-0.38c-1.29,0-2.39,0.47-3.3,1.42c-0.91,0.94-1.37,2.19-1.37,3.75s0.25,2.71,0.75,3.48
					c0.5,0.77,1.36,1.15,2.58,1.15c0.49,0,1.33-0.28,2.52-0.85c1.19-0.57,1.93-0.85,2.22-0.85s0.52,0.09,0.7,0.27
					c0.18,0.18,0.27,0.4,0.27,0.67c0,0.53-0.34,1.09-1.02,1.68c-0.68,0.59-1.52,1.08-2.52,1.47s-1.9,0.58-2.7,0.58
					c-1.78,0-3.17-0.7-4.18-2.1s-1.52-3.31-1.52-5.73C298.03,753.81,298.43,752.46,299.22,751.23z"/>
				<path class="st4" d="M316.22,747.67c1.18,0,2.3,0.34,3.37,1.03s1.6,1.54,1.6,2.55s-0.43,1.99-1.3,2.93s-2.02,1.52-3.46,1.72
					c-0.62,0.09-1.56,0.13-2.8,0.13c0.24,1.89,0.72,3.13,1.43,3.73c0.22,0.25,0.52,0.37,0.9,0.37c1.38,0,2.53-0.44,3.46-1.32
					s1.6-1.32,2-1.32c0.18,0,0.44,0.17,0.8,0.5c0.35,0.33,0.53,0.64,0.53,0.93c0,0.58-0.7,1.41-2.1,2.5
					c-0.62,0.51-1.37,0.94-2.25,1.28s-1.69,0.52-2.45,0.52c-1.93,0-3.35-1.24-4.26-3.73c-0.58-1.53-0.87-3.22-0.87-5.06
					s0.43-3.43,1.3-4.76S314.36,747.67,316.22,747.67z M316.39,749.97c-0.84,0-1.57,0.48-2.17,1.43c-0.22,0.33-0.43,1.09-0.63,2.27
					c3.11,0,4.66-0.77,4.66-2.3C318.26,750.43,317.63,749.97,316.39,749.97z"/>
				<path class="st4" d="M326.65,748.63c0.93-0.78,2.02-1.17,3.25-1.17s2.42,0.22,3.55,0.67s1.7,1.03,1.7,1.77
					c0,0.38-0.14,0.68-0.43,0.9c-0.29,0.22-0.54,0.33-0.75,0.33s-0.38,0-0.5-0.02c-0.12-0.01-0.57-0.22-1.33-0.62
					s-1.47-0.6-2.12-0.6c-0.64,0-1.19,0.16-1.65,0.48s-0.68,0.79-0.68,1.42s0.26,1.11,0.78,1.47s1.44,0.66,2.75,0.92
					s2.32,0.62,3.02,1.08c0.7,0.47,1.05,1.33,1.05,2.6c0,1.84-0.48,3.15-1.45,3.91c-0.97,0.77-2.14,1.15-3.52,1.15
					c-1.38,0-2.55-0.19-3.51-0.57c-0.97-0.38-1.45-0.94-1.45-1.7c0-0.87,0.43-1.3,1.3-1.3c0.22,0,0.71,0.16,1.47,0.47
					c0.75,0.31,1.5,0.47,2.25,0.47c0.74,0,1.31-0.24,1.7-0.72s0.58-1.03,0.58-1.65s-0.26-1.07-0.77-1.35
					c-0.51-0.28-1.29-0.5-2.33-0.68c-1.04-0.18-1.81-0.37-2.3-0.57c-1.33-0.53-2-1.72-2-3.57
					C325.25,750.46,325.72,749.41,326.65,748.63z"/>
				<path class="st4" d="M339.48,748.63c0.93-0.78,2.02-1.17,3.25-1.17s2.42,0.22,3.55,0.67s1.7,1.03,1.7,1.77
					c0,0.38-0.14,0.68-0.43,0.9c-0.29,0.22-0.54,0.33-0.75,0.33s-0.38,0-0.5-0.02c-0.12-0.01-0.57-0.22-1.33-0.62
					s-1.47-0.6-2.12-0.6c-0.64,0-1.19,0.16-1.65,0.48s-0.68,0.79-0.68,1.42s0.26,1.11,0.78,1.47s1.44,0.66,2.75,0.92
					s2.32,0.62,3.02,1.08c0.7,0.47,1.05,1.33,1.05,2.6c0,1.84-0.48,3.15-1.45,3.91c-0.97,0.77-2.14,1.15-3.52,1.15
					c-1.38,0-2.55-0.19-3.51-0.57c-0.97-0.38-1.45-0.94-1.45-1.7c0-0.87,0.43-1.3,1.3-1.3c0.22,0,0.71,0.16,1.47,0.47
					c0.75,0.31,1.5,0.47,2.25,0.47c0.74,0,1.31-0.24,1.7-0.72s0.58-1.03,0.58-1.65s-0.26-1.07-0.77-1.35
					c-0.51-0.28-1.29-0.5-2.33-0.68c-1.04-0.18-1.81-0.37-2.3-0.57c-1.33-0.53-2-1.72-2-3.57
					C338.08,750.46,338.54,749.41,339.48,748.63z"/>
				<path class="st4" d="M356.24,747.57c1.6,0,2.92,0.77,3.95,2.3c1.03,1.53,1.55,3.37,1.55,5.51s-0.53,3.97-1.58,5.48
					c-1.06,1.51-2.45,2.27-4.2,2.27s-3.15-0.77-4.21-2.32c-1.07-1.54-1.6-3.26-1.6-5.15c0-2.42,0.49-4.35,1.47-5.8
					C352.65,748.33,354.19,747.57,356.24,747.57z M355.84,750.3c-0.93,0-1.7,0.49-2.3,1.47c-0.6,0.98-0.9,2.01-0.9,3.1
					c0,1.69,0.33,2.98,1,3.87s1.42,1.33,2.27,1.33c1.51,0,2.48-0.65,2.9-1.96c0.18-0.62,0.27-1.4,0.27-2.33
					C359.07,752.12,357.99,750.3,355.84,750.3z"/>
				<path class="st4" d="M379.39,747.5l-0.03-6.43c0-1.2,0.38-1.8,1.15-1.8s1.19,0.33,1.28,1c0.04,0.29,0.1,2.03,0.17,5.23
					c0.07,3.2,0.17,6.2,0.32,9c0.14,2.8,0.22,5.41,0.22,7.83c0,0.67-0.5,1-1.5,1c-0.67,0-1-0.47-1-1.4
					c-0.96,0.75-2.09,1.13-3.4,1.13c-1.67,0-3.01-0.62-4.05-1.87c-1.03-1.24-1.55-2.78-1.55-4.6c0-1.82,0.37-3.53,1.12-5.11
					c0.74-1.59,1.9-2.73,3.48-3.41c0.98-0.42,1.92-0.63,2.83-0.63C378.76,747.44,379.08,747.46,379.39,747.5z M379.57,752.05
					c-0.17-0.48-0.36-0.84-0.58-1.1c-0.22-0.26-0.46-0.41-0.72-0.47s-0.56-0.08-0.92-0.08c-0.36,0-0.79,0.13-1.3,0.4
					c-0.51,0.27-0.94,0.7-1.3,1.3c-0.71,1.2-1.07,2.46-1.07,3.78s0.26,2.4,0.78,3.23s1.27,1.25,2.23,1.25
					c0.97,0,1.73-0.48,2.28-1.43s0.83-2.18,0.83-3.66C379.82,753.6,379.74,752.53,379.57,752.05z"/>
				<path class="st4" d="M389.22,747.67c1.18,0,2.3,0.34,3.37,1.03s1.6,1.54,1.6,2.55s-0.43,1.99-1.3,2.93s-2.02,1.52-3.46,1.72
					c-0.62,0.09-1.56,0.13-2.8,0.13c0.24,1.89,0.72,3.13,1.43,3.73c0.22,0.25,0.52,0.37,0.9,0.37c1.38,0,2.53-0.44,3.46-1.32
					s1.6-1.32,2-1.32c0.18,0,0.44,0.17,0.8,0.5c0.35,0.33,0.53,0.64,0.53,0.93c0,0.58-0.7,1.41-2.1,2.5
					c-0.62,0.51-1.37,0.94-2.25,1.28s-1.7,0.52-2.45,0.52c-1.93,0-3.35-1.24-4.26-3.73c-0.58-1.53-0.87-3.22-0.87-5.06
					s0.43-3.43,1.3-4.76C385.99,748.33,387.35,747.67,389.22,747.67z M389.39,749.97c-0.85,0-1.57,0.48-2.17,1.43
					c-0.22,0.33-0.43,1.09-0.63,2.27c3.11,0,4.66-0.77,4.66-2.3C391.25,750.43,390.63,749.97,389.39,749.97z"/>
				<path class="st4" d="M410.61,763.06c-0.76,0-1.46-0.25-2.1-0.77l-0.43-0.37v10c-0.13,0.44-0.37,0.82-0.7,1.12
					s-0.69,0.45-1.07,0.45c-0.58,0-0.87-0.39-0.87-1.17V749.1c0.13-0.58,0.29-0.99,0.48-1.23s0.49-0.37,0.9-0.37s0.68,0.09,0.8,0.28
					s0.27,0.71,0.45,1.55c0.09-0.44,0.44-0.85,1.07-1.23c0.62-0.38,1.46-0.57,2.5-0.57c2.27,0,3.88,0.82,4.83,2.46
					c0.96,1.64,1.43,3.58,1.43,5.81s-0.65,4-1.95,5.3C414.66,762.41,412.87,763.06,410.61,763.06z M408.08,753.07v6.2
					c0.13,0.07,0.29,0.18,0.47,0.33c0.64,0.58,1.34,0.87,2.1,0.87c3.06,0,4.6-1.58,4.6-4.73c0-2.69-0.69-4.39-2.07-5.1
					c-0.58-0.31-1.29-0.47-2.13-0.47c-0.82,0.11-1.52,0.47-2.1,1.08C408.37,751.86,408.08,752.47,408.08,753.07z"/>
				<path class="st4" d="M424.4,747.67c1.18,0,2.3,0.34,3.37,1.03s1.6,1.54,1.6,2.55s-0.43,1.99-1.3,2.93s-2.02,1.52-3.46,1.72
					c-0.62,0.09-1.55,0.13-2.8,0.13c0.24,1.89,0.72,3.13,1.43,3.73c0.22,0.25,0.52,0.37,0.9,0.37c1.38,0,2.53-0.44,3.46-1.32
					s1.6-1.32,2-1.32c0.18,0,0.44,0.17,0.8,0.5s0.53,0.64,0.53,0.93c0,0.58-0.7,1.41-2.1,2.5c-0.62,0.51-1.37,0.94-2.25,1.28
					s-1.69,0.52-2.45,0.52c-1.93,0-3.35-1.24-4.26-3.73c-0.58-1.53-0.87-3.22-0.87-5.06s0.43-3.43,1.3-4.76
					S422.54,747.67,424.4,747.67z M424.57,749.97c-0.84,0-1.57,0.48-2.17,1.43c-0.22,0.33-0.43,1.09-0.63,2.27
					c3.11,0,4.66-0.77,4.66-2.3C426.43,750.43,425.81,749.97,424.57,749.97z"/>
				<path class="st4" d="M434.83,748.63c0.93-0.78,2.02-1.17,3.25-1.17s2.42,0.22,3.55,0.67s1.7,1.03,1.7,1.77
					c0,0.38-0.14,0.68-0.43,0.9c-0.29,0.22-0.54,0.33-0.75,0.33s-0.38,0-0.5-0.02c-0.12-0.01-0.57-0.22-1.33-0.62
					c-0.77-0.4-1.47-0.6-2.12-0.6c-0.64,0-1.19,0.16-1.65,0.48s-0.68,0.79-0.68,1.42s0.26,1.11,0.78,1.47s1.44,0.66,2.75,0.92
					s2.32,0.62,3.02,1.08c0.7,0.47,1.05,1.33,1.05,2.6c0,1.84-0.48,3.15-1.45,3.91c-0.97,0.77-2.14,1.15-3.52,1.15
					s-2.55-0.19-3.51-0.57c-0.97-0.38-1.45-0.94-1.45-1.7c0-0.87,0.43-1.3,1.3-1.3c0.22,0,0.71,0.16,1.46,0.47
					c0.76,0.31,1.5,0.47,2.25,0.47c0.74,0,1.31-0.24,1.7-0.72s0.58-1.03,0.58-1.65s-0.26-1.07-0.77-1.35
					c-0.51-0.28-1.29-0.5-2.33-0.68c-1.04-0.18-1.81-0.37-2.3-0.57c-1.33-0.53-2-1.72-2-3.57
					C433.43,750.46,433.9,749.41,434.83,748.63z"/>
				<path class="st4" d="M451.59,747.57c1.6,0,2.91,0.77,3.95,2.3c1.03,1.53,1.55,3.37,1.55,5.51s-0.53,3.97-1.58,5.48
					s-2.45,2.27-4.2,2.27c-1.74,0-3.15-0.77-4.21-2.32s-1.6-3.26-1.6-5.15c0-2.42,0.49-4.35,1.47-5.8
					C448,748.33,449.54,747.57,451.59,747.57z M451.19,750.3c-0.93,0-1.7,0.49-2.3,1.47c-0.6,0.98-0.9,2.01-0.9,3.1
					c0,1.69,0.33,2.98,1,3.87s1.42,1.33,2.27,1.33c1.51,0,2.48-0.65,2.9-1.96c0.18-0.62,0.27-1.4,0.27-2.33
					C454.42,752.12,453.34,750.3,451.19,750.3z"/>
			</g>
		</g>
		<rect x="87.5" y="576.67" class="st2" width="101.11" height="141.63"/>
		<g>
			<g class="st3">
				<path class="st4" d="M536.19,740.94c1.55,0,2.88,0.5,3.96,1.5c2.13,1.91,3.2,4.93,3.2,9.04c0,4.12-1.18,7.36-3.53,9.71
					c-1.22,1.18-2.63,1.82-4.23,1.93c-2.11,0-3.75-0.72-4.93-2.17c-1.18-1.44-2.02-3.06-2.52-4.85s-0.75-3.52-0.75-5.18
					c0-2.84,0.68-5.19,2.03-7.03C530.85,741.93,533.11,740.94,536.19,740.94z M535.96,743.7c-2.98,0-4.83,1.41-5.56,4.23
					c-0.22,0.76-0.33,1.72-0.33,2.9c0,1.18,0.22,2.54,0.67,4.1c0.6,2.09,1.49,3.55,2.67,4.4c0.69,0.53,1.52,0.8,2.5,0.8
					s1.85-0.44,2.63-1.32s1.31-1.99,1.6-3.35c0.29-1.35,0.43-2.72,0.43-4.1c0-2.44-0.35-4.33-1.05-5.66
					C538.81,744.37,537.62,743.7,535.96,743.7z"/>
				<path class="st4" d="M545.85,740.57c0-0.89,0.56-1.33,1.67-1.33c0.51,0,0.81,0.31,0.9,0.93v5c0,0.93,0.01,1.87,0.03,2.8
					c0.44-0.13,1.01-0.2,1.7-0.2c2.15,0,3.82,0.72,5,2.17c1.18,1.44,1.77,3.25,1.77,5.43s-0.7,4.01-2.08,5.51s-3.17,2.25-5.35,2.25
					s-3.27-0.62-3.27-1.85s-0.06-4.37-0.18-9.4C545.92,746.85,545.85,743.08,545.85,740.57z M552.58,751.3
					c-0.8-0.62-1.64-0.93-2.53-0.93c-0.49,0-0.99,0.09-1.5,0.27c0.13,1.82,0.2,5.05,0.2,9.7c0.38,0.13,0.77,0.2,1.17,0.2
					c0.87,0,1.73-0.32,2.6-0.97c1.29-0.89,1.93-2.25,1.93-4.08C554.45,753.65,553.83,752.25,552.58,751.3z"/>
				<path class="st4" d="M564.31,747.67c1.18,0,2.3,0.34,3.37,1.03s1.6,1.54,1.6,2.55s-0.43,1.99-1.3,2.93s-2.02,1.52-3.46,1.72
					c-0.62,0.09-1.56,0.13-2.8,0.13c0.24,1.89,0.72,3.13,1.43,3.73c0.22,0.25,0.52,0.37,0.9,0.37c1.38,0,2.53-0.44,3.46-1.32
					s1.6-1.32,2-1.32c0.18,0,0.44,0.17,0.8,0.5c0.35,0.33,0.53,0.64,0.53,0.93c0,0.58-0.7,1.41-2.1,2.5
					c-0.62,0.51-1.37,0.94-2.25,1.28s-1.7,0.52-2.45,0.52c-1.93,0-3.35-1.24-4.26-3.73c-0.58-1.53-0.87-3.22-0.87-5.06
					s0.43-3.43,1.3-4.76C561.08,748.33,562.45,747.67,564.31,747.67z M564.48,749.97c-0.85,0-1.57,0.48-2.17,1.43
					c-0.22,0.33-0.43,1.09-0.63,2.27c3.11,0,4.66-0.77,4.66-2.3C566.34,750.43,565.72,749.97,564.48,749.97z"/>
				<path class="st4" d="M574.74,748.63c0.93-0.78,2.02-1.17,3.25-1.17s2.42,0.22,3.55,0.67s1.7,1.03,1.7,1.77
					c0,0.38-0.14,0.68-0.43,0.9c-0.29,0.22-0.54,0.33-0.75,0.33s-0.38,0-0.5-0.02c-0.12-0.01-0.57-0.22-1.33-0.62
					c-0.77-0.4-1.47-0.6-2.12-0.6c-0.64,0-1.19,0.16-1.65,0.48s-0.68,0.79-0.68,1.42s0.26,1.11,0.78,1.47s1.44,0.66,2.75,0.92
					s2.32,0.62,3.02,1.08c0.7,0.47,1.05,1.33,1.05,2.6c0,1.84-0.48,3.15-1.45,3.91c-0.97,0.77-2.14,1.15-3.52,1.15
					s-2.55-0.19-3.51-0.57c-0.97-0.38-1.45-0.94-1.45-1.7c0-0.87,0.43-1.3,1.3-1.3c0.22,0,0.71,0.16,1.46,0.47
					c0.76,0.31,1.5,0.47,2.25,0.47c0.74,0,1.31-0.24,1.7-0.72s0.58-1.03,0.58-1.65s-0.26-1.07-0.77-1.35
					c-0.51-0.28-1.29-0.5-2.33-0.68c-1.04-0.18-1.81-0.37-2.3-0.57c-1.33-0.53-2-1.72-2-3.57
					C573.34,750.46,573.81,749.41,574.74,748.63z"/>
				<path class="st4" d="M587.8,742.04c0.4,0,0.78,0.19,1.13,0.57c0.36,0.38,0.53,0.77,0.53,1.18s-0.19,0.83-0.58,1.25
					s-0.79,0.63-1.22,0.63s-0.8-0.18-1.15-0.53c-0.34-0.35-0.52-0.81-0.52-1.37c0-1.07,0.58-1.64,1.73-1.73
					C587.75,742.04,587.78,742.04,587.8,742.04z M589.2,759.5l0.03,2.33c0,0.42-0.17,0.77-0.5,1.05c-0.33,0.28-0.69,0.42-1.07,0.42
					c-0.55,0-0.84-0.28-0.87-0.83c-0.29-7.08-0.43-11.01-0.43-11.76s0.03-1.68,0.1-2.77c0.04-0.4,0.3-0.6,0.77-0.6
					c1.18,0,1.84,0.48,2,1.43c0.07,0.49,0.1,0.88,0.1,1.17l-0.13,2.1V759.5z"/>
				<path class="st4" d="M601.03,747.5l-0.03-6.43c0-1.2,0.38-1.8,1.15-1.8s1.19,0.33,1.28,1c0.04,0.29,0.1,2.03,0.17,5.23
					c0.07,3.2,0.17,6.2,0.32,9s0.22,5.41,0.22,7.83c0,0.67-0.5,1-1.5,1c-0.67,0-1-0.47-1-1.4c-0.96,0.75-2.09,1.13-3.4,1.13
					c-1.67,0-3.01-0.62-4.05-1.87c-1.03-1.24-1.55-2.78-1.55-4.6c0-1.82,0.37-3.53,1.12-5.11c0.74-1.59,1.9-2.73,3.48-3.41
					c0.98-0.42,1.92-0.63,2.83-0.63C600.39,747.43,600.71,747.46,601.03,747.5z M601.21,752.05c-0.17-0.48-0.36-0.84-0.58-1.1
					c-0.22-0.26-0.46-0.41-0.72-0.47c-0.26-0.06-0.56-0.08-0.92-0.08s-0.79,0.13-1.3,0.4s-0.94,0.7-1.3,1.3
					c-0.71,1.2-1.07,2.46-1.07,3.78s0.26,2.4,0.78,3.23s1.27,1.25,2.23,1.25c0.97,0,1.73-0.48,2.28-1.43
					c0.55-0.95,0.83-2.18,0.83-3.66C601.46,753.6,601.38,752.53,601.21,752.05z"/>
				<path class="st4" d="M615.35,747.54c0.98,0,1.47,0.83,1.47,2.5c0,0.18,0,0.37,0,0.57l-0.07,2.33c-0.02,0.73-0.03,1.46-0.03,2.17
					l0.5,7.53c0,0.56-0.57,0.83-1.7,0.83c-0.07,0-0.23,0-0.48,0c-0.26,0-0.43-0.1-0.53-0.3c-0.1-0.2-0.11-0.44-0.03-0.73
					c0.08-0.29,0.05-0.61-0.08-0.97c-1.02,1.09-2.38,1.63-4.06,1.63c-3.13,0-4.7-2.42-4.7-7.26c0-2.69,0.5-4.72,1.52-6.1
					c1.01-1.38,2.46-2.07,4.35-2.07c0.89,0,1.78,0.16,2.66,0.47C614.44,747.73,614.84,747.54,615.35,747.54z M611.89,750.57
					c-1.27,0-2.21,0.37-2.83,1.1s-0.93,2.08-0.93,4.03c0,3.29,0.89,4.93,2.67,4.93c0.47,0,0.98-0.21,1.55-0.63s0.96-0.9,1.18-1.43
					c0.42-1.2,0.63-2.51,0.63-3.93s-0.17-2.45-0.52-3.1C613.29,750.89,612.71,750.57,611.89,750.57z"/>
				<path class="st4" d="M627.08,747.5l-0.03-6.43c0-1.2,0.38-1.8,1.15-1.8s1.19,0.33,1.28,1c0.04,0.29,0.1,2.03,0.17,5.23
					c0.07,3.2,0.17,6.2,0.32,9c0.14,2.8,0.22,5.41,0.22,7.83c0,0.67-0.5,1-1.5,1c-0.67,0-1-0.47-1-1.4
					c-0.96,0.75-2.09,1.13-3.4,1.13c-1.67,0-3.02-0.62-4.05-1.87c-1.03-1.24-1.55-2.78-1.55-4.6c0-1.82,0.37-3.53,1.12-5.11
					c0.74-1.59,1.9-2.73,3.48-3.41c0.98-0.42,1.92-0.63,2.83-0.63C626.45,747.43,626.77,747.46,627.08,747.5z M627.26,752.05
					c-0.17-0.48-0.36-0.84-0.58-1.1c-0.22-0.26-0.46-0.41-0.72-0.47c-0.26-0.06-0.56-0.08-0.92-0.08s-0.79,0.13-1.3,0.4
					s-0.94,0.7-1.3,1.3c-0.71,1.2-1.07,2.46-1.07,3.78s0.26,2.4,0.78,3.23c0.52,0.83,1.27,1.25,2.23,1.25
					c0.96,0,1.73-0.48,2.28-1.43c0.55-0.95,0.83-2.18,0.83-3.66C627.51,753.6,627.43,752.53,627.26,752.05z"/>
				<path class="st4" d="M636.91,747.67c1.18,0,2.3,0.34,3.37,1.03s1.6,1.54,1.6,2.55s-0.43,1.99-1.3,2.93s-2.02,1.52-3.46,1.72
					c-0.62,0.09-1.56,0.13-2.8,0.13c0.24,1.89,0.72,3.13,1.43,3.73c0.22,0.25,0.52,0.37,0.9,0.37c1.38,0,2.53-0.44,3.46-1.32
					s1.6-1.32,2-1.32c0.18,0,0.44,0.17,0.8,0.5c0.35,0.33,0.53,0.64,0.53,0.93c0,0.58-0.7,1.41-2.1,2.5
					c-0.62,0.51-1.37,0.94-2.25,1.28s-1.69,0.52-2.45,0.52c-1.93,0-3.36-1.24-4.27-3.73c-0.58-1.53-0.87-3.22-0.87-5.06
					s0.43-3.43,1.3-4.76S635.04,747.67,636.91,747.67z M637.08,749.97c-0.84,0-1.57,0.48-2.17,1.43c-0.22,0.33-0.43,1.09-0.63,2.27
					c3.11,0,4.67-0.77,4.67-2.3C638.94,750.43,638.32,749.97,637.08,749.97z"/>
			</g>
			<g class="st3">
				<path class="st4" d="M535.46,779.54c0.98,0,1.47,0.83,1.47,2.5c0,0.18,0,0.37,0,0.57l-0.07,2.33c-0.02,0.73-0.03,1.46-0.03,2.17
					l0.5,7.53c0,0.56-0.57,0.83-1.7,0.83c-0.07,0-0.23,0-0.48,0c-0.26,0-0.43-0.1-0.53-0.3c-0.1-0.2-0.11-0.44-0.03-0.73
					c0.08-0.29,0.05-0.61-0.08-0.97c-1.02,1.09-2.38,1.63-4.06,1.63c-3.13,0-4.7-2.42-4.7-7.26c0-2.69,0.5-4.72,1.52-6.1
					c1.01-1.38,2.46-2.07,4.35-2.07c0.89,0,1.78,0.16,2.67,0.47C534.55,779.73,534.95,779.54,535.46,779.54z M531.99,782.57
					c-1.27,0-2.21,0.37-2.83,1.1s-0.93,2.08-0.93,4.03c0,3.29,0.89,4.93,2.67,4.93c0.47,0,0.98-0.21,1.55-0.63s0.96-0.9,1.18-1.43
					c0.42-1.2,0.63-2.51,0.63-3.93s-0.17-2.45-0.52-3.1S532.82,782.57,531.99,782.57z"/>
				<path class="st4" d="M539.29,772.57c0-0.89,0.56-1.33,1.67-1.33c0.51,0,0.81,0.31,0.9,0.93v5c0,0.93,0.01,1.87,0.03,2.8
					c0.44-0.13,1.01-0.2,1.7-0.2c2.15,0,3.82,0.72,5,2.17c1.18,1.44,1.77,3.25,1.77,5.43s-0.7,4.01-2.08,5.51
					c-1.39,1.5-3.17,2.25-5.35,2.25s-3.27-0.62-3.27-1.85s-0.06-4.37-0.18-9.4C539.35,778.85,539.29,775.08,539.29,772.57z
					 M546.02,783.3c-0.8-0.62-1.64-0.93-2.53-0.93c-0.49,0-0.99,0.09-1.5,0.27c0.13,1.82,0.2,5.05,0.2,9.7
					c0.38,0.13,0.77,0.2,1.17,0.2c0.87,0,1.73-0.32,2.6-0.97c1.29-0.89,1.93-2.25,1.93-4.08
					C547.89,785.65,547.26,784.25,546.02,783.3z"/>
				<path class="st4" d="M560.91,779.5l-0.03-6.43c0-1.2,0.38-1.8,1.15-1.8s1.19,0.33,1.28,1c0.04,0.29,0.1,2.03,0.17,5.23
					c0.07,3.2,0.17,6.2,0.32,9c0.14,2.8,0.22,5.41,0.22,7.83c0,0.67-0.5,1-1.5,1c-0.67,0-1-0.47-1-1.4
					c-0.96,0.75-2.09,1.13-3.4,1.13c-1.67,0-3.01-0.62-4.05-1.87c-1.03-1.24-1.55-2.78-1.55-4.6c0-1.82,0.37-3.53,1.12-5.11
					c0.74-1.59,1.9-2.73,3.48-3.41c0.98-0.42,1.92-0.63,2.83-0.63C560.28,779.43,560.6,779.46,560.91,779.5z M561.1,784.05
					c-0.17-0.48-0.36-0.84-0.58-1.1c-0.22-0.26-0.46-0.41-0.72-0.47c-0.26-0.06-0.56-0.08-0.92-0.08s-0.79,0.13-1.3,0.4
					s-0.94,0.7-1.3,1.3c-0.71,1.2-1.07,2.46-1.07,3.78s0.26,2.4,0.78,3.23s1.27,1.25,2.23,1.25c0.97,0,1.73-0.48,2.28-1.43
					c0.55-0.95,0.83-2.18,0.83-3.66C561.35,785.6,561.26,784.53,561.1,784.05z"/>
				<path class="st4" d="M571.84,779.57c1.6,0,2.92,0.77,3.95,2.3c1.03,1.53,1.55,3.37,1.55,5.51s-0.53,3.97-1.58,5.48
					c-1.06,1.51-2.45,2.27-4.2,2.27c-1.74,0-3.15-0.77-4.21-2.32c-1.07-1.54-1.6-3.26-1.6-5.15c0-2.42,0.49-4.35,1.47-5.8
					C568.25,780.33,569.8,779.57,571.84,779.57z M571.44,782.3c-0.93,0-1.7,0.49-2.3,1.47s-0.9,2.01-0.9,3.1
					c0,1.69,0.33,2.98,1,3.87s1.42,1.33,2.27,1.33c1.51,0,2.48-0.65,2.9-1.96c0.18-0.62,0.27-1.4,0.27-2.33
					C574.67,784.12,573.59,782.3,571.44,782.3z"/>
				<path class="st4" d="M581.27,795.13c-0.58,0-0.92-0.32-1.03-0.97c0-4.49-0.27-8.48-0.8-11.99c0-0.44,0.16-0.84,0.48-1.2
					s0.69-0.53,1.1-0.53s0.72,0.23,0.92,0.7c0.82-1.09,1.92-1.63,3.3-1.63c1.75,0,3.11,0.84,4.06,2.53c1.11-1.6,2.58-2.4,4.41-2.4
					s3.2,0.73,4.12,2.2c0.6,0.91,1.02,2.11,1.27,3.6c0.24,1.49,0.37,3.6,0.37,6.33c0,1.07-0.11,1.89-0.33,2.48
					c-0.22,0.59-0.69,0.88-1.4,0.88c-0.58,0-0.87-0.37-0.87-1.1l0.1-4.16c0-5-1.3-7.5-3.9-7.5c-0.82,0-1.4,0.29-1.73,0.87
					c-0.38,0.69-0.6,1.41-0.67,2.17c-0.09,1.33-0.13,2.54-0.13,3.63v4.83c0,0.36-0.18,0.66-0.53,0.9s-0.72,0.37-1.1,0.37
					c-0.49,0-0.8-0.32-0.93-0.97l0.1-6.9c0-2.44-0.41-3.96-1.23-4.56c-0.4-0.29-1-0.43-1.82-0.43c-0.81,0-1.41,0.3-1.8,0.9
					c-0.39,0.6-0.58,1.57-0.58,2.9l0.2,6.2C582.83,794.17,582.31,795.13,581.27,795.13z"/>
				<path class="st4" d="M604.22,774.04c0.4,0,0.78,0.19,1.13,0.57s0.53,0.77,0.53,1.18s-0.2,0.83-0.58,1.25s-0.79,0.63-1.22,0.63
					s-0.81-0.18-1.15-0.53c-0.34-0.35-0.52-0.81-0.52-1.37c0-1.07,0.58-1.64,1.73-1.73C604.18,774.04,604.2,774.04,604.22,774.04z
					 M605.62,791.5l0.03,2.33c0,0.42-0.17,0.77-0.5,1.05s-0.69,0.42-1.07,0.42c-0.56,0-0.84-0.28-0.87-0.83
					c-0.29-7.08-0.43-11.01-0.43-11.76s0.03-1.68,0.1-2.77c0.04-0.4,0.3-0.6,0.77-0.6c1.18,0,1.84,0.48,2,1.43
					c0.07,0.49,0.1,0.88,0.1,1.17l-0.13,2.1V791.5z"/>
				<path class="st4" d="M610.75,794.06l-0.37-13.53c0-0.42,0.14-0.77,0.43-1.03c0.29-0.27,0.58-0.4,0.87-0.4
					c0.71,0,1.12,0.3,1.23,0.9c0.09,0.6,0.13,1.22,0.13,1.87c1.2-1.58,2.7-2.37,4.5-2.37c2.75,0,4.13,3.14,4.13,9.43
					c0,0.58,0,1.45,0,2.62s-0.07,2.02-0.2,2.55c-0.16,0.67-0.63,1-1.43,1c-0.53,0-0.8-0.36-0.8-1.07l0.03-1.87
					c0-2.58-0.08-4.34-0.25-5.28s-0.33-1.69-0.48-2.25c-0.38-1.2-0.99-1.8-1.83-1.8c-1.11,0-1.89,0.4-2.33,1.2
					c-0.49,0.87-0.78,1.89-0.87,3.07c-0.16,2.07-0.23,4.25-0.23,6.56c0,0.44-0.17,0.8-0.5,1.07s-0.73,0.4-1.2,0.4
					C611.03,795.13,610.75,794.77,610.75,794.06z"/>
				<path class="st4" d="M633.84,779.54c0.98,0,1.47,0.83,1.47,2.5c0,0.18,0,0.37,0,0.57l-0.07,2.33c-0.02,0.73-0.03,1.46-0.03,2.17
					l0.5,7.53c0,0.56-0.57,0.83-1.7,0.83c-0.07,0-0.23,0-0.48,0c-0.26,0-0.43-0.1-0.53-0.3c-0.1-0.2-0.11-0.44-0.03-0.73
					c0.08-0.29,0.05-0.61-0.08-0.97c-1.02,1.09-2.38,1.63-4.06,1.63c-3.13,0-4.7-2.42-4.7-7.26c0-2.69,0.5-4.72,1.52-6.1
					c1.01-1.38,2.46-2.07,4.35-2.07c0.89,0,1.78,0.16,2.66,0.47C632.93,779.73,633.33,779.54,633.84,779.54z M630.38,782.57
					c-1.27,0-2.21,0.37-2.83,1.1s-0.93,2.08-0.93,4.03c0,3.29,0.89,4.93,2.67,4.93c0.47,0,0.98-0.21,1.55-0.63s0.96-0.9,1.18-1.43
					c0.42-1.2,0.63-2.51,0.63-3.93s-0.17-2.45-0.52-3.1C631.78,782.89,631.2,782.57,630.38,782.57z"/>
				<path class="st4" d="M637.52,773.52c0.06-0.83,0.19-1.38,0.4-1.63s0.55-0.38,1.02-0.38c0.96,0,1.43,0.39,1.43,1.17
					c0,0.6-0.05,2.17-0.15,4.7s-0.15,4.8-0.15,6.8s0.08,3.61,0.23,4.83c0.27,2.13,0.64,3.2,1.13,3.2s0.85-0.34,1.1-1.03
					c0.11-0.27,0.29-0.5,0.53-0.72c0.24-0.21,0.56-0.32,0.93-0.32c0.78,0,1.17,0.66,1.17,1.97c0,0.71-0.38,1.42-1.15,2.12
					s-1.53,1.05-2.28,1.05s-1.36-0.13-1.82-0.38s-0.82-0.64-1.1-1.15c-0.28-0.51-0.5-1-0.67-1.48s-0.28-1.06-0.35-1.75
					c-0.13-1.11-0.23-2.89-0.28-5.35c-0.05-2.45-0.08-4.8-0.08-7.03C637.44,775.89,637.47,774.35,637.52,773.52z"/>
			</g>
		</g>
		<rect x="525.24" y="457.67" class="st5" width="101.11" height="260.63"/>
		<rect x="306.37" y="373.67" class="st5" width="101.11" height="344.63"/>
		<rect x="87.5" y="576.67" class="st5" width="101.11" height="141.63"/>
	</g>
</g>
<g>
	<g>
		<g>
			<g class="st3">
				<path class="st4" d="M200.25,48.86c0.91,0,1.67,0.4,2.29,1.2s1.42,2.46,2.4,4.97c2.29,5.93,4.53,15.23,6.71,27.89
					c0.04,0.15,0.05,0.35,0.05,0.63c0,0.27-0.17,0.57-0.52,0.87c-0.35,0.31-0.84,0.46-1.47,0.46c-0.64,0-1.17-0.15-1.61-0.46
					s-0.73-0.82-0.87-1.53c-0.15-0.71-0.42-2.1-0.82-4.18c-0.87-4.62-1.46-7.02-1.75-7.21c-0.44-0.25-1.88-0.53-4.34-0.82
					c-2.46-0.29-4.09-0.44-4.89-0.44s-1.27,0.07-1.42,0.22c-0.66,0.58-1.55,5-2.67,13.26c-0.15,0.69-0.84,1.04-2.07,1.04
					c-1.24,0-1.86-0.53-1.86-1.58c0-2.62,0.96-7.62,2.89-15.01s3.53-12.28,4.8-14.68C196.72,50.41,198.43,48.86,200.25,48.86z
					 M200.04,54.92c-0.55,0-1.49,1.61-2.84,4.83c-1.35,3.22-2.02,5.21-2.02,5.98c0,0.18,0.04,0.31,0.11,0.38
					c0.29,0.29,1.44,0.55,3.44,0.76c2,0.22,3.33,0.33,3.98,0.33s1.02-0.04,1.09-0.14c0.07-0.09,0.11-0.38,0.11-0.87
					s-0.49-2.49-1.47-6S200.65,54.92,200.04,54.92z"/>
				<path class="st4" d="M227.87,59.29l-0.05-10.54c0-1.96,0.63-2.95,1.88-2.95c1.26,0,1.96,0.55,2.1,1.64
					c0.07,0.47,0.16,3.33,0.27,8.57s0.28,10.15,0.52,14.74c0.24,4.58,0.35,8.86,0.35,12.83c0,1.09-0.82,1.64-2.46,1.64
					c-1.09,0-1.64-0.76-1.64-2.29c-1.56,1.24-3.42,1.86-5.57,1.86c-2.73,0-4.94-1.02-6.63-3.06s-2.54-4.55-2.54-7.53
					c0-2.98,0.61-5.78,1.83-8.38s3.12-4.47,5.7-5.59c1.6-0.69,3.15-1.04,4.64-1.04C226.84,59.18,227.36,59.21,227.87,59.29z
					 M228.17,66.74c-0.27-0.78-0.59-1.38-0.96-1.8c-0.36-0.42-0.76-0.67-1.17-0.76c-0.42-0.09-0.92-0.14-1.5-0.14
					s-1.29,0.22-2.13,0.66c-0.84,0.44-1.55,1.15-2.13,2.13c-1.17,1.96-1.75,4.03-1.75,6.2s0.43,3.93,1.28,5.29
					c0.85,1.37,2.07,2.05,3.66,2.05s2.83-0.78,3.74-2.35c0.91-1.56,1.36-3.57,1.36-6C228.58,69.28,228.45,67.52,228.17,66.74z"/>
				<path class="st4" d="M236.94,59.91c0.47-0.42,0.96-0.63,1.45-0.63c0.49,0,0.87,0.09,1.15,0.27c0.27,0.18,0.44,0.35,0.49,0.49
					c0.05,0.15,0.12,0.4,0.19,0.76c-0.22,2.84-0.33,5.4-0.33,7.67c0,2.27,0.27,4.88,0.82,7.81s1.15,4.39,1.8,4.39
					c0.98,0,2.23-0.55,3.74-1.64c1.51-1.09,2.59-2.24,3.25-3.44c-0.44-5.24-0.65-9.73-0.65-13.48c0-0.76,0.25-1.42,0.74-1.96
					s1.08-0.82,1.77-0.82c1.13,0,1.69,0.76,1.69,2.29c0,2.58,0.19,6.42,0.57,11.52s0.77,8.33,1.17,9.72
					c0.07,0.29,0.11,0.63,0.11,1.01s-0.25,0.75-0.74,1.09s-1.13,0.52-1.91,0.52s-1.3-0.44-1.56-1.31c-0.07-0.73-0.25-1.82-0.55-3.28
					c-2.55,2.66-5.11,3.99-7.7,3.99c-1.2,0-2.27-0.46-3.22-1.37s-1.69-2.15-2.24-3.71c-0.95-3.02-1.42-5.86-1.42-8.52
					s0.15-5.93,0.44-9.83C236.15,60.85,236.46,60.33,236.94,59.91z"/>
				<path class="st4" d="M257.81,49.49c0.09-1.36,0.31-2.26,0.65-2.67c0.35-0.42,0.9-0.63,1.67-0.63c1.56,0,2.35,0.64,2.35,1.91
					c0,0.98-0.08,3.55-0.25,7.7c-0.16,4.15-0.25,7.86-0.25,11.14c0,3.28,0.13,5.91,0.38,7.92c0.44,3.49,1.06,5.24,1.86,5.24
					s1.4-0.56,1.8-1.69c0.18-0.44,0.47-0.83,0.87-1.17s0.91-0.52,1.53-0.52c1.27,0,1.91,1.07,1.91,3.22c0,1.17-0.63,2.32-1.88,3.47
					s-2.5,1.72-3.74,1.72s-2.23-0.21-2.97-0.63c-0.75-0.42-1.35-1.05-1.8-1.88c-0.46-0.84-0.82-1.65-1.09-2.43s-0.46-1.74-0.57-2.87
					c-0.22-1.82-0.37-4.74-0.46-8.76c-0.09-4.02-0.14-7.86-0.14-11.52S257.72,50.85,257.81,49.49z"/>
				<path class="st4" d="M273.83,59.34l2.73,0.05c0.62,0,0.96-0.02,1.04-0.05V48.15c0.04-0.62,0.35-1.15,0.93-1.58
					c0.58-0.44,1.13-0.66,1.64-0.66s0.92,0.16,1.23,0.49s0.45,0.84,0.41,1.53s-0.05,4.48-0.05,11.35l6.39-0.22
					c1.09,0,1.64,0.64,1.64,1.91c0,0.95-0.28,1.66-0.85,2.13c-0.56,0.47-1.17,0.73-1.8,0.76s-1.26,0.05-1.88,0.05l-3.33-0.05
					c0,1.49,0.15,4.44,0.46,8.84s0.55,7.25,0.74,8.54c0.18,1.29,0.22,2.13,0.11,2.51c-0.11,0.38-0.31,0.65-0.6,0.79
					c-0.47,0.22-1.11,0.33-1.91,0.33c-0.8,0-1.27-0.44-1.42-1.31c-0.73-4.77-1.22-11.32-1.47-19.65c-0.33,0.04-1.58,0.05-3.77,0.05
					s-3.27-0.64-3.27-1.91C270.78,60.25,271.8,59.34,273.83,59.34z"/>
				<path class="st4" d="M300.91,59.4c2.62,0,4.78,1.26,6.47,3.77c1.69,2.51,2.54,5.52,2.54,9.03s-0.86,6.5-2.59,8.98
					c-1.73,2.47-4.02,3.71-6.88,3.71c-2.86,0-5.16-1.26-6.91-3.79s-2.62-5.34-2.62-8.43c0-3.97,0.8-7.13,2.4-9.5
					C295.03,60.65,297.56,59.4,300.91,59.4z M300.25,63.87c-1.53,0-2.78,0.8-3.77,2.4c-0.98,1.6-1.47,3.29-1.47,5.08
					c0,2.77,0.55,4.88,1.64,6.33c1.09,1.46,2.33,2.18,3.71,2.18c2.47,0,4.06-1.07,4.75-3.22c0.29-1.02,0.44-2.29,0.44-3.82
					C305.55,66.86,303.78,63.87,300.25,63.87z"/>
				<path class="st4" d="M316.47,61.14c1.53-1.27,3.3-1.91,5.32-1.91c2.02,0,3.96,0.36,5.81,1.09s2.78,1.69,2.78,2.89
					c0,0.62-0.24,1.11-0.71,1.47s-0.88,0.55-1.23,0.55s-0.62-0.01-0.82-0.03s-0.93-0.35-2.18-1.01s-2.41-0.98-3.47-0.98
					s-1.96,0.26-2.7,0.79c-0.75,0.53-1.12,1.3-1.12,2.32s0.43,1.82,1.28,2.4s2.36,1.08,4.5,1.5c2.15,0.42,3.79,1.01,4.94,1.77
					c1.15,0.76,1.72,2.18,1.72,4.26c0,3.02-0.79,5.16-2.37,6.41s-3.5,1.88-5.76,1.88s-4.18-0.31-5.76-0.93
					c-1.58-0.62-2.37-1.55-2.37-2.78c0-1.42,0.71-2.13,2.13-2.13c0.36,0,1.16,0.25,2.4,0.76s2.46,0.76,3.68,0.76
					s2.15-0.39,2.78-1.17c0.64-0.78,0.96-1.68,0.96-2.7s-0.42-1.75-1.26-2.21c-0.84-0.45-2.11-0.83-3.82-1.12
					c-1.71-0.29-2.97-0.6-3.77-0.93c-2.18-0.87-3.27-2.82-3.27-5.84C314.17,64.13,314.94,62.42,316.47,61.14z"/>
				<path class="st4" d="M359.86,59.29l-0.05-10.54c0-1.96,0.63-2.95,1.88-2.95s1.96,0.55,2.1,1.64c0.07,0.47,0.16,3.33,0.27,8.57
					s0.28,10.15,0.52,14.74c0.24,4.58,0.35,8.86,0.35,12.83c0,1.09-0.82,1.64-2.46,1.64c-1.09,0-1.64-0.76-1.64-2.29
					c-1.56,1.24-3.42,1.86-5.57,1.86c-2.73,0-4.94-1.02-6.63-3.06s-2.54-4.55-2.54-7.53c0-2.98,0.61-5.78,1.83-8.38
					s3.12-4.47,5.7-5.59c1.6-0.69,3.15-1.04,4.64-1.04C358.83,59.18,359.35,59.21,359.86,59.29z M360.16,66.74
					c-0.27-0.78-0.59-1.38-0.96-1.8c-0.36-0.42-0.76-0.67-1.17-0.76c-0.42-0.09-0.92-0.14-1.5-0.14s-1.29,0.22-2.13,0.66
					s-1.55,1.15-2.13,2.13c-1.17,1.96-1.75,4.03-1.75,6.2s0.43,3.93,1.28,5.29c0.85,1.37,2.07,2.05,3.66,2.05s2.83-0.78,3.74-2.35
					c0.91-1.56,1.36-3.57,1.36-6C360.57,69.28,360.44,67.52,360.16,66.74z"/>
				<path class="st4" d="M377.77,59.4c2.62,0,4.78,1.26,6.47,3.77c1.69,2.51,2.54,5.52,2.54,9.03s-0.87,6.5-2.59,8.98
					s-4.02,3.71-6.88,3.71c-2.86,0-5.16-1.26-6.91-3.79s-2.62-5.34-2.62-8.43c0-3.97,0.8-7.13,2.4-9.5
					C371.89,60.65,374.42,59.4,377.77,59.4z M377.11,63.87c-1.53,0-2.78,0.8-3.77,2.4c-0.98,1.6-1.47,3.29-1.47,5.08
					c0,2.77,0.55,4.88,1.64,6.33c1.09,1.46,2.33,2.18,3.71,2.18c2.47,0,4.06-1.07,4.75-3.22c0.29-1.02,0.44-2.29,0.44-3.82
					C382.41,66.86,380.64,63.87,377.11,63.87z"/>
				<path class="st4" d="M411.28,84.78c-1.24,0-2.38-0.42-3.44-1.26l-0.71-0.6V99.3c-0.22,0.73-0.6,1.34-1.15,1.83
					s-1.13,0.74-1.75,0.74c-0.95,0-1.42-0.64-1.42-1.91V61.91c0.22-0.95,0.48-1.62,0.79-2.02s0.8-0.6,1.47-0.6s1.11,0.16,1.31,0.46
					s0.45,1.16,0.74,2.54c0.15-0.73,0.73-1.4,1.75-2.02s2.38-0.93,4.09-0.93c3.71,0,6.35,1.35,7.92,4.04
					c1.56,2.69,2.35,5.87,2.35,9.53s-1.06,6.55-3.19,8.68S414.99,84.78,411.28,84.78z M407.13,68.4v10.15
					c0.22,0.11,0.47,0.29,0.76,0.55c1.05,0.95,2.2,1.42,3.44,1.42c5.02,0,7.53-2.58,7.53-7.75c0-4.4-1.13-7.19-3.38-8.35
					c-0.95-0.51-2.11-0.76-3.49-0.76c-1.35,0.18-2.49,0.77-3.44,1.77S407.13,67.42,407.13,68.4z"/>
				<path class="st4" d="M435.68,59.4c2.62,0,4.78,1.26,6.47,3.77c1.69,2.51,2.54,5.52,2.54,9.03s-0.86,6.5-2.59,8.98
					s-4.02,3.71-6.88,3.71s-5.16-1.26-6.91-3.79s-2.62-5.34-2.62-8.43c0-3.97,0.8-7.13,2.4-9.5C429.8,60.65,432.33,59.4,435.68,59.4
					z M435.03,63.87c-1.53,0-2.79,0.8-3.77,2.4c-0.98,1.6-1.47,3.29-1.47,5.08c0,2.77,0.54,4.88,1.64,6.33s2.33,2.18,3.71,2.18
					c2.47,0,4.06-1.07,4.75-3.22c0.29-1.02,0.44-2.29,0.44-3.82C440.32,66.86,438.56,63.87,435.03,63.87z"/>
				<path class="st4" d="M465.65,59.07c0.51,0,0.89,0.17,1.15,0.52c0.25,0.35,0.38,0.72,0.38,1.12l-0.05,0.55
					c-1.53,3.89-2.66,7.06-3.38,9.5c-0.47,1.71-0.83,2.98-1.06,3.82c-0.24,0.84-0.63,2.31-1.17,4.42c-0.55,2.11-0.91,3.48-1.09,4.09
					c-0.51,1.24-1.4,1.86-2.68,1.86c-0.62,0-1.05-0.4-1.31-1.2c-1.17-3.64-2.88-7.75-5.13-12.34c-2.26-4.58-3.54-7.21-3.85-7.89
					c-0.31-0.67-0.46-1.28-0.46-1.83s0.25-1.07,0.74-1.58c0.49-0.51,1.04-0.76,1.66-0.76s1.15,0.33,1.58,0.98
					c0.4,0.8,1.54,3.04,3.41,6.71s3.19,6.57,3.96,8.68c0.04-0.22,0.16-0.67,0.38-1.36c1.86-6.44,3.37-11.04,4.53-13.81
					C463.87,59.56,464.67,59.07,465.65,59.07z"/>
				<path class="st4" d="M479.51,59.4c2.62,0,4.78,1.26,6.47,3.77c1.69,2.51,2.54,5.52,2.54,9.03s-0.87,6.5-2.59,8.98
					s-4.02,3.71-6.88,3.71c-2.86,0-5.16-1.26-6.91-3.79s-2.62-5.34-2.62-8.43c0-3.97,0.8-7.13,2.4-9.5
					C473.64,60.65,476.17,59.4,479.51,59.4z M478.86,63.87c-1.53,0-2.78,0.8-3.77,2.4c-0.98,1.6-1.47,3.29-1.47,5.08
					c0,2.77,0.55,4.88,1.64,6.33c1.09,1.46,2.33,2.18,3.71,2.18c2.47,0,4.06-1.07,4.75-3.22c0.29-1.02,0.44-2.29,0.44-3.82
					C484.15,66.86,482.39,63.87,478.86,63.87z"/>
			</g>
			<g class="st3">
				<path class="st4" d="M112.26,144.11c0-2.8-0.17-7.54-0.52-14.22c-0.35-6.68-0.65-10.91-0.9-12.69c0-0.8,0.27-1.5,0.82-2.1
					s1.16-0.9,1.86-0.9c0.87,0,1.46,0.55,1.75,1.64c0.58,3.64,0.95,8.88,1.09,15.72c3.28-3.02,5.81-5.6,7.61-7.75s3.7-4.89,5.7-8.24
					c0.58-0.98,1.44-1.47,2.57-1.47c0.58,0,1.06,0.16,1.45,0.46c0.38,0.31,0.57,0.68,0.57,1.12c0,1.17-1.03,3.17-3.08,6.03
					c-2.06,2.86-4.23,5.63-6.52,8.33c3.06,3.06,5.68,6.59,7.86,10.59c0.29,0.51,0.67,1.15,1.15,1.91c0.47,0.76,0.84,1.36,1.09,1.8
					c0.69,1.2,1.04,2.22,1.04,3.06s-0.21,1.52-0.63,2.05s-0.94,0.79-1.56,0.79s-1.42-0.81-2.4-2.43s-2.39-3.91-4.23-6.88
					c-1.84-2.97-3.78-5.58-5.81-7.83c-2.04,1.96-3.57,3.33-4.59,4.09c0.11,2.33,0.16,4.27,0.16,5.81s-0.04,2.79-0.11,3.74
					c-0.22,2.37-1.18,3.55-2.89,3.55c-1.06,0-1.55-0.64-1.47-1.91L112.26,144.11L112.26,144.11z"/>
				<path class="st4" d="M145.94,142.36l0.05,5.62c0,0.66-0.3,1.26-0.9,1.8c-0.6,0.55-1.19,0.82-1.77,0.82
					c-0.84,0-1.36-0.65-1.58-1.96c-0.04-0.29-0.18-2.96-0.44-8c-0.25-5.04-0.75-9-1.47-11.87c-0.33-1.38-0.49-2.2-0.49-2.46
					c0-1.2,0.73-1.8,2.18-1.8c0.62,0,1.11,0.24,1.47,0.71s0.59,0.96,0.68,1.45s0.17,1.16,0.25,1.99c0.07,0.84,0.13,1.37,0.16,1.58
					c0.76-1.82,1.91-3.18,3.44-4.09c1.53-0.91,3.2-1.37,5.02-1.37c2.98,0,4.48,0.76,4.48,2.29c0,0.76-0.26,1.37-0.79,1.83
					s-1.14,0.68-1.83,0.68c-3.09,0-5.28,0.98-6.55,2.95C146.58,134.5,145.94,137.78,145.94,142.36z"/>
				<path class="st4" d="M167.77,125.06c1.93,0,3.77,0.56,5.51,1.69c1.75,1.13,2.62,2.52,2.62,4.18c0,1.66-0.71,3.26-2.13,4.8
					c-1.42,1.55-3.31,2.48-5.68,2.81c-1.02,0.15-2.55,0.22-4.59,0.22c0.4,3.09,1.18,5.13,2.35,6.11c0.36,0.4,0.85,0.6,1.47,0.6
					c2.26,0,4.15-0.72,5.68-2.16s2.62-2.16,3.28-2.16c0.29,0,0.73,0.27,1.31,0.82s0.87,1.06,0.87,1.53c0,0.95-1.15,2.31-3.44,4.09
					c-1.02,0.84-2.25,1.54-3.68,2.1c-1.44,0.56-2.78,0.85-4.01,0.85c-3.17,0-5.5-2.04-6.99-6.11c-0.95-2.51-1.42-5.28-1.42-8.3
					s0.71-5.62,2.13-7.81C162.48,126.15,164.72,125.06,167.77,125.06z M168.05,128.83c-1.38,0-2.57,0.78-3.55,2.35
					c-0.36,0.55-0.71,1.78-1.04,3.71c5.09,0,7.64-1.25,7.64-3.77C171.1,129.59,170.09,128.83,168.05,128.83z"/>
				<path class="st4" d="M183.71,148.64l-0.6-22.16c0-0.69,0.24-1.25,0.71-1.69s0.95-0.65,1.42-0.65c1.16,0,1.84,0.49,2.02,1.47
					c0.15,0.98,0.22,2,0.22,3.06c1.96-2.58,4.42-3.88,7.37-3.88c4.51,0,6.77,5.15,6.77,15.45c0,0.95,0,2.38,0,4.29
					s-0.11,3.3-0.33,4.18c-0.26,1.09-1.04,1.64-2.35,1.64c-0.87,0-1.31-0.58-1.31-1.75l0.05-3.06c0-4.22-0.14-7.1-0.41-8.65
					s-0.54-2.78-0.79-3.68c-0.62-1.97-1.62-2.95-3-2.95c-1.82,0-3.09,0.66-3.82,1.96c-0.8,1.42-1.27,3.09-1.42,5.02
					c-0.25,3.38-0.38,6.97-0.38,10.75c0,0.73-0.27,1.31-0.82,1.75s-1.2,0.66-1.97,0.66C184.17,150.39,183.71,149.81,183.71,148.64z"
					/>
				<path class="st4" d="M221.54,124.84c1.6,0,2.4,1.37,2.4,4.09c0,0.29,0,0.6,0,0.93l-0.11,3.82c-0.04,1.2-0.05,2.38-0.05,3.55
					l0.82,12.34c0,0.91-0.93,1.37-2.78,1.37c-0.11,0-0.37,0-0.79,0s-0.71-0.16-0.87-0.49c-0.16-0.33-0.18-0.73-0.05-1.2
					c0.13-0.47,0.08-1-0.14-1.58c-1.67,1.78-3.89,2.67-6.66,2.67c-5.13,0-7.7-3.97-7.7-11.9c0-4.4,0.83-7.73,2.48-9.99
					c1.66-2.26,4.03-3.38,7.12-3.38c1.46,0,2.91,0.25,4.37,0.76C220.05,125.17,220.7,124.84,221.54,124.84z M215.86,129.81
					c-2.07,0-3.62,0.6-4.64,1.8s-1.53,3.4-1.53,6.6c0,5.39,1.46,8.08,4.37,8.08c0.76,0,1.61-0.35,2.54-1.04
					c0.93-0.69,1.57-1.47,1.94-2.35c0.69-1.96,1.04-4.11,1.04-6.44s-0.28-4.02-0.85-5.08C218.17,130.34,217.21,129.81,215.86,129.81
					z"/>
				<path class="st4" d="M247.2,147.88c0,1.71-0.78,2.57-2.35,2.57c-0.65,0-1.55-1.61-2.67-4.83c-1.13-3.22-2.64-5.7-4.53-7.45
					c-0.18,0.25-0.96,0.97-2.32,2.16c-1.36,1.18-2.17,1.9-2.43,2.16v5.46c-0.07,0.55-0.16,0.96-0.27,1.25s-0.35,0.56-0.74,0.82
					c-0.38,0.25-0.9,0.38-1.56,0.38c-0.98,0-1.47-0.6-1.47-1.8c0-3.38-0.15-8.63-0.44-15.75c-0.29-7.11-0.44-13.49-0.44-19.13
					c0-0.69,0.28-1.24,0.85-1.64c0.56-0.4,1.15-0.6,1.77-0.6c0.84,0,1.35,0.53,1.53,1.58v9.66c0,1.17,0.02,2.04,0.05,2.62
					c0.04,0.58,0.07,1.46,0.11,2.62c0.07,2.4,0.2,5.11,0.38,8.13c1.06-0.8,2.41-2.06,4.07-3.79s2.9-3.21,3.74-4.45
					c1.31-2.07,2.51-3.11,3.6-3.11c0.29,0,0.58,0.07,0.87,0.22c0.76,0.44,1.15,0.95,1.15,1.53s-0.25,1.35-0.76,2.29
					c-1.31,2.26-2.82,4.31-4.53,6.17c1.64,1.82,3.28,4.42,4.91,7.81C246.71,144.93,247.2,146.64,247.2,147.88z"/>
				<path class="st4" d="M270.78,125.06c1.93,0,3.77,0.56,5.51,1.69c1.75,1.13,2.62,2.52,2.62,4.18c0,1.66-0.71,3.26-2.13,4.8
					c-1.42,1.55-3.31,2.48-5.68,2.81c-1.02,0.15-2.55,0.22-4.59,0.22c0.4,3.09,1.18,5.13,2.35,6.11c0.36,0.4,0.85,0.6,1.47,0.6
					c2.26,0,4.15-0.72,5.68-2.16s2.62-2.16,3.28-2.16c0.29,0,0.73,0.27,1.31,0.82s0.87,1.06,0.87,1.53c0,0.95-1.15,2.31-3.44,4.09
					c-1.02,0.84-2.25,1.54-3.68,2.1c-1.44,0.56-2.78,0.85-4.01,0.85c-3.17,0-5.5-2.04-6.99-6.11c-0.95-2.51-1.42-5.28-1.42-8.3
					s0.71-5.62,2.13-7.81C265.48,126.15,267.72,125.06,270.78,125.06z M271.05,128.83c-1.38,0-2.57,0.78-3.55,2.35
					c-0.36,0.55-0.71,1.78-1.04,3.71c5.09,0,7.64-1.25,7.64-3.77C274.11,129.59,273.09,128.83,271.05,128.83z"/>
				<path class="st4" d="M287.75,150.39c-0.95,0-1.51-0.53-1.69-1.58c0-7.35-0.44-13.9-1.31-19.65c0-0.73,0.26-1.38,0.79-1.96
					s1.13-0.87,1.8-0.87c0.67,0,1.17,0.38,1.5,1.15c1.35-1.78,3.15-2.67,5.4-2.67c2.87,0,5.09,1.38,6.66,4.15
					c1.82-2.62,4.23-3.93,7.23-3.93s5.25,1.2,6.74,3.6c0.98,1.49,1.67,3.46,2.07,5.9c0.4,2.44,0.6,5.9,0.6,10.37
					c0,1.75-0.18,3.1-0.55,4.07c-0.36,0.96-1.13,1.45-2.29,1.45c-0.95,0-1.42-0.6-1.42-1.8l0.16-6.82c0-8.19-2.13-12.28-6.39-12.28
					c-1.35,0-2.29,0.47-2.84,1.42c-0.62,1.13-0.98,2.31-1.09,3.55c-0.15,2.18-0.22,4.17-0.22,5.95v7.92c0,0.58-0.29,1.07-0.87,1.47
					s-1.18,0.6-1.8,0.6c-0.8,0-1.31-0.53-1.53-1.58l0.16-11.3c0-4-0.67-6.5-2.02-7.48c-0.66-0.47-1.65-0.71-2.98-0.71
					c-1.33,0-2.31,0.49-2.95,1.47s-0.96,2.57-0.96,4.75l0.33,10.15C290.32,148.82,289.46,150.39,287.75,150.39z"/>
				<path class="st4" d="M360.24,113.98c0.87,0,1.44,0.64,1.69,1.91c0.18,5.93,0.27,12.4,0.27,19.41c0,7-0.04,11.05-0.11,12.14
					c-0.07,1.09-0.31,1.86-0.71,2.29s-1.13,0.66-2.18,0.66c-0.95,0-1.42-0.58-1.42-1.75V136.3c0-2-0.04-4.06-0.11-6.17
					c-0.07-2.11-0.11-3.44-0.11-3.98c-1.24,2.11-2.88,3.85-4.91,5.21s-4.31,2.05-6.82,2.05s-4.62-1.04-6.33-3.11
					c-0.07,2.22-0.11,4.85-0.11,7.89s0.02,6.23,0.05,9.58c0,0.91-0.3,1.57-0.9,1.99s-1.28,0.63-2.05,0.63c-0.98,0-1.47-0.6-1.47-1.8
					c0.04-3.27,0.05-8.46,0.05-15.56v-15.5c0-0.62,0.21-1.22,0.63-1.8s0.91-0.87,1.47-0.87s1.08,0.16,1.56,0.46
					c0.47,0.31,0.73,0.77,0.76,1.39c0.15,4.04,0.8,7.04,1.97,9.01c1.16,1.96,2.55,2.95,4.15,2.95s2.98-0.26,4.12-0.79
					c1.15-0.53,2.09-1.14,2.84-1.83s1.46-1.67,2.16-2.95c0.98-1.82,1.93-4.06,2.84-6.71C358.12,114.78,359.01,113.98,360.24,113.98z
					"/>
				<path class="st4" d="M370.4,115.83c0.66,0,1.27,0.31,1.86,0.93c0.58,0.62,0.87,1.26,0.87,1.94c0,0.67-0.32,1.36-0.96,2.05
					c-0.64,0.69-1.3,1.04-1.99,1.04s-1.32-0.29-1.88-0.87s-0.85-1.33-0.85-2.24c0-1.75,0.95-2.69,2.84-2.84
					C370.32,115.83,370.36,115.83,370.4,115.83z M372.69,144.44l0.05,3.82c0,0.69-0.27,1.26-0.82,1.72
					c-0.55,0.45-1.13,0.68-1.75,0.68c-0.91,0-1.38-0.45-1.42-1.36c-0.47-11.61-0.71-18.03-0.71-19.27s0.05-2.75,0.16-4.53
					c0.07-0.66,0.49-0.98,1.25-0.98c1.93,0,3.02,0.78,3.28,2.35c0.11,0.8,0.16,1.44,0.16,1.91l-0.22,3.44v12.22H372.69z"/>
				<path class="st4" d="M381.09,148.64l-0.6-22.16c0-0.69,0.24-1.25,0.71-1.69s0.95-0.65,1.42-0.65c1.17,0,1.84,0.49,2.02,1.47
					c0.14,0.98,0.22,2,0.22,3.06c1.96-2.58,4.42-3.88,7.37-3.88c4.51,0,6.77,5.15,6.77,15.45c0,0.95,0,2.38,0,4.29
					s-0.11,3.3-0.33,4.18c-0.25,1.09-1.04,1.64-2.35,1.64c-0.87,0-1.31-0.58-1.31-1.75l0.05-3.06c0-4.22-0.14-7.1-0.41-8.65
					c-0.27-1.55-0.54-2.78-0.79-3.68c-0.62-1.97-1.62-2.95-3-2.95c-1.82,0-3.09,0.66-3.82,1.96c-0.8,1.42-1.27,3.09-1.42,5.02
					c-0.25,3.38-0.38,6.97-0.38,10.75c0,0.73-0.27,1.31-0.82,1.75s-1.2,0.66-1.96,0.66C381.55,150.39,381.09,149.81,381.09,148.64z"
					/>
				<path class="st4" d="M418.92,124.84c1.6,0,2.4,1.37,2.4,4.09c0,0.29,0,0.6,0,0.93l-0.11,3.82c-0.04,1.2-0.05,2.38-0.05,3.55
					l0.82,12.34c0,0.91-0.93,1.37-2.78,1.37c-0.11,0-0.37,0-0.79,0s-0.71-0.16-0.87-0.49s-0.18-0.73-0.05-1.2s0.08-1-0.14-1.58
					c-1.67,1.78-3.89,2.67-6.66,2.67c-5.13,0-7.7-3.97-7.7-11.9c0-4.4,0.83-7.73,2.48-9.99s4.03-3.38,7.12-3.38
					c1.46,0,2.91,0.25,4.37,0.76C417.43,125.17,418.08,124.84,418.92,124.84z M413.25,129.81c-2.07,0-3.62,0.6-4.64,1.8
					c-1.02,1.2-1.53,3.4-1.53,6.6c0,5.39,1.46,8.08,4.37,8.08c0.76,0,1.61-0.35,2.54-1.04c0.93-0.69,1.57-1.47,1.94-2.35
					c0.69-1.96,1.04-4.11,1.04-6.44s-0.28-4.02-0.85-5.08C415.55,130.34,414.59,129.81,413.25,129.81z"/>
				<path class="st4" d="M428.31,126.64c1.53-1.27,3.3-1.91,5.32-1.91s3.96,0.36,5.81,1.09c1.86,0.73,2.78,1.69,2.78,2.89
					c0,0.62-0.24,1.11-0.71,1.47s-0.88,0.55-1.23,0.55s-0.62-0.01-0.82-0.03s-0.93-0.35-2.18-1.01c-1.25-0.66-2.41-0.98-3.47-0.98
					s-1.96,0.26-2.7,0.79c-0.75,0.53-1.12,1.3-1.12,2.32s0.43,1.82,1.28,2.4c0.85,0.58,2.36,1.08,4.5,1.5
					c2.15,0.42,3.79,1.01,4.94,1.77c1.15,0.76,1.72,2.18,1.72,4.26c0,3.02-0.79,5.16-2.37,6.41s-3.5,1.88-5.76,1.88
					s-4.18-0.31-5.76-0.93c-1.58-0.62-2.38-1.55-2.38-2.78c0-1.42,0.71-2.13,2.13-2.13c0.36,0,1.16,0.25,2.4,0.76
					s2.46,0.76,3.68,0.76s2.15-0.39,2.78-1.17c0.64-0.78,0.96-1.68,0.96-2.7s-0.42-1.75-1.26-2.21c-0.84-0.45-2.11-0.83-3.82-1.12
					c-1.71-0.29-2.97-0.6-3.77-0.93c-2.18-0.87-3.27-2.82-3.27-5.84C426.02,129.63,426.78,127.92,428.31,126.64z"/>
				<path class="st4" d="M474.65,114.09c1.75,0,3.48,0.44,5.21,1.31c1.73,0.87,2.59,1.86,2.59,2.95c0,1.67-0.69,2.51-2.07,2.51
					c-0.51,0-1.4-0.33-2.67-0.98c-1.27-0.66-2.35-0.98-3.22-0.98c-3.13,0-5.74,1.4-7.83,4.2c-2.09,2.8-3.14,6.37-3.14,10.7
					c0,3.24,0.71,6.08,2.13,8.52s3.1,3.66,5.05,3.66c1.95,0,3.47-0.65,4.58-1.94c1.11-1.29,1.67-2.76,1.67-4.39
					c0-0.91-0.06-1.67-0.19-2.26c-0.13-0.6-0.45-1.15-0.96-1.64s-1.18-0.74-2.02-0.74s-1.63-0.18-2.37-0.55
					c-0.75-0.36-1.12-0.85-1.12-1.47s0.18-1.2,0.55-1.75c0.36-0.55,0.85-0.87,1.47-0.98c2.47,0,4.14,0.25,4.99,0.76
					s1.5,0.93,1.94,1.25c0.44,0.33,0.8,0.87,1.09,1.64c0.29,0.76,0.52,1.4,0.68,1.91c0.16,0.51,0.28,1.33,0.36,2.46
					c0.07,1.89,0.11,4.1,0.11,6.63s-0.18,4.09-0.54,4.67c-0.33,0.47-0.87,0.72-1.64,0.74c-0.76,0.02-1.29-0.14-1.58-0.46
					c-0.29-0.33-0.47-1.05-0.55-2.18c-0.87,0.76-1.97,1.41-3.3,1.94s-2.5,0.79-3.52,0.79c-3.2,0-5.9-1.7-8.08-5.1
					s-3.28-7.51-3.28-12.31c0-2.55,0.42-5.05,1.26-7.51s1.96-4.52,3.38-6.2C466.61,115.82,470.29,114.09,474.65,114.09z"/>
				<path class="st4" d="M492.72,125.06c1.93,0,3.77,0.56,5.51,1.69c1.75,1.13,2.62,2.52,2.62,4.18c0,1.66-0.71,3.26-2.13,4.8
					c-1.42,1.55-3.31,2.48-5.68,2.81c-1.02,0.15-2.55,0.22-4.58,0.22c0.4,3.09,1.18,5.13,2.35,6.11c0.36,0.4,0.85,0.6,1.47,0.6
					c2.26,0,4.15-0.72,5.68-2.16s2.62-2.16,3.28-2.16c0.29,0,0.73,0.27,1.31,0.82s0.87,1.06,0.87,1.53c0,0.95-1.15,2.31-3.44,4.09
					c-1.02,0.84-2.25,1.54-3.68,2.1c-1.44,0.56-2.78,0.85-4.01,0.85c-3.17,0-5.5-2.04-6.99-6.11c-0.95-2.51-1.42-5.28-1.42-8.3
					s0.71-5.62,2.13-7.81C487.43,126.15,489.67,125.06,492.72,125.06z M493,128.83c-1.38,0-2.57,0.78-3.55,2.35
					c-0.36,0.55-0.71,1.78-1.04,3.71c5.09,0,7.64-1.25,7.64-3.77C496.05,129.59,495.03,128.83,493,128.83z"/>
				<path class="st4" d="M513.63,142.36l0.05,5.62c0,0.66-0.3,1.26-0.9,1.8c-0.6,0.55-1.19,0.82-1.77,0.82
					c-0.84,0-1.36-0.65-1.58-1.96c-0.04-0.29-0.18-2.96-0.44-8c-0.25-5.04-0.75-9-1.47-11.87c-0.33-1.38-0.49-2.2-0.49-2.46
					c0-1.2,0.73-1.8,2.18-1.8c0.62,0,1.11,0.24,1.47,0.71c0.36,0.47,0.59,0.96,0.68,1.45s0.17,1.16,0.25,1.99
					c0.07,0.84,0.13,1.37,0.16,1.58c0.76-1.82,1.91-3.18,3.44-4.09c1.53-0.91,3.2-1.37,5.02-1.37c2.98,0,4.48,0.76,4.48,2.29
					c0,0.76-0.26,1.37-0.79,1.83s-1.14,0.68-1.83,0.68c-3.09,0-5.28,0.98-6.55,2.95C514.26,134.5,513.63,137.78,513.63,142.36z"/>
				<path class="st4" d="M542.83,124.84c1.6,0,2.4,1.37,2.4,4.09c0,0.29,0,0.6,0,0.93l-0.11,3.82c-0.04,1.2-0.05,2.38-0.05,3.55
					l0.82,12.34c0,0.91-0.93,1.37-2.78,1.37c-0.11,0-0.37,0-0.79,0s-0.71-0.16-0.87-0.49s-0.18-0.73-0.05-1.2s0.08-1-0.14-1.58
					c-1.67,1.78-3.89,2.67-6.66,2.67c-5.13,0-7.7-3.97-7.7-11.9c0-4.4,0.83-7.73,2.48-9.99c1.66-2.26,4.03-3.38,7.12-3.38
					c1.46,0,2.91,0.25,4.37,0.76C541.34,125.17,542,124.84,542.83,124.84z M537.16,129.81c-2.07,0-3.62,0.6-4.64,1.8
					s-1.53,3.4-1.53,6.6c0,5.39,1.46,8.08,4.37,8.08c0.76,0,1.61-0.35,2.54-1.04s1.57-1.47,1.94-2.35c0.69-1.96,1.04-4.11,1.04-6.44
					s-0.28-4.02-0.85-5.08C539.46,130.34,538.5,129.81,537.16,129.81z"/>
				<path class="st4" d="M552.6,115.83c0.66,0,1.27,0.31,1.86,0.93c0.58,0.62,0.87,1.26,0.87,1.94c0,0.67-0.32,1.36-0.96,2.05
					s-1.3,1.04-1.99,1.04s-1.32-0.29-1.88-0.87s-0.85-1.33-0.85-2.24c0-1.75,0.95-2.69,2.84-2.84
					C552.53,115.83,552.57,115.83,552.6,115.83z M554.9,144.44l0.05,3.82c0,0.69-0.27,1.26-0.82,1.72
					c-0.55,0.45-1.13,0.68-1.75,0.68c-0.91,0-1.38-0.45-1.42-1.36c-0.47-11.61-0.71-18.03-0.71-19.27s0.05-2.75,0.16-4.53
					c0.07-0.66,0.49-0.98,1.25-0.98c1.93,0,3.02,0.78,3.28,2.35c0.11,0.8,0.16,1.44,0.16,1.91l-0.22,3.44v12.22H554.9z"/>
				<path class="st4" d="M564.45,126.64c1.53-1.27,3.3-1.91,5.32-1.91s3.96,0.36,5.81,1.09c1.86,0.73,2.78,1.69,2.78,2.89
					c0,0.62-0.24,1.11-0.71,1.47c-0.47,0.36-0.88,0.55-1.23,0.55s-0.62-0.01-0.82-0.03s-0.93-0.35-2.18-1.01
					c-1.25-0.66-2.41-0.98-3.47-0.98s-1.96,0.26-2.7,0.79c-0.75,0.53-1.12,1.3-1.12,2.32s0.43,1.82,1.28,2.4
					c0.85,0.58,2.36,1.08,4.5,1.5c2.15,0.42,3.79,1.01,4.94,1.77c1.15,0.76,1.72,2.18,1.72,4.26c0,3.02-0.79,5.16-2.37,6.41
					s-3.5,1.88-5.76,1.88s-4.18-0.31-5.76-0.93s-2.38-1.55-2.38-2.78c0-1.42,0.71-2.13,2.13-2.13c0.36,0,1.16,0.25,2.4,0.76
					c1.24,0.51,2.46,0.76,3.68,0.76s2.15-0.39,2.78-1.17c0.64-0.78,0.96-1.68,0.96-2.7s-0.42-1.75-1.26-2.21
					c-0.84-0.45-2.11-0.83-3.82-1.12s-2.97-0.6-3.77-0.93c-2.18-0.87-3.27-2.82-3.27-5.84
					C562.16,129.63,562.92,127.92,564.45,126.64z"/>
			</g>
		</g>
	</g>
</g>
<g>
	<g>
		<path class="st4" d="M86.18,189.96c66.56-0.36,133.13-0.98,199.69-1.9c66.84-0.92,133.68-2.11,200.52-3.59
			c37.54-0.83,75.08-1.75,112.62-2.76c2.68-0.07,2.69-4.24,0-4.17c-66.45,1.79-132.92,3.3-199.38,4.52
			c-66.86,1.24-133.73,2.19-200.6,2.86c-37.61,0.38-75.22,0.66-112.84,0.87C83.5,185.8,83.49,189.97,86.18,189.96L86.18,189.96z"/>
	</g>
</g>
</svg>
