<?xml version="1.0" encoding="utf-8"?>
<!-- Generator: Adobe Illustrator 27.2.0, SVG Export Plug-In . SVG Version: 6.00 Build 0)  -->
<svg version="1.1" id="Camada_1" xmlns="http://www.w3.org/2000/svg" xmlns:xlink="http://www.w3.org/1999/xlink" x="0px" y="0px"
	 viewBox="0 0 120 120" style="enable-background:new 0 0 120 120;" xml:space="preserve">
<style type="text/css">
	.st0{fill:#EEF2F6;}
	.st1{fill:#F76A03;}
</style>
<rect class="st0" width="120" height="120"/>
<g>
	<path class="st1" d="M85.73,82.77H36.95c-1.32,0-2.4-1.07-2.4-2.4c0-1.32,1.07-2.4,2.4-2.4h48.78c1.32,0,2.4,1.07,2.4,2.4
		C88.12,81.7,87.05,82.77,85.73,82.77z"/>
	<path class="st1" d="M26.63,93.11c-7.02,0-12.73-5.71-12.73-12.73s5.71-12.73,12.73-12.73s12.73,5.71,12.73,12.73
		S33.65,93.11,26.63,93.11z M26.63,72.43c-4.38,0-7.94,3.56-7.94,7.94c0,4.38,3.56,7.94,7.94,7.94s7.94-3.56,7.94-7.94
		C34.57,76,31.01,72.43,26.63,72.43z"/>
	<path class="st1" d="M96.06,93.11c-7.02,0-12.73-5.71-12.73-12.73s5.71-12.73,12.73-12.73s12.73,5.71,12.73,12.73
		C108.8,87.4,103.08,93.11,96.06,93.11z M96.06,72.43c-4.38,0-7.94,3.56-7.94,7.94c0,4.38,3.56,7.94,7.94,7.94
		c4.38,0,7.94-3.56,7.94-7.94C104,76,100.44,72.43,96.06,72.43z"/>
	<path class="st1" d="M36.92,82.2c-1.32,0-2.39-1.07-2.4-2.39c0-1.32,1.07-2.4,2.39-2.4l48.84-0.1l0,0c1.32,0,2.39,1.07,2.4,2.39
		c0,1.32-1.07,2.4-2.39,2.4L36.92,82.2L36.92,82.2z"/>
	<path class="st1" d="M16.34,82.24c-0.12,0-0.24-0.01-0.37-0.03c-6.18-0.95-10.18-4.05-10.18-7.9V58.75c0-0.03,0-0.06,0-0.08
		c0.05-1.56,0.7-3.01,1.81-4.1l15.27-17.49c0.01-0.01,0.02-0.03,0.03-0.04c1.71-1.93,4.17-3.04,6.75-3.05H71.2l0,0
		c2.96,0,5.73,1.45,7.42,3.88l12.45,17.74h10.69c8,0,14.03,3.53,14.03,8.21v10.5c0,3.54-3.41,6.49-8.9,7.68
		c-1.29,0.28-2.57-0.54-2.85-1.83s0.54-2.57,1.83-2.85c3.62-0.79,5.13-2.34,5.13-2.99v-10.5c0-1.17-3.6-3.42-9.23-3.42H90.71
		c-1.33,0.02-2.57-0.62-3.33-1.71l-0.01-0.01L74.7,40.63l-0.01-0.01c-0.79-1.15-2.1-1.83-3.49-1.83H29.66
		c-1.22,0-2.38,0.53-3.18,1.45c-0.01,0.01-0.02,0.02-0.03,0.03l-15.3,17.54c-0.05,0.06-0.11,0.12-0.17,0.18
		c-0.23,0.21-0.37,0.51-0.39,0.83v15.51c0,0.77,1.79,2.5,6.11,3.16c1.31,0.2,2.21,1.42,2.01,2.73
		C18.53,81.4,17.51,82.24,16.34,82.24z"/>
	<path class="st1" d="M90.68,60.4c-0.02,0-0.03,0-0.05,0L9.26,58.69c-1.32-0.03-2.37-1.12-2.35-2.45c0.03-1.32,1.12-2.37,2.45-2.35
		l81.37,1.71c1.32,0.03,2.37,1.12,2.35,2.45C93.05,59.36,91.98,60.4,90.68,60.4z"/>
	<path class="st1" d="M51.58,59.56c-1.32,0-2.4-1.07-2.4-2.4V37.13c0-1.32,1.07-2.4,2.4-2.4s2.4,1.07,2.4,2.4v20.03
		C53.98,58.48,52.91,59.56,51.58,59.56z"/>
</g>
</svg>
