<?xml version="1.0" encoding="utf-8"?>
<!-- Generator: Adobe Illustrator 27.2.0, SVG Export Plug-In . SVG Version: 6.00 Build 0)  -->
<svg version="1.1" id="Camada_1" xmlns="http://www.w3.org/2000/svg" xmlns:xlink="http://www.w3.org/1999/xlink" x="0px" y="0px"
	 viewBox="0 0 120 120" style="enable-background:new 0 0 120 120;" xml:space="preserve">
<style type="text/css">
	.st0{fill:#EEF2F6;}
	.st1{fill:#F76A03;}
</style>
<rect class="st0" width="120" height="120"/>
<g>
	<path class="st1" d="M79.83,73.65c0.5,0.5,1.24,0.5,1.73,0c0.5-0.5,0.5-1.24,0-1.73c-0.17-0.17-1.9-1.9-4.13-2.39v-0.74
		c0-0.66-0.58-1.24-1.24-1.24c-0.66,0-1.24,0.58-1.24,1.24v0.83c-2.15,0.58-3.72,2.56-3.72,4.79s1.49,4.21,3.72,4.79v4.79h-0.08
		c-0.99-0.5-1.9-1.4-2.23-1.82c-0.41-0.5-1.24-0.58-1.73-0.17c-0.5,0.41-0.58,1.24-0.17,1.73c0.17,0.25,1.98,2.23,4.13,2.89v0.83
		c0,0.66,0.58,1.24,1.24,1.24c0.66,0,1.24-0.58,1.24-1.24V86.7c2.23-0.58,3.8-2.56,3.8-4.87s-1.57-4.29-3.8-4.87V72h0.08
		C78.51,72.49,79.5,73.32,79.83,73.65L79.83,73.65z M78.76,81.82c0,0.91-0.5,1.73-1.24,2.15h-0.08v-4.38h0.08
		C78.26,80.17,78.76,81,78.76,81.82z M73.8,74.31c0-0.83,0.41-1.65,1.16-2.15h0.08v4.29h-0.08C74.22,75.96,73.8,75.22,73.8,74.31z"
		/>
	<path class="st1" d="M87.51,87.19l2.15,1.24l0.5,0.17l0.25-0.41c2.15-2.97,3.3-6.52,3.3-10.24c0-9.66-7.84-17.51-17.51-17.51
		c-9.66,0-17.51,7.84-17.51,17.51s7.84,17.51,17.51,17.51c1.65,0,3.3-0.25,4.95-0.74l0.5-0.17l-0.41-2.31l-0.25-0.58l-0.58,0.17
		c-1.4,0.41-2.81,0.66-4.29,0.66c-8.09,0-14.62-6.52-14.62-14.62c0-8.09,6.52-14.62,14.62-14.62c8.09,0,14.62,6.52,14.62,14.62
		c0,3.14-0.99,6.19-2.89,8.75L87.51,87.19z"/>
	<path class="st1" d="M76.2,54.57c-2.15,0-4.38,0.33-6.44,0.91l-0.5,0.17l0.58,3.06l0.66-0.17c1.9-0.58,3.8-0.83,5.78-0.83
		c11.31,0,20.48,9.17,20.48,20.48s-9.17,20.48-20.48,20.48S55.8,89.5,55.8,78.19c0-4.38,1.32-8.51,3.88-11.97l0.41-0.5l-2.73-1.57
		l-0.33,0.41c-2.89,4.05-4.38,8.75-4.38,13.63c0,12.97,10.57,23.53,23.53,23.53s23.53-10.57,23.53-23.53
		C99.82,65.14,89.25,54.57,76.2,54.57L76.2,54.57z"/>
	<path class="st1" d="M36.97,42.76h20.89v4.95H36.97V42.76z"/>
	<path class="st1" d="M36.81,80.25h10.9v4.87h-10.9C36.81,85.12,36.81,80.25,36.81,80.25z"/>
	<path class="st1" d="M36.81,67.87h13.71v4.87H36.81V67.87z"/>
	<path class="st1" d="M36.89,55.89h15.77v4.54H36.89V55.89z"/>
	<path class="st1" d="M49.61,94.04H29.46V26h38.15v13.87h13.87v11.89h4.46V34.83l-13.3-13.3H25V98.5h24.69v-4.46H49.61z M71.16,25.5
		L81.9,36.24H71.16V25.5z"/>
</g>
</svg>
