<?xml version="1.0" encoding="utf-8"?>
<!-- Generator: Adobe Illustrator 27.2.0, SVG Export Plug-In . SVG Version: 6.00 Build 0)  -->
<svg version="1.1" id="Camada_1" xmlns="http://www.w3.org/2000/svg" xmlns:xlink="http://www.w3.org/1999/xlink" x="0px" y="0px"
	 viewBox="0 0 120 120" style="enable-background:new 0 0 120 120;" xml:space="preserve">
<style type="text/css">
	.st0{fill:#EEF2F6;}
	.st1{fill:#F76A03;}
</style>
<rect class="st0" width="120" height="120"/>
<path class="st1" d="M101.21,47.67l-37.2-26.84l0,0c-1.31-0.93-2.87-1.42-4.48-1.42c-1.6,0-3.17,0.5-4.48,1.42L17.87,47.67
	c-1.07,0.77-2.57,0.53-3.34-0.54s-0.53-2.57,0.54-3.34l37.19-26.84l0,0c2.13-1.51,4.67-2.32,7.28-2.32c2.61,0,5.15,0.81,7.28,2.32
	l37.19,26.84c0.84,0.61,1.2,1.69,0.88,2.68s-1.24,1.66-2.28,1.66C102.1,48.13,101.61,47.97,101.21,47.67L101.21,47.67z M61.93,55.3
	h-4.79c-1.32,0-2.39,1.07-2.39,2.39v7.18h-7.18c-1.32,0-2.39,1.07-2.39,2.39v4.78c0,0.63,0.25,1.24,0.7,1.69s1.06,0.7,1.69,0.7h7.18
	v7.18c0,0.63,0.25,1.24,0.7,1.69c0.45,0.45,1.06,0.7,1.69,0.7h4.79c0.63,0,1.24-0.25,1.69-0.7c0.45-0.45,0.7-1.06,0.7-1.69v-7.18
	h7.18c0.63,0,1.24-0.25,1.69-0.7c0.45-0.45,0.7-1.06,0.7-1.69v-4.78c0-0.64-0.25-1.24-0.7-1.69c-0.45-0.45-1.06-0.7-1.69-0.7h-7.18
	V57.7c0-0.63-0.25-1.24-0.7-1.69C63.17,55.56,62.57,55.3,61.93,55.3L61.93,55.3z M23.65,52.36v41.23c0,3.17,1.26,6.21,3.51,8.46
	c2.24,2.24,5.28,3.5,8.46,3.51h47.85c3.17,0,6.21-1.26,8.46-3.51c2.24-2.24,3.5-5.28,3.51-8.46V52.36l-4.78-3.45v44.68
	c0,1.9-0.76,3.73-2.11,5.07c-1.35,1.35-3.17,2.1-5.07,2.1H35.61c-1.9,0-3.73-0.76-5.07-2.1c-1.35-1.35-2.1-3.17-2.11-5.07V48.9
	L23.65,52.36z"/>
</svg>
