<?xml version="1.0" encoding="utf-8"?>
<!-- Generator: Adobe Illustrator 27.2.0, SVG Export Plug-In . SVG Version: 6.00 Build 0)  -->
<svg version="1.1" id="Camada_1" xmlns="http://www.w3.org/2000/svg" xmlns:xlink="http://www.w3.org/1999/xlink" x="0px" y="0px"
	 viewBox="0 0 120 120" style="enable-background:new 0 0 120 120;" xml:space="preserve">
<style type="text/css">
	.st0{fill:#EEF2F6;}
	.st1{fill:#F76A03;}
</style>
<rect class="st0" width="120" height="120"/>
<path class="st1" d="M28.46,73.36v-3.7c0-0.51-0.21-0.97-0.54-1.31c-0.33-0.33-0.8-0.54-1.31-0.54h-4.09c-0.5,0-0.97,0.21-1.3,0.54
	s-0.54,0.8-0.54,1.3v26c0,0.5,0.21,0.97,0.54,1.3c0.33,0.33,0.8,0.54,1.3,0.54h4.09c0.51,0,0.97-0.21,1.31-0.54
	c0.33-0.33,0.54-0.8,0.54-1.31V73.36z M38.76,42c-1.02,0-1.84-0.83-1.84-1.84c0-1.02,0.83-1.84,1.84-1.84h2.83
	c-0.95-2.06-1.52-4.01-1.54-5.76c-0.07-5.66,2.13-10.28,5.32-13.25c1.76-1.64,3.83-2.78,5.99-3.33c2.2-0.56,4.51-0.5,6.69,0.28
	c2.32,0.82,4.48,2.45,6.22,4.98c1.56-2.49,3.59-4.11,5.82-4.95c2.07-0.78,4.3-0.88,6.46-0.39c2.11,0.48,4.16,1.52,5.94,3.03
	c3.48,2.95,6,7.72,6,13.61c0,1.6-0.37,3.3-1.02,5.04h2.33c1.02,0,1.84,0.83,1.84,1.84c0,1.02-0.83,1.84-1.84,1.84h-4.07
	c-4.32,7.71-12.75,15.81-18.28,21.13l-1.9,1.83c-0.73,0.7-1.9,0.68-2.6-0.05l-0.02-0.02l-1.64-1.65C56.27,57.47,48.23,49.4,43.61,42
	H38.76L38.76,42z M45.62,38.31h5.41l4.23-7.49c0.5-0.88,1.62-1.19,2.5-0.7c0.39,0.22,0.67,0.56,0.82,0.95L63,42.72l2.32-4.2
	c0.33-0.61,0.96-0.95,1.61-0.96h16.59c0.8-1.79,1.27-3.49,1.27-5.04c0-4.72-1.97-8.5-4.69-10.8c-1.33-1.13-2.84-1.9-4.37-2.25
	c-1.48-0.33-2.98-0.27-4.36,0.25c-2.15,0.81-4.06,2.76-5.26,6.1c-0.16,0.51-0.53,0.94-1.05,1.16c-0.94,0.39-2.02-0.06-2.41-0.99
	c-1.44-3.45-3.55-5.46-5.84-6.27c-1.48-0.52-3.05-0.56-4.57-0.18c-1.56,0.4-3.07,1.24-4.37,2.45c-2.49,2.32-4.21,5.98-4.15,10.51
	C43.75,34.18,44.46,36.16,45.62,38.31L45.62,38.31z M81.49,41.25H68.01l-3.72,6.73c-0.2,0.37-0.54,0.68-0.97,0.84
	c-0.95,0.36-2.01-0.12-2.37-1.07l-4.43-11.7l-2.74,4.86C53.5,41.54,52.85,42,52.1,42h-4.16c4.47,6.38,11.48,13.42,15.95,17.89
	l0.4,0.41l0.6-0.58C69.84,54.97,77.24,47.85,81.49,41.25L81.49,41.25z M32.15,70.8c20.63-6.36,24.15-4.94,28.84-3.04
	c2.94,1.19,6.42,2.6,16.91,1.74c1.51-0.12,2.75,0.36,3.64,1.17c1.17-0.24,2.12-0.41,2.93-0.56c2.43-0.44,3.4-0.62,5.5-2.12L90,67.98
	c3.73-2.57,7.27-3.83,9.51-3.84c1.15-0.01,2.1,0.3,2.78,0.92c0.82,0.75,1.15,1.78,0.89,3.07c-0.32,1.57-1.8,3.78-4.84,6.54
	l-0.08,0.07C76.83,92.06,73.1,91.82,50.09,90.38c-2.07-0.18-4.24-0.27-6.32-0.39c-2.02-0.06-3.48,0.06-5.11,0.64
	c-1.69,0.6-3.62,1.67-6.5,3.46v1.57c0,1.52-0.62,2.9-1.62,3.9c-1.01,1.01-2.39,1.63-3.91,1.63h-4.09c-1.52,0-2.91-0.62-3.91-1.62
	s-1.62-2.39-1.62-3.91v-26c0-1.52,0.62-2.91,1.62-3.91s2.39-1.62,3.91-1.62h4.09c1.52,0,2.9,0.62,3.9,1.62
	c1.01,1.01,1.63,2.39,1.63,3.91L32.15,70.8L32.15,70.8z M32.15,89.79c2.14-1.27,3.77-2.1,5.28-2.64c2.13-0.75,3.96-0.92,6.45-0.84
	c2.08,0.04,4.34,0.26,6.44,0.39c21.77,1.37,25.31,1.59,45.63-14.83c2-1.83,3.1-3.17,3.48-4.06c-1.59,0.03-4.29,1.09-7.35,3.19
	c-2.79,1.99-3.99,2.21-6.97,2.74c-0.62,0.1-1.34,0.23-2.17,0.4c-0.02,0.36-0.08,0.72-0.18,1.07c-0.39,1.33-1.39,2.62-3.11,3.45
	c-0.13,0.06-0.25,0.11-0.38,0.14c-4.29,1.07-7.15,1.64-10.45,1.73c-3.26,0.09-6.83-0.32-12.56-1.21c-1-0.15-1.69-1.1-1.54-2.1
	c0.15-1,1.1-1.69,2.1-1.54c5.51,0.86,8.91,1.25,11.91,1.17c2.89-0.08,5.53-0.61,9.48-1.59c0.59-0.32,0.92-0.71,1.03-1.08
	c0.05-0.16,0.05-0.33,0.02-0.47c-0.03-0.12-0.09-0.23-0.18-0.31c-0.17-0.16-0.46-0.25-0.88-0.22c-11.34,0.92-15.27-0.66-18.58-2
	c-4.08-1.65-7.11-2.87-27.46,3.48L32.15,89.79L32.15,89.79z"/>
</svg>
