<?xml version="1.0" encoding="utf-8"?>
<!-- Generator: Adobe Illustrator 27.2.0, SVG Export Plug-In . SVG Version: 6.00 Build 0)  -->
<svg version="1.1" id="Camada_1" xmlns="http://www.w3.org/2000/svg" xmlns:xlink="http://www.w3.org/1999/xlink" x="0px" y="0px"
	 viewBox="0 0 16 16" style="enable-background:new 0 0 16 16;" xml:space="preserve">
<style type="text/css">
	.st0{fill:#9E1F63;}
</style>
<g>
	<path class="st0" d="M8,3C7.95,3,7.91,3.02,7.88,3.05C7.85,3.08,7.83,3.13,7.83,3.17v9.66c0,0.04,0.02,0.09,0.05,0.12
		C7.91,12.98,7.96,13,8,13c0.04,0,0.09-0.02,0.12-0.05c0.03-0.03,0.05-0.07,0.05-0.12V3.17c0-0.05-0.02-0.09-0.05-0.12
		C8.09,3.02,8.04,3,8,3L8,3z"/>
	<path class="st0" d="M8,3C7.95,3,7.91,3.02,7.88,3.05c0,0-0.96,0.93-1.93,2.14C4.99,6.39,4,7.84,4,9c0,2.21,1.79,4,4,4s4-1.79,4-4
		c0-1.16-0.99-2.61-1.95-3.81c-0.97-1.2-1.93-2.14-1.93-2.14h0C8.08,3.02,8.04,3,8,3L8,3z M8,3.41c0.16,0.16,0.93,0.92,1.79,1.99
		c0.95,1.18,1.88,2.65,1.88,3.61c0,2.03-1.64,3.67-3.67,3.67c-2.03,0-3.67-1.64-3.67-3.67c0-0.96,0.93-2.42,1.88-3.61
		C7.07,4.33,7.84,3.56,8,3.41L8,3.41z"/>
	<path class="st0" d="M7,5C6.73,5,6.5,5.23,6.5,5.5C6.5,5.77,6.73,6,7,6s0.5-0.23,0.5-0.5C7.5,5.23,7.27,5,7,5z M7,5.33
		c0.09,0,0.17,0.07,0.17,0.17c0,0.09-0.07,0.17-0.17,0.17S6.83,5.59,6.83,5.5C6.83,5.41,6.91,5.33,7,5.33z"/>
	<path class="st0" d="M6.67,6.17C6.21,6.17,5.83,6.54,5.83,7s0.38,0.83,0.83,0.83C7.12,7.83,7.5,7.46,7.5,7S7.12,6.17,6.67,6.17z
		 M6.67,6.5c0.28,0,0.5,0.22,0.5,0.5s-0.22,0.5-0.5,0.5c-0.28,0-0.5-0.22-0.5-0.5S6.39,6.5,6.67,6.5z"/>
	<path class="st0" d="M6.83,7c0,0.04-0.02,0.09-0.05,0.12C6.75,7.15,6.71,7.17,6.67,7.17C6.57,7.17,6.5,7.09,6.5,7
		c0-0.09,0.07-0.17,0.17-0.17c0.04,0,0.09,0.02,0.12,0.05C6.82,6.91,6.83,6.96,6.83,7z"/>
	<path class="st0" d="M6.67,10c-0.46,0-0.83,0.38-0.83,0.83s0.38,0.83,0.83,0.83c0.46,0,0.83-0.38,0.83-0.83S7.12,10,6.67,10z
		 M6.67,10.33c0.28,0,0.5,0.22,0.5,0.5s-0.22,0.5-0.5,0.5c-0.28,0-0.5-0.22-0.5-0.5S6.39,10.33,6.67,10.33z"/>
	<path class="st0" d="M6.83,10.83c0,0.04-0.02,0.09-0.05,0.12C6.75,10.98,6.71,11,6.67,11c-0.09,0-0.17-0.07-0.17-0.17
		c0-0.09,0.07-0.17,0.17-0.17c0.04,0,0.09,0.02,0.12,0.05C6.82,10.75,6.83,10.79,6.83,10.83z"/>
	<path class="st0" d="M5.5,7.67C5.23,7.67,5,7.89,5,8.17c0,0.27,0.23,0.5,0.5,0.5S6,8.44,6,8.17C6,7.89,5.77,7.67,5.5,7.67z M5.5,8
		c0.09,0,0.17,0.07,0.17,0.17S5.59,8.33,5.5,8.33S5.33,8.26,5.33,8.17S5.41,8,5.5,8z"/>
	<path class="st0" d="M6.83,8.33c-0.27,0-0.5,0.23-0.5,0.5c0,0.27,0.23,0.5,0.5,0.5s0.5-0.23,0.5-0.5C7.33,8.56,7.11,8.33,6.83,8.33
		z M6.83,8.67C6.93,8.67,7,8.74,7,8.83C7,8.93,6.93,9,6.83,9C6.74,9,6.67,8.93,6.67,8.83C6.67,8.74,6.74,8.67,6.83,8.67z"/>
	<path class="st0" d="M5.33,9.17c-0.27,0-0.5,0.23-0.5,0.5s0.23,0.5,0.5,0.5s0.5-0.23,0.5-0.5S5.61,9.17,5.33,9.17z M5.33,9.5
		c0.09,0,0.17,0.07,0.17,0.17S5.43,9.83,5.33,9.83S5.17,9.76,5.17,9.67S5.24,9.5,5.33,9.5z"/>
	<path class="st0" d="M7.5,12.17c0,0.04-0.02,0.09-0.05,0.12c-0.03,0.03-0.07,0.05-0.12,0.05c-0.09,0-0.17-0.07-0.17-0.17
		c0-0.09,0.07-0.17,0.17-0.17c0.04,0,0.09,0.02,0.12,0.05C7.48,12.08,7.5,12.12,7.5,12.17z"/>
	<path class="st0" d="M9.67,7C9.21,7,8.83,7.38,8.83,7.83s0.38,0.83,0.83,0.83c0.46,0,0.83-0.38,0.83-0.83C10.5,7.38,10.12,7,9.67,7
		z M9.67,7.33c0.28,0,0.5,0.22,0.5,0.5c0,0.28-0.22,0.5-0.5,0.5c-0.28,0-0.5-0.22-0.5-0.5C9.17,7.56,9.39,7.33,9.67,7.33z"/>
	<path class="st0" d="M9.83,7.83c0,0.04-0.02,0.09-0.05,0.12C9.75,7.98,9.71,8,9.67,8C9.57,8,9.5,7.93,9.5,7.83s0.07-0.17,0.17-0.17
		c0.04,0,0.09,0.02,0.12,0.05C9.82,7.75,9.83,7.79,9.83,7.83z"/>
	<path class="st0" d="M9.33,10.33c-0.27,0-0.5,0.23-0.5,0.5c0,0.27,0.23,0.5,0.5,0.5c0.27,0,0.5-0.23,0.5-0.5
		C9.83,10.56,9.61,10.33,9.33,10.33z M9.33,10.67c0.09,0,0.17,0.07,0.17,0.17S9.43,11,9.33,11c-0.09,0-0.17-0.07-0.17-0.17
		S9.24,10.67,9.33,10.67z"/>
	<path class="st0" d="M9.17,5.5c0,0.04-0.02,0.09-0.05,0.12S9.04,5.67,9,5.67c-0.09,0-0.17-0.07-0.17-0.17
		c0-0.09,0.07-0.17,0.17-0.17c0.04,0,0.09,0.02,0.12,0.05C9.15,5.41,9.17,5.46,9.17,5.5z"/>
</g>
</svg>
