<?xml version="1.0" encoding="utf-8"?>
<!-- Generator: Adobe Illustrator 27.2.0, SVG Export Plug-In . SVG Version: 6.00 Build 0)  -->
<svg version="1.1" id="Camada_1" xmlns="http://www.w3.org/2000/svg" xmlns:xlink="http://www.w3.org/1999/xlink" x="0px" y="0px"
	 viewBox="0 0 16 16" style="enable-background:new 0 0 16 16;" xml:space="preserve">
<style type="text/css">
	.st0{fill:#9E1F63;}
</style>
<g>
	<path class="st0" d="M3.93,8.32c0,0.01,0,0.03,0,0.04c0,0.01-0.01,0.03,0,0C3.92,8.4,3.92,8.42,3.91,8.45
		c0,0.01-0.01,0.02-0.01,0.03c0.01-0.03,0-0.01,0,0C3.88,8.51,3.87,8.53,3.86,8.55c0.01-0.02-0.02,0.02-0.03,0.03
		C3.81,8.59,3.79,8.62,3.78,8.63c0.02-0.02,0,0-0.01,0C3.76,8.64,3.75,8.65,3.73,8.65C3.72,8.66,3.71,8.66,3.71,8.66
		c-0.03,0.02,0.02,0-0.01,0.01C3.67,8.68,3.65,8.68,3.61,8.69c-0.03,0.01-0.01,0,0,0c-0.01,0-0.02,0-0.04,0c-0.02,0-0.04,0-0.08,0
		c-0.05,0,0.02,0-0.01,0c-0.02,0-0.03-0.01-0.05-0.01c-0.01,0-0.07-0.02-0.03-0.01c0-0.01-0.02-0.02-0.04-0.03
		C3.34,8.63,3.33,8.63,3.33,8.62C3.36,8.64,3.32,8.6,3.32,8.6C3.29,8.59,3.27,8.57,3.26,8.55c-0.03-0.03,0.01,0.02,0-0.01
		c-0.01,0-0.02-0.01-0.03-0.02c0-0.01-0.01-0.02-0.01-0.02S3.2,8.45,3.21,8.47S3.2,8.44,3.2,8.45c0-0.01-0.01-0.02-0.01-0.03
		S3.17,8.4,3.17,8.38c0-0.01,0-0.01,0,0.01c0-0.01,0-0.01,0-0.02c0-0.02,0-0.04,0-0.08c0,0,0.01-0.05,0-0.02
		c0,0.02,0.01-0.02,0.01-0.02C3.2,8.22,3.21,8.2,3.21,8.18c0.01-0.02-0.02,0.03,0-0.01c0.01-0.01,0.01-0.02,0.02-0.04
		c0-0.01,0.01-0.02,0.01-0.02c0.03-0.03-0.01,0.02,0.02-0.01c0.01-0.01,0.02-0.03,0.04-0.04c0.01-0.01,0.02-0.02,0.03-0.03
		c-0.01,0-0.02,0.01,0,0C3.36,8,3.38,7.99,3.4,7.98c0.02-0.01-0.03,0.01,0.01,0c0.01,0,0.02-0.01,0.03-0.01s0.02-0.01,0.03-0.01
		s0.04-0.01,0.01,0c0.02,0,0.04,0,0.08,0c0.01,0,0.02,0,0.04,0c0.03,0-0.02-0.01,0.01,0C3.65,7.97,3.68,7.97,3.7,7.98
		c0.04,0-0.03-0.02,0.01,0c0.01,0,0.02,0.01,0.03,0.02c0.01,0,0.02,0.01,0.02,0.01C3.81,8.03,3.76,8,3.79,8.02
		c0.02,0.02,0.04,0.04,0.07,0.07c0,0.01,0.02,0.02,0,0C3.87,8.1,3.87,8.11,3.88,8.12C3.89,8.13,3.89,8.14,3.9,8.15
		c0,0.01,0.01,0.01,0.01,0.02c-0.01-0.01-0.01-0.02,0-0.01c0,0.03,0.01,0.07,0.02,0.09c0.01,0.03,0,0.01,0,0
		C3.93,8.27,3.93,8.3,3.93,8.32c0,0.09,0.08,0.18,0.18,0.18c0.09,0,0.18-0.08,0.18-0.18c0-0.31-0.2-0.58-0.49-0.68
		c-0.27-0.1-0.6,0-0.78,0.22c-0.2,0.23-0.24,0.57-0.08,0.84c0.15,0.26,0.46,0.4,0.77,0.34c0.33-0.07,0.57-0.37,0.58-0.71
		c0-0.09-0.08-0.18-0.18-0.18C4.01,8.15,3.93,8.22,3.93,8.32L3.93,8.32z"/>
	<path class="st0" d="M4.25,9.7c0,0.4,0.01,0.78,0,1.18v0.01c0,0.01-0.01,0.04,0,0.01c0,0.01-0.01,0.02-0.01,0.03
		c-0.01,0.02,0.02-0.03,0,0.01c-0.01,0.01-0.01,0.02-0.02,0.04c0-0.01,0.02-0.02,0,0C4.21,11,4.2,11.01,4.19,11.02
		c0.02-0.02,0,0,0,0c-0.01,0.01-0.02,0.01-0.04,0.02c0.04-0.02-0.07,0.01-0.01,0c-0.03,0-0.07,0-0.1,0c-0.1,0-0.18,0.08-0.18,0.18
		v0.62v0.41v0.12v0.02l0,0v0.01c0-0.02,0-0.02,0,0v0.01c0.01-0.02,0.01-0.02,0,0c0,0,0,0,0,0.01c-0.01,0.01-0.01,0.01,0-0.01
		l-0.01,0.01c0.01-0.01,0.01-0.01,0.01,0c-0.01,0.01-0.03,0.02,0,0.01c-0.01,0-0.02,0.01-0.03,0.01c0.03-0.01-0.01,0-0.02,0H3.61
		H3.39H3.33H3.31c-0.01,0-0.03,0-0.01,0c0.02,0-0.02-0.01-0.02-0.01c0.04,0.01,0,0,0,0l-0.01-0.01c0.01,0.01,0.01,0.01,0,0
		c0,0,0,0,0,0.01c0.01,0.01,0.01,0.01,0-0.01c0,0-0.01-0.02,0,0c0-0.01-0.01-0.05-0.01-0.01c0-0.01,0-0.01,0-0.02
		c0-0.02,0-0.05,0-0.08v-0.36v-0.74c0-0.1-0.08-0.18-0.18-0.18H3.02c0,0-0.05,0-0.02,0c0.02,0-0.02-0.01-0.02-0.01
		c-0.01,0-0.03-0.01,0,0C2.96,11.01,2.95,11.01,2.93,11c-0.02-0.01-0.01-0.01,0,0c-0.01-0.01-0.02-0.02-0.03-0.02
		c-0.01-0.01-0.02-0.03-0.01-0.01c-0.01-0.01-0.01-0.02-0.01-0.02c0-0.01-0.01-0.02-0.01-0.02c0.01,0.03,0,0,0-0.01
		c0-0.01-0.01-0.04,0-0.01c0-0.01,0-0.02,0-0.03c0-0.07,0-0.12,0-0.19V9.89c0-0.07,0-0.13,0-0.19c0-0.01,0.01-0.05,0-0.02
		c0-0.01,0.02-0.07,0.01-0.03c0-0.01,0.01-0.02,0.02-0.03c0-0.01,0.02-0.03,0-0.01c0.01-0.01,0.01-0.01,0.02-0.02
		c0,0,0.04-0.03,0.01-0.01c-0.01,0,0-0.01,0.01-0.01c0,0,0.04-0.02,0.02-0.01c-0.02,0,0.07-0.01,0.02-0.01c0.01,0,0.03,0,0.04,0
		c0.23,0,0.46,0,0.68,0h0.35H4.1h0.02c0.04,0-0.02-0.01,0.01,0c0,0,0.05,0.01,0.03,0.01C4.13,9.54,4.17,9.56,4.17,9.56
		c0.01,0,0.04,0.03,0.01,0.01C4.2,9.58,4.2,9.58,4.21,9.59c0,0,0.03,0.04,0.01,0.01c0.01,0.01,0.01,0.02,0.01,0.02
		c0.01,0.01,0.01,0.04,0.01,0.01c0,0.01,0.01,0.02,0.01,0.03c0,0.01,0,0.01,0-0.01L4.25,9.7c0,0.09,0.08,0.18,0.18,0.18
		C4.52,9.88,4.6,9.8,4.6,9.7C4.59,9.42,4.37,9.2,4.1,9.19c-0.08,0-0.15,0-0.23,0H3.05c-0.19,0-0.36,0.08-0.47,0.24
		C2.51,9.55,2.5,9.67,2.5,9.8v0.85c0,0.09-0.01,0.19,0,0.27c0.02,0.15,0.1,0.3,0.23,0.38c0.1,0.07,0.22,0.08,0.34,0.08
		c-0.05-0.05-0.12-0.12-0.18-0.18v0.68v0.4c0,0.14,0.01,0.27,0.12,0.38c0.13,0.13,0.31,0.11,0.47,0.11h0.23c0.05,0,0.12,0,0.18-0.01
		c0.2-0.04,0.31-0.23,0.31-0.42v-0.34v-0.79c-0.05,0.05-0.12,0.12-0.18,0.18c0.1,0,0.2-0.01,0.29-0.05c0.1-0.05,0.19-0.14,0.24-0.24
		c0.04-0.11,0.04-0.21,0.04-0.33V9.93V9.7c0-0.09-0.08-0.18-0.18-0.18C4.33,9.53,4.25,9.61,4.25,9.7L4.25,9.7z"/>
	<path class="st0" d="M6.86,8.32c0,0.01,0,0.03,0,0.04c0,0.01-0.01,0.03,0,0C6.85,8.4,6.85,8.42,6.83,8.45
		c0,0.01-0.01,0.02-0.01,0.03c0.01-0.03,0-0.01,0,0C6.81,8.51,6.79,8.53,6.78,8.55c0.01-0.02-0.02,0.02-0.03,0.03
		C6.74,8.59,6.71,8.62,6.7,8.63c0.02-0.02,0,0-0.01,0C6.68,8.64,6.67,8.65,6.66,8.65C6.65,8.66,6.65,8.66,6.64,8.66
		c-0.03,0.02,0.02,0-0.01,0.01C6.59,8.68,6.57,8.68,6.55,8.69c-0.03,0.01-0.01,0,0,0c-0.01,0-0.02,0-0.04,0s-0.04,0-0.08,0
		c-0.05,0,0.02,0-0.01,0c-0.02,0-0.03-0.01-0.05-0.01c-0.01,0-0.07-0.02-0.03-0.01C6.32,8.66,6.3,8.65,6.27,8.64
		C6.26,8.63,6.26,8.63,6.25,8.62c0.03,0.02-0.01,0-0.01-0.01C6.22,8.59,6.2,8.57,6.19,8.55c-0.03-0.03,0.01,0.02,0-0.01
		c-0.01,0-0.02-0.01-0.02-0.02S6.15,8.49,6.15,8.49S6.13,8.45,6.14,8.47c0,0.02-0.02-0.03-0.01-0.02c0-0.01-0.01-0.02-0.01-0.03
		S6.11,8.4,6.11,8.38c0-0.01,0-0.01,0,0.01c0-0.01,0-0.01,0-0.02c0-0.02,0-0.04,0-0.08c0,0,0.01-0.05,0-0.02
		c0,0.02,0.01-0.02,0.01-0.02c0-0.03,0.01-0.05,0.01-0.08c0.01-0.02-0.02,0.03,0-0.01c0.01-0.01,0.01-0.02,0.02-0.04
		c0-0.01,0.01-0.02,0.01-0.02c0.02-0.04-0.02,0.02,0.01-0.01C6.19,8.08,6.2,8.05,6.22,8.04c0.02-0.01,0.03-0.02,0.04-0.03
		c-0.01,0-0.02,0.01,0,0C6.29,8,6.31,7.99,6.34,7.98c0.02-0.01-0.03,0.01,0.01,0c0.01,0,0.02-0.01,0.03-0.01s0.02-0.01,0.03-0.01
		s0.04-0.01,0.01,0c0.02,0,0.04,0,0.08,0c0.01,0,0.02,0,0.04,0c0.03,0-0.02-0.01,0.01,0c0.01,0,0.03,0,0.07,0.01
		C6.67,7.98,6.6,7.96,6.64,7.98c0.01,0,0.02,0.01,0.04,0.02c0,0,0.01,0.01,0.02,0.01C6.74,8.03,6.69,8,6.71,8.02
		c0.02,0.02,0.04,0.04,0.07,0.07c0,0.01,0.02,0.02,0,0C6.79,8.1,6.8,8.11,6.8,8.12c0.01,0.01,0.01,0.02,0.02,0.03
		c0,0.01,0.01,0.01,0.01,0.02c-0.01-0.01-0.01-0.02,0-0.01c0.01,0.02,0.02,0.05,0.02,0.08c0.01,0.03,0,0.01,0,0
		C6.86,8.27,6.86,8.3,6.86,8.32c0,0.09,0.08,0.18,0.18,0.18c0.09,0,0.18-0.08,0.18-0.18c0-0.31-0.2-0.58-0.49-0.68
		c-0.27-0.1-0.6,0-0.78,0.22C5.74,8.09,5.7,8.43,5.86,8.69c0.15,0.26,0.46,0.4,0.77,0.34C6.96,8.97,7.2,8.66,7.21,8.32
		c0-0.09-0.08-0.18-0.18-0.18C6.93,8.15,6.86,8.22,6.86,8.32L6.86,8.32z"/>
	<path class="st0" d="M6.96,9.75c0.11,0.47,0.23,0.96,0.34,1.43c0,0,0,0,0,0.01v-0.01c0,0.01,0,0.02,0,0.03c0-0.02,0-0.02,0,0
		c0,0.01-0.02,0.04,0,0.01c0,0.01-0.03,0.04-0.02,0.03c0.01-0.02-0.02,0.02-0.02,0.02c0,0-0.01,0.01-0.02,0.02
		c0.01-0.01,0.01-0.01,0,0c-0.02,0-0.03,0.01-0.04,0.02c0.03-0.01-0.01,0-0.02,0c-0.04,0.01,0.03,0-0.01,0H7.12H7.01
		c-0.1,0-0.16,0.08-0.18,0.18c-0.02,0.16-0.04,0.33-0.07,0.48c-0.01,0.1-0.02,0.2-0.04,0.31c0,0.02-0.01,0.05-0.01,0.08v0.01
		c0,0.01-0.01,0.03,0,0c0,0.01,0,0.01-0.01,0.02c-0.01,0.02,0.01-0.02,0,0c-0.02,0.03,0,0.01,0,0.01s-0.03,0.02,0,0
		c-0.01,0-0.01,0.01-0.02,0.01c-0.02,0.01,0.02-0.01,0,0c-0.01,0-0.01,0-0.02,0.01c0.03-0.01,0,0-0.01,0H6.53H6.35H6.3
		c-0.01,0-0.04,0-0.02,0c0.02,0-0.04-0.02-0.01,0c-0.01,0-0.02-0.01-0.02-0.01c0.02,0.01,0,0,0,0s0.02,0.02,0,0.01
		c0,0-0.02-0.03-0.01-0.01c0.01,0.02,0-0.01,0-0.01c0-0.02,0-0.02,0-0.01c0,0.01,0,0.01,0,0c0-0.01,0-0.03-0.01-0.04
		c-0.01-0.09-0.02-0.18-0.03-0.27c-0.02-0.19-0.05-0.38-0.08-0.57c-0.01-0.09-0.07-0.18-0.18-0.18H5.88H5.83c-0.01,0-0.05,0-0.03,0
		c0.02,0-0.02-0.01-0.02-0.01c-0.01,0-0.02-0.01-0.03-0.01c0.03,0.01-0.02-0.01-0.03-0.02c-0.04-0.02,0.01,0.01-0.01,0
		c-0.01-0.01-0.02-0.02-0.03-0.02c-0.01,0-0.02-0.02,0,0c-0.01-0.01-0.01-0.02-0.02-0.04c0.02,0.03,0-0.04,0,0c0-0.01,0-0.02,0-0.03
		c0,0-0.01,0.03,0,0v-0.01c0.01-0.02,0.01-0.04,0.02-0.08c0.05-0.23,0.11-0.47,0.16-0.7c0.05-0.21,0.1-0.42,0.15-0.63
		C5.99,9.75,6,9.73,6,9.7c0.02-0.01,0.02-0.03,0.03-0.05C6.02,9.68,6.04,9.63,6.05,9.62c0.01-0.01,0.01-0.02,0.02-0.03
		c0,0.01-0.02,0.02,0,0C6.09,9.57,6.09,9.57,6.1,9.56c0.02-0.02-0.03,0.01,0,0c0.01,0,0.01-0.01,0.02-0.01c-0.03,0.02,0,0,0,0
		c0.01,0,0.04-0.01,0,0c0.01,0,0.02,0,0.03,0h0.02h0.14h0.42h0.03h0.01c0.04,0-0.02-0.01,0.01,0c0.01,0,0.02,0.01,0.02,0.01
		c-0.03-0.01-0.01,0,0.01,0.01c0.01,0,0.01,0.01,0.02,0.01c-0.03-0.02,0,0,0.01,0.01c0.03-0.01,0.03,0,0.04,0.01
		c-0.03-0.03,0,0,0,0.01c0.01,0.01,0.01,0.02,0.02,0.03c0,0.01,0.01,0.01,0.01,0.02c-0.01-0.01-0.01-0.02,0-0.01
		C6.94,9.69,6.94,9.71,6.96,9.75c0.02,0.09,0.13,0.14,0.22,0.12c0.1-0.02,0.14-0.12,0.12-0.22C7.23,9.41,7.07,9.2,6.79,9.19
		c-0.1,0-0.21,0-0.31,0s-0.21,0-0.31,0C5.9,9.2,5.74,9.41,5.67,9.65c-0.11,0.44-0.21,0.89-0.32,1.34c-0.03,0.13-0.05,0.26,0.01,0.41
		c0.07,0.13,0.2,0.22,0.33,0.26c0.09,0.02,0.18,0.02,0.26,0.02c-0.05-0.05-0.12-0.12-0.18-0.18c0.02,0.18,0.04,0.36,0.07,0.54
		c0.01,0.1,0.02,0.2,0.03,0.3c0,0.02,0,0.04,0.01,0.07c0.01,0.12,0.07,0.23,0.16,0.31c0.11,0.09,0.24,0.08,0.37,0.08
		c0.11,0,0.22,0.01,0.33-0.01s0.21-0.1,0.26-0.2c0.03-0.07,0.04-0.13,0.05-0.2c0.01-0.08,0.02-0.16,0.03-0.24
		c0.03-0.21,0.05-0.42,0.09-0.64c-0.05,0.05-0.12,0.12-0.18,0.18c0.1,0,0.2,0,0.29-0.03c0.15-0.05,0.29-0.19,0.33-0.34
		c0.03-0.12-0.01-0.24-0.03-0.36c-0.08-0.33-0.15-0.66-0.24-1c-0.02-0.1-0.04-0.2-0.08-0.3C7.26,9.56,7.16,9.51,7.07,9.53
		C6.99,9.56,6.93,9.66,6.96,9.75L6.96,9.75z"/>
	<path class="st0" d="M9.78,8.32c0,0.01,0,0.03,0,0.04c0,0.01-0.01,0.03,0,0C9.77,8.4,9.77,8.42,9.76,8.45
		c0,0.01-0.01,0.02-0.01,0.03c0.01-0.03,0-0.01,0,0C9.74,8.51,9.72,8.53,9.7,8.55c0.02-0.03-0.02,0.02-0.02,0.03
		C9.66,8.59,9.64,8.62,9.63,8.63c0.02-0.02,0,0-0.01,0C9.61,8.64,9.59,8.65,9.58,8.65C9.57,8.66,9.57,8.66,9.56,8.66
		c-0.03,0.02,0.02,0-0.01,0.01C9.52,8.68,9.5,8.68,9.47,8.69c-0.03,0.01-0.01,0,0,0c-0.01,0-0.02,0-0.04,0c-0.02,0-0.04,0-0.08,0
		c-0.05,0,0.02,0-0.01,0c-0.02,0-0.03-0.01-0.05-0.01c-0.01,0-0.07-0.02-0.03-0.01C9.24,8.66,9.22,8.65,9.2,8.64
		C9.19,8.63,9.19,8.63,9.18,8.62c0.03,0.02-0.01,0-0.01-0.01C9.14,8.59,9.12,8.57,9.11,8.55c-0.03-0.03,0.01,0.02,0-0.01
		c-0.01,0-0.02-0.01-0.02-0.02S9.08,8.49,9.08,8.49S9.06,8.45,9.07,8.47c0,0.02-0.01-0.03-0.01-0.02c0-0.01-0.01-0.02-0.01-0.03
		S9.03,8.4,9.03,8.38c0-0.01,0-0.01,0,0.01c0-0.01,0-0.01,0-0.02c0-0.02,0-0.04,0-0.08c0,0,0.01-0.05,0-0.02
		c0,0.02,0.01-0.02,0.01-0.02c0-0.03,0.01-0.05,0.01-0.08c0.01-0.02-0.02,0.03,0-0.01c0.01-0.01,0.01-0.02,0.02-0.04
		c0.01,0,0.02-0.01,0.02-0.02c0.02-0.04-0.02,0.02,0.01-0.01c0.01-0.01,0.02-0.03,0.04-0.04c0.01-0.01,0.02-0.02,0.03-0.03
		c-0.01,0-0.02,0.01,0,0C9.21,8,9.23,7.99,9.26,7.98c0.02-0.01-0.03,0.01,0.01,0c0.01,0,0.02-0.01,0.03-0.01
		c0.01,0,0.02-0.01,0.03-0.01s0.04-0.01,0.01,0c0.02,0,0.04,0,0.08,0c0.01,0,0.02,0,0.04,0c0.03,0-0.02-0.01,0.01,0
		c0.02,0.01,0.05,0.01,0.08,0.02c0.04,0.01-0.02-0.01,0.01,0.01c0-0.01,0.01,0,0.03,0.01c0.01,0,0.02,0.01,0.02,0.01
		C9.66,8.03,9.62,8,9.64,8.02C9.66,8.04,9.68,8.07,9.7,8.09c0,0.01,0.02,0.02,0,0C9.72,8.1,9.73,8.11,9.73,8.12
		c0.01,0.01,0.01,0.02,0.02,0.03c0,0.01,0.01,0.01,0.01,0.02c-0.01-0.01-0.01-0.02,0-0.01c0,0.03,0.01,0.07,0.02,0.09
		c0.01,0.03,0,0.01,0,0C9.78,8.27,9.78,8.3,9.78,8.32c0,0.09,0.08,0.18,0.18,0.18c0.09,0,0.18-0.08,0.18-0.18
		c0-0.31-0.2-0.58-0.49-0.68c-0.27-0.1-0.6,0-0.78,0.22c-0.2,0.23-0.23,0.57-0.08,0.84c0.15,0.26,0.46,0.4,0.77,0.34
		c0.33-0.07,0.57-0.37,0.58-0.71c0-0.09-0.08-0.18-0.18-0.18C9.86,8.15,9.78,8.22,9.78,8.32L9.78,8.32z"/>
	<path class="st0" d="M10.1,9.7c0,0.4,0.01,0.78,0,1.18v0.01c0,0.01-0.01,0.04,0,0.01c0,0.01-0.01,0.02-0.01,0.03
		c-0.01,0.02,0.02-0.03,0,0.01c-0.01,0.01-0.01,0.02-0.02,0.04c0-0.01,0.02-0.02,0,0c-0.01,0.01-0.02,0.02-0.03,0.03
		c0.02-0.02,0,0,0,0c-0.01,0.01-0.02,0.01-0.04,0.02c0.04-0.02-0.07,0.01-0.01,0c-0.03,0-0.07,0-0.1,0c-0.1,0-0.18,0.08-0.18,0.18
		v0.62v0.41v0.12v0.02l0,0v0.01c0-0.02,0-0.02,0,0v0.01c0.01-0.02,0.01-0.02,0,0c0,0,0,0,0,0.01c-0.01,0.01-0.01,0.01,0-0.01
		l-0.01,0.01c0.01-0.01,0.01-0.01,0.01,0c-0.01,0.01-0.03,0.02,0,0.01c-0.01,0-0.02,0.01-0.03,0.01c0.03-0.01-0.01,0-0.02,0H9.46
		H9.24H9.18H9.17c-0.01,0-0.03,0-0.01,0c0.02,0-0.02-0.01-0.02-0.01c0.04,0.01,0,0,0,0l-0.01-0.01c0.01,0.01,0.01,0.01,0,0
		c0,0,0,0,0,0.01c0.01,0.01,0.01,0.01,0-0.01c0,0-0.01-0.02,0,0C9.11,12.41,9.1,12.36,9.1,12.4c0-0.01,0-0.01,0-0.02
		c0-0.02,0-0.05,0-0.08v-0.36V11.2c0-0.1-0.08-0.18-0.18-0.18H8.87c0,0-0.05,0-0.02,0c0.02,0-0.02-0.01-0.02-0.01
		c-0.01,0-0.03-0.01,0,0C8.81,11,8.8,11,8.78,10.99c-0.02-0.01-0.01-0.01,0,0c-0.01-0.01-0.02-0.02-0.03-0.02
		c-0.01-0.01-0.02-0.03-0.01-0.01c-0.01-0.01-0.01-0.02-0.01-0.02c0-0.01-0.01-0.02-0.01-0.02c0.01,0.03,0,0,0-0.01
		c0-0.01-0.01-0.04,0-0.01c0-0.01,0-0.02,0-0.03c0-0.07,0-0.12,0-0.19V9.89c0-0.07,0-0.13,0-0.19c0-0.01,0.01-0.05,0-0.02
		c0-0.01,0.02-0.07,0.01-0.03c0-0.01,0.01-0.02,0.02-0.03c0-0.01,0.02-0.03,0-0.01c0.01-0.01,0.01-0.01,0.02-0.02
		c0,0,0.04-0.03,0.01-0.01c-0.01,0,0-0.01,0.01-0.01c0,0,0.04-0.02,0.02-0.01c-0.02,0,0.07-0.01,0.02-0.01c0.01,0,0.03,0,0.04,0
		c0.23,0,0.46,0,0.68,0h0.35h0.03h0.02c0.04,0-0.02-0.01,0.01,0c0,0,0.05,0.01,0.03,0.01c-0.03-0.01,0.01,0.01,0.01,0.01
		c0.01,0,0.04,0.03,0.01,0.01c0.01,0.01,0.01,0.01,0.02,0.02c0,0,0.03,0.04,0.01,0.01c0.01,0,0.01,0.01,0.02,0.02
		c0,0.01,0.01,0.03,0,0.01c0,0.01,0.01,0.02,0.01,0.03c0,0.01,0,0.01,0-0.01C10.1,9.68,10.1,9.69,10.1,9.7
		c0,0.09,0.08,0.18,0.18,0.18c0.09,0,0.18-0.08,0.18-0.18C10.44,9.42,10.22,9.2,9.95,9.2c-0.08,0-0.15,0-0.23,0H8.9
		c-0.19,0-0.36,0.08-0.47,0.24C8.36,9.55,8.35,9.68,8.35,9.8v0.85c0,0.09-0.01,0.19,0,0.27c0.02,0.15,0.1,0.3,0.23,0.38
		c0.1,0.07,0.22,0.08,0.34,0.08l-0.18-0.18v0.68v0.4c0,0.14,0.01,0.27,0.12,0.38C9,12.8,9.18,12.78,9.34,12.78h0.23
		c0.05,0,0.12,0,0.18-0.01c0.2-0.04,0.31-0.23,0.31-0.42v-0.34v-0.79L9.88,11.4c0.1,0,0.2-0.01,0.29-0.05
		c0.1-0.05,0.19-0.14,0.24-0.24c0.04-0.11,0.04-0.21,0.04-0.33V9.93V9.7c0-0.09-0.08-0.18-0.18-0.18C10.19,9.53,10.1,9.61,10.1,9.7
		L10.1,9.7z"/>
	<path class="st0" d="M12.71,8.32c0,0.01,0,0.03,0,0.04c0,0.01-0.01,0.03,0,0c-0.01,0.02-0.01,0.05-0.02,0.08
		c0,0.01-0.01,0.02-0.01,0.03c0.01-0.03,0-0.01,0,0c-0.01,0.02-0.03,0.05-0.04,0.08c0.02-0.03-0.02,0.02-0.02,0.03
		c-0.01,0.01-0.03,0.03-0.05,0.04c0.02-0.02,0,0-0.01,0c-0.01,0.01-0.02,0.01-0.03,0.02c-0.01,0-0.02,0.01-0.02,0.01
		c-0.03,0.02,0.02,0-0.01,0.01c-0.03,0.01-0.05,0.01-0.08,0.02c-0.03,0.01-0.01,0,0,0c-0.01,0-0.02,0-0.04,0c-0.02,0-0.04,0-0.08,0
		c-0.05,0,0.02,0-0.01,0c-0.02,0-0.03-0.01-0.05-0.01c-0.01,0-0.07-0.02-0.03-0.01c-0.02-0.01-0.04-0.02-0.07-0.03
		c-0.01-0.01-0.01-0.01-0.02-0.02c0.03,0.02-0.01-0.01-0.01-0.01c-0.02-0.02-0.03-0.03-0.05-0.05c-0.03-0.03,0.01,0.02,0-0.01
		C12.01,8.53,12.01,8.52,12,8.51c0-0.01-0.01-0.02-0.01-0.02s-0.02-0.04-0.01-0.02c0.01,0.02-0.01-0.02-0.01-0.02
		c0-0.01-0.01-0.02-0.01-0.03c0-0.01-0.01-0.02-0.01-0.03c0-0.01,0-0.01,0,0.01c0-0.01,0-0.01,0-0.02c0-0.02,0-0.04,0-0.08
		c0,0,0.01-0.05,0-0.02c0,0.02,0.01-0.02,0.01-0.02c0.01-0.02,0.01-0.04,0.02-0.07c0.01-0.02-0.02,0.03,0-0.01
		c0.01-0.01,0.01-0.02,0.02-0.04c0-0.01,0.01-0.02,0.01-0.02c0.02-0.04-0.02,0.02,0.01-0.01c0.01-0.01,0.02-0.03,0.04-0.04
		c0.01-0.01,0.02-0.02,0.03-0.03c-0.01,0-0.02,0.01,0,0c0.02-0.01,0.04-0.03,0.08-0.04c0.02-0.01-0.03,0.01,0.01,0
		c0.01,0,0.02-0.01,0.03-0.01c0.01,0,0.02-0.01,0.03-0.01s0.04-0.01,0.01,0c0.02,0,0.04,0,0.08,0c0.01,0,0.02,0,0.04,0
		c0.03,0-0.02-0.01,0.01,0c0.02,0.01,0.05,0.01,0.08,0.02c0.04,0.01-0.02-0.01,0.01,0.01C12.5,7.99,12.51,7.99,12.53,8
		c0.01,0,0.02,0.01,0.02,0.01c0.03,0.02-0.01-0.01,0.01,0.01s0.04,0.04,0.07,0.07c0,0.01,0.02,0.02,0,0
		c0.01,0.01,0.02,0.02,0.02,0.03c0.01,0.01,0.01,0.02,0.02,0.03c0,0.01,0.01,0.01,0.01,0.02c-0.01-0.01-0.01-0.02,0-0.01
		c0.01,0.02,0.02,0.05,0.02,0.08c0.01,0.03,0,0.01,0,0C12.71,8.27,12.71,8.3,12.71,8.32c0,0.09,0.08,0.18,0.18,0.18
		c0.09,0,0.18-0.08,0.18-0.18c0-0.31-0.2-0.58-0.49-0.68c-0.27-0.1-0.6,0-0.78,0.22c-0.2,0.24-0.23,0.57-0.07,0.84
		c0.15,0.26,0.46,0.4,0.77,0.34c0.34-0.07,0.58-0.37,0.58-0.71c0-0.09-0.08-0.18-0.18-0.18C12.78,8.15,12.71,8.22,12.71,8.32
		L12.71,8.32z"/>
	<path class="st0" d="M12.8,9.75c0.11,0.47,0.23,0.96,0.34,1.43c0,0,0,0,0,0.01v-0.01c0,0.01,0,0.02,0,0.03c0-0.02,0-0.02,0,0
		c0,0.01-0.02,0.04,0,0.01c0,0.01-0.03,0.04-0.02,0.03c0.01-0.02-0.02,0.02-0.02,0.02c-0.01,0.01-0.01,0.01-0.02,0.02
		c0.01-0.01,0.01-0.01,0,0c-0.01,0.01-0.03,0.01-0.04,0.02c0.03-0.01-0.01,0-0.02,0c-0.04,0.01,0.03,0-0.01,0h-0.02h-0.11
		c-0.1,0-0.16,0.08-0.18,0.18c-0.02,0.16-0.04,0.33-0.07,0.48c-0.01,0.1-0.02,0.2-0.04,0.31c0,0.02-0.01,0.05-0.01,0.08v0.01
		c0,0.01-0.01,0.03,0,0c0,0.01,0,0.01-0.01,0.02c-0.01,0.02,0.01-0.02,0,0c-0.02,0.03,0,0.01,0,0.01s-0.03,0.02,0,0
		c-0.01,0-0.01,0.01-0.02,0.01c-0.02,0.01,0.02-0.01,0,0c-0.01,0-0.01,0-0.02,0.01c0.03-0.01,0,0-0.01,0h-0.13h-0.16h-0.05
		c-0.01,0-0.04,0-0.02,0c0.02,0-0.04-0.02-0.01,0c-0.01,0-0.02-0.01-0.02-0.01c0.02,0.01,0,0,0,0s0.02,0.02,0,0.01
		c0,0-0.02-0.03-0.01-0.01c0.01,0.02,0-0.01,0-0.01c0-0.02,0-0.02,0-0.01c0,0.01,0,0.01,0,0c0-0.01,0-0.03-0.01-0.04
		c-0.01-0.09-0.02-0.18-0.03-0.27c-0.02-0.19-0.05-0.38-0.08-0.57c-0.01-0.09-0.07-0.18-0.18-0.18h-0.07h-0.04
		c-0.01,0-0.05,0-0.03,0c0.02,0-0.02-0.01-0.02-0.01c-0.01,0-0.02-0.01-0.03-0.01c0.03,0.01-0.02-0.01-0.03-0.02
		c-0.04-0.02,0.01,0.01-0.01,0c-0.01-0.01-0.02-0.02-0.03-0.02s-0.02-0.02,0,0c-0.01-0.01-0.01-0.02-0.02-0.04c0.02,0.03,0-0.04,0,0
		c0-0.01,0-0.02,0-0.03c0,0-0.01,0.03,0,0v-0.01c0.01-0.02,0.01-0.04,0.02-0.08c0.05-0.23,0.11-0.47,0.16-0.7
		c0.05-0.21,0.1-0.42,0.15-0.63c0-0.02,0.01-0.04,0.01-0.07c0.01-0.02,0.01-0.04,0.02-0.07c-0.01,0.03,0.01-0.03,0.02-0.03
		c0.01-0.01,0.01-0.02,0.02-0.03c0,0.01-0.02,0.02,0,0c0.01-0.01,0.01-0.01,0.02-0.02c0.02-0.02-0.02,0.01,0.01-0.01
		c0.01,0,0.01-0.01,0.02-0.01c-0.03,0.02,0,0,0,0c0.01,0,0.04-0.01,0,0c0.01,0,0.02,0,0.03,0h0.02h0.14h0.42h0.03h0.01
		c0.04,0-0.02-0.01,0.01,0c0.01,0,0.02,0.01,0.02,0.01c-0.03-0.01-0.01,0,0.01,0.01c0.01,0,0.01,0.01,0.02,0.01
		c-0.03-0.02,0,0,0.01,0.01c0.01,0.01,0.01,0.01,0.02,0.02c-0.02-0.03,0,0,0.01,0.01s0.01,0.02,0.02,0.03
		c0,0.01,0.01,0.01,0.01,0.02c-0.01-0.01-0.01-0.02,0-0.01C12.79,9.69,12.8,9.71,12.8,9.75c0.02,0.09,0.13,0.14,0.22,0.12
		c0.1-0.02,0.14-0.12,0.12-0.22c-0.05-0.25-0.23-0.46-0.51-0.46c-0.1,0-0.21,0-0.31,0s-0.21,0-0.31,0
		c-0.27,0.01-0.44,0.22-0.51,0.46c-0.11,0.44-0.21,0.89-0.32,1.34c-0.03,0.13-0.05,0.26,0.01,0.41c0.07,0.13,0.2,0.22,0.33,0.26
		c0.09,0.02,0.18,0.02,0.26,0.02l-0.18-0.18c0.02,0.18,0.04,0.36,0.07,0.54c0.01,0.1,0.02,0.2,0.03,0.3c0,0.02,0,0.04,0.01,0.07
		c0.01,0.12,0.07,0.23,0.16,0.31c0.11,0.09,0.24,0.08,0.37,0.08c0.11,0,0.22,0.01,0.33-0.01c0.11-0.02,0.21-0.1,0.26-0.2
		c0.03-0.07,0.04-0.13,0.05-0.2c0.01-0.08,0.02-0.16,0.03-0.24c0.03-0.21,0.05-0.42,0.09-0.64c-0.05,0.05-0.12,0.12-0.18,0.18
		c0.1,0,0.2,0,0.29-0.03c0.15-0.05,0.29-0.19,0.33-0.34c0.03-0.12-0.01-0.24-0.03-0.36c-0.08-0.33-0.15-0.66-0.24-1
		c-0.02-0.1-0.04-0.2-0.07-0.29c-0.02-0.09-0.12-0.14-0.22-0.12C12.84,9.56,12.78,9.66,12.8,9.75L12.8,9.75z"/>
	<path class="st0" d="M4.66,6.81c0-0.01,0-0.03,0-0.04c0-0.02,0-0.02,0,0c0-0.01,0-0.01,0-0.02c0-0.01,0.01-0.03,0.01-0.04
		c0-0.01,0.02-0.05,0.01-0.02C4.69,6.65,4.71,6.63,4.72,6.6c0.02-0.05-0.02,0,0.01-0.03c0.01-0.01,0.02-0.02,0.03-0.03
		C4.78,6.53,4.79,6.52,4.8,6.5c0.02-0.02-0.02,0.01,0.01,0c0.01-0.01,0.02-0.01,0.03-0.02c0,0,0.05-0.02,0.03-0.02
		c-0.01,0,0.03-0.01,0.03-0.01c0.02-0.01,0.03-0.01,0.05-0.01c0.03-0.01-0.02,0,0.01,0c0.01,0,0.03,0,0.04,0c0.01,0,0.03,0,0.04,0
		c0.04,0-0.03-0.01,0.01,0c0.04,0,0.08,0.01,0.11,0.02C5.15,6.45,5.2,6.47,5.21,6.47c0.01,0.01,0.02,0.01,0.04,0.02
		c0.01,0,0.01,0.01,0.02,0.01c-0.02-0.01-0.02-0.01-0.02,0C5.26,6.52,5.27,6.53,5.3,6.54c0.01,0.01,0.02,0.02,0.03,0.03
		c0.02,0.02-0.01-0.02,0.01,0.01C5.35,6.6,5.37,6.64,5.38,6.66c-0.01-0.03,0,0.01,0,0.01c0,0.01,0.01,0.03,0.01,0.04
		c0,0.01,0,0.02,0.01,0.03c0-0.02,0-0.02,0-0.01c0,0.02,0,0.03,0,0.05c0,0.11,0.08,0.2,0.18,0.19c0.09,0,0.18-0.08,0.18-0.18
		c-0.01-0.4-0.33-0.73-0.73-0.73c-0.4,0-0.71,0.33-0.73,0.73c0,0.1,0.08,0.19,0.18,0.18C4.58,6.98,4.66,6.9,4.66,6.81L4.66,6.81z"/>
	<path class="st0" d="M7.58,6.81c0-0.01,0-0.03,0-0.04c0-0.02,0-0.02,0,0c0-0.01,0-0.01,0-0.02c0-0.01,0.01-0.03,0.01-0.04
		c0-0.01,0.02-0.05,0.01-0.02C7.62,6.65,7.64,6.63,7.65,6.6c0.02-0.05-0.02,0,0.01-0.03c0.01-0.01,0.02-0.02,0.03-0.03
		C7.7,6.53,7.71,6.52,7.73,6.5C7.76,6.48,7.7,6.52,7.74,6.49c0.01-0.01,0.02-0.01,0.03-0.02c0,0,0.05-0.02,0.03-0.02
		c-0.01,0.01,0.03,0,0.03,0c0.02-0.01,0.03-0.01,0.05-0.01c0.03-0.01-0.02,0,0.01,0c0.01,0,0.03,0,0.04,0c0.01,0,0.03,0,0.04,0
		c0.04,0-0.03-0.01,0.01,0c0.05,0,0.08,0.01,0.11,0.02C8.08,6.45,8.12,6.47,8.13,6.47c0.01,0.01,0.02,0.01,0.04,0.02
		c0.01,0,0.01,0.01,0.02,0.01c-0.01-0.01-0.01-0.01-0.01,0C8.2,6.52,8.21,6.53,8.22,6.54c0.01,0.01,0.02,0.02,0.03,0.03
		c0.02,0.02-0.01-0.02,0.01,0.01C8.28,6.6,8.3,6.64,8.31,6.66c-0.01-0.03,0,0.01,0,0.01c0,0.01,0.01,0.03,0.01,0.04
		c0,0.01,0,0.02,0.01,0.03c0-0.02,0-0.02,0-0.01c0,0.02,0,0.03,0,0.05c0,0.11,0.08,0.2,0.18,0.19c0.09,0,0.18-0.08,0.18-0.18
		c-0.01-0.4-0.33-0.73-0.73-0.73c-0.4,0-0.71,0.33-0.73,0.73c0,0.1,0.08,0.19,0.18,0.18C7.51,6.98,7.58,6.9,7.58,6.81L7.58,6.81z"/>
	<path class="st0" d="M10.51,6.81c0-0.01,0-0.03,0-0.04c0-0.02,0-0.02,0,0c0-0.01,0-0.01,0-0.02c0-0.01,0.01-0.03,0.01-0.04
		c0-0.01,0.02-0.05,0.01-0.02c0.01-0.03,0.03-0.05,0.04-0.08c0.02-0.03-0.02,0.02,0.01-0.01c0.01-0.01,0.02-0.02,0.03-0.03
		c0.01-0.01,0.02-0.02,0.03-0.03c0.03-0.02-0.02,0.01,0.01-0.01c0.01-0.01,0.02-0.01,0.03-0.02c0,0,0.05-0.02,0.03-0.02
		c-0.02,0.01,0.02-0.01,0.03-0.01c0.02-0.01,0.03-0.01,0.05-0.01c0.03-0.01-0.02,0,0.01,0c0.01,0,0.03,0,0.04,0
		c0.01,0,0.03,0,0.04,0c0.04,0-0.03-0.01,0.01,0c0.03,0.01,0.05,0.01,0.09,0.02c-0.03-0.01,0.01,0.01,0.02,0.01
		c0.01,0.01,0.02,0.01,0.04,0.02c0.01,0,0.01,0.01,0.02,0.01c-0.01-0.01-0.01-0.01-0.01,0c0.01,0.01,0.02,0.02,0.04,0.03
		c0.01,0.01,0.02,0.02,0.03,0.03c0.02,0.02-0.01-0.02,0.01,0.01c0.01,0.02,0.03,0.05,0.04,0.08c-0.01-0.03,0,0.01,0,0.01
		c0,0.01,0.01,0.03,0.01,0.04c0,0.01,0,0.02,0.01,0.03c0-0.02,0-0.02,0-0.01c0,0.02,0,0.03,0,0.05c0,0.09,0.08,0.18,0.18,0.18
		c0.09,0,0.18-0.08,0.18-0.18c-0.01-0.4-0.33-0.73-0.73-0.73c-0.4,0-0.71,0.33-0.73,0.73c0,0.09,0.08,0.18,0.18,0.18
		C10.43,6.98,10.51,6.9,10.51,6.81L10.51,6.81z"/>
	<path class="st0" d="M6.12,5.33c0-0.01,0-0.03,0-0.04c0-0.02,0-0.02,0,0c0-0.01,0-0.01,0-0.02c0-0.01,0.01-0.03,0.01-0.04
		c0-0.01,0.02-0.05,0.01-0.02c0.01-0.03,0.03-0.05,0.04-0.09C6.21,5.08,6.16,5.13,6.2,5.1c0.01-0.01,0.02-0.02,0.03-0.03
		c0.01-0.01,0.02-0.02,0.03-0.03c0.02-0.02-0.02,0.01,0.01-0.01C6.29,5.01,6.3,5.01,6.31,5c0,0,0.05-0.02,0.03-0.02
		s0.02-0.01,0.03-0.01C6.4,4.95,6.41,4.95,6.43,4.95c0.03-0.01-0.02,0,0.01,0c0.01,0,0.03,0,0.04,0c0.01,0,0.03,0,0.04,0
		c0.04,0-0.03-0.01,0.01,0c0.03,0.01,0.05,0.01,0.09,0.02C6.61,4.98,6.66,5,6.67,5C6.68,5.01,6.69,5.01,6.7,5.02
		c0.01,0,0.01,0.01,0.02,0.01c-0.01-0.01-0.01-0.01-0.01,0c0.01,0.01,0.02,0.02,0.04,0.03C6.77,5.08,6.78,5.09,6.79,5.1
		C6.81,5.12,6.78,5.08,6.8,5.11C6.81,5.14,6.83,5.16,6.85,5.2c-0.01-0.03,0,0.01,0,0.01c0,0.01,0.01,0.03,0.01,0.04
		c0,0.01,0,0.02,0.01,0.03c0-0.02,0-0.02,0-0.01c0,0.02,0,0.03,0,0.05c0,0.09,0.08,0.18,0.18,0.18c0.09,0,0.18-0.08,0.18-0.18
		C7.21,4.93,6.89,4.6,6.49,4.6c-0.4,0-0.71,0.33-0.73,0.73c0,0.09,0.08,0.18,0.18,0.18S6.12,5.43,6.12,5.33L6.12,5.33z"/>
	<path class="st0" d="M9.04,5.33c0-0.01,0-0.03,0-0.04c0-0.02,0-0.02,0,0c0-0.01,0-0.01,0-0.02c0-0.01,0.01-0.03,0.01-0.04
		c0-0.01,0.02-0.05,0.01-0.02C9.08,5.16,9.1,5.14,9.11,5.11C9.13,5.08,9.09,5.13,9.12,5.1c0.01-0.01,0.02-0.02,0.03-0.03
		c0.01-0.01,0.02-0.02,0.03-0.03C9.21,5.01,9.17,5.04,9.2,5.02c0.01,0,0.02-0.01,0.04-0.02c0,0,0.05-0.02,0.03-0.02
		c-0.02,0.01,0.02,0,0.02,0c0.02-0.01,0.03-0.01,0.05-0.01c0.03-0.01-0.02,0,0.01,0c0.01,0,0.03,0,0.04,0c0.01,0,0.03,0,0.04,0
		c0.04,0-0.03-0.01,0.01,0c0.05,0,0.08,0.01,0.11,0.02C9.54,4.98,9.58,5,9.59,5c0.01,0.01,0.02,0.01,0.04,0.02
		c0,0.01,0.01,0.01,0.01,0.01c-0.01-0.01-0.01-0.01-0.01,0c0.01,0.01,0.02,0.02,0.04,0.03C9.69,5.08,9.7,5.09,9.72,5.1
		C9.74,5.12,9.7,5.08,9.73,5.11C9.74,5.14,9.76,5.16,9.77,5.2c-0.01-0.03,0,0.01,0,0.01c0,0.01,0.01,0.03,0.01,0.04
		c0,0.01,0,0.02,0.01,0.03c0-0.02,0-0.02,0-0.01c0,0.02,0,0.03,0,0.05c0,0.09,0.08,0.18,0.18,0.18c0.09,0,0.18-0.08,0.18-0.18
		C10.13,4.93,9.81,4.6,9.42,4.6c-0.4,0-0.71,0.33-0.73,0.73c0,0.09,0.08,0.18,0.18,0.18C8.97,5.5,9.04,5.43,9.04,5.33L9.04,5.33z"/>
	<path class="st0" d="M7.58,3.94c0-0.01,0-0.03,0-0.04c0-0.02,0-0.02,0,0c0-0.01,0-0.01,0-0.02c0-0.01,0.01-0.03,0.01-0.04
		c0-0.01,0.02-0.05,0.01-0.02c0.01-0.03,0.03-0.05,0.04-0.08c0.02-0.05-0.02,0.01,0.01-0.02C7.67,3.7,7.68,3.69,7.69,3.68
		C7.7,3.67,7.71,3.66,7.73,3.65C7.76,3.62,7.7,3.66,7.74,3.64c0.01-0.01,0.02-0.01,0.03-0.02c0,0,0.05-0.02,0.03-0.02
		C7.79,3.6,7.84,3.58,7.84,3.58c0.02,0,0.03-0.01,0.05-0.01c0.03-0.01-0.02,0,0.01,0c0.01,0,0.03,0,0.04,0c0.01,0,0.03,0,0.04,0
		c0.04,0-0.03-0.01,0.01,0c0.05,0.01,0.08,0.01,0.11,0.02C8.08,3.58,8.12,3.6,8.13,3.6c0.01,0.01,0.02,0.01,0.04,0.02
		c0.01,0,0.01,0.01,0.02,0.01c-0.01-0.01-0.01-0.01-0.01,0C8.2,3.65,8.21,3.66,8.22,3.68c0.01,0,0.02,0.02,0.03,0.03
		c0.02,0.02-0.01-0.02,0.01,0.01C8.28,3.75,8.3,3.78,8.31,3.8c-0.01-0.03,0,0.01,0,0.01c0,0.01,0.01,0.03,0.01,0.04
		c0,0.01,0,0.02,0.01,0.03c0-0.02,0-0.02,0-0.01c0,0.02,0,0.03,0,0.05c0,0.09,0.08,0.18,0.18,0.18c0.09,0,0.18-0.08,0.18-0.18
		c-0.01-0.4-0.33-0.73-0.73-0.73c-0.4,0-0.71,0.33-0.73,0.73c0,0.09,0.08,0.18,0.18,0.18C7.51,4.11,7.58,4.04,7.58,3.94L7.58,3.94z"
		/>
</g>
</svg>
