<?xml version="1.0" encoding="utf-8"?>
<!-- Generator: Adobe Illustrator 27.2.0, SVG Export Plug-In . SVG Version: 6.00 Build 0)  -->
<svg version="1.1" id="Camada_1" xmlns="http://www.w3.org/2000/svg" xmlns:xlink="http://www.w3.org/1999/xlink" x="0px" y="0px"
	 viewBox="0 0 16 16" style="enable-background:new 0 0 16 16;" xml:space="preserve">
<style type="text/css">
	.st0{fill:#9E1F63;}
</style>
<g>
	<path class="st0" d="M10,7.19c-0.71,0-1.29-0.58-1.29-1.29c0-1.08,1.1-2.29,1.14-2.34c0.07-0.08,0.21-0.08,0.28,0
		c0.05,0.05,1.14,1.26,1.14,2.34C11.28,6.61,10.71,7.19,10,7.19z M10,3.98c-0.29,0.35-0.9,1.19-0.9,1.92c0,0.5,0.4,0.9,0.9,0.9
		c0.5,0,0.9-0.4,0.9-0.9C10.9,5.18,10.28,4.34,10,3.98L10,3.98z"/>
	<path class="st0" d="M5.86,9.06c-0.63,0-1.14-0.51-1.14-1.14c0-0.95,0.96-2,1-2.05c0.07-0.08,0.21-0.08,0.28,0
		c0.04,0.04,1,1.1,1,2.05C7,8.55,6.49,9.06,5.86,9.06L5.86,9.06z M5.86,6.29C5.61,6.61,5.1,7.31,5.1,7.92
		c0,0.42,0.34,0.76,0.76,0.76c0.42,0,0.76-0.34,0.76-0.76C6.62,7.31,6.11,6.61,5.86,6.29L5.86,6.29z"/>
	<path class="st0" d="M8.09,12.5c-1.34,0-2.42-1.09-2.42-2.42c0-0.4,0.08-0.84,0.23-1.3c0.03-0.1,0.14-0.15,0.24-0.12
		C6.24,8.69,6.3,8.8,6.26,8.9c-0.14,0.42-0.21,0.82-0.21,1.18c0,1.13,0.92,2.04,2.04,2.04c1.13,0,2.04-0.92,2.04-2.04
		c0-1.69-1.56-3.65-2.04-4.22C7.85,6.14,7.34,6.77,6.9,7.54C6.84,7.63,6.72,7.66,6.63,7.6C6.54,7.55,6.51,7.43,6.56,7.34
		c0.63-1.08,1.36-1.87,1.39-1.91C7.99,5.4,8.04,5.37,8.09,5.37h0c0.05,0,0.1,0.02,0.14,0.06c0.09,0.1,2.28,2.51,2.28,4.64
		C10.52,11.41,9.43,12.5,8.09,12.5L8.09,12.5z"/>
	<path class="st0" d="M8.09,11.54c-0.12,0-0.23-0.01-0.34-0.04c-0.1-0.02-0.17-0.13-0.14-0.23c0.02-0.1,0.13-0.17,0.23-0.14
		c0.08,0.02,0.17,0.03,0.25,0.03c0.6,0,1.08-0.49,1.08-1.08c0-0.11-0.01-0.22-0.03-0.34c-0.02-0.1,0.06-0.2,0.16-0.22
		c0.1-0.02,0.2,0.06,0.22,0.16c0.02,0.14,0.03,0.27,0.03,0.4C9.56,10.88,8.9,11.54,8.09,11.54L8.09,11.54z"/>
</g>
</svg>
