<?xml version="1.0" encoding="utf-8"?>
<!-- Generator: Adobe Illustrator 27.2.0, SVG Export Plug-In . SVG Version: 6.00 Build 0)  -->
<svg version="1.1" id="Camada_1" xmlns="http://www.w3.org/2000/svg" xmlns:xlink="http://www.w3.org/1999/xlink" x="0px" y="0px"
	 viewBox="0 0 16 16" style="enable-background:new 0 0 16 16;" xml:space="preserve">
<style type="text/css">
	.st0{fill:#9E1F63;}
</style>
<g>
	<path class="st0" d="M9.5,12.5c-0.09,0-0.17-0.07-0.17-0.17V3.67c0-0.09,0.07-0.17,0.17-0.17s0.17,0.07,0.17,0.17v8.67
		C9.67,12.43,9.59,12.5,9.5,12.5z"/>
	<path class="st0" d="M10.17,5.28H9.5c-0.09,0-0.17-0.07-0.17-0.17S9.41,4.94,9.5,4.94h0.67c0.09,0,0.17,0.07,0.17,0.17
		S10.26,5.28,10.17,5.28z"/>
	<path class="st0" d="M10.17,4.56H9.5c-0.09,0-0.17-0.07-0.17-0.17c0-0.09,0.07-0.17,0.17-0.17h0.67c0.09,0,0.17,0.07,0.17,0.17
		C10.33,4.48,10.26,4.56,10.17,4.56z"/>
	<path class="st0" d="M10.17,7.44H9.5c-0.09,0-0.17-0.07-0.17-0.17c0-0.09,0.07-0.17,0.17-0.17h0.67c0.09,0,0.17,0.07,0.17,0.17
		C10.33,7.37,10.26,7.44,10.17,7.44z"/>
	<path class="st0" d="M10.17,6.72H9.5c-0.09,0-0.17-0.07-0.17-0.17c0-0.09,0.07-0.17,0.17-0.17h0.67c0.09,0,0.17,0.07,0.17,0.17
		C10.33,6.65,10.26,6.72,10.17,6.72z"/>
	<path class="st0" d="M10.17,9.61H9.5c-0.09,0-0.17-0.07-0.17-0.17S9.41,9.28,9.5,9.28h0.67c0.09,0,0.17,0.07,0.17,0.17
		S10.26,9.61,10.17,9.61z"/>
	<path class="st0" d="M10.17,8.89H9.5c-0.09,0-0.17-0.07-0.17-0.17S9.41,8.56,9.5,8.56h0.67c0.09,0,0.17,0.07,0.17,0.17
		S10.26,8.89,10.17,8.89z"/>
	<path class="st0" d="M10.83,10.33H9.5c-0.09,0-0.17-0.07-0.17-0.17S9.41,10,9.5,10h1.33c0.09,0,0.17,0.07,0.17,0.17
		S10.93,10.33,10.83,10.33z"/>
	<path class="st0" d="M10.83,6H9.5C9.41,6,9.33,5.93,9.33,5.83c0-0.09,0.07-0.17,0.17-0.17h1.33c0.09,0,0.17,0.07,0.17,0.17
		C11,5.93,10.93,6,10.83,6z"/>
	<path class="st0" d="M10.83,8.17H9.5C9.41,8.17,9.33,8.09,9.33,8S9.41,7.83,9.5,7.83h1.33C10.93,7.83,11,7.91,11,8
		S10.93,8.17,10.83,8.17z"/>
	<path class="st0" d="M10.83,3.83H9.5c-0.09,0-0.17-0.07-0.17-0.17c0-0.09,0.07-0.17,0.17-0.17h1.33C10.93,3.5,11,3.57,11,3.67
		C11,3.76,10.93,3.83,10.83,3.83z"/>
	<path class="st0" d="M8.5,7.5c-0.09,0-0.17-0.07-0.17-0.17c0-0.46-0.37-0.83-0.83-0.83c-0.09,0-0.17-0.07-0.17-0.17
		c0-0.09,0.07-0.17,0.17-0.17c0.64,0,1.17,0.52,1.17,1.17C8.67,7.43,8.59,7.5,8.5,7.5z"/>
	<path class="st0" d="M8.5,9.44c-0.09,0-0.17-0.07-0.17-0.17V7.33c0-0.09,0.07-0.17,0.17-0.17s0.17,0.07,0.17,0.17v1.94
		C8.67,9.36,8.59,9.44,8.5,9.44z"/>
	<path class="st0" d="M7.5,6.5H6.17C6.07,6.5,6,6.43,6,6.33c0-0.09,0.07-0.17,0.17-0.17H7.5c0.09,0,0.17,0.07,0.17,0.17
		C7.67,6.43,7.59,6.5,7.5,6.5z"/>
	<path class="st0" d="M5.17,7.5C5.07,7.5,5,7.43,5,7.33c0-0.64,0.52-1.17,1.17-1.17c0.09,0,0.17,0.07,0.17,0.17
		c0,0.09-0.07,0.17-0.17,0.17c-0.46,0-0.83,0.37-0.83,0.83C5.33,7.43,5.26,7.5,5.17,7.5z"/>
	<path class="st0" d="M5.17,9.44C5.07,9.44,5,9.36,5,9.27V7.33c0-0.09,0.07-0.17,0.17-0.17s0.17,0.07,0.17,0.17v1.94
		C5.33,9.36,5.26,9.44,5.17,9.44z"/>
	<path class="st0" d="M8.17,9.76c-0.25,0-0.5-0.17-0.5-0.49c0-0.09,0.07-0.17,0.17-0.17S8,9.18,8,9.27c0,0.15,0.14,0.16,0.17,0.16
		c0.03,0,0.17-0.01,0.17-0.16c0-0.09,0.07-0.17,0.17-0.17s0.17,0.07,0.17,0.17C8.67,9.59,8.42,9.76,8.17,9.76z"/>
	<path class="st0" d="M5.5,9.76C5.25,9.76,5,9.59,5,9.27C5,9.18,5.07,9.1,5.17,9.1s0.17,0.07,0.17,0.17c0,0.15,0.14,0.16,0.17,0.16
		s0.17-0.01,0.17-0.16c0-0.09,0.07-0.17,0.17-0.17S6,9.18,6,9.27C6,9.59,5.75,9.76,5.5,9.76z"/>
	<path class="st0" d="M5.83,9.5c-0.09,0-0.17-0.07-0.17-0.17v-2c0-0.09,0.07-0.17,0.17-0.17S6,7.24,6,7.33v2
		C6,9.43,5.93,9.5,5.83,9.5z"/>
	<path class="st0" d="M7.83,9.5c-0.09,0-0.17-0.07-0.17-0.17v-2c0-0.09,0.07-0.17,0.17-0.17S8,7.24,8,7.33v2
		C8,9.43,7.93,9.5,7.83,9.5z"/>
	<path class="st0" d="M5.83,12c-0.09,0-0.17-0.07-0.17-0.17v-2.5c0-0.09,0.07-0.17,0.17-0.17S6,9.24,6,9.33v2.5
		C6,11.93,5.93,12,5.83,12z"/>
	<path class="st0" d="M7.83,12c-0.09,0-0.17-0.07-0.17-0.17v-2.5c0-0.09,0.07-0.17,0.17-0.17S8,9.24,8,9.33v2.5
		C8,11.93,7.93,12,7.83,12z"/>
	<path class="st0" d="M6.83,12c-0.09,0-0.17-0.07-0.17-0.17v-2.5c0-0.09,0.07-0.17,0.17-0.17S7,9.24,7,9.33v2.5
		C7,11.93,6.93,12,6.83,12z"/>
	<path class="st0" d="M6.83,5.83c-0.63,0-1.17-0.53-1.17-1.17S6.2,3.5,6.83,3.5S8,4.03,8,4.67S7.47,5.83,6.83,5.83z M6.83,3.83
		C6.38,3.83,6,4.22,6,4.67C6,5.12,6.38,5.5,6.83,5.5c0.45,0,0.83-0.38,0.83-0.83C7.67,4.22,7.28,3.83,6.83,3.83z"/>
</g>
</svg>
