<?xml version="1.0" encoding="utf-8"?>
<!-- Generator: Adobe Illustrator 27.2.0, SVG Export Plug-In . SVG Version: 6.00 Build 0)  -->
<svg version="1.1" id="Camada_1" xmlns="http://www.w3.org/2000/svg" xmlns:xlink="http://www.w3.org/1999/xlink" x="0px" y="0px"
	 viewBox="0 0 16 16" style="enable-background:new 0 0 16 16;" xml:space="preserve">
<style type="text/css">
	.st0{fill:#9E1F63;}
</style>
<g>
	<path class="st0" d="M6.71,10.42v0.23c0,0.11,0.09,0.2,0.2,0.2h2.26c0.11,0,0.2-0.09,0.2-0.2v-0.23c0-0.73-0.6-1.33-1.33-1.33
		C7.31,9.08,6.71,9.68,6.71,10.42L6.71,10.42z M7.11,10.42c0-0.51,0.41-0.93,0.93-0.93s0.93,0.41,0.93,0.93v0.03H7.11V10.42z"/>
	<path class="st0" d="M11.77,7.92c0.41,0,0.74-0.33,0.74-0.74c0-0.32-0.2-0.59-0.48-0.69c0.23-0.26,0.36-0.6,0.36-0.96
		c0-0.81-0.66-1.46-1.46-1.46c-0.65,0-1.2,0.42-1.39,1.01L9.15,4.79L9.6,3.8c0.12-0.27,0.01-0.6-0.25-0.74
		C9.21,2.99,9.05,2.97,8.9,3.03C8.75,3.07,8.63,3.18,8.56,3.32L7.84,4.78C7.81,4.83,7.77,4.89,7.71,4.91L6.98,5.36
		c0,0-0.03,0-0.04,0.01L6.28,4.52c-0.23-0.3-0.63-0.41-0.98-0.28L4.72,4.45c-0.02,0.01-0.04,0-0.05-0.01L4.45,4.17
		C4.25,3.94,3.91,3.91,3.69,4.1C3.5,4.26,3.44,4.52,3.54,4.74l0.38,0.8c0.09,0.19,0.29,0.3,0.49,0.26l0.88-0.13
		c0.08-0.01,0.15,0.03,0.19,0.1l0.31,0.65H4.28c-0.41,0-0.74,0.33-0.74,0.74s0.33,0.74,0.74,0.74H7.2v0.55
		C6.34,8.79,5.74,9.62,5.74,10.6v2.2c0,0.11,0.09,0.2,0.2,0.2h4.19c0.11,0,0.2-0.09,0.2-0.2v-2.2c0-0.97-0.61-1.8-1.46-2.14V7.92
		H11.77z M10.92,4.46c0.59,0,1.06,0.48,1.06,1.06c0,0.37-0.19,0.71-0.51,0.9h-1.13c-0.32-0.2-0.51-0.53-0.51-0.9
		C9.85,4.94,10.34,4.46,10.92,4.46L10.92,4.46z M5.84,5.61c-0.11-0.23-0.35-0.35-0.6-0.32L4.36,5.42c-0.03,0-0.06-0.01-0.07-0.04
		L3.9,4.57C3.88,4.52,3.89,4.45,3.94,4.41c0.05-0.05,0.14-0.04,0.19,0.02L4.36,4.7c0.13,0.14,0.32,0.19,0.5,0.13l0.59-0.22
		c0.19-0.06,0.4,0,0.52,0.15l0.67,0.85C6.76,5.78,7.02,5.82,7.18,5.7l0.73-0.43c0.13-0.07,0.22-0.18,0.28-0.31L8.9,3.5
		C8.92,3.45,8.96,3.43,9,3.41C9.05,3.39,9.09,3.4,9.14,3.42c0.09,0.05,0.13,0.14,0.09,0.23L8.78,4.63C8.71,4.8,8.77,5,8.92,5.11
		l0.54,0.4c0,0.01,0,0.01,0,0.02c0,0.33,0.12,0.65,0.32,0.9H6.24L5.84,5.61z M3.94,7.17c0-0.19,0.15-0.34,0.34-0.34h7.49
		c0.19,0,0.34,0.15,0.34,0.34c0,0.19-0.15,0.34-0.34,0.34H4.28C4.09,7.51,3.94,7.36,3.94,7.17L3.94,7.17z M9.92,10.6v2H6.13v-2
		c0-1.05,0.85-1.89,1.89-1.89C9.07,8.7,9.92,9.55,9.92,10.6L9.92,10.6z M8.46,8.34C8.32,8.32,8.18,8.31,8.03,8.31
		c-0.14,0-0.29,0.02-0.43,0.05V7.92h0.86L8.46,8.34z"/>
</g>
</svg>
