<?xml version="1.0" encoding="UTF-8"?><svg id="Layer_1" xmlns="http://www.w3.org/2000/svg" viewBox="0 0 148 113"><defs><style>.cls-1{fill:none;stroke:#576600;stroke-linecap:round;stroke-linejoin:round;stroke-width:2px;}</style></defs><path class="cls-1" d="M63.89,76v6.07c0,.89-.5,1.7-1.29,2.1-.49.25-1.1.55-1.81.9-1.73.84-4.02,1.93-6.44,2.99-3.42,1.5-7.1,2.95-9.87,3.62-5.19,1.26-8.85,5.91-8.85,11.25v1.08"/><path class="cls-1" d="M112.38,104v-1.08c0-2.67-.92-5.17-2.48-7.16-1.57-1.99-3.78-3.46-6.38-4.09-4.92-1.19-12.76-4.87-16.81-6.85-.5-.25-.95-.47-1.32-.66-.79-.4-1.29-1.21-1.29-2.1v-6.07"/><path class="cls-1" d="M60.78,85.07c1.29,3.87,6.59,6.77,12.93,6.77s11.87-3.03,13.01-7.01"/><path class="cls-1" d="M68.69,68.17c1.41-.65,3.29-1.05,5.35-1.05s3.94.4,5.35,1.05"/><circle class="cls-1" cx="67.15" cy="53.01" r="3.49"/><circle class="cls-1" cx="80.93" cy="53.01" r="3.49"/><path class="cls-1" d="M53.61,49.89l-.37-.77c-.91-1.9-1.48-3.95-1.53-6.06,0-.13,0-.25,0-.38,0-6.21,3.87-12.03,10.08-14.22l.48-1.87c.5-1.96,1.56-3.68,2.98-5,1.43-1.32,3.22-2.24,5.21-2.58,1.25-.22,2.5-.32,3.75-.32,4.34,0,8.61,1.29,12.24,3.76,5.55,3.77,8.93,9.77,9.47,16.2"/><path class="cls-1" d="M69.51,40.15c.6.34,1.23.65,1.88.9,2.5.99,5.22,1.26,7.86.77l4.66-.85c.35-.06.71-.1,1.06-.1,2.06,0,4,1.08,5.07,2.89.54.91.82,1.95.82,3v.41s0,14.92,0,14.92c0,3.25-1.17,6.38-3.28,8.84l-3.25,3.77c-2.57,2.99-6.32,4.7-10.26,4.7h0c-3.94,0-7.69-1.72-10.26-4.7l-3.25-3.77c-2.12-2.46-3.28-5.6-3.28-8.84l-.04-4.5"/><polyline class="cls-1" points="101.85 9 95.84 13.11 99.54 15.51 93.98 20.02"/><polyline class="cls-1" points="118.55 39.83 111.39 38.48 112.31 42.8 105.19 42.06"/><polyline class="cls-1" points="112.61 74.36 108.5 68.35 106.1 72.05 101.58 66.49"/><polyline class="cls-1" points="46.15 9 52.16 13.11 48.46 15.51 54.02 20.02"/><polyline class="cls-1" points="29.45 39.83 36.61 38.48 35.69 42.8 42.81 42.06"/><polyline class="cls-1" points="35.39 74.36 39.5 68.35 41.9 72.05 46.42 66.49"/></svg>