<?xml version="1.0" encoding="UTF-8"?><svg id="Layer_1" xmlns="http://www.w3.org/2000/svg" viewBox="0 0 148 113"><defs><style>.cls-1{fill:none;stroke:#576600;stroke-linecap:round;stroke-linejoin:round;stroke-width:2px;}</style></defs><polyline class="cls-1" points="39.79 21.35 54.65 30.06 42.87 33.14 57.57 41.75"/><polyline class="cls-1" points="70.53 9 77.22 24.88 65.94 20.29 72.56 35.98"/><polyline class="cls-1" points="102.45 17.96 98.07 34.62 91.93 24.1 87.6 40.58"/><path class="cls-1" d="M99.07,73.66l-9.4-7.8-1.15-1.03c-1.73-1.97-1.89-4.97-.21-7.11,1.32-1.7,3.4-2.42,5.37-2.08.89.17,1.71.54,2.48,1.12l15.2,11.92c.42.33,2.37,2.12,2.73,4.71.02.23.03.46.02.69,0,4.61-5.22,7.62-10.58,10.92-5.65,3.47-11.46,6.04-11.46,6.04v12.97"/><circle class="cls-1" cx="73.92" cy="61.66" r="12.92" transform="translate(-17.69 32.1) rotate(-21.95)"/><path class="cls-1" d="M73.92,81.29c7.23-.05,11.22-2.04,15.11-3.69,5.75-2.13,10.04-3.94,10.04-3.94"/><path class="cls-1" d="M48.93,73.66l9.4-7.8,1.15-1.03c1.73-1.97,1.89-4.97.21-7.11-1.32-1.7-3.4-2.42-5.37-2.08-.89.17-1.71.54-2.48,1.12l-15.2,11.92c-.42.33-2.37,2.12-2.73,4.71-.02.23-.03.46-.02.69,0,4.61,5.22,7.62,10.58,10.92,5.65,3.47,11.46,6.04,11.46,6.04v12.97"/><path class="cls-1" d="M74.08,81.29c-7.23-.05-11.22-2.04-15.11-3.69-5.75-2.13-10.04-3.94-10.04-3.94"/></svg>