<?xml version="1.0" encoding="UTF-8"?><svg id="Layer_1" xmlns="http://www.w3.org/2000/svg" viewBox="0 0 148 113"><defs><style>.cls-1{fill:none;stroke:#576600;stroke-linecap:round;stroke-linejoin:round;stroke-width:2px;}</style></defs><line class="cls-1" x1="57.61" y1="21.61" x2="50.54" y2="20.87"/><line class="cls-1" x1="54.44" y1="17.7" x2="53.71" y2="24.78"/><polyline class="cls-1" points="50.13 104 50.13 82.09 26.87 82.09"/><path class="cls-1" d="M26.87,104v-46.78h0c2.39,0,4.32,1.94,4.32,4.32v2.76c0,6.19-.6,11.66-4.32,13.02v4.77"/><line class="cls-1" x1="50.13" y1="87.59" x2="26.87" y2="87.59"/><ellipse class="cls-1" cx="54.47" cy="47.09" rx="6.42" ry="6.2" transform="translate(-15.03 28.29) rotate(-25.71)"/><path class="cls-1" d="M47.37,64.26l5.8,5.89c2.52,2.03,6.1,1.24,6.92-1.66l2.16-7.5,1.78-6.24c.41-1.45-.25-3.08-1.66-3.64-1.62-.65-3.4.25-3.86,1.89l-2.87,9.97-4.48-6.97s-2.22-.88-3.68-2.58c-1.54-1.8-2.85-3.47-7.35-.02-.73.56-1.42,1.14-2.06,1.74-5.54,5.21-8.18,12.94-6.98,20.46.46,2.87,1.5,5.49,3.67,6.5"/><path class="cls-1" d="M50.13,82.09l9.63,18.11c.59,1.67,2.47,2.4,4.21,1.64.42-.19.8-.44,1.12-.74,1-.95,1.44-2.39,1-3.65l-8.91-19.64c-2.13-5.09-12.17-4.82-12.17-4.82l2.36-8.74"/><path class="cls-1" d="M94.82,31.16c.62,3.97,4.33,6.68,8.3,6.06,3.97-.62,6.68-4.33,6.06-8.3-.62-3.97-4.33-6.68-8.3-6.06-3.97.62-6.68,4.33-6.06,8.3Z"/><path class="cls-1" d="M103.41,45.96l-1.98,4.44-8.71-5.43c-1.68-1.05-3.89-.54-4.95,1.14-.73,1.17-.71,2.58-.07,3.7.29.5.69.92,1.22,1.25l11.86,7.11c1.13.71,3.85.31,5.21-1.5s4.45-8.9,4.45-8.9"/><path class="cls-1" d="M101.11,42.32c-.2-2.46,9.6-7.71,12.2-3.01,2.38,4.3,5.51,11.61,7.13,18.79,1.39,6.13,1.01,12.35-4.51,14.62l-.11,3.55v23.35c0,2.71-2.48,4.85-5.28,4.28-2.06-.41-3.47-2.32-3.47-4.41v-21.84c0-1.15-.07-2.29-.17-3.43l-.15-1.58c-.25-.84-.52-1.69-.81-2.53-.72-2.06-1.37-4.88-1.99-8.09"/><path class="cls-1" d="M80.5,31.55c4.14-2.37,6.73-5.76,6.73-9.53,0-7.19-9.45-13.02-21.11-13.02s-21.11,5.83-21.11,13.02,9.45,13.01,21.11,13.01c2.09,0,4.1-.19,6-.54"/><polyline class="cls-1" points="80.5 31.55 81.2 39.48 72.12 34.49"/><line class="cls-1" x1="65.2" y1="14.89" x2="64.16" y2="22.55"/><line class="cls-1" x1="77.23" y1="17.8" x2="71.09" y2="25.41"/><path class="cls-1" d="M63.51,26.59c0-.06.05-.1.1-.1s.1.05.1.1-.05.1-.1.1-.1-.05-.1-.1Z"/><path class="cls-1" d="M70.59,17.7c0-.06.05-.1.1-.1s.1.05.1.1-.05.1-.1.1-.1-.05-.1-.1Z"/><path class="cls-1" d="M77.84,24.49c0-.06.05-.1.1-.1s.1.05.1.1-.05.1-.1.1-.1-.05-.1-.1Z"/></svg>