<?xml version="1.0" encoding="UTF-8"?><svg id="Layer_1" xmlns="http://www.w3.org/2000/svg" viewBox="0 0 148 113"><defs><style>.cls-1{fill:none;stroke:#576600;stroke-linecap:round;stroke-linejoin:round;stroke-width:2px;}</style></defs><path class="cls-1" d="M50.56,95.55c.11-.38.17-.75.24-1.13.68-4.84-2.69-9.31-7.53-9.98-4.84-.68-9.31,2.69-9.98,7.53-.68,4.84,2.69,9.31,7.53,9.98,1.36.19,2.68.06,3.9-.33,1.02-.4,1.99-.9,1.99-.9"/><path class="cls-1" d="M58.56,95.43l-10.46-10.1c-1.91-2.66-.67-5.97,2.77-9.8,8.59-9.53,39.64-15.21,45.6,2.35,3.34,9.85-6.61,13.56-11.89,15.37h-.02"/><path class="cls-1" d="M71.74,95.49l.02.06c1.52,3.95-.56,8.23-4.18,8.25l-9.4.02-7.83.02c-1.83,0-3.58-1.92-3.77-3.89-.22-2.31,1.55-4.4,3.62-4.4l11.38-.15"/><path class="cls-1" d="M79.91,84.26c-2.67,2.84-7.65,7.24-7.65,13.75-.14,3.36,2.76,6,5.3,6h18.42c2.86.05,5.18-2.4,5.09-5.45-.07-2.86-2.44-5.08-5.14-5.14l-.37-.02-11.23-.14h-.02"/><line class="cls-1" x1="71.75" y1="95.55" x2="68.26" y2="87.1"/><path class="cls-1" d="M78.38,22.67c-.59,16.05,40.11,17.74,35.66,41.61-1.67,8.94-11.47,13.22-18.64,8.34-1.91-1.3-4.18-2.59-6.94-3.68-8.81-3.52-18.83-3.52-27.65,0-2.75,1.1-5.03,2.38-6.94,3.68-7.17,4.88-16.97.6-18.64-8.34-4.45-23.87,36.25-25.56,35.66-41.61-4.69-2.6-8.72-8.38-7.84-11.81,0,0,9.23,4.92,14.46,1.75,5.24-3.18,10.81-4.25,12.28-3.24-3.62,3.12-11.22,10.22-11.42,13.3Z"/><path class="cls-1" d="M78.38,22.67c-2.49,1.13-4.98,1.13-7.48,0,0,0-.11,11.76,6.37,15.62"/><path class="cls-1" d="M70.9,22.67s-10.21,1.66-10.96,6.02"/><line class="cls-1" x1="29.39" y1="83.95" x2="34.26" y2="80.4"/><line class="cls-1" x1="32.88" y1="72.33" x2="26.97" y2="70.91"/><line class="cls-1" x1="118.61" y1="83.95" x2="113.74" y2="80.4"/><line class="cls-1" x1="115.12" y1="72.33" x2="121.03" y2="70.91"/></svg>