<?xml version="1.0" encoding="UTF-8"?><svg id="Layer_1" xmlns="http://www.w3.org/2000/svg" viewBox="0 0 148 113"><defs><style>.cls-1{fill:none;stroke:#576600;stroke-linecap:round;stroke-linejoin:round;stroke-width:2px;}</style></defs><circle class="cls-1" cx="78.11" cy="55.89" r="8.36" transform="translate(-16.64 71.6) rotate(-45)"/><path class="cls-1" d="M73.44,59.78c2.53-.97,4.88-.64,7.05.99"/><path class="cls-1" d="M85.93,58.83c9.49,1.17,2.28,11.23,2.28,11.23"/><path class="cls-1" d="M85.45,73.57l-5.56,7.06c-.6.75-1.52,1.15-2.42,1.1-.53-.02-1.06-.2-1.53-.52l-7.41-5.17-7.11-4.95c-.1-.07-.19-.14-.28-.22-1.08-.97-1.29-2.61-.44-3.83.43-.6,1.04-1,1.72-1.15h0c.77-.2,1.62-.06,2.33.43l3.02,2.1h0s2.19,1.54,2.19,1.54h0s6.98,4.86,6.98,4.86l.07.05.05-.07h0"/><line class="cls-1" x1="67.77" y1="68.43" x2="67.77" y2="68.42"/><path class="cls-1" d="M70.07,58.18c-5.87-.51-6.7,4.89-7.66,7.7h0"/><path class="cls-1" d="M61.14,70.88l-.58,2.27c-.23.95.01,1.95.66,2.67.53.58,1.26.92,2.03.96.18,0,.37,0,.56-.02l4.72-.69"/><path class="cls-1" d="M76.94,74.82l.13-.02h0s8.37-1.23,8.37-1.23l.34-.05c1.58-.24,2.69-1.72,2.45-3.3,0-.05-.02-.11-.03-.16-.31-1.5-1.74-2.53-3.27-2.3l-2.63.39-12.34,1.81h0"/><path class="cls-1" d="M61.72,76.25l-6.46,13.64-1.5,3.17c-.87,1.84-.14,4.05,1.64,5,.06.02.13.07.19.09,1.9.91,4.19.09,5.09-1.82l.2-.4,4.77-10.06h0s.07-.17.07-.17"/><path class="cls-1" d="M69.87,76.99l-6.12,12.9-1.5,3.17c-.89,1.84-.14,4.05,1.64,5,.06.02.12.07.19.09,1.89.91,4.19.09,5.09-1.82l.19-.4,2.6-5.48,2.17-4.58h0s.07-.17.07-.17"/><line class="cls-1" x1="83.03" y1="86.89" x2="79.7" y2="80.85"/><path class="cls-1" d="M73.14,88s2.32,8.67,10.04,8.36c2.84-.11,5.61-1.18,7.58-3.23,6.47-6.77-2.15-17.51-.51-26.96"/><rect class="cls-1" x="42.3" y="34.27" width="65.65" height="69.73"/><polyline class="cls-1" points="75.46 9 73.48 18.63 79.29 14.8 77.33 24.32"/><polyline class="cls-1" points="117.06 12.93 111.38 20.94 118.23 19.78 112.61 27.71"/><polyline class="cls-1" points="125.48 50.08 117.32 55.56 124.14 56.9 116.07 62.32"/><polyline class="cls-1" points="30.6 14.47 34.36 23.55 37.02 17.13 40.74 26.11"/><polyline class="cls-1" points="22.52 52.74 29.45 59.71 29.47 52.76 36.32 59.66"/></svg>