<?xml version="1.0" encoding="UTF-8"?><svg id="Layer_1" xmlns="http://www.w3.org/2000/svg" viewBox="0 0 148 113"><defs><style>.cls-1{fill:none;stroke:#576600;stroke-linecap:round;stroke-linejoin:round;stroke-width:2px;}</style></defs><polyline class="cls-1" points="123.35 43.79 115.76 45.95 118.75 49.69 111.49 52.43"/><polyline class="cls-1" points="24.65 26.06 31.16 30.51 27.16 33.11 33.18 38.01"/><path class="cls-1" d="M43.03,60.66c.46,1.29.19,2.78-.82,3.82l-4.09,4.23c-1.29,1.34-.94,3.54.71,4.4l2.18,1.14c.49.26.7.85.48,1.36l-.99,2.31c-.25.59-.05,1.27.48,1.62h0c.52.35.73,1.01.5,1.59l-.39.98c-.24.6-.01,1.29.54,1.63l2.78,1.68c.45.26.65.81.46,1.3l-1.19,3.07c-.96,2.47,1.06,5.08,3.69,4.77l.92-.11c4.11-.48,8.02-2.02,11.34-4.48l4.76-3.51"/><path class="cls-1" d="M42.07,46.7c-.82,2.02-1.35,3.93-1.7,5.58"/><path class="cls-1" d="M101.68,45.85c-.85-2.7-2.14-5.31-3.94-7.68-8.58-11.3-23.32-10.71-26.88-10.57-3.51.14-14.83.61-23.56,10.57-.2.23-.4.47-.6.7"/><path class="cls-1" d="M101.68,64.79c.9-3.13,1.42-6.64,1.36-10.22"/><path class="cls-1" d="M56.26,92.41l1.19,1.35c2.12,2.4,2.74,5.78,1.6,8.77h0c-.27.71.25,1.47,1.02,1.47h27.81c3.16,0,5.23-3.31,3.84-6.16-1.65-3.36-2.71-7.25-2.12-11.36.93-6.49,5.26-8.55,8.86-14.31"/><path class="cls-1" d="M50.58,26.35c-6.32-.65-10.85.36-12.28,3.22-3.16,6.32,9.97,19.28,29.33,28.96,19.36,9.67,37.61,12.39,40.76,6.07,1.03-2.07.32-4.85-1.79-8"/><path class="cls-1" d="M77.4,57.37c20.02-2.97,35.16-10.39,34.34-17.07-.35-2.85-3.56-5.13-8.69-6.65"/><path class="cls-1" d="M37.34,43.71c-2.39,2.02-3.62,4.12-3.37,6.16.6,4.91,9.68,8.12,22.45,8.69"/><polyline class="cls-1" points="66.4 9 61.82 15.42 66.48 16.48 62.51 23.15"/><polyline class="cls-1" points="107.97 15.94 104.02 22.77 101.13 18.97 96.7 25.34"/></svg>