<?xml version="1.0" encoding="UTF-8"?><svg id="Layer_1" xmlns="http://www.w3.org/2000/svg" viewBox="0 0 148 113"><defs><style>.cls-1{fill:#576600;}</style></defs><path class="cls-1" d="M67.39,104c-3.36,0-6.09-2.63-6.22-5.99l-1.56-41.57c-.02-.51.38-.94.89-.96.51,0,.94.38.96.89l1.56,41.57c.09,2.36,2.01,4.21,4.37,4.21s4.37-1.96,4.37-4.37v-23.21c0-1.59,1.29-2.88,2.88-2.88.51,0,.93.41.93.93s-.41.93-.93.93c-.57,0-1.03.46-1.03,1.03v23.21c0,3.43-2.79,6.22-6.22,6.22Z"/><path class="cls-1" d="M81.9,104c-3.43,0-6.22-2.79-6.22-6.22v-23.21c0-.57-.46-1.03-1.03-1.03-.51,0-.93-.41-.93-.93s.41-.93.93-.93c1.59,0,2.88,1.29,2.88,2.88v23.21c0,2.41,1.96,4.37,4.37,4.37s4.28-1.85,4.37-4.21l1.58-42.19c.02-.51.46-.91.96-.89.51.02.91.45.89.96l-1.58,42.19c-.13,3.36-2.86,5.99-6.22,5.99Z"/><path class="cls-1" d="M73.61,31.28c-6.14,0-11.14-5-11.14-11.14s5-11.14,11.14-11.14,11.14,5,11.14,11.14-5,11.14-11.14,11.14ZM73.61,10.85c-5.12,0-9.29,4.17-9.29,9.29s4.17,9.29,9.29,9.29,9.29-4.17,9.29-9.29-4.17-9.29-9.29-9.29Z"/><path class="cls-1" d="M72.22,59.34c-.4,0-.8-.05-1.2-.14l-13.07-3.07c-4.16-.98-7.02-4.79-6.79-9.06l.63-11.6c.13-2.4,1.56-4.52,3.73-5.54l9.54-4.49c.46-.22,1.01-.02,1.23.44.22.46.02,1.01-.44,1.23l-9.54,4.49c-1.55.73-2.58,2.25-2.67,3.97l-.63,11.6c-.18,3.37,2.07,6.38,5.36,7.15l13.07,3.07c.88.21,1.78.05,2.54-.43.76-.48,1.29-1.23,1.47-2.12.37-1.74-.68-3.46-2.4-3.92l-9.77-2.62c-2.18-.58-3.59-2.64-3.36-4.88l.69-6.58c.05-.51.51-.88,1.02-.82.51.05.88.51.82,1.02l-.69,6.58c-.14,1.33.7,2.55,1.99,2.9l9.77,2.62c2.67.71,4.31,3.39,3.73,6.09-.29,1.37-1.11,2.54-2.29,3.29-.84.53-1.79.81-2.76.81Z"/><path class="cls-1" d="M74.28,51.1c-.37,0-.73-.23-.87-.6-.18-.48.06-1.01.54-1.19.16-.06.33-.12.5-.16l9.77-2.62c1.3-.35,2.13-1.57,2-2.9l-.69-6.58c-.05-.51.32-.96.82-1.02.51-.05.96.32,1.02.82l.69,6.58c.24,2.24-1.18,4.3-3.36,4.88l-9.77,2.62c-.11.03-.22.06-.32.1-.11.04-.22.06-.33.06Z"/><path class="cls-1" d="M75.78,59.34c-.63,0-1.26-.12-1.86-.35-.48-.18-.71-.72-.53-1.2.18-.48.72-.71,1.2-.53.62.24,1.3.29,1.96.13l13.07-3.07c3.29-.77,5.54-3.78,5.36-7.15l-.63-11.6c-.09-1.72-1.12-3.23-2.67-3.97l-9.54-4.49c-.46-.22-.66-.77-.44-1.23.22-.46.77-.66,1.23-.44l9.54,4.49c2.17,1.02,3.6,3.14,3.73,5.54l.63,11.6c.23,4.27-2.62,8.08-6.79,9.06l-13.07,3.07c-.39.09-.79.14-1.19.14Z"/><path class="cls-1" d="M48.47,34.15c-.33,0-.66-.18-.82-.5l-3.62-6.93c-.11-.22-.14-.48-.06-.71.08-.24.24-.43.47-.54l7.23-3.61c.46-.23,1.01-.04,1.24.41.23.46.04,1.01-.41,1.24l-6.39,3.19,3.18,6.1c.24.45.06,1.01-.39,1.25-.14.07-.28.1-.43.1Z"/><path class="cls-1" d="M47.5,45.25c-.26,0-.51-.11-.69-.31l-5.18-5.86c-.16-.19-.25-.43-.23-.68.02-.25.13-.48.32-.64l6.15-5.25c.39-.33.97-.29,1.31.1.33.39.29.97-.1,1.31l-5.43,4.64,4.55,5.15c.34.38.3.97-.08,1.31-.18.16-.39.23-.61.23Z"/><path class="cls-1" d="M47.5,56.68c-.22,0-.45-.08-.63-.25l-5.74-5.3c-.18-.17-.29-.4-.3-.65,0-.25.08-.49.26-.67l5.59-5.84c.35-.37.94-.38,1.31-.03.37.35.38.94.03,1.31l-4.94,5.16,5.05,4.66c.38.35.4.93.05,1.31-.18.2-.43.3-.68.3Z"/><path class="cls-1" d="M38.71,31.61c-.33,0-.66-.18-.82-.5l-3.62-6.93c-.11-.22-.14-.48-.06-.71.08-.24.24-.43.47-.54l7.23-3.61c.46-.23,1.01-.04,1.24.41.23.46.04,1.01-.41,1.24l-6.39,3.19,3.18,6.1c.24.45.06,1.01-.39,1.25-.14.07-.28.1-.43.1Z"/><path class="cls-1" d="M37.74,42.72c-.26,0-.51-.11-.69-.31l-5.18-5.86c-.16-.19-.25-.43-.23-.68.02-.25.13-.48.32-.64l6.15-5.25c.39-.33.97-.29,1.31.1.33.39.29.97-.1,1.31l-5.43,4.64,4.55,5.15c.34.38.3.97-.08,1.31-.18.16-.39.23-.61.23Z"/><path class="cls-1" d="M37.73,54.14c-.22,0-.45-.08-.63-.25l-5.74-5.3c-.18-.17-.29-.4-.3-.65s.08-.49.26-.67l5.59-5.84c.35-.37.94-.38,1.31-.03.37.35.38.94.03,1.31l-4.94,5.16,5.05,4.66c.38.35.4.93.05,1.31-.18.2-.43.3-.68.3Z"/><path class="cls-1" d="M99.53,36.69c-.14,0-.29-.03-.43-.1-.45-.24-.63-.8-.39-1.25l3.18-6.1-6.39-3.19c-.46-.23-.64-.78-.41-1.24.23-.46.78-.64,1.24-.41l7.23,3.61c.22.11.39.31.47.54.08.24.06.49-.06.71l-3.62,6.93c-.17.32-.49.5-.82.5Z"/><path class="cls-1" d="M100.5,47.79c-.22,0-.44-.08-.61-.23-.38-.34-.42-.92-.08-1.31l4.55-5.15-5.43-4.64c-.39-.33-.43-.92-.1-1.31.33-.39.92-.44,1.31-.1l6.15,5.25c.19.16.3.39.32.64.02.25-.07.49-.23.68l-5.18,5.86c-.18.21-.44.31-.69.31Z"/><path class="cls-1" d="M100.5,59.21c-.25,0-.5-.1-.68-.3-.35-.38-.32-.96.05-1.31l5.05-4.66-4.94-5.16c-.35-.37-.34-.96.03-1.31.37-.35.96-.34,1.31.03l5.59,5.84c.17.18.26.42.26.67,0,.25-.11.48-.3.65l-5.74,5.3c-.18.16-.4.25-.63.25Z"/><path class="cls-1" d="M109.29,34.15c-.14,0-.29-.03-.43-.1-.45-.24-.63-.8-.39-1.25l3.18-6.1-6.39-3.19c-.46-.23-.64-.78-.41-1.24.23-.46.78-.64,1.24-.41l7.23,3.61c.22.11.39.31.47.54.08.24.06.49-.06.71l-3.61,6.93c-.17.32-.49.5-.82.5Z"/><path class="cls-1" d="M110.27,45.25c-.22,0-.44-.08-.61-.23-.38-.34-.42-.92-.08-1.31l4.55-5.15-5.43-4.64c-.39-.33-.43-.92-.1-1.31.33-.39.92-.44,1.31-.1l6.15,5.25c.19.16.3.39.32.64.02.25-.07.49-.23.68l-5.18,5.86c-.18.21-.44.31-.69.31Z"/><path class="cls-1" d="M110.27,56.68c-.25,0-.5-.1-.68-.3-.35-.38-.32-.96.05-1.31l5.05-4.66-4.94-5.16c-.35-.37-.34-.96.03-1.31.37-.35.96-.34,1.31.03l5.59,5.84c.17.18.26.42.26.67,0,.25-.11.48-.3.65l-5.74,5.3c-.18.16-.4.25-.63.25Z"/></svg>