<?xml version="1.0" encoding="UTF-8"?><svg id="Layer_1" xmlns="http://www.w3.org/2000/svg" viewBox="0 0 60 60"><defs><style>.cls-1{fill:#9e1f63;}.cls-2{fill:none;stroke:#9e1f63;stroke-linecap:round;stroke-miterlimit:10;}</style></defs><path class="cls-2" d="M39.25,22.01c2.05,0,3.51-1.43,3.51-3.51v-1.76c0-2.08-1.47-3.51-3.51-3.51s-3.51,1.43-3.51,3.51v1.76c0,2.08,1.47,3.51,3.51,3.51Z"/><path class="cls-2" d="M39.25,24.65c4.39,0,7.9,2.37,7.9,5.27v7.9c0,.88,0,3.51-3.51,3.51"/><line class="cls-2" x1="43.64" y1="30.79" x2="43.64" y2="53.63"/><line class="cls-2" x1="39.25" y1="41.33" x2="39.25" y2="53.63"/><path class="cls-2" d="M39.25,24.65c-4.39,0-7.9,2.37-7.9,5.27v7.9c0,.88,0,3.51,3.51,3.51"/><line class="cls-2" x1="34.86" y1="30.79" x2="34.86" y2="53.63"/><path class="cls-2" d="M19.05,28.84c1.6,0,2.75-1.12,2.75-2.75v-1.38c0-1.63-1.15-2.75-2.75-2.75s-2.75,1.12-2.75,2.75v1.38c0,1.63,1.15,2.75,2.75,2.75Z"/><path class="cls-2" d="M19.05,30.9c3.44,0,6.2,1.86,6.2,4.13v6.2c0,.69,0,2.75-2.75,2.75"/><line class="cls-2" x1="22.49" y1="35.72" x2="22.49" y2="53.63"/><line class="cls-2" x1="19.05" y1="43.99" x2="19.05" y2="53.63"/><path class="cls-2" d="M19.05,30.9c-3.44,0-6.2,1.86-6.2,4.13v6.2c0,.69,0,2.75,2.75,2.75"/><line class="cls-2" x1="15.6" y1="35.72" x2="15.6" y2="53.63"/><path class="cls-2" d="M15.51,16.7s4.11-1.75,17.9-9.92"/><polygon class="cls-1" points="32.77 10.61 32.06 10.39 33.16 6.91 29.6 6.08 29.77 5.35 34.1 6.37 32.77 10.61"/></svg>