<?xml version="1.0" encoding="UTF-8"?><svg id="Layer_1" xmlns="http://www.w3.org/2000/svg" viewBox="0 0 60 60"><defs><style>.cls-1{fill:none;stroke:#9e1f63;stroke-miterlimit:10;}</style></defs><path class="cls-1" d="M30,10.31c.73-1.22,2.07-2.05,3.6-2.05,2.3,0,4.16,1.86,4.18,4.15"/><path class="cls-1" d="M36.53,12.82c.7-.33,1.48-.51,2.31-.51,3.01,0,5.45,2.44,5.45,5.45,0,1.02-.28,1.98-.77,2.8"/><path class="cls-1" d="M44.11,19.17c1.48.94,2.52,2.52,2.72,4.35"/><path class="cls-1" d="M44.61,25.8c2.6,1.24,4.39,3.89,4.39,6.96,0,4.25-3.45,7.7-7.7,7.7"/><path class="cls-1" d="M37.33,47.51c.51.14,1.05.22,1.6.22.31,0,.61-.02.9-.07,2.87-.44,5.07-2.91,5.07-5.9,0-.71-.12-1.39-.35-2.02"/><path class="cls-1" d="M30,49.85c1.05,1.16,2.56,1.89,4.25,1.89.96,0,1.86-.23,2.65-.65"/><line class="cls-1" x1="30" y1="10.31" x2="30" y2="49.85"/><path class="cls-1" d="M23.68,9.27c.73-.63,1.68-1.01,2.73-1.01,1.53,0,2.87.82,3.6,2.05"/><path class="cls-1" d="M23.47,12.82c-.7-.33-1.48-.51-2.31-.51-3.01,0-5.45,2.44-5.45,5.45,0,1.02.28,1.98.77,2.8"/><path class="cls-1" d="M13.77,26.85c-.4-.8-.63-1.71-.63-2.67,0-2.11,1.1-3.96,2.76-5.01"/><path class="cls-1" d="M15.39,25.8c-2.6,1.24-4.39,3.89-4.39,6.96,0,4.25,3.45,7.7,7.7,7.7"/><path class="cls-1" d="M15.2,42.86c.46,2.48,2.46,4.43,4.97,4.81.29.04.59.07.9.07.56,0,1.09-.08,1.6-.22"/><path class="cls-1" d="M20.27,47.68c.71,2.35,2.9,4.06,5.48,4.06,1.69,0,3.2-.73,4.25-1.89"/><path class="cls-1" d="M35.92,17.99c.96,1.48,2.94,1.91,4.42.95"/><path class="cls-1" d="M36.55,34.27c1.61-.74,2.3-2.64,1.56-4.25"/><path class="cls-1" d="M36.9,42.3c-1.71.46-2.72,2.21-2.26,3.92"/><path class="cls-1" d="M22.22,18.4c0-1.61,1.3-2.91,2.91-2.91"/><path class="cls-1" d="M19.03,30.5c1.59.22,2.7,1.69,2.48,3.28"/><path class="cls-1" d="M23.47,41.34c1.59.22,2.7,1.69,2.48,3.28"/></svg>