<?xml version="1.0" encoding="UTF-8"?><svg id="Layer_1" xmlns="http://www.w3.org/2000/svg" viewBox="0 0 60 60"><defs><style>.cls-1{fill:none;stroke:#9e1f63;stroke-miterlimit:10;}</style></defs><polyline class="cls-1" points="45.97 20.18 45.97 11.48 14.03 11.48 14.03 20.18"/><polyline class="cls-1" points="17.1 17.5 14.03 20.18 10.95 17.5"/><polyline class="cls-1" points="49.05 17.5 45.97 20.18 42.9 17.5"/><path class="cls-1" d="M27.67,38.41v.45c0,.8-.4,1.55-1.07,1.99h0c-.3.2-.62.36-.95.49-.42.16-.86.25-1.31.28l-.46.03-.66.04c-2.51.17-4.45,2.25-4.45,4.76v1.28"/><path class="cls-1" d="M33.09,38.41v.45c0,.8.4,1.55,1.07,1.99h0c.3.2.62.36.95.49.42.16.86.25,1.31.28l.46.03.66.04c2.51.17,4.45,2.25,4.45,4.76v2.06"/><path class="cls-1" d="M25.86,35.51c.88,2.29,2.6,3.85,4.57,3.85s3.69-1.55,4.57-3.85"/><path class="cls-1" d="M24.35,33.69c-.22-.74-.52-2.11-.17-3.72.06-.26,1-4.29,4.47-5.16,1.85-.46,3.98.09,5.3,1.49.37.4.62.79.77,1.09.03.01.08.04.15.09,1.11.78,1.74,2.12,1.65,3.51-.04.73-.17,1.87-.17,2.32"/><polyline class="cls-1" points="11.58 29.89 13.24 31.54 16.47 27.36"/><circle class="cls-1" cx="14.03" cy="29.45" r="6.21"/><line class="cls-1" x1="43.65" y1="27.13" x2="48.29" y2="31.77"/><line class="cls-1" x1="48.29" y1="27.13" x2="43.65" y2="31.77"/><circle class="cls-1" cx="45.97" cy="29.45" r="6.21"/></svg>