<?xml version="1.0" encoding="UTF-8"?><svg id="Layer_1" xmlns="http://www.w3.org/2000/svg" viewBox="0 0 60 60"><defs><style>.cls-1{fill:none;stroke:#9e1f63;stroke-miterlimit:10;}</style></defs><path class="cls-1" d="M44.3,25.31v8.53h0c0,3.68-6.1,6.67-13.62,6.67s-13.62-2.99-13.62-6.67v-8.14"/><path class="cls-1" d="M12.71,37.53c-.08,5.87,2.99,8.93-1.03,12.65l-3.68-2.73c2.6-1.5,4.63-5.01,4.71-9.92"/><path class="cls-1" d="M13.12,31.81c.06-3.24-.45-6.59.48-8.63l-4.02-1.81c-.78-.35-.87-1.63-.18-1.96l19.91-9.39c.69-.33,1.69-.23,2.49.14l19.55,9.11c.8.37.85,1.65.18,1.96l-19.91,9.39c-.68.32-1.7.23-2.49-.14l-15.53-7.3,16.63-3.43"/><path class="cls-1" d="M12.97,32.52c1.13,0,2.05.92,2.05,2.05s-.92,2.05-2.05,2.05-2.05-.92-2.05-2.05.92-2.05,2.05-2.05h0Z"/></svg>